<?xml version="1.0" encoding="utf-8"?>
<!-- Generator: Adobe Illustrator 23.1.0, SVG Export Plug-In . SVG Version: 6.00 Build 0)  -->
<svg version="1.1" id="Layer_8" xmlns="http://www.w3.org/2000/svg" xmlns:xlink="http://www.w3.org/1999/xlink" x="0px" y="0px"
	 viewBox="0 0 121 110.3" style="enable-background:new 0 0 121 110.3;" xml:space="preserve">
<style type="text/css">
	.st0{fill:#030400;}
	.st1{fill:url(#SVGID_1_);}
	.st2{fill:url(#SVGID_2_);}
	.st3{fill:url(#SVGID_3_);}
	.st4{fill:#859DAF;}
	.st5{fill:#BFA992;}
	.st6{fill:#EDDECB;}
</style>
<g>
	<g>
		<path class="st0" d="M12.5,110.3h72.9c19.6,0,35.6-15.9,35.6-35.6V55c0-14-11.3-25.3-25.3-25.3H12.5C5.6,29.7,0,35.3,0,42.2v55.6
			C0,104.7,5.6,110.3,12.5,110.3z"/>
		
			<linearGradient id="SVGID_1_" gradientUnits="userSpaceOnUse" x1="-451.892" y1="-348.9601" x2="-338.212" y2="-348.9601" gradientTransform="matrix(-1 0 0 1 -333.922 420)">
			<stop  offset="0" style="stop-color:#211D14"/>
			<stop  offset="0.1313" style="stop-color:#181510"/>
			<stop  offset="0.8015" style="stop-color:#433B30"/>
			<stop  offset="1" style="stop-color:#070604"/>
		</linearGradient>
		<path class="st1" d="M16.8,110.3h65.1c19.9,0,36.1-16.2,36.1-36.1v-17c0-14.1-11.5-25.6-25.6-25.6H16.8c-6.9,0-12.5,5.6-12.5,12.5
			v53.6C4.3,104.7,9.9,110.3,16.8,110.3z"/>
		
			<linearGradient id="SVGID_2_" gradientUnits="userSpaceOnUse" x1="-451.892" y1="-346.1052" x2="-338.212" y2="-346.1052" gradientTransform="matrix(-1 0 0 1 -333.922 420)">
			<stop  offset="0" style="stop-color:#665744"/>
			<stop  offset="0.359" style="stop-color:#645542"/>
			<stop  offset="0.5592" style="stop-color:#5C4E3D"/>
			<stop  offset="0.7203" style="stop-color:#4E4234"/>
			<stop  offset="0.8598" style="stop-color:#3A3128"/>
			<stop  offset="0.9855" style="stop-color:#211C17"/>
			<stop  offset="0.9948" style="stop-color:#1F1A16"/>
		</linearGradient>
		<path class="st2" d="M16.8,110.3h66.3c19.2,0,34.8-15.6,34.8-34.8v-5.8c0-17.8-14.5-32.3-32.3-32.3H16.8C9.9,37.4,4.3,43.1,4.3,50
			v47.8C4.3,104.7,9.9,110.3,16.8,110.3z"/>
		
			<linearGradient id="SVGID_3_" gradientUnits="userSpaceOnUse" x1="-451.892" y1="-343.6801" x2="-338.202" y2="-343.6801" gradientTransform="matrix(-1 0 0 1 -333.922 420)">
			<stop  offset="0" style="stop-color:#120D09"/>
			<stop  offset="0.2622" style="stop-color:#1F1A16"/>
			<stop  offset="0.5" style="stop-color:#241F1B"/>
			<stop  offset="0.7779" style="stop-color:#221D19"/>
			<stop  offset="0.9049" style="stop-color:#1A1613"/>
			<stop  offset="1" style="stop-color:#0E0A09"/>
		</linearGradient>
		<path class="st3" d="M20.9,110.3h61c19.9,0,36.1-16.2,36.1-36.1l0,0c0-17.6-14.3-31.9-31.9-31.9H20.9c-9.2,0-16.6,7.4-16.6,16.6
			v34.8C4.3,102.9,11.7,110.3,20.9,110.3z"/>
	</g>
	<g>
		<path class="st4" d="M25.1,20.2h-4.8l-1.4-4.7h-6.1l-1.4,4.7H7.5l6.3-19.9h5L25.1,20.2z M15.9,4.9l-2.2,7.3H18L15.9,4.9z"/>
		<path class="st4" d="M39.9,13.4L39.9,13.4c-0.2-1-0.3-2-0.3-2.6V0.3h3.8v19.9h-4L31.7,7.1l-0.8-1.6h-0.1c0.3,1.4,0.3,2.2,0.3,2.9
			v11.8h-3.8V0.3h4.8L39.9,13.4z"/>
		<path class="st4" d="M58.3,6C58.2,5.5,58,5,57.3,4.4c-0.9-0.7-1.8-0.9-2.8-0.9c-2.3,0-2.8,1.2-2.8,2c0,1.5,1.9,1.9,2.6,2l2.5,0.6
			c1.5,0.3,2.9,0.7,4.2,1.7c1,0.8,2.1,2.2,2.1,4.3c0,2.3-1.3,3.8-2.3,4.7c-1.5,1.1-3.5,1.7-5.9,1.7c-5.5,0-8-3-8.7-5.8l4.3-0.8
			c0.4,1,1.1,2,1.9,2.5c0.9,0.6,1.9,0.6,2.6,0.6c2.9,0,3.3-1.5,3.3-2.2c0-1.8-2.1-2.3-2.7-2.4l-2.6-0.6c-1.1-0.2-2.8-0.9-3.7-1.6
			c-1-0.8-2.1-2-2.1-4.2C47,2.9,49.3,0,54.7,0c1.7,0,3.3,0.3,4.7,1.1c1.9,1.2,2.6,2.8,3,3.7L58.3,6z"/>
	</g>
	<g>
		<g>
			<path class="st5" d="M113.4,12.7l0,7.7l-30.5-0.1l0-7.7l2.5,0l0,3.5l25.4,0.1l0-3.5H113.4z"/>
		</g>
	</g>
	<path class="st6" d="M49.1,55.8c-5.3,8-6.1,15.8-6.1,20.3c0,4.3,0.7,11.9,6.2,20.6h-4.9c-2.2-2.9-3.8-5.9-5-8.8
		c-1.5-3.7-2.5-7.5-2.5-11.5c0-4.6,1.1-9.6,3.2-14c1.3-2.5,2.7-4.7,4.2-6.5L49.1,55.8L49.1,55.8L49.1,55.8z"/>
	<path class="st6" d="M65,77.3H51.9v-6.6H65V77.3z"/>
	<path class="st6" d="M73,55.8c1.5,1.8,3,3.9,4.2,6.5c2.2,4.5,3.2,9.4,3.2,14c0,4-0.9,7.8-2.5,11.5c-1.2,2.9-2.8,5.9-5,8.8h-4.9
		c5.5-8.6,6.2-16.2,6.2-20.6c0-4.5-0.8-12.3-6.1-20.3L73,55.8L73,55.8L73,55.8z"/>
</g>
</svg>
