<?xml version="1.0" encoding="utf-8"?>
<!-- Generator: Adobe Illustrator 23.0.4, SVG Export Plug-In . SVG Version: 6.00 Build 0)  -->
<svg version="1.1" id="Layer_8" xmlns="http://www.w3.org/2000/svg" xmlns:xlink="http://www.w3.org/1999/xlink" x="0px" y="0px"
	 viewBox="0 0 188 150" style="enable-background:new 0 0 188 150;" xml:space="preserve">
<style type="text/css">
	.st0{fill:#030400;}
	.st1{fill:url(#SVGID_1_);}
	.st2{fill:url(#SVGID_2_);}
	.st3{fill:url(#SVGID_3_);}
	.st4{fill:#859DAF;}
	.st5{fill:#BFA992;}
	.st6{fill:#EDDECB;}
</style>
<g>
	<g>
		<path class="st0" d="M146.2,146.4H41.8c-22.9,0-41.7-18.7-41.7-41.7V84.2c0-22.9,18.7-41.7,41.7-41.7h104.6
			c22.9,0,41.7,18.7,41.7,41.7v20.7C187.9,127.7,169.1,146.4,146.2,146.4z"/>
		
			<linearGradient id="SVGID_1_" gradientUnits="userSpaceOnUse" x1="2.352" y1="474.7249" x2="184.1998" y2="474.7249" gradientTransform="matrix(1 0 0 -1 0 569.6)">
			<stop  offset="0" style="stop-color:#211D14"/>
			<stop  offset="2.810000e-02" style="stop-color:#383429"/>
			<stop  offset="3.700000e-02" style="stop-color:#2C2920"/>
			<stop  offset="5.190000e-02" style="stop-color:#211D17"/>
			<stop  offset="7.290000e-02" style="stop-color:#1A1711"/>
			<stop  offset="0.1313" style="stop-color:#181510"/>
			<stop  offset="0.4854" style="stop-color:#1F1E1A"/>
			<stop  offset="0.8981" style="stop-color:#423A2D"/>
			<stop  offset="0.9331" style="stop-color:#443C2E"/>
			<stop  offset="0.9468" style="stop-color:#4B4233"/>
			<stop  offset="0.9567" style="stop-color:#574D3C"/>
			<stop  offset="0.96" style="stop-color:#5D5240"/>
			<stop  offset="0.9855" style="stop-color:#332D22"/>
			<stop  offset="1" style="stop-color:#211D14"/>
		</linearGradient>
		<path class="st1" d="M142.5,143.4H44c-22.9,0-41.7-18.7-41.7-41.7V88C2.4,65,21.1,46.3,44,46.3h98.5c22.9,0,41.7,18.7,41.7,41.7
			v13.8C184.1,124.7,165.3,143.4,142.5,143.4z"/>
		
			<linearGradient id="SVGID_2_" gradientUnits="userSpaceOnUse" x1="3.7595" y1="471.2765" x2="181.8071" y2="471.2765" gradientTransform="matrix(1 0 0 -1 0 569.6)">
			<stop  offset="0" style="stop-color:#7C7563"/>
			<stop  offset="0.9845" style="stop-color:#383226"/>
		</linearGradient>
		<path class="st2" d="M140.1,143.4H45.4c-22.9,0-41.7-18.7-41.7-41.7v-6.9c0-22.9,18.7-41.7,41.7-41.7h94.7
			c22.9,0,41.7,18.7,41.7,41.7v6.9C181.8,124.7,163.1,143.4,140.1,143.4z"/>
		
			<linearGradient id="SVGID_3_" gradientUnits="userSpaceOnUse" x1="3.7595" y1="465.6465" x2="181.8071" y2="465.6465" gradientTransform="matrix(1 0 0 -1 0 569.6)">
			<stop  offset="0" style="stop-color:#665A4A"/>
			<stop  offset="9.099999e-02" style="stop-color:#6D6251"/>
			<stop  offset="0.311" style="stop-color:#78705F"/>
			<stop  offset="0.5" style="stop-color:#7C7563"/>
			<stop  offset="0.7691" style="stop-color:#7A7361"/>
			<stop  offset="0.8921" style="stop-color:#746B59"/>
			<stop  offset="0.9853" style="stop-color:#695F4D"/>
			<stop  offset="1" style="stop-color:#675C4A"/>
		</linearGradient>
		<path class="st3" d="M140.1,149.1H45.4c-22.9,0-41.7-18.7-41.7-41.7v-6.9c0-22.9,18.7-41.7,41.7-41.7h94.7
			c22.9,0,41.7,18.7,41.7,41.7v6.9C181.8,130.3,163.1,149.1,140.1,149.1z"/>
	</g>
	<g>
		<path class="st4" d="M77.5,8.2H76c-1.1,0-1.7,0.3-1.8,0.6c-0.4,0.4-0.4,1.5-0.4,2.1v6.5c0,1-0.1,2.1-0.8,3.1
			c-0.7,0.8-2.1,1.7-3.4,2v0.1c1.3,0.3,2.7,1.1,3.4,2c0.7,1,0.8,2.1,0.8,3.1v6.8c0,0.6,0,1.5,0.4,2.1C74.4,36.7,75,37,76,37h1.5v3.1
			h-3c-1,0-3-0.1-4.4-1.4c-1.4-1.3-1.4-2.7-1.4-3.9v-7.9c0-0.8-0.1-1.4-0.8-2.1c-0.7-0.6-1.4-0.8-2.3-0.8H65v-3.1h0.7
			c0.7,0,1.5-0.3,2.3-0.8c0.7-0.7,0.8-1.1,0.8-2.1v-7.6c0-1.3,0-2.7,1.4-3.9c1.4-1.4,3.4-1.4,4.4-1.4h3V8.2z"/>
		<path class="st5" d="M113.4,5.1c1.8,0,4.6,0,6.8,1.8c1.4,1.1,2.3,3,2.3,5.2c0,1.7-0.7,3.2-1.5,4.2c-0.7,0.8-2.1,1.7-3.2,2v0.1
			c1.1,0.3,2.3,0.7,3.2,1.4c1.1,1,2.3,2.7,2.3,5.3c0,3-1.3,4.8-2.4,5.8c-2.1,1.8-4.8,2.1-6.9,2.1h-13.4v-28H113.4L113.4,5.1z
			 M107.1,16.3h4.5c1.3,0,2.4,0,3.4-1c0.7-0.7,1-1.4,1-2.3s-0.1-1.8-1.1-2.4c-0.8-0.6-2.1-0.7-3.2-0.7h-4.5V16.3L107.1,16.3z
			 M107.1,28.2h5.2c0.8,0,2.1-0.1,3.1-0.8c1-0.7,1.1-1.8,1.1-2.7c0-0.7-0.1-1.7-1-2.4c-1-1-2.4-1.1-3.5-1.1h-4.9V28.2L107.1,28.2z"
			/>
	</g>
	<path class="st6" d="M101.3,78c-4.4,6.3-6.5,13.2-6.5,20.8c0,7.3,2.1,14.2,6.5,20.8h-6.8c-5.2-6.8-7.7-13.7-7.7-21
		c0-7.7,2.7-14.6,7.7-20.7C94.5,78,101.3,78,101.3,78z"/>
</g>
</svg>
