<?xml version="1.0" encoding="utf-8"?>
<!-- Generator: Adobe Illustrator 23.0.4, SVG Export Plug-In . SVG Version: 6.00 Build 0)  -->
<svg version="1.1" id="Layer_8" xmlns="http://www.w3.org/2000/svg" xmlns:xlink="http://www.w3.org/1999/xlink" x="0px" y="0px"
	 viewBox="0 0 188 150" style="enable-background:new 0 0 188 150;" xml:space="preserve">
<style type="text/css">
	.st0{fill:#030400;}
	.st1{fill:url(#SVGID_1_);}
	.st2{fill:url(#SVGID_2_);}
	.st3{fill:url(#SVGID_3_);}
	.st4{fill:#859DAF;}
	.st5{fill:#BFA992;}
	.st6{fill:#EDDECB;}
</style>
<g>
	<g>
		<path class="st0" d="M145.1,146.1H42.9c-22.5,0-40.8-18.3-40.8-40.8V85.2c0-22.5,18.3-40.8,40.8-40.8h102.4
			c22.5,0,40.8,18.3,40.8,40.8v20.3C185.9,127.8,167.6,146.1,145.1,146.1z"/>
		
			<linearGradient id="SVGID_1_" gradientUnits="userSpaceOnUse" x1="4.4002" y1="473.6906" x2="182.3216" y2="473.6906" gradientTransform="matrix(1 0 0 -1 0 569.4)">
			<stop  offset="0" style="stop-color:#211D14"/>
			<stop  offset="2.810000e-02" style="stop-color:#383429"/>
			<stop  offset="3.700000e-02" style="stop-color:#2C2920"/>
			<stop  offset="5.190000e-02" style="stop-color:#211D17"/>
			<stop  offset="7.290000e-02" style="stop-color:#1A1711"/>
			<stop  offset="0.1313" style="stop-color:#181510"/>
			<stop  offset="0.4854" style="stop-color:#1F1E1A"/>
			<stop  offset="0.8981" style="stop-color:#423A2D"/>
			<stop  offset="0.9331" style="stop-color:#443C2E"/>
			<stop  offset="0.9468" style="stop-color:#4B4233"/>
			<stop  offset="0.9567" style="stop-color:#574D3C"/>
			<stop  offset="0.96" style="stop-color:#5D5240"/>
			<stop  offset="0.9855" style="stop-color:#332D22"/>
			<stop  offset="1" style="stop-color:#211D14"/>
		</linearGradient>
		<path class="st1" d="M141.5,143.2H45.1c-22.3,0-40.7-18.3-40.7-40.8V88.9c0-22.3,18.3-40.7,40.7-40.7h96.5
			c22.5,0,40.8,18.3,40.8,40.8v13.4C182.2,124.9,163.9,143.2,141.5,143.2z"/>
		
			<linearGradient id="SVGID_2_" gradientUnits="userSpaceOnUse" x1="5.6405" y1="470.3829" x2="179.9788" y2="470.3829" gradientTransform="matrix(1 0 0 -1 0 569.4)">
			<stop  offset="0" style="stop-color:#7C7563"/>
			<stop  offset="0.9845" style="stop-color:#383226"/>
		</linearGradient>
		<path class="st2" d="M139.2,143.2H46.4c-22.5,0-40.8-18.3-40.8-40.8v-6.8c0-22.5,18.3-40.8,40.8-40.8h92.8
			c22.5,0,40.8,18.3,40.8,40.8v6.8C180,124.9,161.6,143.2,139.2,143.2z"/>
		
			<linearGradient id="SVGID_3_" gradientUnits="userSpaceOnUse" x1="5.6405" y1="464.8703" x2="179.9788" y2="464.8703" gradientTransform="matrix(1 0 0 -1 0 569.4)">
			<stop  offset="0" style="stop-color:#665A4A"/>
			<stop  offset="9.099999e-02" style="stop-color:#6D6251"/>
			<stop  offset="0.311" style="stop-color:#78705F"/>
			<stop  offset="0.5" style="stop-color:#7C7563"/>
			<stop  offset="0.7691" style="stop-color:#7A7361"/>
			<stop  offset="0.8921" style="stop-color:#746B59"/>
			<stop  offset="0.9853" style="stop-color:#695F4D"/>
			<stop  offset="1" style="stop-color:#675C4A"/>
		</linearGradient>
		<path class="st3" d="M139.2,148.7H46.4c-22.5,0-40.8-18.3-40.8-40.8v-6.8c0-22.5,18.3-40.8,40.8-40.8h92.8
			c22.5,0,40.8,18.3,40.8,40.8v6.8C180,130.4,161.6,148.7,139.2,148.7z"/>
	</g>
	<g>
		<path class="st4" d="M69.7,7.6c1,0,2.9,0.1,4.3,1.4s1.4,2.6,1.4,3.9v7.4c0,0.8,0.1,1.4,0.8,2.1c0.7,0.6,1.4,0.8,2.2,0.8h0.7v3
			h-0.7c-0.7,0-1.5,0.3-2.2,0.8c-0.7,0.7-0.8,1.1-0.8,2.1v7.7c0,1.2,0,2.6-1.4,3.9C72.6,42,70.7,42,69.7,42h-2.9v-3h1.5
			c1.1,0,1.7-0.3,1.8-0.6c0.4-0.4,0.4-1.5,0.4-2.1v-6.6c0-1,0.1-2.1,0.8-3c0.7-0.8,2.1-1.7,3.3-1.9v-0.1c-1.2-0.3-2.6-1.1-3.3-1.9
			c-0.7-1-0.8-2.1-0.8-3v-6.5c0-0.6,0-1.5-0.4-2.1c-0.3-0.3-0.8-0.6-1.8-0.6h-1.5v-3H69.7L69.7,7.6z"/>
		<path class="st5" d="M118.5,17.8c-0.1-1.1-0.4-2.3-1-3.3c-0.8-1.7-2.1-2.3-3.9-2.3c-2.1,0-3.4,1-4.5,3.2c-0.7,1.5-1,3.4-1,6.1
			c0,2.8,0.3,4.7,1,6.2c1.2,2.6,3.2,3.2,4.5,3.2c1.4,0,2.8-0.4,3.9-1.9c0.7-1.1,1.1-2.6,1.2-3.7l5.9,0.6c-0.3,3-1.8,5.5-3.3,6.9
			c-1.5,1.5-4,3-7.7,3c-5.8,0-9-3.4-10.3-5.8s-2.1-5.7-2.1-8.4c0-4.7,1.7-8.5,4-10.9c2.9-2.9,6.3-3.2,8.4-3.2c2.1,0,5.4,0.4,7.9,2.9
			c0.6,0.4,2.8,2.9,3.2,7L118.5,17.8z"/>
	</g>
	<path class="st6" d="M84.9,119.9c4.3-6.2,6.3-13,6.3-20.4c0-7.2-2.1-13.9-6.3-20.4h6.6c5.1,6.6,7.6,13.4,7.6,20.5
		c0,7.6-2.6,14.3-7.6,20.3L84.9,119.9L84.9,119.9z"/>
</g>
</svg>
