<?xml version="1.0" encoding="utf-8"?>
<!-- Generator: Adobe Illustrator 23.0.4, SVG Export Plug-In . SVG Version: 6.00 Build 0)  -->
<svg version="1.1" id="Layer_8" xmlns="http://www.w3.org/2000/svg" xmlns:xlink="http://www.w3.org/1999/xlink" x="0px" y="0px"
	 viewBox="0 0 188 150" style="enable-background:new 0 0 188 150;" xml:space="preserve">
<style type="text/css">
	.st0{fill:#030400;}
	.st1{fill:url(#SVGID_1_);}
	.st2{fill:url(#SVGID_2_);}
	.st3{fill:url(#SVGID_3_);}
	.st4{fill:#859DAF;}
	.st5{fill:#BFA992;}
	.st6{fill:#EDDECB;}
</style>
<g>
	<g>
		<path class="st0" d="M146.2,146.8H41.8c-22.9,0-41.7-18.7-41.7-41.7V84.6C0.1,61.7,18.8,43,41.8,43h104.6
			c22.9,0,41.7,18.7,41.7,41.7v20.7C187.9,128.1,169.1,146.8,146.2,146.8z"/>
		
			<linearGradient id="SVGID_1_" gradientUnits="userSpaceOnUse" x1="2.4927" y1="475.0175" x2="184.1998" y2="475.0175" gradientTransform="matrix(1 0 0 -1 0 570.4)">
			<stop  offset="0" style="stop-color:#211D14"/>
			<stop  offset="2.810000e-02" style="stop-color:#383429"/>
			<stop  offset="3.700000e-02" style="stop-color:#2C2920"/>
			<stop  offset="5.190000e-02" style="stop-color:#211D17"/>
			<stop  offset="7.290000e-02" style="stop-color:#1A1711"/>
			<stop  offset="0.1313" style="stop-color:#181510"/>
			<stop  offset="0.4854" style="stop-color:#1F1E1A"/>
			<stop  offset="0.8981" style="stop-color:#423A2D"/>
			<stop  offset="0.9331" style="stop-color:#443C2E"/>
			<stop  offset="0.9468" style="stop-color:#4B4233"/>
			<stop  offset="0.9567" style="stop-color:#574D3C"/>
			<stop  offset="0.96" style="stop-color:#5D5240"/>
			<stop  offset="0.9855" style="stop-color:#332D22"/>
			<stop  offset="1" style="stop-color:#211D14"/>
		</linearGradient>
		<path class="st1" d="M142.5,143.9H44c-22.8,0-41.5-18.7-41.5-41.7V88.4c0-22.8,18.7-41.5,41.5-41.5h98.5
			c22.9,0,41.7,18.7,41.7,41.7v13.7C184.1,125.2,165.3,143.9,142.5,143.9z"/>
		
			<linearGradient id="SVGID_2_" gradientUnits="userSpaceOnUse" x1="3.7595" y1="471.6395" x2="181.8071" y2="471.6395" gradientTransform="matrix(1 0 0 -1 0 570.4)">
			<stop  offset="0" style="stop-color:#7C7563"/>
			<stop  offset="0.9845" style="stop-color:#383226"/>
		</linearGradient>
		<path class="st2" d="M140.1,143.9H45.4c-22.9,0-41.7-18.7-41.7-41.7v-6.9c0-22.9,18.7-41.7,41.7-41.7h94.7
			c22.9,0,41.7,18.7,41.7,41.7v6.9C181.8,125.2,163.1,143.9,140.1,143.9z"/>
		
			<linearGradient id="SVGID_3_" gradientUnits="userSpaceOnUse" x1="3.7595" y1="466.0096" x2="181.8071" y2="466.0096" gradientTransform="matrix(1 0 0 -1 0 570.4)">
			<stop  offset="0" style="stop-color:#665A4A"/>
			<stop  offset="9.099999e-02" style="stop-color:#6D6251"/>
			<stop  offset="0.311" style="stop-color:#78705F"/>
			<stop  offset="0.5" style="stop-color:#7C7563"/>
			<stop  offset="0.7691" style="stop-color:#7A7361"/>
			<stop  offset="0.8921" style="stop-color:#746B59"/>
			<stop  offset="0.9853" style="stop-color:#695F4D"/>
			<stop  offset="1" style="stop-color:#675C4A"/>
		</linearGradient>
		<path class="st3" d="M140.1,149.5H45.4c-22.9,0-41.7-18.7-41.7-41.7v-6.9c0-22.9,18.7-41.7,41.7-41.7h94.7
			c22.9,0,41.7,18.7,41.7,41.7v6.9C181.8,130.8,163.1,149.5,140.1,149.5z"/>
	</g>
	<g>
		<path class="st4" d="M33.5,17.2c0-1.1-0.3-2.3-1-3.4c-1-1.7-2.1-2.4-4.1-2.4c-2.1,0-3.5,1-4.6,3.2c-0.7,1.7-1,3.5-1,6.2
			c0,2.8,0.3,4.8,1,6.3c1.3,2.7,3.2,3.2,4.6,3.2c1.4,0,2.8-0.4,3.9-2c0.7-1.1,1.1-2.7,1.3-3.8l6.1,0.6c-0.3,3.1-1.8,5.6-3.2,7
			c-1.5,1.5-4.1,3.1-7.9,3.1c-5.9,0-9.1-3.5-10.6-5.9c-1.4-2.4-2.1-5.8-2.1-8.6c0-4.8,1.7-8.7,4.1-11.1c3-3,6.3-3.2,8.6-3.2
			c2.1,0,5.5,0.4,8,3c0.4,0.4,2.8,3,3.2,7.2L33.5,17.2z"/>
		<path class="st4" d="M66,34.9h-6.5V23.1h-9.1v11.8h-6.6v-28h6.5v11h9.1v-11h6.5v28H66z"/>
		<path class="st4" d="M93.6,34.9h-6.8l-2-6.6h-8.6l-2,6.6h-5.5l8.9-28h7L93.6,34.9z M80.5,13.4l-3.1,10.3h6.1L80.5,13.4z"/>
		<path class="st4" d="M109.3,6.9c3.2,0,5.9,0.8,7.3,2.3c1.4,1.1,2.5,3.2,2.5,5.9c0,3.7-2,6.3-4.9,7.6l5.5,12.2h-7.2l-4.5-11h-4.8
			v11h-6.5v-28H109.3z M103.1,19h4.8c1.3,0,2.5,0,3.5-1.1c0.8-0.6,1.3-1.5,1.3-2.5c0-1.1-0.4-2.1-1.1-2.7c-1-0.8-2.7-0.8-3.4-0.8
			h-4.9L103.1,19L103.1,19z"/>
		<path class="st5" d="M150,6.9v17.9c0,1.7,0,3.1,1,4.2c0.8,1.1,2.3,1.4,3.8,1.4c1.1,0,2.5-0.3,3.5-1.4c1.1-1.3,1.1-2.7,1.1-4.4V6.9
			h5.3v17.9c0,2.1,0,5.3-2.7,7.9c-1.1,1.1-3.5,2.7-7.7,2.7c-3.8,0-6.3-0.8-8-2.4c-2.4-2.1-2.8-4.8-2.8-7.9V6.9H150z"/>
	</g>
	<path class="st6" d="M110.2,105.2c-4.4,0-7.6,0-9.7,0c0,4.4,0,7.6,0,9.7c-4.4,0-7.6,0-9.7,0c0-4.4,0-7.6,0-9.7c-4.4,0-7.6,0-9.7,0
		c0-2.1,0-4.1,0-5.6c0-1.7,0-3,0-4.1c4.4,0,7.6,0,9.7,0c0-4.4,0-7.6,0-9.7c4.4,0,7.6,0,9.7,0c0,4.4,0,7.6,0,9.7c4.4,0,7.6,0,9.7,0
		C110.2,99.8,110.2,102.9,110.2,105.2z"/>
</g>
</svg>
