<?xml version="1.0" encoding="utf-8"?>
<!-- Generator: Adobe Illustrator 23.1.0, SVG Export Plug-In . SVG Version: 6.00 Build 0)  -->
<svg version="1.1" id="Layer_8" xmlns="http://www.w3.org/2000/svg" xmlns:xlink="http://www.w3.org/1999/xlink" x="0px" y="0px"
	 viewBox="0 0 121 109.8" style="enable-background:new 0 0 121 109.8;" xml:space="preserve">
<style type="text/css">
	.st0{fill:#030400;}
	.st1{fill:url(#SVGID_1_);}
	.st2{fill:url(#SVGID_2_);}
	.st3{fill:url(#SVGID_3_);}
	.st4{fill:#859DAF;}
	.st5{fill:#BFA992;}
	.st6{fill:#EDDECB;}
</style>
<g>
	<g>
		<path class="st0" d="M108.5,109.8H35.6C15.9,109.8,0,93.9,0,74.3V54.5c0-14,11.3-25.3,25.3-25.3h83.2c6.9,0,12.5,5.6,12.5,12.5
			v55.6C121,104.2,115.4,109.8,108.5,109.8z"/>
		
			<linearGradient id="SVGID_1_" gradientUnits="userSpaceOnUse" x1="3.04" y1="-349.45" x2="116.72" y2="-349.45" gradientTransform="matrix(1 0 0 1 0 420)">
			<stop  offset="0" style="stop-color:#211D14"/>
			<stop  offset="0.1313" style="stop-color:#181510"/>
			<stop  offset="0.8015" style="stop-color:#433B30"/>
			<stop  offset="1" style="stop-color:#070604"/>
		</linearGradient>
		<path class="st1" d="M104.2,109.8H39.1C19.2,109.8,3,93.7,3,73.8v-17c0-14.1,11.4-25.6,25.6-25.6h75.6c6.9,0,12.5,5.6,12.5,12.5
			v53.6C116.7,104.2,111.1,109.8,104.2,109.8z"/>
		
			<linearGradient id="SVGID_2_" gradientUnits="userSpaceOnUse" x1="3.04" y1="-346.5951" x2="116.72" y2="-346.5951" gradientTransform="matrix(1 0 0 1 0 420)">
			<stop  offset="0" style="stop-color:#665744"/>
			<stop  offset="0.359" style="stop-color:#645542"/>
			<stop  offset="0.5592" style="stop-color:#5C4E3D"/>
			<stop  offset="0.7203" style="stop-color:#4E4234"/>
			<stop  offset="0.8598" style="stop-color:#3A3128"/>
			<stop  offset="0.9855" style="stop-color:#211C17"/>
			<stop  offset="0.9948" style="stop-color:#1F1A16"/>
		</linearGradient>
		<path class="st2" d="M104.2,109.8H37.9C18.6,109.8,3,94.3,3,75v-5.8C3,51.4,17.5,37,35.4,37h68.9c6.9,0,12.5,5.6,12.5,12.5v47.8
			C116.7,104.2,111.1,109.8,104.2,109.8z"/>
		
			<linearGradient id="SVGID_3_" gradientUnits="userSpaceOnUse" x1="3.03" y1="-344.17" x2="116.72" y2="-344.17" gradientTransform="matrix(1 0 0 1 0 420)">
			<stop  offset="0" style="stop-color:#120D09"/>
			<stop  offset="0.2622" style="stop-color:#1F1A16"/>
			<stop  offset="0.5" style="stop-color:#241F1B"/>
			<stop  offset="0.7779" style="stop-color:#221D19"/>
			<stop  offset="0.9049" style="stop-color:#1A1613"/>
			<stop  offset="1" style="stop-color:#0E0A09"/>
		</linearGradient>
		<path class="st3" d="M100.1,109.8h-61C19.2,109.8,3,93.7,3,73.8l0,0C3,56.1,17.3,41.8,35,41.8h65.1c9.2,0,16.6,7.4,16.6,16.6v34.8
			C116.7,102.4,109.3,109.8,100.1,109.8z"/>
	</g>
	<g>
		<path class="st4" d="M51,15.3v3.6l-14.5-5.8V9.9L51,4.1v3.6l-9.8,3.8L51,15.3z"/>
		<path class="st5" d="M77.8,0l4.5,14.2L86.8,0h3.9l-6.5,19.9h-4.8L72.9,0H77.8z"/>
	</g>
	<path class="st6" d="M50.1,60.8c2-2.9,5.8-5.8,11.3-5.8s9.2,2.9,11.3,5.8C75,64.2,76,69.4,76,74.5c0,16.3-9.1,19.3-14.6,19.3
		s-14.6-3-14.6-19.3C46.8,69.4,47.8,64.2,50.1,60.8z M57.3,85.3c1,1.4,2.4,2,4.1,2s3-0.7,4.1-2c0.7-1,2.3-3.5,2.3-10.8
		c0-2.8,0-8.8-2.4-11.5c-1-1.1-2.3-1.7-4-1.7s-3,0.6-4,1.7c-2.3,2.6-2.4,8.7-2.4,11.5C55,81.8,56.6,84.3,57.3,85.3z"/>
</g>
</svg>
