<?xml version="1.0" encoding="utf-8"?>
<!-- Generator: Adobe Illustrator 23.1.0, SVG Export Plug-In . SVG Version: 6.00 Build 0)  -->
<svg version="1.1" id="Layer_8" xmlns="http://www.w3.org/2000/svg" xmlns:xlink="http://www.w3.org/1999/xlink" x="0px" y="0px"
	 viewBox="0 0 121 110.7" style="enable-background:new 0 0 121 110.7;" xml:space="preserve">
<style type="text/css">
	.st0{fill:#030400;}
	.st1{fill:url(#SVGID_1_);}
	.st2{fill:url(#SVGID_2_);}
	.st3{fill:url(#SVGID_3_);}
	.st4{fill:#BFA992;}
	.st5{fill:#859DAF;}
	.st6{fill:#EDDECB;}
</style>
<g>
	<g>
		<path class="st0" d="M108.5,110.7H35.6C15.9,110.7,0,94.7,0,75.1V55.3C0,41.4,11.3,30,25.3,30h83.2c6.9,0,12.5,5.6,12.5,12.5v55.6
			C121,105,115.4,110.7,108.5,110.7z"/>
		
			<linearGradient id="SVGID_1_" gradientUnits="userSpaceOnUse" x1="3.04" y1="-348.65" x2="116.72" y2="-348.65" gradientTransform="matrix(1 0 0 1 0 420)">
			<stop  offset="0" style="stop-color:#211D14"/>
			<stop  offset="0.1313" style="stop-color:#181510"/>
			<stop  offset="0.8015" style="stop-color:#433B30"/>
			<stop  offset="1" style="stop-color:#070604"/>
		</linearGradient>
		<path class="st1" d="M104.2,110.7H39.1C19.2,110.7,3,94.5,3,74.6v-17C3,43.5,14.5,32,28.6,32h75.6c6.9,0,12.5,5.6,12.5,12.5v53.6
			C116.7,105,111.1,110.7,104.2,110.7z"/>
		
			<linearGradient id="SVGID_2_" gradientUnits="userSpaceOnUse" x1="3.04" y1="-345.795" x2="116.72" y2="-345.795" gradientTransform="matrix(1 0 0 1 0 420)">
			<stop  offset="0" style="stop-color:#665744"/>
			<stop  offset="0.359" style="stop-color:#645542"/>
			<stop  offset="0.5592" style="stop-color:#5C4E3D"/>
			<stop  offset="0.7203" style="stop-color:#4E4234"/>
			<stop  offset="0.8598" style="stop-color:#3A3128"/>
			<stop  offset="0.9855" style="stop-color:#211C17"/>
			<stop  offset="0.9948" style="stop-color:#1F1A16"/>
		</linearGradient>
		<path class="st2" d="M104.2,110.7H37.9C18.6,110.7,3,95.1,3,75.8v-5.8c0-17.8,14.5-32.3,32.3-32.3h68.9c6.9,0,12.5,5.6,12.5,12.5
			v47.8C116.7,105,111.1,110.7,104.2,110.7z"/>
		
			<linearGradient id="SVGID_3_" gradientUnits="userSpaceOnUse" x1="3.03" y1="-343.37" x2="116.72" y2="-343.37" gradientTransform="matrix(1 0 0 1 0 420)">
			<stop  offset="0" style="stop-color:#120D09"/>
			<stop  offset="0.2622" style="stop-color:#1F1A16"/>
			<stop  offset="0.5" style="stop-color:#241F1B"/>
			<stop  offset="0.7779" style="stop-color:#221D19"/>
			<stop  offset="0.9049" style="stop-color:#1A1613"/>
			<stop  offset="1" style="stop-color:#0E0A09"/>
		</linearGradient>
		<path class="st3" d="M100.1,110.7h-61C19.2,110.7,3,94.5,3,74.6l0,0C3,56.9,17.3,42.6,35,42.6h65.1c9.2,0,16.6,7.4,16.6,16.6v34.8
			C116.7,103.2,109.3,110.7,100.1,110.7z"/>
	</g>
	<g>
		<path class="st4" d="M88.7,24c-0.8,0.2-1.5,0.2-2.4,0.2c-1.4,0-2.8-0.2-3.9-1.5c-0.5-0.7-0.9-1.6-1-2.4c-0.4,0.1-0.8,0.1-1.2,0.1
			c-2.5,0-4.6-0.9-6-2.2c-1.9-1.8-3-4.6-3-8c0-3.8,1.4-6.6,3.2-8.2c1.9-1.7,4.1-2,5.8-2s3.9,0.3,5.8,2c1.8,1.6,3.2,4.4,3.2,8.2
			c0,3.7-1.4,7.4-4.6,9.2c0,0.2,0.1,0.5,0.5,0.8c0.5,0.4,1,0.5,1.6,0.5c0.6,0,1.7-0.2,1.9-0.2L88.7,24L88.7,24z M77.4,15.2
			c0.5,0.9,1.5,1.8,2.9,1.8c1.4,0,2.4-0.9,2.9-1.8c0.4-0.7,1-2.1,1-5c0-3-0.7-4.3-1-5c-0.8-1.3-1.9-1.7-2.9-1.7s-2.1,0.4-2.9,1.7
			c-0.4,0.6-1,2-1,5S77,14.6,77.4,15.2z"/>
	</g>
	<g>
		<path class="st5" d="M39.1,18.2c1.2-4.3,3.4-10,4.9-12.4l2.9-0.3c-1.1,3-2.5,8.4-3.1,12.2L39.1,18.2z M46.8,18.2
			c1.2-4.3,3.4-10,4.9-12.4l2.9-0.3c-1.1,3-2.5,8.4-3.1,12.2L46.8,18.2z"/>
	</g>
	<path class="st6" d="M66.2,87h9.5v7H47.7v-7h10.1V65.8c-4.5,2.9-6.4,4-9.1,4.9v-7c2.1-0.7,4.2-1.7,6.3-2.9c1.9-1.2,3.4-2.4,4.9-4.5
		h6.3L66.2,87L66.2,87L66.2,87z"/>
</g>
</svg>
