<?xml version="1.0" encoding="utf-8"?>
<!-- Generator: Adobe Illustrator 23.1.0, SVG Export Plug-In . SVG Version: 6.00 Build 0)  -->
<svg version="1.1" id="Layer_8" xmlns="http://www.w3.org/2000/svg" xmlns:xlink="http://www.w3.org/1999/xlink" x="0px" y="0px"
	 viewBox="0 0 121 110.8" style="enable-background:new 0 0 121 110.8;" xml:space="preserve">
<style type="text/css">
	.st0{fill:#030400;}
	.st1{fill:url(#SVGID_1_);}
	.st2{fill:url(#SVGID_2_);}
	.st3{fill:url(#SVGID_3_);}
	.st4{fill:#859DAF;}
	.st5{fill:#BFA992;}
	.st6{fill:#EDDECB;}
</style>
<g>
	<g>
		<path class="st0" d="M108.5,110.8h-96C5.6,110.8,0,105.2,0,98.3V42.7c0-6.9,5.6-12.5,12.5-12.5h96c6.9,0,12.5,5.6,12.5,12.5v55.6
			C121,105.2,115.4,110.8,108.5,110.8z"/>
		
			<linearGradient id="SVGID_1_" gradientUnits="userSpaceOnUse" x1="3.03" y1="-348.5" x2="116.71" y2="-348.5" gradientTransform="matrix(1 0 0 1 0 420)">
			<stop  offset="0" style="stop-color:#211D14"/>
			<stop  offset="0.1313" style="stop-color:#181510"/>
			<stop  offset="0.8015" style="stop-color:#433B30"/>
			<stop  offset="1" style="stop-color:#070604"/>
		</linearGradient>
		<path class="st1" d="M104.2,110.8H15.5C8.6,110.8,3,105.2,3,98.3V44.7c0-6.9,5.6-12.5,12.5-12.5h88.6c6.9,0,12.5,5.6,12.5,12.5
			v53.6C116.7,105.2,111.1,110.8,104.2,110.8z"/>
		
			<linearGradient id="SVGID_2_" gradientUnits="userSpaceOnUse" x1="3.03" y1="-345.64" x2="116.71" y2="-345.64" gradientTransform="matrix(1 0 0 1 0 420)">
			<stop  offset="0" style="stop-color:#665744"/>
			<stop  offset="0.359" style="stop-color:#645542"/>
			<stop  offset="0.5592" style="stop-color:#5C4E3D"/>
			<stop  offset="0.7203" style="stop-color:#4E4234"/>
			<stop  offset="0.8598" style="stop-color:#3A3128"/>
			<stop  offset="0.9855" style="stop-color:#211C17"/>
			<stop  offset="0.9948" style="stop-color:#1F1A16"/>
		</linearGradient>
		<path class="st2" d="M104.2,110.8H15.5C8.6,110.8,3,105.2,3,98.3V50.4c0-6.9,5.6-12.5,12.5-12.5h88.6c6.9,0,12.5,5.6,12.5,12.5
			v47.8C116.7,105.2,111.1,110.8,104.2,110.8z"/>
		
			<linearGradient id="SVGID_3_" gradientUnits="userSpaceOnUse" x1="3.03" y1="-343.22" x2="116.71" y2="-343.22" gradientTransform="matrix(1 0 0 1 0 420)">
			<stop  offset="0" style="stop-color:#120D09"/>
			<stop  offset="0.2622" style="stop-color:#1F1A16"/>
			<stop  offset="0.5" style="stop-color:#241F1B"/>
			<stop  offset="0.7779" style="stop-color:#221D19"/>
			<stop  offset="0.9049" style="stop-color:#1A1613"/>
			<stop  offset="1" style="stop-color:#0E0A09"/>
		</linearGradient>
		<path class="st3" d="M104.2,110.8H15.5C8.6,110.8,3,105.2,3,98.3v-43c0-6.9,5.6-12.5,12.5-12.5h88.6c6.9,0,12.5,5.6,12.5,12.5v43
			C116.7,105.2,111.1,110.8,104.2,110.8z"/>
	</g>
	<g>
		<path class="st4" d="M35.1,0H38l5.2,21.5h-3L35.1,0z"/>
		<path class="st5" d="M74.4,1.2c2.3,0,4.1,0.6,5.2,1.6c1,0.8,1.8,2.3,1.8,4.2c0,2.6-1.4,4.5-3.5,5.4l3.9,8.7h-5.1l-3.2-7.8h-3.4
			v7.8h-4.6V1.2H74.4z M70.1,9.8h3.4c0.9,0,1.8,0,2.5-0.8c0.5-0.4,0.8-1.1,0.8-1.9c0-0.8-0.4-1.5-0.8-1.9c-0.7-0.6-1.9-0.6-2.4-0.6
			h-3.5L70.1,9.8L70.1,9.8z"/>
	</g>
	<path class="st6" d="M46.3,68.2c0.3-2.3,1.2-4.8,2.8-6.9c1.8-2.5,5.4-5.4,11.8-5.4c3.4,0,6.7,0.8,9.5,3c3.1,2.6,4.1,5.9,4.1,8.8
		c0,6.1-4.8,10.1-6.3,11.2l-10.7,8.2h17.1l-0.3,7H46.3v-6.8l13.9-10.6c2.4-1.9,5.7-5.1,5.7-8.8c0-1.4-0.5-3-1.6-4
		c-1-0.9-2.4-1.5-4-1.5c-2.7,0-4.4,1.6-5.2,3c-0.8,1.4-1.1,3.3-1.2,4.3L46.3,68.2z"/>
</g>
</svg>
