<?xml version="1.0" encoding="utf-8"?>
<!-- Generator: Adobe Illustrator 23.1.0, SVG Export Plug-In . SVG Version: 6.00 Build 0)  -->
<svg version="1.1" id="Layer_8" xmlns="http://www.w3.org/2000/svg" xmlns:xlink="http://www.w3.org/1999/xlink" x="0px" y="0px"
	 viewBox="0 0 133.4 106.2" style="enable-background:new 0 0 133.4 106.2;" xml:space="preserve">
<style type="text/css">
	.st0{fill:#030400;}
	.st1{fill:url(#SVGID_1_);}
	.st2{fill:url(#SVGID_2_);}
	.st3{fill:url(#SVGID_3_);}
	.st4{fill:#C6BB8D;}
	.st5{fill:#EDDECB;}
</style>
<g>
	<g>
		<path class="st0" d="M103.8,104.3H29.6C13.3,104.3,0,91,0,74.7V60.1c0-16.3,13.3-29.6,29.6-29.6h74.3c16.3,0,29.6,13.3,29.6,29.6
			v14.6C133.4,91,120.1,104.3,103.8,104.3z"/>
		
			<linearGradient id="SVGID_1_" gradientUnits="userSpaceOnUse" x1="1.66" y1="-352.225" x2="130.75" y2="-352.225" gradientTransform="matrix(1 0 0 1 0 420)">
			<stop  offset="0" style="stop-color:#708899"/>
			<stop  offset="2.810000e-02" style="stop-color:#758B9B"/>
			<stop  offset="3.070000e-02" style="stop-color:#6F8493"/>
			<stop  offset="3.950000e-02" style="stop-color:#60717D"/>
			<stop  offset="5.000000e-02" style="stop-color:#54636C"/>
			<stop  offset="6.290000e-02" style="stop-color:#4C5861"/>
			<stop  offset="8.100000e-02" style="stop-color:#47535A"/>
			<stop  offset="0.1313" style="stop-color:#465158"/>
			<stop  offset="0.4854" style="stop-color:#627684"/>
			<stop  offset="0.8981" style="stop-color:#9BB0C2"/>
			<stop  offset="0.9545" style="stop-color:#9AAFC0"/>
			<stop  offset="0.96" style="stop-color:#9AAEBF"/>
			<stop  offset="0.9668" style="stop-color:#8D9FAF"/>
			<stop  offset="0.989" style="stop-color:#65747F"/>
			<stop  offset="1" style="stop-color:#56636D"/>
		</linearGradient>
		<path class="st1" d="M101.2,102.2h-70C15,102.2,1.7,88.9,1.7,72.7v-9.8c0-16.3,13.3-29.6,29.6-29.6h70c16.3,0,29.6,13.3,29.6,29.6
			v9.8C130.7,88.9,117.4,102.2,101.2,102.2z"/>
		
			<linearGradient id="SVGID_2_" gradientUnits="userSpaceOnUse" x1="2.64" y1="-349.805" x2="129.1" y2="-349.805" gradientTransform="matrix(1 0 0 1 0 420)">
			<stop  offset="0" style="stop-color:#AFCBE0"/>
			<stop  offset="0.3164" style="stop-color:#ADC9DE"/>
			<stop  offset="0.4929" style="stop-color:#A7C1D6"/>
			<stop  offset="0.635" style="stop-color:#9BB5C8"/>
			<stop  offset="0.7587" style="stop-color:#8CA3B4"/>
			<stop  offset="0.8705" style="stop-color:#778C9B"/>
			<stop  offset="0.9723" style="stop-color:#5E707C"/>
			<stop  offset="0.9948" style="stop-color:#586974"/>
		</linearGradient>
		<path class="st2" d="M99.5,102.2H32.2c-16.3,0-29.6-13.3-29.6-29.6v-4.9c0-16.3,13.3-29.6,29.6-29.6h67.3
			c16.3,0,29.6,13.3,29.6,29.6v4.9C129.1,88.9,115.8,102.2,99.5,102.2z"/>
		
			<linearGradient id="SVGID_3_" gradientUnits="userSpaceOnUse" x1="2.64" y1="-345.805" x2="129.1" y2="-345.805" gradientTransform="matrix(1 0 0 1 0 420)">
			<stop  offset="0" style="stop-color:#7F898A"/>
			<stop  offset="4.340000e-02" style="stop-color:#88959B"/>
			<stop  offset="0.1102" style="stop-color:#91A2AE"/>
			<stop  offset="0.188" style="stop-color:#98ACBC"/>
			<stop  offset="0.2859" style="stop-color:#9CB1C4"/>
			<stop  offset="0.4691" style="stop-color:#9DB3C6"/>
			<stop  offset="0.6771" style="stop-color:#9CB1C4"/>
			<stop  offset="0.7931" style="stop-color:#98ACBC"/>
			<stop  offset="0.8865" style="stop-color:#92A3AE"/>
			<stop  offset="0.9673" style="stop-color:#8A969A"/>
			<stop  offset="1" style="stop-color:#858F90"/>
		</linearGradient>
		<path class="st3" d="M99.5,106.2H32.2c-16.3,0-29.6-13.3-29.6-29.6v-4.9c0-16.3,13.3-29.6,29.6-29.6h67.3
			c16.3,0,29.6,13.3,29.6,29.6v4.9C129.1,92.9,115.8,106.2,99.5,106.2z"/>
	</g>
	<g>
		<path class="st4" d="M53.5,7.6c-0.1-0.8-0.3-1.6-0.7-2.4c-0.7-1.2-1.5-1.7-2.9-1.7c-1.5,0-2.6,0.7-3.3,2.3
			C46.2,6.9,46,8.3,46,10.1c0,2,0.2,3.4,0.7,4.5c0.9,1.9,2.3,2.3,3.3,2.3c1,0,2-0.3,2.8-1.4c0.6-0.8,0.8-1.9,0.9-2.7l4.3,0.4
			c-0.2,2.2-1.3,3.9-2.3,5c-1.1,1.1-2.9,2.2-5.6,2.2c-4.2,0-6.5-2.5-7.5-4.2c-1-1.7-1.4-4.1-1.4-6.1c0-3.4,1.2-6.2,2.9-7.9
			C46,0.2,48.4,0,50,0c1.5,0,3.9,0.4,5.7,2.1c0.3,0.4,2,2.1,2.3,5.1L53.5,7.6z"/>
		<path class="st4" d="M65.3,0.3v12.6c0,1.2,0,2.2,0.7,3.1c0.6,0.8,1.6,1,2.7,1c0.8,0,1.8-0.2,2.6-1c0.8-0.9,0.8-1.9,0.8-3.1V0.3
			h3.8V13c0,1.5,0,3.8-1.9,5.6c-0.8,0.8-2.6,1.9-5.5,1.9c-2.7,0-4.5-0.6-5.7-1.7c-1.7-1.5-2-3.4-2-5.6V0.3L65.3,0.3L65.3,0.3z"/>
		<path class="st4" d="M91.7,0.3v3.6H87v16.2h-4.6V3.9h-4.7V0.3H91.7z"/>
	</g>
	<path class="st5" d="M56.8,79.5l-0.3,4.4H43.7v-4.6c4.2-4.4,8-7.8,8-12.7c0-0.4,0-2.4-1.7-2.4c-1.4,0-2.1,1.4-2.2,4.4l-4.1-0.9
		c0.5-6.7,4.4-7.6,6.6-7.6c1.4,0,6.3,0.4,6.3,6.6c0,5.1-3.3,8.1-8,12.8L56.8,79.5L56.8,79.5z"/>
	<path class="st5" d="M59.5,60.6h4.7L68,71.3c0.3,0.9,0.9,3.4,1.1,4.6c-0.2-2.3-0.4-5.2-0.4-7.1v-8.2h3.9v23.3h-3.9l-4.4-11.9
		c-0.5-1.3-0.8-2.4-1.4-4.8c0.1,1,0.4,5.6,0.4,6.9v9.8h-3.9C59.5,83.9,59.5,60.6,59.5,60.6z"/>
	<path class="st5" d="M76.3,60.6h4.5c2.9,0,6,0.2,8,3c0.9,1.2,2,3.5,2,8.5c0,2.5-0.2,5.9-2,8.6c-0.8,1.3-2.5,3.2-6.1,3.2h-6.3
		L76.3,60.6L76.3,60.6z M82.4,79.8c0.7,0,1.6,0,2.4-0.9c0.4-0.5,0.9-1.8,0.9-6.9c0-1.6-0.1-5.5-1.3-6.6c-0.6-0.6-1.5-0.6-2-0.6H81
		v15.1L82.4,79.8L82.4,79.8z"/>
</g>
</svg>
