<?xml version="1.0" encoding="utf-8"?>
<!-- Generator: Adobe Illustrator 23.1.0, SVG Export Plug-In . SVG Version: 6.00 Build 0)  -->
<svg version="1.1" id="Layer_8" xmlns="http://www.w3.org/2000/svg" xmlns:xlink="http://www.w3.org/1999/xlink" x="0px" y="0px"
	 viewBox="0 0 121 110.8" style="enable-background:new 0 0 121 110.8;" xml:space="preserve">
<style type="text/css">
	.st0{fill:#030400;}
	.st1{fill:url(#SVGID_1_);}
	.st2{fill:url(#SVGID_2_);}
	.st3{fill:url(#SVGID_3_);}
	.st4{fill:#859DAF;}
	.st5{fill:#BFA992;}
	.st6{fill:#EDDECB;}
</style>
<g>
	<g>
		<path class="st0" d="M12.5,110.8h72.9c19.6,0,35.6-15.9,35.6-35.6V55.4c0-14-11.3-25.3-25.3-25.3H12.5C5.6,30.1,0,35.7,0,42.6
			v55.6C0,105.1,5.6,110.8,12.5,110.8z"/>
		
			<linearGradient id="SVGID_1_" gradientUnits="userSpaceOnUse" x1="-451.892" y1="-348.55" x2="-338.212" y2="-348.55" gradientTransform="matrix(-1 0 0 1 -333.922 420)">
			<stop  offset="0" style="stop-color:#211D14"/>
			<stop  offset="0.1313" style="stop-color:#181510"/>
			<stop  offset="0.8015" style="stop-color:#433B30"/>
			<stop  offset="1" style="stop-color:#070604"/>
		</linearGradient>
		<path class="st1" d="M16.8,110.8h65.1c19.9,0,36.1-16.2,36.1-36.1v-17c0-14.1-11.5-25.6-25.6-25.6H16.8c-6.9,0-12.5,5.6-12.5,12.5
			v53.6C4.3,105.1,9.9,110.8,16.8,110.8z"/>
		
			<linearGradient id="SVGID_2_" gradientUnits="userSpaceOnUse" x1="-451.892" y1="-345.6949" x2="-338.212" y2="-345.6949" gradientTransform="matrix(-1 0 0 1 -333.922 420)">
			<stop  offset="0" style="stop-color:#665744"/>
			<stop  offset="0.359" style="stop-color:#645542"/>
			<stop  offset="0.5592" style="stop-color:#5C4E3D"/>
			<stop  offset="0.7203" style="stop-color:#4E4234"/>
			<stop  offset="0.8598" style="stop-color:#3A3128"/>
			<stop  offset="0.9855" style="stop-color:#211C17"/>
			<stop  offset="0.9948" style="stop-color:#1F1A16"/>
		</linearGradient>
		<path class="st2" d="M16.8,110.8h66.3c19.2,0,34.8-15.6,34.8-34.8v-5.8c0-17.8-14.5-32.3-32.3-32.3H16.8
			c-6.9,0-12.5,5.6-12.5,12.5v47.8C4.3,105.1,9.9,110.8,16.8,110.8z"/>
		
			<linearGradient id="SVGID_3_" gradientUnits="userSpaceOnUse" x1="-451.892" y1="-343.2699" x2="-338.202" y2="-343.2699" gradientTransform="matrix(-1 0 0 1 -333.922 420)">
			<stop  offset="0" style="stop-color:#120D09"/>
			<stop  offset="0.2622" style="stop-color:#1F1A16"/>
			<stop  offset="0.5" style="stop-color:#241F1B"/>
			<stop  offset="0.7779" style="stop-color:#221D19"/>
			<stop  offset="0.9049" style="stop-color:#1A1613"/>
			<stop  offset="1" style="stop-color:#0E0A09"/>
		</linearGradient>
		<path class="st3" d="M20.9,110.8h61c19.9,0,36.1-16.2,36.1-36.1l0,0C118,57,103.7,42.7,86,42.7H20.9c-9.2,0-16.6,7.4-16.6,16.6
			v34.8C4.3,103.3,11.7,110.8,20.9,110.8z"/>
	</g>
	<g>
		<path class="st4" d="M12.4,0.3v12.7c0,1.2,0,2.2,0.7,3c0.6,0.8,1.6,1,2.7,1c0.8,0,1.8-0.2,2.5-1c0.8-0.9,0.8-1.9,0.8-3.1V0.3h3.8
			V13c0,1.5,0,3.8-1.9,5.6c-0.8,0.8-2.5,1.9-5.5,1.9c-2.7,0-4.5-0.6-5.7-1.7c-1.7-1.5-2-3.4-2-5.6V0.3H12.4z"/>
		<path class="st4" d="M39.2,13.4L39.2,13.4c-0.2-1-0.3-2-0.3-2.5V0.3h3.8v19.9h-4L31,7.1l-0.8-1.6h-0.1c0.3,1.5,0.3,2.2,0.3,2.9
			v11.8h-3.8V0.3h4.8L39.2,13.4z"/>
		<path class="st4" d="M51.5,20.2h-4.6V0.3h4.6V20.2z"/>
		<path class="st4" d="M67.7,0.3v3.7H63v16.2h-4.6V3.9h-4.7V0.3H67.7z"/>
		<path class="st4" d="M80.6,6c-0.1-0.5-0.4-1.1-1.1-1.7c-0.9-0.7-1.8-0.9-2.8-0.9c-2.3,0-2.8,1.2-2.8,2c0,1.5,1.9,1.9,2.6,2L79,8.1
			c1.5,0.3,2.9,0.7,4.2,1.7c1,0.8,2.1,2.2,2.1,4.3c0,2.3-1.3,3.8-2.3,4.7c-1.5,1.1-3.5,1.7-5.9,1.7c-5.5,0-8-3-8.7-5.8l4.3-0.8
			c0.4,1,1.1,2,1.9,2.5c0.9,0.5,1.9,0.6,2.6,0.6c2.9,0,3.3-1.5,3.3-2.2c0-1.8-2.1-2.3-2.7-2.4L75,11.8c-1.1-0.2-2.8-0.9-3.7-1.6
			c-1-0.8-2.1-2-2.1-4.2C69.3,2.9,71.6,0,77,0c1.7,0,3.3,0.3,4.7,1.1c1.9,1.2,2.6,2.8,3,3.7L80.6,6z"/>
		<path class="st5" d="M105.8,6c-0.1-0.5-0.4-1.1-1.1-1.7c-0.9-0.7-1.8-0.9-2.8-0.9c-2.3,0-2.8,1.2-2.8,2c0,1.5,1.9,1.9,2.6,2
			l2.5,0.5c1.5,0.3,2.9,0.7,4.2,1.7c1,0.8,2.1,2.2,2.1,4.3c0,2.3-1.3,3.8-2.3,4.7c-1.5,1.1-3.5,1.7-5.9,1.7c-5.5,0-8-3-8.7-5.8
			l4.3-0.8c0.4,1,1.1,2,1.9,2.5c0.9,0.5,1.9,0.6,2.6,0.6c2.9,0,3.3-1.5,3.3-2.2c0-1.8-2.1-2.3-2.7-2.4l-2.6-0.6
			c-1.1-0.2-2.8-0.9-3.7-1.6c-1-0.8-2.1-2-2.1-4.2c0-3.2,2.3-6.1,7.7-6.1c1.7,0,3.3,0.3,4.7,1.1c1.9,1.2,2.6,2.8,3,3.7L105.8,6z"/>
	</g>
	<path class="st6" d="M44.6,65.9c2-6.9,8-10,14.4-10c4.3,0,7.8,1.4,9.9,3.3c2,1.8,3.3,4.3,3.3,7c0,3.9-2.6,7.2-6.3,8.2
		c4.4,0.9,7.6,4.1,7.6,9c0,4.4-2.4,7-3.9,8.1c-2.6,2-6.9,3.1-10.9,3.1c-6.8,0-13.3-3.2-15.3-10.9l7.6-1.3c0.8,3.2,3.4,5.6,7.3,5.6
		c1.5,0,3.7-0.5,4.9-1.5c1-0.8,1.7-2.2,1.7-3.7c0-1.7-0.9-3.1-2-4c-0.5-0.4-2-1.2-5.5-1.2h-4v-5.9h3.5c1.8,0,3.7-0.1,5.1-1.1
		c1.1-0.8,1.8-2.1,1.8-3.5c0-1.1-0.4-2.4-1.6-3.3c-0.9-0.8-2.2-1.3-4-1.3c-3.3,0-5.5,2.1-6.3,4.8L44.6,65.9z"/>
</g>
</svg>
