<?xml version="1.0" encoding="utf-8"?>
<!-- Generator: Adobe Illustrator 23.1.0, SVG Export Plug-In . SVG Version: 6.00 Build 0)  -->
<svg version="1.1" id="Layer_8" xmlns="http://www.w3.org/2000/svg" xmlns:xlink="http://www.w3.org/1999/xlink" x="0px" y="0px"
	 viewBox="0 0 121 110.9" style="enable-background:new 0 0 121 110.9;" xml:space="preserve">
<style type="text/css">
	.st0{fill:#030400;}
	.st1{fill:url(#SVGID_1_);}
	.st2{fill:url(#SVGID_2_);}
	.st3{fill:url(#SVGID_3_);}
	.st4{fill:#859DAF;}
	.st5{fill:#BFA992;}
	.st6{fill:#EDDECB;}
</style>
<g>
	<g>
		<path class="st0" d="M108.5,110.9H35.6C15.9,110.9,0,95,0,75.3V55.6c0-14,11.3-25.3,25.3-25.3h83.2c6.9,0,12.5,5.6,12.5,12.5v55.6
			C121,105.3,115.4,110.9,108.5,110.9z"/>
		
			<linearGradient id="SVGID_1_" gradientUnits="userSpaceOnUse" x1="3.04" y1="-348.43" x2="116.72" y2="-348.43" gradientTransform="matrix(1 0 0 1 0 420)">
			<stop  offset="0" style="stop-color:#211D14"/>
			<stop  offset="0.1313" style="stop-color:#181510"/>
			<stop  offset="0.8015" style="stop-color:#433B30"/>
			<stop  offset="1" style="stop-color:#070604"/>
		</linearGradient>
		<path class="st1" d="M104.2,110.9H39.1C19.2,110.9,3,94.7,3,74.8v-17c0-14.1,11.4-25.6,25.6-25.6h75.6c6.9,0,12.5,5.6,12.5,12.5
			v53.6C116.7,105.3,111.1,110.9,104.2,110.9z"/>
		
			<linearGradient id="SVGID_2_" gradientUnits="userSpaceOnUse" x1="3.04" y1="-345.575" x2="116.72" y2="-345.575" gradientTransform="matrix(1 0 0 1 0 420)">
			<stop  offset="0" style="stop-color:#665744"/>
			<stop  offset="0.359" style="stop-color:#645542"/>
			<stop  offset="0.5592" style="stop-color:#5C4E3D"/>
			<stop  offset="0.7203" style="stop-color:#4E4234"/>
			<stop  offset="0.8598" style="stop-color:#3A3128"/>
			<stop  offset="0.9855" style="stop-color:#211C17"/>
			<stop  offset="0.9948" style="stop-color:#1F1A16"/>
		</linearGradient>
		<path class="st2" d="M104.2,110.9H37.9C18.6,110.9,3,95.3,3,76.1v-5.8C3,52.5,17.5,38,35.4,38h68.9c6.9,0,12.5,5.6,12.5,12.5v47.8
			C116.7,105.3,111.1,110.9,104.2,110.9z"/>
		
			<linearGradient id="SVGID_3_" gradientUnits="userSpaceOnUse" x1="3.03" y1="-343.1499" x2="116.72" y2="-343.1499" gradientTransform="matrix(1 0 0 1 0 420)">
			<stop  offset="0" style="stop-color:#120D09"/>
			<stop  offset="0.2622" style="stop-color:#1F1A16"/>
			<stop  offset="0.5" style="stop-color:#241F1B"/>
			<stop  offset="0.7779" style="stop-color:#221D19"/>
			<stop  offset="0.9049" style="stop-color:#1A1613"/>
			<stop  offset="1" style="stop-color:#0E0A09"/>
		</linearGradient>
		<path class="st3" d="M100.1,110.9h-61C19.2,110.9,3,94.7,3,74.8l0,0C3,57.1,17.3,42.8,35,42.8h65.1c9.2,0,16.6,7.4,16.6,16.6v34.8
			C116.7,103.4,109.3,110.9,100.1,110.9z"/>
	</g>
	<g>
		<path class="st4" d="M51.9,9.6h-4.6V5.1h4.6V9.6z M51.9,19.9h-4.6v-4.5h4.6V19.9z"/>
		<path class="st5" d="M80.6,16.2h8.5v3.7H76V0h4.6L80.6,16.2L80.6,16.2z"/>
	</g>
	<path class="st6" d="M71.1,79.8h5.7v6.4h-5.7v8.5h-8.4v-8.5H46v-6.1L61.2,57h9.8L71.1,79.8L71.1,79.8z M62.7,64.7l-9.8,15.1h9.8
		V64.7z"/>
</g>
</svg>
