<?xml version="1.0" encoding="utf-8"?>
<!-- Generator: Adobe Illustrator 23.1.0, SVG Export Plug-In . SVG Version: 6.00 Build 0)  -->
<svg version="1.1" id="Layer_8" xmlns="http://www.w3.org/2000/svg" xmlns:xlink="http://www.w3.org/1999/xlink" x="0px" y="0px"
	 viewBox="0 0 121 110.9" style="enable-background:new 0 0 121 110.9;" xml:space="preserve">
<style type="text/css">
	.st0{fill:#030400;}
	.st1{fill:url(#SVGID_1_);}
	.st2{fill:url(#SVGID_2_);}
	.st3{fill:url(#SVGID_3_);}
	.st4{fill:#859DAF;}
	.st5{fill:#BFA992;}
	.st6{fill:#EDDECB;}
</style>
<g>
	<g>
		<path class="st0" d="M108.5,110.9h-96C5.6,110.9,0,105.3,0,98.4V42.8c0-6.9,5.6-12.5,12.5-12.5h96c6.9,0,12.5,5.6,12.5,12.5v55.6
			C121,105.3,115.4,110.9,108.5,110.9z"/>
		
			<linearGradient id="SVGID_1_" gradientUnits="userSpaceOnUse" x1="3.03" y1="-348.42" x2="116.71" y2="-348.42" gradientTransform="matrix(1 0 0 1 0 420)">
			<stop  offset="0" style="stop-color:#211D14"/>
			<stop  offset="0.1313" style="stop-color:#181510"/>
			<stop  offset="0.8015" style="stop-color:#433B30"/>
			<stop  offset="1" style="stop-color:#070604"/>
		</linearGradient>
		<path class="st1" d="M104.2,110.9H15.5C8.6,110.9,3,105.3,3,98.4V44.8c0-6.9,5.6-12.5,12.5-12.5h88.6c6.9,0,12.5,5.6,12.5,12.5
			v53.6C116.7,105.3,111.1,110.9,104.2,110.9z"/>
		
			<linearGradient id="SVGID_2_" gradientUnits="userSpaceOnUse" x1="3.03" y1="-345.56" x2="116.71" y2="-345.56" gradientTransform="matrix(1 0 0 1 0 420)">
			<stop  offset="0" style="stop-color:#665744"/>
			<stop  offset="0.359" style="stop-color:#645542"/>
			<stop  offset="0.5592" style="stop-color:#5C4E3D"/>
			<stop  offset="0.7203" style="stop-color:#4E4234"/>
			<stop  offset="0.8598" style="stop-color:#3A3128"/>
			<stop  offset="0.9855" style="stop-color:#211C17"/>
			<stop  offset="0.9948" style="stop-color:#1F1A16"/>
		</linearGradient>
		<path class="st2" d="M104.2,110.9H15.5C8.6,110.9,3,105.3,3,98.4V50.5C3,43.6,8.6,38,15.5,38h88.6c6.9,0,12.5,5.6,12.5,12.5v47.8
			C116.7,105.3,111.1,110.9,104.2,110.9z"/>
		
			<linearGradient id="SVGID_3_" gradientUnits="userSpaceOnUse" x1="3.03" y1="-343.14" x2="116.71" y2="-343.14" gradientTransform="matrix(1 0 0 1 0 420)">
			<stop  offset="0" style="stop-color:#120D09"/>
			<stop  offset="0.2622" style="stop-color:#1F1A16"/>
			<stop  offset="0.5" style="stop-color:#241F1B"/>
			<stop  offset="0.7779" style="stop-color:#221D19"/>
			<stop  offset="0.9049" style="stop-color:#1A1613"/>
			<stop  offset="1" style="stop-color:#0E0A09"/>
		</linearGradient>
		<path class="st3" d="M104.2,110.9H15.5C8.6,110.9,3,105.3,3,98.4v-43c0-6.9,5.6-12.5,12.5-12.5h88.6c6.9,0,12.5,5.6,12.5,12.5v43
			C116.7,105.3,111.1,110.9,104.2,110.9z"/>
	</g>
	<g>
		<path class="st4" d="M19.9,12.7L19.9,12.7L24.1,0h6.3v19.9h-4.5V4.4h-0.1L21,19.9h-3L13.1,4.4H13v15.5H9.4V0h6.3L19.9,12.7z"/>
		<path class="st4" d="M50,19.9h-4.8l-1.4-4.7h-6.1l-1.4,4.7h-3.9L38.7,0h5L50,19.9z M40.7,4.6l-2.2,7.3h4.4L40.7,4.6z"/>
		<path class="st4" d="M63.2,0v3.7h-4.7v16.2h-4.6V3.7h-4.7V0H63.2z"/>
		<path class="st4" d="M81.2,19.9h-4.6v-8.4H70v8.4h-4.6V0H70v7.8h6.5V0h4.6V19.9z"/>
		<path class="st5" d="M102.5,12.7L102.5,12.7L106.7,0h6.3v19.9h-4.5V4.4h-0.1l-4.8,15.5h-3L95.7,4.4h-0.1v15.5H92V0h6.3L102.5,12.7
			z"/>
	</g>
	<path class="st6" d="M72.3,63.9H55.4l-0.6,8.3c1.5-1.4,3.9-2.9,7.6-2.9c4,0,6.8,1.4,8.6,3c2.4,2.1,4.1,5.4,4.1,9.5
		c0,3.9-1.5,7-3.6,9.1c-2,2.2-5.7,4.3-11.3,4.3s-9.1-2.3-11.2-4.3c-2.3-2.3-3-4.6-3.4-6l7.5-1.3c0.3,1.2,0.9,2.1,1.5,2.9
		c1.4,1.5,3.2,2.2,5.3,2.2c2.5,0,3.9-0.9,4.8-1.9c1.2-1.3,1.8-3,1.8-4.6c0-1.4-0.4-3.2-2-4.7c-1.3-1.2-2.8-1.7-4.4-1.7
		c-2.6,0-4.8,1.2-6.2,3.3l-6.7-1L48.9,57H73L72.3,63.9z"/>
</g>
</svg>
