<?xml version="1.0" encoding="utf-8"?>
<!-- Generator: Adobe Illustrator 23.1.0, SVG Export Plug-In . SVG Version: 6.00 Build 0)  -->
<svg version="1.1" id="Layer_8" xmlns="http://www.w3.org/2000/svg" xmlns:xlink="http://www.w3.org/1999/xlink" x="0px" y="0px"
	 viewBox="0 0 121 109.8" style="enable-background:new 0 0 121 109.8;" xml:space="preserve">
<style type="text/css">
	.st0{fill:#030400;}
	.st1{fill:url(#SVGID_1_);}
	.st2{fill:url(#SVGID_2_);}
	.st3{fill:url(#SVGID_3_);}
	.st4{fill:#859DAF;}
	.st5{fill:#BFA992;}
	.st6{fill:#EDDECB;}
</style>
<g>
	<g>
		<path class="st0" d="M108.5,109.8H35.6C15.9,109.8,0,93.8,0,74.2V54.5c0-14,11.3-25.3,25.3-25.3h83.2c6.9,0,12.5,5.6,12.5,12.5
			v55.6C121,104.2,115.4,109.8,108.5,109.8z"/>
		
			<linearGradient id="SVGID_1_" gradientUnits="userSpaceOnUse" x1="3.04" y1="-349.5301" x2="116.72" y2="-349.5301" gradientTransform="matrix(1 0 0 1 0 420)">
			<stop  offset="0" style="stop-color:#211D14"/>
			<stop  offset="0.1313" style="stop-color:#181510"/>
			<stop  offset="0.8015" style="stop-color:#433B30"/>
			<stop  offset="1" style="stop-color:#070604"/>
		</linearGradient>
		<path class="st1" d="M104.2,109.8H39.1C19.2,109.8,3,93.6,3,73.7v-17c0-14.1,11.4-25.6,25.6-25.6h75.6c6.9,0,12.5,5.6,12.5,12.5
			v53.6C116.7,104.2,111.1,109.8,104.2,109.8z"/>
		
			<linearGradient id="SVGID_2_" gradientUnits="userSpaceOnUse" x1="3.04" y1="-346.6751" x2="116.72" y2="-346.6751" gradientTransform="matrix(1 0 0 1 0 420)">
			<stop  offset="0" style="stop-color:#665744"/>
			<stop  offset="0.359" style="stop-color:#645542"/>
			<stop  offset="0.5592" style="stop-color:#5C4E3D"/>
			<stop  offset="0.7203" style="stop-color:#4E4234"/>
			<stop  offset="0.8598" style="stop-color:#3A3128"/>
			<stop  offset="0.9855" style="stop-color:#211C17"/>
			<stop  offset="0.9948" style="stop-color:#1F1A16"/>
		</linearGradient>
		<path class="st2" d="M104.2,109.8H37.9C18.6,109.8,3,94.2,3,75v-5.8c0-17.8,14.5-32.3,32.3-32.3h68.9c6.9,0,12.5,5.6,12.5,12.5
			v47.8C116.7,104.2,111.1,109.8,104.2,109.8z"/>
		
			<linearGradient id="SVGID_3_" gradientUnits="userSpaceOnUse" x1="3.03" y1="-344.2501" x2="116.72" y2="-344.2501" gradientTransform="matrix(1 0 0 1 0 420)">
			<stop  offset="0" style="stop-color:#120D09"/>
			<stop  offset="0.2622" style="stop-color:#1F1A16"/>
			<stop  offset="0.5" style="stop-color:#241F1B"/>
			<stop  offset="0.7779" style="stop-color:#221D19"/>
			<stop  offset="0.9049" style="stop-color:#1A1613"/>
			<stop  offset="1" style="stop-color:#0E0A09"/>
		</linearGradient>
		<path class="st3" d="M100.1,109.8h-61C19.2,109.8,3,93.6,3,73.7l0,0C3,56,17.3,41.7,35,41.7h65.1c9.2,0,16.6,7.4,16.6,16.6v34.8
			C116.7,102.3,109.3,109.8,100.1,109.8z"/>
	</g>
	<g>
		<path class="st4" d="M50.9,1.8c-0.3-0.1-0.6-0.1-0.9-0.1c-0.5,0-1,0.2-1.3,0.6c-0.6,0.7-0.9,2-0.9,4.6c0,4.2,0.4,9.3,0.4,13.6
			c0,2.8-0.5,4.5-1.2,5.5c-0.6,0.9-1.6,1.4-2.8,1.4c-0.7,0-1.3-0.1-1.6-0.3l0.4-1.7c0.2,0.1,0.6,0.2,1,0.2c0.5,0,0.9-0.2,1.3-0.6
			c0.5-0.6,0.9-1.7,0.9-4.5c0-4.4-0.4-9.5-0.4-13.8c0-2.9,0.5-4.5,1.5-5.7C48,0.3,48.9,0,49.9,0c0.5,0,1,0.1,1.3,0.2L50.9,1.8z"/>
		<path class="st5" d="M83.3,23.1h-2.4l-0.7-2.2c-0.5,0.7-1.2,1.3-1.8,1.6c-1.1,0.6-2.5,0.8-3.7,0.8c-1.8,0-4.1-0.4-6-2.5
			C67,19,66.1,16,66.1,13.4c0-2.6,0.8-5.6,2.5-7.6c2.1-2.4,4.6-2.9,6.7-2.9c6,0,7.6,4.2,8,6.4l-4.5,0.6c-0.1-0.7-0.4-1.6-0.8-2.2
			c-0.5-0.6-1.3-1.4-2.8-1.4c-1.1,0-2.5,0.5-3.3,2.2c-0.2,0.5-0.8,1.7-0.8,4.6c0,1.7,0.2,3.6,0.9,4.8c0.6,1,1.6,2,3.4,2
			c1.1,0,1.9-0.4,2.5-1s1-1.6,1-2.6v-0.5h-4v-3.4h8.4L83.3,23.1L83.3,23.1L83.3,23.1z"/>
	</g>
	<path class="st6" d="M75,60.5C69.1,68,66.7,74,65.1,80.3c-1,3.7-1.4,6.4-1.4,10.3v2.2h-9.4c0.7-10.7,4.8-19.3,7.1-23.4
		c1.7-3,3.8-5.6,5.4-7.4H48.1l0.7-6.9H75L75,60.5L75,60.5z"/>
</g>
</svg>
