<?xml version="1.0" encoding="utf-8"?>
<!-- Generator: Adobe Illustrator 23.1.0, SVG Export Plug-In . SVG Version: 6.00 Build 0)  -->
<svg version="1.1" id="Layer_8" xmlns="http://www.w3.org/2000/svg" xmlns:xlink="http://www.w3.org/1999/xlink" x="0px" y="0px"
	 viewBox="0 0 121 108.3" style="enable-background:new 0 0 121 108.3;" xml:space="preserve">
<style type="text/css">
	.st0{fill:#030400;}
	.st1{fill:url(#SVGID_1_);}
	.st2{fill:url(#SVGID_2_);}
	.st3{fill:url(#SVGID_3_);}
	.st4{fill:#859DAF;}
	.st5{fill:#BFA992;}
	.st6{fill:#EDDECB;}
</style>
<g>
	<g>
		<path class="st0" d="M108.5,108.3h-96C5.6,108.3,0,102.7,0,95.8V40.2c0-6.9,5.6-12.5,12.5-12.5h96c6.9,0,12.5,5.6,12.5,12.5v55.6
			C121,102.7,115.4,108.3,108.5,108.3z"/>
		
			<linearGradient id="SVGID_1_" gradientUnits="userSpaceOnUse" x1="3.03" y1="-351" x2="116.71" y2="-351" gradientTransform="matrix(1 0 0 1 0 420)">
			<stop  offset="0" style="stop-color:#211D14"/>
			<stop  offset="0.1313" style="stop-color:#181510"/>
			<stop  offset="0.8015" style="stop-color:#433B30"/>
			<stop  offset="1" style="stop-color:#070604"/>
		</linearGradient>
		<path class="st1" d="M104.2,108.3H15.5C8.6,108.3,3,102.7,3,95.8V42.2c0-6.9,5.6-12.5,12.5-12.5h88.6c6.9,0,12.5,5.6,12.5,12.5
			v53.6C116.7,102.7,111.1,108.3,104.2,108.3z"/>
		
			<linearGradient id="SVGID_2_" gradientUnits="userSpaceOnUse" x1="3.03" y1="-348.14" x2="116.71" y2="-348.14" gradientTransform="matrix(1 0 0 1 0 420)">
			<stop  offset="0" style="stop-color:#665744"/>
			<stop  offset="0.359" style="stop-color:#645542"/>
			<stop  offset="0.5592" style="stop-color:#5C4E3D"/>
			<stop  offset="0.7203" style="stop-color:#4E4234"/>
			<stop  offset="0.8598" style="stop-color:#3A3128"/>
			<stop  offset="0.9855" style="stop-color:#211C17"/>
			<stop  offset="0.9948" style="stop-color:#1F1A16"/>
		</linearGradient>
		<path class="st2" d="M104.2,108.3H15.5C8.6,108.3,3,102.7,3,95.8V47.9C3,41,8.6,35.4,15.5,35.4h88.6c6.9,0,12.5,5.6,12.5,12.5
			v47.8C116.7,102.7,111.1,108.3,104.2,108.3z"/>
		
			<linearGradient id="SVGID_3_" gradientUnits="userSpaceOnUse" x1="3.03" y1="-345.72" x2="116.71" y2="-345.72" gradientTransform="matrix(1 0 0 1 0 420)">
			<stop  offset="0" style="stop-color:#120D09"/>
			<stop  offset="0.2622" style="stop-color:#1F1A16"/>
			<stop  offset="0.5" style="stop-color:#241F1B"/>
			<stop  offset="0.7779" style="stop-color:#221D19"/>
			<stop  offset="0.9049" style="stop-color:#1A1613"/>
			<stop  offset="1" style="stop-color:#0E0A09"/>
		</linearGradient>
		<path class="st3" d="M104.2,108.3H15.5C8.6,108.3,3,102.7,3,95.8v-43c0-6.9,5.6-12.5,12.5-12.5h88.6c6.9,0,12.5,5.6,12.5,12.5v43
			C116.7,102.7,111.1,108.3,104.2,108.3z"/>
	</g>
	<g>
		<path class="st4" d="M50.1,0l-2.9,15.3c-0.3,1.5-0.6,3.4-0.7,4.8h-2.4l0.2-2.1h-0.1c-0.8,1.4-2.1,2.4-3.4,2.4c-1.9,0-3-1.7-3-4.3
			c0-4.9,2.6-10.3,6.9-10.3c0.5,0,1,0.2,1.4,0.4L47.2,0L50.1,0L50.1,0L50.1,0z M45.6,8.5C45.3,8.2,45,8,44.5,8
			c-2.4,0-3.8,4.9-3.8,7.4c0,1.5,0.4,2.4,1.4,2.4c0.9,0,1.9-1.2,2.4-3.3L45.6,8.5z"/>
		<path class="st5" d="M80.4,20.1h-4.6v-8.4h-6.5v8.4h-4.6V0.2h4.6V8h6.5V0.2h4.6V20.1z"/>
	</g>
	<path class="st6" d="M46.9,64.1c0-3,1.7-6.4,4.3-8.4c2.4-1.9,5.9-2.7,9.4-2.7c4.9,0,7.8,1.5,9.1,2.3c3.6,2.2,4.5,5.2,4.5,7.4
		c0,4.1-2.7,6.9-5.8,8.1c2,0.8,7.3,3.5,7.3,9.6c0,3.2-1.5,6.4-4.3,8.5c-2.7,2-7,2.9-11,2.9c-6.4,0-9.9-2.3-11.2-3.3
		c-2.5-1.9-3.7-4.3-3.7-7c0-5,3.8-7.9,7.1-9.1C49.6,71,46.9,68,46.9,64.1z M53.2,80.9c0,1.9,1.4,5.1,7.3,5.1c5.1,0,6.7-2.4,6.7-4.3
		c0-3.3-4.5-5-8.6-6.2C56.3,76.2,53.2,78,53.2,80.9z M66.6,63.8c0-2.1-1.7-4.8-6.3-4.8c-4.1,0-5.4,2.4-5.4,4c0,2.5,3,4.6,6.9,5.6
		C64.3,67.7,66.6,66.2,66.6,63.8z"/>
</g>
</svg>
