<?xml version="1.0" encoding="utf-8"?>
<!-- Generator: Adobe Illustrator 23.1.0, SVG Export Plug-In . SVG Version: 6.00 Build 0)  -->
<svg version="1.1" id="Layer_8" xmlns="http://www.w3.org/2000/svg" xmlns:xlink="http://www.w3.org/1999/xlink" x="0px" y="0px"
	 viewBox="0 0 121 108.1" style="enable-background:new 0 0 121 108.1;" xml:space="preserve">
<style type="text/css">
	.st0{fill:#030400;}
	.st1{fill:url(#SVGID_1_);}
	.st2{fill:url(#SVGID_2_);}
	.st3{fill:url(#SVGID_3_);}
	.st4{fill:#859DAF;}
	.st5{fill:#BFA992;}
	.st6{fill:#EDDECB;}
</style>
<g>
	<g>
		<path class="st0" d="M12.5,108.1h72.9c19.6,0,35.6-15.9,35.6-35.6V52.8c0-14-11.3-25.3-25.3-25.3H12.5C5.6,27.5,0,33.1,0,40v55.6
			C0,102.5,5.6,108.1,12.5,108.1z"/>
		
			<linearGradient id="SVGID_1_" gradientUnits="userSpaceOnUse" x1="-451.892" y1="-351.17" x2="-338.212" y2="-351.17" gradientTransform="matrix(-1 0 0 1 -333.922 420)">
			<stop  offset="0" style="stop-color:#211D14"/>
			<stop  offset="0.1313" style="stop-color:#181510"/>
			<stop  offset="0.8015" style="stop-color:#433B30"/>
			<stop  offset="1" style="stop-color:#070604"/>
		</linearGradient>
		<path class="st1" d="M16.8,108.1h65.1c19.9,0,36.1-16.2,36.1-36.1v-17c0-14.1-11.5-25.6-25.6-25.6H16.8C9.9,29.5,4.3,35.1,4.3,42
			v53.6C4.3,102.5,9.9,108.1,16.8,108.1z"/>
		
			<linearGradient id="SVGID_2_" gradientUnits="userSpaceOnUse" x1="-451.892" y1="-348.315" x2="-338.212" y2="-348.315" gradientTransform="matrix(-1 0 0 1 -333.922 420)">
			<stop  offset="0" style="stop-color:#665744"/>
			<stop  offset="0.359" style="stop-color:#645542"/>
			<stop  offset="0.5592" style="stop-color:#5C4E3D"/>
			<stop  offset="0.7203" style="stop-color:#4E4234"/>
			<stop  offset="0.8598" style="stop-color:#3A3128"/>
			<stop  offset="0.9855" style="stop-color:#211C17"/>
			<stop  offset="0.9948" style="stop-color:#1F1A16"/>
		</linearGradient>
		<path class="st2" d="M16.8,108.1h66.3c19.2,0,34.8-15.6,34.8-34.8v-5.8c0-17.8-14.5-32.3-32.3-32.3H16.8
			c-6.9,0-12.5,5.6-12.5,12.5v47.8C4.3,102.5,9.9,108.1,16.8,108.1z"/>
		
			<linearGradient id="SVGID_3_" gradientUnits="userSpaceOnUse" x1="-451.892" y1="-345.89" x2="-338.202" y2="-345.89" gradientTransform="matrix(-1 0 0 1 -333.922 420)">
			<stop  offset="0" style="stop-color:#120D09"/>
			<stop  offset="0.2622" style="stop-color:#1F1A16"/>
			<stop  offset="0.5" style="stop-color:#241F1B"/>
			<stop  offset="0.7779" style="stop-color:#221D19"/>
			<stop  offset="0.9049" style="stop-color:#1A1613"/>
			<stop  offset="1" style="stop-color:#0E0A09"/>
		</linearGradient>
		<path class="st3" d="M20.9,108.1h61C101.8,108.1,118,92,118,72l0,0c0-17.6-14.3-31.9-31.9-31.9H20.9c-9.2,0-16.6,7.4-16.6,16.6
			v34.8C4.3,100.7,11.7,108.1,20.9,108.1z"/>
	</g>
	<g>
		<path class="st4" d="M51.8,19.5L49,24.5h-1.9l2.1-4.5h-2v-4.5h4.6L51.8,19.5L51.8,19.5z M51.8,9.6h-4.6V5.1h4.6V9.6z"/>
		<path class="st5" d="M73.7,19.9H69V0h4.6V19.9z"/>
	</g>
	<path class="st6" d="M52.4,80.5c0.4,2.1,1.9,4.8,5.5,4.8c4.8,0,7.3-5.5,7.1-12.7c-2,3.3-5.2,5.1-9.2,5.1c-7.9,0-12.1-5.8-12.1-11.9
		c0-3.7,1.7-7.1,4.5-9.5c2.4-2,5.7-3.4,9.8-3.4c4.4,0,9.1,1.5,12.2,6.2c2.5,3.7,3.3,8.1,3.3,12.5c0,5.2-1.1,10.8-5,15.3
		c-3.3,3.8-6.7,4.8-10.6,4.8c-1.9,0-11.1-0.3-13-10.1L52.4,80.5z M54,61c-1.3,1.2-1.7,2.7-1.7,4.2c0,1.9,0.7,3.3,1.8,4.4
		c0.9,0.9,2.1,1.8,4,1.8c1.9,0,3.4-0.8,4.5-1.8c1.5-1.5,1.9-3.2,1.9-4.5c0-1.9-0.9-3.2-1.6-3.9c-1-1-2.8-1.9-4.6-1.9
		C57.3,59.3,55.6,59.5,54,61z"/>
</g>
</svg>
