<?xml version="1.0" encoding="utf-8"?>
<!-- Generator: Adobe Illustrator 23.0.4, SVG Export Plug-In . SVG Version: 6.00 Build 0)  -->
<svg version="1.1" id="Layer_8" xmlns="http://www.w3.org/2000/svg" xmlns:xlink="http://www.w3.org/1999/xlink" x="0px" y="0px"
	 viewBox="0 0 188 150" style="enable-background:new 0 0 188 150;" xml:space="preserve">
<style type="text/css">
	.st0{fill:#030400;}
	.st1{fill:url(#SVGID_1_);}
	.st2{fill:url(#SVGID_2_);}
	.st3{fill:url(#SVGID_3_);}
	.st4{fill:#BFA992;}
	.st5{fill:#859DAF;}
	.st6{fill:#EDDECB;}
</style>
<g>
	<g>
		<path class="st0" d="M146.2,146.3H41.8c-22.9,0-41.7-18.7-41.7-41.7V84.1c0-22.9,18.7-41.7,41.7-41.7h104.6
			c22.9,0,41.7,18.7,41.7,41.7v20.7C187.9,127.6,169.1,146.3,146.2,146.3z"/>
		
			<linearGradient id="SVGID_1_" gradientUnits="userSpaceOnUse" x1="2.352" y1="474.8249" x2="184.1998" y2="474.8249" gradientTransform="matrix(1 0 0 -1 0 569.7)">
			<stop  offset="0" style="stop-color:#211D14"/>
			<stop  offset="2.810000e-02" style="stop-color:#383429"/>
			<stop  offset="3.700000e-02" style="stop-color:#2C2920"/>
			<stop  offset="5.190000e-02" style="stop-color:#211D17"/>
			<stop  offset="7.290000e-02" style="stop-color:#1A1711"/>
			<stop  offset="0.1313" style="stop-color:#181510"/>
			<stop  offset="0.4854" style="stop-color:#1F1E1A"/>
			<stop  offset="0.8981" style="stop-color:#423A2D"/>
			<stop  offset="0.9331" style="stop-color:#443C2E"/>
			<stop  offset="0.9468" style="stop-color:#4B4233"/>
			<stop  offset="0.9567" style="stop-color:#574D3C"/>
			<stop  offset="0.96" style="stop-color:#5D5240"/>
			<stop  offset="0.9855" style="stop-color:#332D22"/>
			<stop  offset="1" style="stop-color:#211D14"/>
		</linearGradient>
		<path class="st1" d="M142.5,143.4H44c-22.9,0-41.7-18.7-41.7-41.7V88c0-22.9,18.7-41.7,41.7-41.7h98.5c22.9,0,41.7,18.7,41.7,41.7
			v13.8C184.1,124.6,165.3,143.4,142.5,143.4z"/>
		
			<linearGradient id="SVGID_2_" gradientUnits="userSpaceOnUse" x1="3.7595" y1="471.4469" x2="181.8071" y2="471.4469" gradientTransform="matrix(1 0 0 -1 0 569.7)">
			<stop  offset="0" style="stop-color:#7C7563"/>
			<stop  offset="0.9845" style="stop-color:#383226"/>
		</linearGradient>
		<path class="st2" d="M140.1,143.4H45.4c-22.9,0-41.7-18.7-41.7-41.7v-6.9c0-22.9,18.7-41.7,41.7-41.7h94.7
			c22.9,0,41.7,18.7,41.7,41.7v6.9C181.8,124.6,163.1,143.4,140.1,143.4z"/>
		
			<linearGradient id="SVGID_3_" gradientUnits="userSpaceOnUse" x1="3.7595" y1="465.8169" x2="181.8071" y2="465.8169" gradientTransform="matrix(1 0 0 -1 0 569.7)">
			<stop  offset="0" style="stop-color:#665A4A"/>
			<stop  offset="9.099999e-02" style="stop-color:#6D6251"/>
			<stop  offset="0.311" style="stop-color:#78705F"/>
			<stop  offset="0.5" style="stop-color:#7C7563"/>
			<stop  offset="0.7691" style="stop-color:#7A7361"/>
			<stop  offset="0.8921" style="stop-color:#746B59"/>
			<stop  offset="0.9853" style="stop-color:#695F4D"/>
			<stop  offset="1" style="stop-color:#675C4A"/>
		</linearGradient>
		<path class="st3" d="M140.1,149H45.4c-22.9,0-41.7-18.7-41.7-41.7v-6.9c0-22.9,18.7-41.7,41.7-41.7h94.7
			c22.9,0,41.7,18.7,41.7,41.7v6.9C181.8,130.3,163.1,149,140.1,149z"/>
	</g>
	<g>
		<path class="st4" d="M124.2,33h-6.9l-2-6.6h-8.6l-2,6.6h-5.5l8.9-28h7L124.2,33z M111.2,11.5l-3.1,10.3h6.2L111.2,11.5z"/>
	</g>
	<g>
		<g>
			<path class="st5" d="M65.7,27.7l-4.8-3.1L72.2,7.4l7,4.5L65.7,27.7z"/>
		</g>
	</g>
	<path class="st6" d="M112.4,84.7v10.6h-41V84.7H112.4z M112.4,100.4V111h-41v-10.6H112.4z"/>
</g>
</svg>
