<?xml version="1.0" encoding="utf-8"?>
<!-- Generator: Adobe Illustrator 23.0.4, SVG Export Plug-In . SVG Version: 6.00 Build 0)  -->
<svg version="1.1" id="Layer_8" xmlns="http://www.w3.org/2000/svg" xmlns:xlink="http://www.w3.org/1999/xlink" x="0px" y="0px"
	 viewBox="0 0 188 150" style="enable-background:new 0 0 188 150;" xml:space="preserve">
<style type="text/css">
	.st0{fill:#030400;}
	.st1{fill:url(#SVGID_1_);}
	.st2{fill:url(#SVGID_2_);}
	.st3{fill:url(#SVGID_3_);}
	.st4{fill:#859DAF;}
	.st5{fill:#77455C;}
</style>
<g>
	<g>
		<path class="st0" d="M146.2,146.8H41.8c-22.9,0-41.7-18.7-41.7-41.5V84.6c0-22.9,18.7-41.7,41.7-41.7h104.6
			c22.9,0,41.7,18.7,41.7,41.7v20.5C187.9,128.1,169.1,146.8,146.2,146.8z"/>
		
			<linearGradient id="SVGID_1_" gradientUnits="userSpaceOnUse" x1="2.352" y1="475.6322" x2="184.1998" y2="475.6322" gradientTransform="matrix(1 0 0 -1 0 571)">
			<stop  offset="0" style="stop-color:#211D14"/>
			<stop  offset="0.1313" style="stop-color:#181510"/>
			<stop  offset="0.8015" style="stop-color:#433B30"/>
			<stop  offset="1" style="stop-color:#070604"/>
		</linearGradient>
		<path class="st1" d="M142.5,143.9H44c-22.9,0-41.7-18.7-41.7-41.5V88.5c0-22.9,18.7-41.7,41.7-41.7h98.5
			c22.9,0,41.7,18.7,41.7,41.7v13.8C184.1,125.1,165.3,143.9,142.5,143.9z"/>
		
			<linearGradient id="SVGID_2_" gradientUnits="userSpaceOnUse" x1="3.7595" y1="472.1839" x2="181.8071" y2="472.1839" gradientTransform="matrix(1 0 0 -1 0 571)">
			<stop  offset="0" style="stop-color:#665744"/>
			<stop  offset="0.359" style="stop-color:#645542"/>
			<stop  offset="0.5592" style="stop-color:#5C4E3D"/>
			<stop  offset="0.7203" style="stop-color:#4E4234"/>
			<stop  offset="0.8598" style="stop-color:#3A3128"/>
			<stop  offset="0.9855" style="stop-color:#211C17"/>
			<stop  offset="0.9948" style="stop-color:#1F1A16"/>
		</linearGradient>
		<path class="st2" d="M140.1,143.9H45.4c-22.9,0-41.7-18.7-41.7-41.5v-6.9c0-22.9,18.7-41.7,41.7-41.7h94.7
			c22.9,0,41.7,18.7,41.7,41.7v6.9C181.8,125.1,163.1,143.9,140.1,143.9z"/>
		
			<linearGradient id="SVGID_3_" gradientUnits="userSpaceOnUse" x1="3.7595" y1="466.5539" x2="181.8071" y2="466.5539" gradientTransform="matrix(1 0 0 -1 0 571)">
			<stop  offset="0" style="stop-color:#120D09"/>
			<stop  offset="0.2622" style="stop-color:#1F1A16"/>
			<stop  offset="0.5" style="stop-color:#241F1B"/>
			<stop  offset="0.7779" style="stop-color:#221D19"/>
			<stop  offset="0.9049" style="stop-color:#1A1613"/>
			<stop  offset="1" style="stop-color:#0E0A09"/>
		</linearGradient>
		<path class="st3" d="M140.1,149.5H45.4c-22.9,0-41.7-18.7-41.7-41.5v-6.9c0-22.9,18.7-41.7,41.7-41.7h94.7
			c22.9,0,41.7,18.7,41.7,41.7v6.9C181.8,130.8,163.1,149.5,140.1,149.5z"/>
	</g>
	<g>
		<path class="st4" d="M121.1,22.4v1.4c-1.8,0.8-3.7,2-5.6,3.5c-1.8,1.4-4.1,3.7-6.6,6.6h-2.4c1.4-3.5,3.4-6.6,5.8-9.3H73.1
			c2.5,2.8,4.5,5.9,5.8,9.3h-2.4c-2.7-3-4.8-5.2-6.6-6.6c-1.8-1.4-3.7-2.7-5.6-3.5v-1.4c1.8-0.8,3.7-2.1,5.6-3.5
			c1.8-1.4,4.1-3.7,6.6-6.6h2.4c-1.4,3.4-3.4,6.6-5.8,9.3h39.3c-2.5-2.8-4.5-5.9-5.8-9.3h2.4c2.7,3,4.8,5.2,6.6,6.6
			C117.5,20.3,119.3,21.4,121.1,22.4z"/>
	</g>
	<g>
		<path class="st4" d="M133.8,38.7H54.1V5.2h79.7V38.7L133.8,38.7z M57,35.9h74V8H57V35.9L57,35.9z"/>
	</g>
	<g>
		<path class="st4" d="M134.5,39.4H91.2V4.5h43.4V39.4z M95.4,35.2h34.9V8.7H95.4V35.2z"/>
	</g>
	<path class="st5" d="M65.4,83.9l7.5,32.8h-6.8l-1.3-7h-6.5l-1.4,7h-6.1l7.5-32.8C58.4,83.9,65.4,83.9,65.4,83.9z M62.2,95.6
		c-0.6-2.5-0.7-4.4-0.7-5.5c0,0.6-0.1,2.3-0.7,5.2l-1.8,9H64L62.2,95.6z"/>
	<path class="st5" d="M74.8,83.9h8.3c3.5,0,6.5,0.1,8.4,3.1c1.4,1.8,2,4.9,2,7.2c0,2.1-0.6,5.6-2.3,7.6c-2.3,2.8-5.5,2.8-8,2.8h-2
		v12.1h-6.6L74.8,83.9L74.8,83.9z M83,98.8c0.7,0,1.7,0,2.5-0.8c0.4-0.6,1.1-1.7,1.1-4.4c0-1-0.1-2.7-1-3.7c-0.7-0.8-1.7-1-2.5-1
		h-1.7v9.9H83L83,98.8z"/>
	<path class="st5" d="M96.7,83.9h8.3c3.5,0,6.5,0.1,8.4,3.1c1.4,1.8,2,4.9,2,7.2c0,2.1-0.6,5.6-2.3,7.6c-2.3,2.8-5.5,2.8-8,2.8h-2
		v12.1h-6.6L96.7,83.9L96.7,83.9z M105,98.8c0.7,0,1.7,0,2.5-0.8c0.4-0.6,1.1-1.7,1.1-4.4c0-1-0.1-2.7-1-3.7c-0.7-0.8-1.7-1-2.5-1
		h-1.7v9.9H105L105,98.8z"/>
	<path class="st5" d="M130.4,93.2c-0.4-2-1.1-2.8-1.7-3.2c-0.7-0.6-1.4-0.6-2.1-0.6c-0.7,0-1.4,0.1-2.1,0.7
		c-0.6,0.6-0.7,1.5-0.7,2.4c0,1.1,0.3,2,1.1,2.7c1,0.8,2.4,1.4,4.6,2.4c1.5,0.7,3.4,1.5,4.8,3.7c1.3,1.7,1.5,3.5,1.5,5.5
		c0,4.4-1.7,6.9-3.1,8c-1.7,1.5-4.4,2.4-6.9,2.4c-2.1,0-4.5-0.6-6.2-2c-2.4-2-3.2-5.1-3.5-6.9l5.3-2c0.3,1.4,1,3.4,1.8,4.1
		c0.6,0.6,1.5,0.7,2.5,0.7c0.7,0,1.7-0.1,2.4-0.8c0.6-0.6,0.8-1.5,0.8-2.5c0-1.1-0.3-2-1.1-2.7c-0.8-0.8-2.3-1.4-4.5-2.7
		c-1.7-0.8-3.5-1.8-4.8-3.7c-1-1.5-1.4-3.5-1.4-5.5c0-3.2,1.3-5.9,3-7.6c1.5-1.5,3.8-2.4,6.1-2.4c1.5,0,3.5,0.4,4.9,1.4
		c1.8,1.3,3.4,3.5,3.9,6.2L130.4,93.2z"/>
</g>
</svg>
