<?xml version="1.0" encoding="utf-8"?>
<!-- Generator: Adobe Illustrator 23.1.0, SVG Export Plug-In . SVG Version: 6.00 Build 0)  -->
<svg version="1.1" id="Layer_8" xmlns="http://www.w3.org/2000/svg" xmlns:xlink="http://www.w3.org/1999/xlink" x="0px" y="0px"
	 viewBox="0 0 133.4 106.2" style="enable-background:new 0 0 133.4 106.2;" xml:space="preserve">
<style type="text/css">
	.st0{fill:#030400;}
	.st1{fill:url(#SVGID_1_);}
	.st2{fill:url(#SVGID_2_);}
	.st3{fill:url(#SVGID_3_);}
	.st4{fill:none;stroke:url(#SVGID_4_);stroke-width:4;stroke-miterlimit:10;}
	.st5{fill:#C6BB8D;}
	.st6{fill:#EDDECB;}
</style>
<g>
	<g>
		<path class="st0" d="M103.8,104.3H29.6C13.3,104.3,0,91,0,74.8V60.1c0-16.3,13.3-29.6,29.6-29.6h74.3c16.3,0,29.6,13.3,29.6,29.6
			v14.6C133.4,91,120.1,104.3,103.8,104.3z"/>
		
			<linearGradient id="SVGID_1_" gradientUnits="userSpaceOnUse" x1="1.65" y1="1079.665" x2="130.74" y2="1079.665" gradientTransform="matrix(1 0 0 -1 0 1147.4399)">
			<stop  offset="0" style="stop-color:#211D14"/>
			<stop  offset="2.810000e-02" style="stop-color:#383429"/>
			<stop  offset="3.700000e-02" style="stop-color:#2C2920"/>
			<stop  offset="5.190000e-02" style="stop-color:#211D17"/>
			<stop  offset="7.290000e-02" style="stop-color:#1A1711"/>
			<stop  offset="0.1313" style="stop-color:#181510"/>
			<stop  offset="0.4854" style="stop-color:#1F1E1A"/>
			<stop  offset="0.8981" style="stop-color:#423A2D"/>
			<stop  offset="0.9331" style="stop-color:#443C2E"/>
			<stop  offset="0.9468" style="stop-color:#4B4233"/>
			<stop  offset="0.9567" style="stop-color:#574D3C"/>
			<stop  offset="0.96" style="stop-color:#5D5240"/>
			<stop  offset="0.9855" style="stop-color:#332D22"/>
			<stop  offset="1" style="stop-color:#211D14"/>
		</linearGradient>
		<path class="st1" d="M101.2,102.2h-70c-16.3,0-29.6-13.3-29.6-29.6v-9.8c0-16.3,13.3-29.6,29.6-29.6h70
			c16.3,0,29.6,13.3,29.6,29.6v9.8C130.7,88.9,117.4,102.2,101.2,102.2z"/>
		
			<linearGradient id="SVGID_2_" gradientUnits="userSpaceOnUse" x1="2.64" y1="1077.245" x2="129.1" y2="1077.245" gradientTransform="matrix(1 0 0 -1 0 1147.4399)">
			<stop  offset="0" style="stop-color:#7C7563"/>
			<stop  offset="0.9845" style="stop-color:#383226"/>
		</linearGradient>
		<path class="st2" d="M99.5,102.2H32.2c-16.3,0-29.6-13.3-29.6-29.6v-4.9c0-16.3,13.3-29.6,29.6-29.6h67.3
			c16.3,0,29.6,13.3,29.6,29.6v4.9C129.1,88.9,115.8,102.2,99.5,102.2z"/>
		
			<linearGradient id="SVGID_3_" gradientUnits="userSpaceOnUse" x1="2.64" y1="1073.245" x2="129.1" y2="1073.245" gradientTransform="matrix(1 0 0 -1 0 1147.4399)">
			<stop  offset="0" style="stop-color:#665A4A"/>
			<stop  offset="9.099999e-02" style="stop-color:#6D6251"/>
			<stop  offset="0.311" style="stop-color:#78705F"/>
			<stop  offset="0.5" style="stop-color:#7C7563"/>
			<stop  offset="0.7691" style="stop-color:#7A7361"/>
			<stop  offset="0.8921" style="stop-color:#746B59"/>
			<stop  offset="0.9853" style="stop-color:#695F4D"/>
			<stop  offset="1" style="stop-color:#675C4A"/>
		</linearGradient>
		<path class="st3" d="M99.5,106.2H32.2c-16.3,0-29.6-13.3-29.6-29.6v-4.9c0-16.3,13.3-29.6,29.6-29.6h67.3
			c16.3,0,29.6,13.3,29.6,29.6v4.9C129.1,92.9,115.8,106.2,99.5,106.2z"/>
		
			<linearGradient id="SVGID_4_" gradientUnits="userSpaceOnUse" x1="3.9" y1="1073.24" x2="128.03" y2="1073.24" gradientTransform="matrix(1 0 0 -1 0 1147.4399)">
			<stop  offset="0" style="stop-color:#AC9B7D"/>
			<stop  offset="4.630000e-02" style="stop-color:#B4A287"/>
			<stop  offset="0.1377" style="stop-color:#C0AA95"/>
			<stop  offset="0.2532" style="stop-color:#C6AF9D"/>
			<stop  offset="0.4691" style="stop-color:#C8B19F"/>
			<stop  offset="0.7253" style="stop-color:#C6AF9D"/>
			<stop  offset="0.8681" style="stop-color:#BFAA95"/>
			<stop  offset="0.9828" style="stop-color:#B3A287"/>
			<stop  offset="1" style="stop-color:#B1A084"/>
		</linearGradient>
		<path class="st4" d="M96.5,103.8h-61c-16.3,0-29.6-13.3-29.6-29.6l0,0c0-16.3,13.3-29.6,29.6-29.6h61c16.3,0,29.6,13.3,29.6,29.6
			l0,0C126,90.5,112.7,103.8,96.5,103.8z"/>
	</g>
	<g>
		<path class="st5" d="M42,7.6C42,6.8,41.8,6,41.4,5.2c-0.7-1.2-1.5-1.7-2.9-1.7c-1.5,0-2.6,0.7-3.3,2.3c-0.5,1.2-0.7,2.5-0.7,4.4
			c0,2,0.2,3.4,0.7,4.5c0.9,1.9,2.3,2.3,3.3,2.3c1,0,2-0.3,2.8-1.4c0.6-0.8,0.8-1.9,0.9-2.7l4.3,0.4c-0.2,2.2-1.3,3.9-2.4,5
			c-1.1,1.1-2.9,2.2-5.6,2.2c-4.2,0-6.5-2.5-7.5-4.2c-1-1.7-1.4-4.1-1.4-6.1c0-3.4,1.2-6.2,2.9-7.9C34.5,0.2,37,0,38.5,0
			c1.5,0,3.9,0.4,5.7,2.1c0.4,0.4,2,2.1,2.3,5.1L42,7.6z"/>
		<path class="st5" d="M63.1,2c1.8,1.6,3.2,4.4,3.2,8.2c0,3.4-1.1,6.2-3,8c-1.1,1.1-3.1,2.2-6,2.2c-2.9,0-4.8-1.2-6-2.2
			c-1.9-1.8-3-4.6-3-8c0-3.8,1.4-6.6,3.2-8.2c1.9-1.7,4.1-2,5.8-2C59,0,61.2,0.3,63.1,2z M54.4,5.2c-0.4,0.6-1,2-1,5s0.6,4.4,1,5.1
			c0.5,0.9,1.5,1.8,2.9,1.8c1.4,0,2.4-0.9,2.9-1.8c0.4-0.7,1-2.1,1-5.1s-0.7-4.4-1-5c-0.8-1.3-1.9-1.7-2.9-1.7S55.2,3.9,54.4,5.2z"
			/>
		<path class="st5" d="M76.7,0.3c1.8,0,3.8,0.1,5.5,1.1c1.2,0.7,2.6,2.2,2.6,4.9c0,1.3-0.4,2.6-1.3,3.9c-1.9,2.4-4.4,2.4-6.2,2.4H74
			v7.6h-4.6V0.3L76.7,0.3L76.7,0.3z M76.9,9.1c0.7,0,1.7,0,2.5-0.7c0.5-0.5,0.8-1.3,0.8-2c0-0.8-0.3-1.4-0.8-1.9
			c-0.7-0.6-1.7-0.7-2.4-0.7h-3v5.3L76.9,9.1L76.9,9.1z"/>
		<path class="st5" d="M96.3,11.8v8.4h-4.6v-8.4L85,0.3h5.2l4.2,7.6l4.2-7.6h4.1L96.3,11.8z"/>
	</g>
	<g>
		<path class="st6" d="M80.8,71.7L66.8,59.3v35.1H63V59.3L49.1,71.7l-2.7-2.4l18.5-16.6l18.5,16.6L80.8,71.7z"/>
	</g>
</g>
</svg>
