<?xml version="1.0" encoding="utf-8"?>
<!-- Generator: Adobe Illustrator 23.0.4, SVG Export Plug-In . SVG Version: 6.00 Build 0)  -->
<svg version="1.1" id="Layer_8" xmlns="http://www.w3.org/2000/svg" xmlns:xlink="http://www.w3.org/1999/xlink" x="0px" y="0px"
	 viewBox="0 0 188 150" style="enable-background:new 0 0 188 150;" xml:space="preserve">
<style type="text/css">
	.st0{fill:#030400;}
	.st1{fill:url(#SVGID_1_);}
	.st2{fill:url(#SVGID_2_);}
	.st3{fill:url(#SVGID_3_);}
	.st4{fill:#EDDECB;}
	.st5{fill:#859DAF;}
	.st6{fill:#E0D497;}
</style>
<g id="Layer_6">
	<g>
		<g>
			<path class="st0" d="M146.2,146.6H41.8c-22.9,0-41.7-18.7-41.7-41.7V84.4c0-22.9,18.7-41.7,41.7-41.7h104.6
				c22.9,0,41.7,18.7,41.7,41.7v20.5C187.9,127.9,169.1,146.6,146.2,146.6z"/>
			
				<linearGradient id="SVGID_1_" gradientUnits="userSpaceOnUse" x1="2.4927" y1="474.2468" x2="184.1998" y2="474.2468" gradientTransform="matrix(1 0 0 -1 0 569.4)">
				<stop  offset="0" style="stop-color:#211D14"/>
				<stop  offset="2.810000e-02" style="stop-color:#383429"/>
				<stop  offset="3.700000e-02" style="stop-color:#2C2920"/>
				<stop  offset="5.190000e-02" style="stop-color:#211D17"/>
				<stop  offset="7.290000e-02" style="stop-color:#1A1711"/>
				<stop  offset="0.1313" style="stop-color:#181510"/>
				<stop  offset="0.4854" style="stop-color:#1F1E1A"/>
				<stop  offset="0.8981" style="stop-color:#423A2D"/>
				<stop  offset="0.9331" style="stop-color:#443C2E"/>
				<stop  offset="0.9468" style="stop-color:#4B4233"/>
				<stop  offset="0.9567" style="stop-color:#574D3C"/>
				<stop  offset="0.96" style="stop-color:#5D5240"/>
				<stop  offset="0.9855" style="stop-color:#332D22"/>
				<stop  offset="1" style="stop-color:#211D14"/>
			</linearGradient>
			<path class="st1" d="M142.5,143.6H44c-22.8,0-41.5-18.7-41.5-41.7V88.2c0-22.8,18.7-41.5,41.5-41.5h98.5
				c22.9,0,41.7,18.7,41.7,41.7V102C184.1,124.9,165.3,143.6,142.5,143.6z"/>
			
				<linearGradient id="SVGID_2_" gradientUnits="userSpaceOnUse" x1="3.7595" y1="470.8688" x2="181.8071" y2="470.8688" gradientTransform="matrix(1 0 0 -1 0 569.4)">
				<stop  offset="0" style="stop-color:#7C7563"/>
				<stop  offset="0.9845" style="stop-color:#383226"/>
			</linearGradient>
			<path class="st2" d="M140.1,143.6H45.4c-22.9,0-41.7-18.7-41.7-41.7v-6.9c0-22.9,18.7-41.7,41.7-41.7h94.7
				c22.9,0,41.7,18.7,41.7,41.7v6.9C181.8,124.9,163.1,143.6,140.1,143.6z"/>
			
				<linearGradient id="SVGID_3_" gradientUnits="userSpaceOnUse" x1="3.7595" y1="465.2388" x2="181.8071" y2="465.2388" gradientTransform="matrix(1 0 0 -1 0 569.4)">
				<stop  offset="0" style="stop-color:#665A4A"/>
				<stop  offset="9.099999e-02" style="stop-color:#6D6251"/>
				<stop  offset="0.311" style="stop-color:#78705F"/>
				<stop  offset="0.5" style="stop-color:#7C7563"/>
				<stop  offset="0.7691" style="stop-color:#7A7361"/>
				<stop  offset="0.8921" style="stop-color:#746B59"/>
				<stop  offset="0.9853" style="stop-color:#695F4D"/>
				<stop  offset="1" style="stop-color:#675C4A"/>
			</linearGradient>
			<path class="st3" d="M140.1,149.3H45.4c-22.9,0-41.7-18.7-41.7-41.7v-6.9c0-22.9,18.7-41.7,41.7-41.7h94.7
				c22.9,0,41.7,18.7,41.7,41.7v6.9C181.8,130.6,163.1,149.3,140.1,149.3z"/>
		</g>
		<g>
			<path class="st4" d="M69.5,79.7c-2,3.9-3.4,6.6-4.4,8.2c-1,1.5-2.8,3.9-5.2,7h79v4.9H59.8c3.4,3.5,6.6,8.6,9.7,15.3h-3.8
				c-4.2-4.8-7.9-8.3-11-10.8c-3.1-2.5-6.2-4.5-9.6-6.1v-2.3c2.8-1.3,5.9-3.1,9-5.6c3.1-2.5,7-6.2,11.4-11L69.5,79.7L69.5,79.7z"/>
		</g>
		<g>
			<path class="st5" d="M27.7,36.1h-6.5v-28h6.5V36.1z"/>
			<path class="st5" d="M51.2,26.5L51.2,26.5c-0.3-1.4-0.4-2.8-0.4-3.5V8.1h5.3v28h-5.6l-11-18.3l-1.1-2.3h-0.1
				c0.4,2.1,0.4,3,0.4,4.1v16.6h-5.3V8.1h6.8L51.2,26.5z"/>
			<path class="st5" d="M77.1,16.1c-0.1-0.7-0.6-1.5-1.5-2.3c-1.3-1-2.5-1.3-3.9-1.3c-3.2,0-3.9,1.7-3.9,2.8c0,2.1,2.7,2.7,3.7,2.8
				l3.4,0.8c2.1,0.4,4.1,1,5.9,2.4c1.4,1.1,3,3,3,6.1c0,3.2-1.8,5.3-3.2,6.6c-2.1,1.5-4.9,2.4-8.3,2.4c-7.7,0-11.3-4.2-12.2-8.2
				l6.1-1.1c0.6,1.4,1.5,2.8,2.7,3.5c1.3,0.7,2.7,0.8,3.7,0.8c4.1,0,4.6-2.1,4.6-3.1c0-2.5-3-3.2-3.8-3.4l-3.9-0.8
				C67.5,24,65.1,23,63.9,22c-1.4-1.1-3-2.8-3-5.9c0.1-4.4,3.4-8.4,11-8.4c2.4,0,4.6,0.4,6.6,1.5c2.7,1.7,3.7,3.9,4.2,5.2L77.1,16.1
				z"/>
			<path class="st6" d="M106.9,8.1c2.8,0,7,0.3,10.3,3.7c2.7,2.7,3.8,7,3.8,10.3c0,2.4-0.7,7.5-4.2,10.8c-2.8,2.7-6.1,3.2-9.1,3.2
				H97.4v-28H106.9z M106.8,30.9c1.8,0,4.1-0.4,5.6-2.8c1.5-2.4,1.5-5.2,1.5-6.3c0-1.4-0.1-4.5-2-6.5c-1.7-1.8-3.8-2.1-5.3-2.1h-2.8
				v17.7H106.8L106.8,30.9z"/>
			<path class="st6" d="M145.1,8.1v5.1h-13.2v6.1h10.6V24h-10.6v6.9h13.4v5.2h-19.8v-28H145.1z"/>
			<path class="st6" d="M155.8,30.9h12v5.2h-18.4v-28h6.5V30.9z"/>
		</g>
	</g>
</g>
</svg>
