<?xml version="1.0" encoding="utf-8"?>
<!-- Generator: Adobe Illustrator 23.0.4, SVG Export Plug-In . SVG Version: 6.00 Build 0)  -->
<svg version="1.1" id="Layer_8" xmlns="http://www.w3.org/2000/svg" xmlns:xlink="http://www.w3.org/1999/xlink" x="0px" y="0px"
	 viewBox="0 0 188 150" style="enable-background:new 0 0 188 150;" xml:space="preserve">
<style type="text/css">
	.st0{fill:#030400;}
	.st1{fill:url(#SVGID_1_);}
	.st2{fill:url(#SVGID_2_);}
	.st3{fill:url(#SVGID_3_);}
	.st4{fill:#859DAF;}
	.st5{fill:#E0D497;}
	.st6{fill:#EDDECB;}
</style>
<g>
	<g>
		<path class="st0" d="M146.2,146.7H41.8C18.8,146.7,0.1,128,0.1,105V84.5c0-22.9,18.7-41.7,41.7-41.7h104.6
			c22.9,0,41.7,18.7,41.7,41.7V105C187.9,128,169.1,146.7,146.2,146.7z"/>
		
			<linearGradient id="SVGID_1_" gradientUnits="userSpaceOnUse" x1="2.4927" y1="474.0434" x2="184.3405" y2="474.0434" gradientTransform="matrix(1 0 0 -1 0 569.2)">
			<stop  offset="0" style="stop-color:#211D14"/>
			<stop  offset="2.810000e-02" style="stop-color:#383429"/>
			<stop  offset="3.700000e-02" style="stop-color:#2C2920"/>
			<stop  offset="5.190000e-02" style="stop-color:#211D17"/>
			<stop  offset="7.290000e-02" style="stop-color:#1A1711"/>
			<stop  offset="0.1313" style="stop-color:#181510"/>
			<stop  offset="0.4854" style="stop-color:#1F1E1A"/>
			<stop  offset="0.8981" style="stop-color:#423A2D"/>
			<stop  offset="0.9331" style="stop-color:#443C2E"/>
			<stop  offset="0.9468" style="stop-color:#4B4233"/>
			<stop  offset="0.9567" style="stop-color:#574D3C"/>
			<stop  offset="0.96" style="stop-color:#5D5240"/>
			<stop  offset="0.9855" style="stop-color:#332D22"/>
			<stop  offset="1" style="stop-color:#211D14"/>
		</linearGradient>
		<path class="st1" d="M142.5,143.7H44c-22.8,0-41.5-18.7-41.5-41.7V88.3c0-22.9,18.7-41.7,41.7-41.7h98.5
			c22.9,0,41.7,18.7,41.7,41.7v13.8C184.1,125,165.3,143.7,142.5,143.7z"/>
		
			<linearGradient id="SVGID_2_" gradientUnits="userSpaceOnUse" x1="3.7595" y1="470.595" x2="181.8071" y2="470.595" gradientTransform="matrix(1 0 0 -1 0 569.2)">
			<stop  offset="0" style="stop-color:#7C7563"/>
			<stop  offset="0.9845" style="stop-color:#383226"/>
		</linearGradient>
		<path class="st2" d="M140.1,143.7H45.4c-22.9,0-41.7-18.7-41.7-41.7v-6.9c0-22.9,18.7-41.7,41.7-41.7h94.7
			c22.9,0,41.7,18.7,41.7,41.7v6.9C181.8,125,163.1,143.7,140.1,143.7z"/>
		
			<linearGradient id="SVGID_3_" gradientUnits="userSpaceOnUse" x1="3.7595" y1="464.9651" x2="181.8071" y2="464.9651" gradientTransform="matrix(1 0 0 -1 0 569.2)">
			<stop  offset="0" style="stop-color:#665A4A"/>
			<stop  offset="9.099999e-02" style="stop-color:#6D6251"/>
			<stop  offset="0.311" style="stop-color:#78705F"/>
			<stop  offset="0.5" style="stop-color:#7C7563"/>
			<stop  offset="0.7691" style="stop-color:#7A7361"/>
			<stop  offset="0.8921" style="stop-color:#746B59"/>
			<stop  offset="0.9853" style="stop-color:#695F4D"/>
			<stop  offset="1" style="stop-color:#675C4A"/>
		</linearGradient>
		<path class="st3" d="M140.1,149.3H45.4c-22.9,0-41.7-18.7-41.7-41.7v-6.9c0-22.9,18.7-41.7,41.7-41.7h94.7
			c22.9,0,41.7,18.7,41.7,41.7v6.9C181.8,130.6,163.1,149.3,140.1,149.3z"/>
	</g>
	<g>
		<path class="st4" d="M71.9,30.7c-3,3.5-6.2,5.1-8.2,5.1c-1.5,0-2.4-1.4-1.7-4.6c0.8-3.7,2-7.7,2.7-10.8c0.3-1.4,0.3-1.8-0.1-1.8
			S63,19.2,62,20l-0.7-1.5c3.1-3,6.3-4.5,8.2-4.5c1.5,0,2,1.4,1,5.8c-0.7,2.8-1.7,6.9-2.4,9.7c-0.4,1.3-0.4,2,0,2
			c0.4,0,1.5-0.7,3-2.1L71.9,30.7z M72.7,7.5c0,1.8-1.4,3.7-3.4,3.7c-1.7,0-2.8-1.1-2.8-2.8c-0.1-1.7,1.1-3.7,3.5-3.7
			C71.9,4.7,72.7,5.9,72.7,7.5z"/>
		<path class="st5" d="M116.1,21.4c-3.1,3.1-6.5,6.6-11.4,6.6c-5.2,0-8.9-3.8-8.9-9.1c0-4.9,3.9-9.1,9.4-9.1c4.6,0,8,3.7,11,6.6
			c3.1-3.1,6.5-6.6,11.4-6.6c5.2,0,8.9,3.8,8.9,9.1c0,4.9-3.9,9.1-9.4,9.1C122.4,28,119,24.5,116.1,21.4z M113.5,18.9
			c-2.4-2.3-4.9-5.5-8.6-5.5c-3.1,0-5.5,2.5-5.5,5.5c0,3.2,2.3,5.5,5.2,5.5C108.3,24.4,111.2,21.4,113.5,18.9z M132.5,18.9
			c0-3.1-2.3-5.5-5.2-5.5c-3.5,0-6.3,3.1-8.7,5.5c2.4,2.3,4.9,5.5,8.6,5.5C130.2,24.4,132.5,21.8,132.5,18.9z"/>
	</g>
	<path class="st6" d="M38.1,95c-0.1-3.5-0.6-4.9-0.8-5.6c-0.6-1.3-1.5-1.7-2.7-1.7s-1.8,0.4-2.4,1.1c-0.6,0.7-1.4,3-1.4,10.8
		c0,4.5,0.3,6.8,0.8,8.2c0.6,1.4,1.4,1.8,2.8,1.8c1.3,0,2.1-0.6,2.8-1.8c0.6-1.1,0.8-3.2,0.8-4.6l5.8,0.4c0,2.1-0.6,6.3-3,9.1
		c-1.8,2.1-4.1,2.8-6.6,2.8c-3.8,0-6.2-1.7-7.6-3.5c-3-3.8-3.1-11.1-3.1-13.5c0-2.8,0.1-9.4,3.5-13.4c1.4-1.7,3.7-3.4,7.3-3.4
		c3.4,0,5.3,1.5,6.5,2.5c2.8,2.8,3.2,7.5,3.2,10.1L38.1,95z"/>
	<path class="st6" d="M58.8,82.3l7.5,32.8h-6.8l-1.3-7h-6.5l-1.4,7h-6.1l7.5-32.8H58.8z M55.6,94c-0.6-2.5-0.7-4.4-0.7-5.5
		c0,0.6-0.1,2.3-0.7,5.2l-1.8,9h5.1L55.6,94z"/>
	<path class="st6" d="M77.1,115.1h-6.8V88.5H65v-6.2h17.6v6.2h-5.5V115.1L77.1,115.1z"/>
	<path class="st6" d="M94.8,82.3l7.5,32.8h-6.8l-1.3-7h-6.5l-1.4,7h-6.1l7.5-32.8H94.8z M91.6,94c-0.6-2.5-0.7-4.4-0.7-5.5
		c0,0.6-0.1,2.3-0.7,5.2l-1.8,9h5.1L91.6,94z"/>
	<path class="st6" d="M104.5,82.3h6.8v26.7h8.4v6.1h-15.2V82.3L104.5,82.3z"/>
	<path class="st6" d="M137.9,85.9c1.1,1.7,2.7,5.1,2.7,12.9s-1.5,11.3-2.7,12.9c-2.4,3.5-5.3,4.1-7.6,4.1s-5.5-0.7-7.7-4.2
		c-1.1-1.7-2.7-5.1-2.7-12.9s1.5-11.3,2.7-12.9c2.4-3.5,5.3-4.1,7.6-4.1C132.4,81.6,135.5,82.3,137.9,85.9z M128,108.5
		c0.3,0.4,1,1.3,2.1,1.3c1.1,0,1.8-0.7,2.1-1.3c0.7-1.1,1.1-3.5,1.1-9.9c0-6.5-0.3-8.7-1.1-9.9c-0.3-0.4-1-1.3-2.1-1.3
		c-1.1,0-1.8,0.7-2.1,1.3c-0.7,1.1-1.1,3.5-1.1,9.9C126.9,105,127.3,107.4,128,108.5z"/>
	<path class="st6" d="M163.9,115.1h-3l-0.8-3.9c-0.4,1.1-1.3,2.3-2.1,3c-1.4,1.3-3.1,1.4-4.5,1.4c-1.8,0-4.6-0.3-6.9-3.4
		c-1-1.3-3.1-4.8-3.1-13.4s2.3-12.2,3.4-13.5c1.4-1.8,3.8-3.7,7.5-3.7c3,0,5.1,1.3,6.3,2.5c2.1,2.1,3.1,5.8,3.2,8.6l-5.6,1.1
		c-0.4-3.4-0.8-4.6-1.4-5.2c-0.6-0.6-1.4-1-2.5-1s-1.8,0.4-2.4,1.3s-1.4,3-1.4,9.9c0,3.1,0.1,7.6,1.1,9.3c0.8,1.4,1.8,1.5,2.8,1.5
		c1,0,2-0.3,2.7-1.3c0.7-1,1-3.5,0.8-5.2h-4.1v-5.5h10L163.9,115.1L163.9,115.1z"/>
</g>
</svg>
