<?xml version="1.0" encoding="utf-8"?>
<!-- Generator: Adobe Illustrator 23.0.4, SVG Export Plug-In . SVG Version: 6.00 Build 0)  -->
<svg version="1.1" id="Layer_2" xmlns="http://www.w3.org/2000/svg" xmlns:xlink="http://www.w3.org/1999/xlink" x="0px" y="0px"
	 viewBox="0 0 133.4 106.2" style="enable-background:new 0 0 133.4 106.2;" xml:space="preserve">
<style type="text/css">
	.st0{fill:#030400;}
	.st1{fill:url(#SVGID_1_);}
	.st2{fill:url(#SVGID_2_);}
	.st3{fill:url(#SVGID_3_);}
	.st4{fill:#EDDECB;}
</style>
<g>
	<g>
		<path class="st0" d="M103.6,103.5H29.4c-16.3,0-29.6-13.3-29.6-29.6V59.3c0-16.3,13.3-29.6,29.6-29.6h74.3
			c16.3,0,29.6,13.3,29.6,29.6v14.6C133.1,90.2,119.8,103.5,103.6,103.5z"/>
		
			<linearGradient id="SVGID_1_" gradientUnits="userSpaceOnUse" x1="1.45" y1="459.05" x2="130.55" y2="459.05" gradientTransform="matrix(1 0 0 -1 0 526)">
			<stop  offset="0" style="stop-color:#211D14"/>
			<stop  offset="2.810000e-02" style="stop-color:#383429"/>
			<stop  offset="3.700000e-02" style="stop-color:#2C2920"/>
			<stop  offset="5.190000e-02" style="stop-color:#211D17"/>
			<stop  offset="7.290000e-02" style="stop-color:#1A1711"/>
			<stop  offset="0.1313" style="stop-color:#181510"/>
			<stop  offset="0.4854" style="stop-color:#1F1E1A"/>
			<stop  offset="0.8981" style="stop-color:#423A2D"/>
			<stop  offset="0.9331" style="stop-color:#443C2E"/>
			<stop  offset="0.9468" style="stop-color:#4B4233"/>
			<stop  offset="0.9567" style="stop-color:#574D3C"/>
			<stop  offset="0.96" style="stop-color:#5D5240"/>
			<stop  offset="0.9855" style="stop-color:#332D22"/>
			<stop  offset="1" style="stop-color:#211D14"/>
		</linearGradient>
		<path class="st1" d="M100.9,101.4h-70c-16.2,0-29.5-13.3-29.5-29.6V62c0-16.2,13.3-29.5,29.5-29.5h70c16.3,0,29.6,13.3,29.6,29.6
			v9.8C130.4,88.1,117.2,101.4,100.9,101.4z"/>
		
			<linearGradient id="SVGID_2_" gradientUnits="userSpaceOnUse" x1="2.35" y1="456.65" x2="128.85" y2="456.65" gradientTransform="matrix(1 0 0 -1 0 526)">
			<stop  offset="0" style="stop-color:#7C7563"/>
			<stop  offset="0.9845" style="stop-color:#383226"/>
		</linearGradient>
		<path class="st2" d="M99.2,101.4H32c-16.3,0-29.6-13.3-29.6-29.6v-4.9c0-16.3,13.3-29.6,29.6-29.6h67.3
			c16.3,0,29.6,13.3,29.6,29.6v4.9C128.9,88.1,115.6,101.4,99.2,101.4z"/>
		
			<linearGradient id="SVGID_3_" gradientUnits="userSpaceOnUse" x1="2.35" y1="452.65" x2="128.85" y2="452.65" gradientTransform="matrix(1 0 0 -1 0 526)">
			<stop  offset="0" style="stop-color:#665A4A"/>
			<stop  offset="9.099999e-02" style="stop-color:#6D6251"/>
			<stop  offset="0.311" style="stop-color:#78705F"/>
			<stop  offset="0.5" style="stop-color:#7C7563"/>
			<stop  offset="0.7691" style="stop-color:#7A7361"/>
			<stop  offset="0.8921" style="stop-color:#746B59"/>
			<stop  offset="0.9853" style="stop-color:#695F4D"/>
			<stop  offset="1" style="stop-color:#675C4A"/>
		</linearGradient>
		<path class="st3" d="M99.2,105.4H32c-16.3,0-29.6-13.3-29.6-29.6v-4.9c0-16.3,13.3-29.6,29.6-29.6h67.3
			c16.3,0,29.6,13.3,29.6,29.6v4.9C128.9,92.1,115.6,105.4,99.2,105.4z"/>
	</g>
	<path class="st4" d="M40,66.8c-0.1-2.5-0.4-3.5-0.7-4c-0.4-0.9-1.1-1.2-1.9-1.2c-0.8,0-1.3,0.3-1.7,0.8s-1,2.1-1,7.7
		c0,3.2,0.2,4.8,0.7,5.8c0.4,1,1,1.3,2,1.3c0.9,0,1.5-0.4,2-1.3c0.4-0.8,0.6-2.3,0.6-3.3l4.1,0.3c0,1.5-0.4,4.5-2.1,6.5
		c-1.3,1.5-2.9,2-4.7,2c-2.7,0-4.4-1.2-5.4-2.5c-2.1-2.7-2.2-7.9-2.2-9.6c0-2,0.1-6.7,2.5-9.5c1-1.2,2.6-2.4,5.2-2.4
		c2.4,0,3.8,1.1,4.6,1.8c2,2,2.3,5.3,2.3,7.2L40,66.8z"/>
	<path class="st4" d="M46.5,57.8h4.8v19h6v4.3H46.5V57.8z"/>
	<path class="st4" d="M63.9,67.2h5.6v3.9h-5.6v5.8h7.3V81H59.2V57.7h12.1v4.1h-7.3V67.2z"/>
	<path class="st4" d="M81.6,57.8l5.3,23.3h-4.8l-0.9-5h-4.6l-1,5h-4.3l5.3-23.3C76.6,57.8,81.6,57.8,81.6,57.8z M79.2,66.1
		c-0.4-1.8-0.5-3.1-0.5-3.9c0,0.4-0.1,1.6-0.5,3.7l-1.3,6.4h3.6L79.2,66.1z"/>
	<path class="st4" d="M88.2,57.8h6c2.2,0,4.5,0.1,6,2.2c1,1.4,1.3,3.3,1.3,4.7c0,1.3-0.2,3.1-1,4.3c-0.5,0.8-1.3,1.5-2.1,2l3.5,10.1
		h-5l-2.7-9.2h-1.5v9.2h-4.7L88.2,57.8L88.2,57.8z M94.3,68.1c1.2,0,1.8-0.7,2-1c0.4-0.6,0.5-1.7,0.5-2.5c0-1.2-0.3-1.9-0.6-2.3
		c-0.6-0.8-1.4-0.9-2-0.9h-1.4V68L94.3,68.1L94.3,68.1z"/>
</g>
</svg>
