<?xml version="1.0" encoding="utf-8"?>
<!-- Generator: Adobe Illustrator 23.0.4, SVG Export Plug-In . SVG Version: 6.00 Build 0)  -->
<svg version="1.1" id="Layer_8" xmlns="http://www.w3.org/2000/svg" xmlns:xlink="http://www.w3.org/1999/xlink" x="0px" y="0px"
	 viewBox="0 0 188 150" style="enable-background:new 0 0 188 150;" xml:space="preserve">
<style type="text/css">
	.st0{fill:#030400;}
	.st1{fill:url(#SVGID_1_);}
	.st2{fill:url(#SVGID_2_);}
	.st3{fill:url(#SVGID_3_);}
	.st4{fill:#859DAF;}
	.st5{fill:#BFA992;}
	.st6{fill:#EDDECB;}
</style>
<g>
	<g>
		<path class="st0" d="M146.2,146.3H41.8c-22.9,0-41.7-18.7-41.7-41.7V84.1c0-22.9,18.7-41.7,41.7-41.7h104.6
			c22.9,0,41.7,18.7,41.7,41.7v20.7C187.9,127.6,169.1,146.3,146.2,146.3z"/>
		
			<linearGradient id="SVGID_1_" gradientUnits="userSpaceOnUse" x1="2.4927" y1="474.8249" x2="184.3405" y2="474.8249" gradientTransform="matrix(1 0 0 -1 0 569.7)">
			<stop  offset="0" style="stop-color:#211D14"/>
			<stop  offset="2.810000e-02" style="stop-color:#383429"/>
			<stop  offset="3.700000e-02" style="stop-color:#2C2920"/>
			<stop  offset="5.190000e-02" style="stop-color:#211D17"/>
			<stop  offset="7.290000e-02" style="stop-color:#1A1711"/>
			<stop  offset="0.1313" style="stop-color:#181510"/>
			<stop  offset="0.4854" style="stop-color:#1F1E1A"/>
			<stop  offset="0.8981" style="stop-color:#423A2D"/>
			<stop  offset="0.9331" style="stop-color:#443C2E"/>
			<stop  offset="0.9468" style="stop-color:#4B4233"/>
			<stop  offset="0.9567" style="stop-color:#574D3C"/>
			<stop  offset="0.96" style="stop-color:#5D5240"/>
			<stop  offset="0.9855" style="stop-color:#332D22"/>
			<stop  offset="1" style="stop-color:#211D14"/>
		</linearGradient>
		<path class="st1" d="M142.5,143.4H44c-22.8,0-41.5-18.7-41.5-41.7V88c0-22.9,18.7-41.7,41.7-41.7h98.5c22.9,0,41.7,18.7,41.7,41.7
			v13.8C184.1,124.6,165.3,143.4,142.5,143.4z"/>
		
			<linearGradient id="SVGID_2_" gradientUnits="userSpaceOnUse" x1="3.7595" y1="471.4469" x2="181.8071" y2="471.4469" gradientTransform="matrix(1 0 0 -1 0 569.7)">
			<stop  offset="0" style="stop-color:#7C7563"/>
			<stop  offset="0.9845" style="stop-color:#383226"/>
		</linearGradient>
		<path class="st2" d="M140.1,143.4H45.4c-22.9,0-41.7-18.7-41.7-41.7v-6.9c0-22.9,18.7-41.7,41.7-41.7h94.7
			c22.9,0,41.7,18.7,41.7,41.7v6.9C181.8,124.6,163.1,143.4,140.1,143.4z"/>
		
			<linearGradient id="SVGID_3_" gradientUnits="userSpaceOnUse" x1="3.7595" y1="465.8169" x2="181.8071" y2="465.8169" gradientTransform="matrix(1 0 0 -1 0 569.7)">
			<stop  offset="0" style="stop-color:#665A4A"/>
			<stop  offset="9.099999e-02" style="stop-color:#6D6251"/>
			<stop  offset="0.311" style="stop-color:#78705F"/>
			<stop  offset="0.5" style="stop-color:#7C7563"/>
			<stop  offset="0.7691" style="stop-color:#7A7361"/>
			<stop  offset="0.8921" style="stop-color:#746B59"/>
			<stop  offset="0.9853" style="stop-color:#695F4D"/>
			<stop  offset="1" style="stop-color:#675C4A"/>
		</linearGradient>
		<path class="st3" d="M140.1,149H45.4c-22.9,0-41.7-18.7-41.7-41.7v-6.9c0-22.9,18.7-41.7,41.7-41.7h94.7
			c22.9,0,41.7,18.7,41.7,41.7v6.9C181.8,130.3,163.1,149,140.1,149z"/>
	</g>
	<g>
		<path class="st4" d="M77.1,8h-3.9v29h3.9v3h-8.7V5h8.7V8z"/>
		<path class="st5" d="M110.3,5c2.8,0,7,0.3,10.3,3.7c2.7,2.7,3.8,7,3.8,10.3c0,2.4-0.7,7.5-4.2,10.8c-2.8,2.7-6.1,3.2-9.1,3.2
			h-10.3V5H110.3z M110.2,27.8c1.8,0,4.1-0.4,5.6-2.8c1.5-2.4,1.5-5.2,1.5-6.3c0-1.4-0.1-4.5-2-6.5c-1.7-1.8-3.8-2.1-5.3-2.1h-2.8
			v17.7H110.2z"/>
	</g>
	<path class="st6" d="M100.2,89.7v11L93,113.2h-5.2l5.2-11.5h-5.3v-12L100.2,89.7L100.2,89.7z"/>
</g>
</svg>
