<?xml version="1.0" encoding="utf-8"?>
<!-- Generator: Adobe Illustrator 23.0.4, SVG Export Plug-In . SVG Version: 6.00 Build 0)  -->
<svg version="1.1" id="Layer_8" xmlns="http://www.w3.org/2000/svg" xmlns:xlink="http://www.w3.org/1999/xlink" x="0px" y="0px"
	 viewBox="0 0 188 150" style="enable-background:new 0 0 188 150;" xml:space="preserve">
<style type="text/css">
	.st0{fill:#030400;}
	.st1{fill:url(#SVGID_1_);}
	.st2{fill:url(#SVGID_2_);}
	.st3{fill:url(#SVGID_3_);}
	.st4{fill:#859DAF;}
	.st5{fill:#BFA992;}
	.st6{fill:#EDDECB;}
</style>
<g>
	<g>
		<path class="st0" d="M146.2,146.3H41.8c-22.9,0-41.7-18.7-41.7-41.7V84.1c0-22.9,18.7-41.7,41.7-41.7h104.6
			c22.9,0,41.7,18.7,41.7,41.7v20.7C187.9,127.6,169.1,146.3,146.2,146.3z"/>
		
			<linearGradient id="SVGID_1_" gradientUnits="userSpaceOnUse" x1="2.4927" y1="474.8249" x2="184.3405" y2="474.8249" gradientTransform="matrix(1 0 0 -1 0 569.7)">
			<stop  offset="0" style="stop-color:#211D14"/>
			<stop  offset="2.810000e-02" style="stop-color:#383429"/>
			<stop  offset="3.700000e-02" style="stop-color:#2C2920"/>
			<stop  offset="5.190000e-02" style="stop-color:#211D17"/>
			<stop  offset="7.290000e-02" style="stop-color:#1A1711"/>
			<stop  offset="0.1313" style="stop-color:#181510"/>
			<stop  offset="0.4854" style="stop-color:#1F1E1A"/>
			<stop  offset="0.8981" style="stop-color:#423A2D"/>
			<stop  offset="0.9331" style="stop-color:#443C2E"/>
			<stop  offset="0.9468" style="stop-color:#4B4233"/>
			<stop  offset="0.9567" style="stop-color:#574D3C"/>
			<stop  offset="0.96" style="stop-color:#5D5240"/>
			<stop  offset="0.9855" style="stop-color:#332D22"/>
			<stop  offset="1" style="stop-color:#211D14"/>
		</linearGradient>
		<path class="st1" d="M142.5,143.4H44c-22.8,0-41.5-18.7-41.5-41.7V88c0-22.9,18.7-41.7,41.7-41.7h98.5c22.9,0,41.7,18.7,41.7,41.7
			v13.8C184.1,124.6,165.3,143.4,142.5,143.4z"/>
		
			<linearGradient id="SVGID_2_" gradientUnits="userSpaceOnUse" x1="3.7595" y1="471.4469" x2="181.8071" y2="471.4469" gradientTransform="matrix(1 0 0 -1 0 569.7)">
			<stop  offset="0" style="stop-color:#7C7563"/>
			<stop  offset="0.9845" style="stop-color:#383226"/>
		</linearGradient>
		<path class="st2" d="M140.1,143.4H45.4c-22.9,0-41.7-18.7-41.7-41.7v-6.9c0-22.9,18.7-41.7,41.7-41.7h94.7
			c22.9,0,41.7,18.7,41.7,41.7v6.9C181.8,124.6,163.1,143.4,140.1,143.4z"/>
		
			<linearGradient id="SVGID_3_" gradientUnits="userSpaceOnUse" x1="3.7595" y1="465.8169" x2="181.8071" y2="465.8169" gradientTransform="matrix(1 0 0 -1 0 569.7)">
			<stop  offset="0" style="stop-color:#665A4A"/>
			<stop  offset="9.099999e-02" style="stop-color:#6D6251"/>
			<stop  offset="0.311" style="stop-color:#78705F"/>
			<stop  offset="0.5" style="stop-color:#7C7563"/>
			<stop  offset="0.7691" style="stop-color:#7A7361"/>
			<stop  offset="0.8921" style="stop-color:#746B59"/>
			<stop  offset="0.9853" style="stop-color:#695F4D"/>
			<stop  offset="1" style="stop-color:#675C4A"/>
		</linearGradient>
		<path class="st3" d="M140.1,149H45.4c-22.9,0-41.7-18.7-41.7-41.7v-6.9c0-22.9,18.7-41.7,41.7-41.7h94.7
			c22.9,0,41.7,18.7,41.7,41.7v6.9C181.8,130.3,163.1,149,140.1,149z"/>
	</g>
	<g>
		<path class="st4" d="M76.4,5v34.8h-8.7v-3h3.9V8h-3.9V5H76.4L76.4,5z"/>
		<path class="st5" d="M120.7,5v5.2h-13.2v6.1H118v4.8h-10.6v6.9h13.4v5.2H101V5H120.7L120.7,5z"/>
	</g>
	<path class="st6" d="M109.9,94.5v8.3H76.9v-8.3H109.9z M98.3,86.6c0,1.4-0.6,2.7-1.5,3.7s-2.3,1.5-3.7,1.5c-1.4,0-2.7-0.6-3.8-1.5
		s-1.5-2.3-1.5-3.7c0-1.4,0.6-2.7,1.5-3.7c1-1,2.3-1.5,3.8-1.5s2.8,0.6,3.8,1.7C97.9,84.2,98.3,85.4,98.3,86.6z M98.3,110.9
		c0,1.4-0.6,2.7-1.5,3.7c-1,1-2.3,1.5-3.7,1.5c-1.4,0-2.7-0.6-3.8-1.5c-1.1-1-1.5-2.3-1.5-3.8c0-1.4,0.6-2.7,1.5-3.7
		c1-1,2.4-1.5,3.8-1.5c1.4,0,2.7,0.6,3.7,1.5C97.8,108,98.3,109.4,98.3,110.9z"/>
</g>
</svg>
