<?xml version="1.0" encoding="utf-8"?>
<!-- Generator: Adobe Illustrator 23.1.0, SVG Export Plug-In . SVG Version: 6.00 Build 0)  -->
<svg version="1.1" id="Layer_8" xmlns="http://www.w3.org/2000/svg" xmlns:xlink="http://www.w3.org/1999/xlink" x="0px" y="0px"
	 viewBox="0 0 121 109.8" style="enable-background:new 0 0 121 109.8;" xml:space="preserve">
<style type="text/css">
	.st0{fill:#030400;}
	.st1{fill:url(#SVGID_1_);}
	.st2{fill:url(#SVGID_2_);}
	.st3{fill:url(#SVGID_3_);}
	.st4{fill:#859DAF;}
	.st5{fill:#BFA992;}
	.st6{fill:#EDDECB;}
</style>
<g>
	<g>
		<path class="st0" d="M108.5,109.8h-96C5.6,109.8,0,104.2,0,97.3V41.8c0-6.9,5.6-12.5,12.5-12.5h96c6.9,0,12.5,5.6,12.5,12.5v55.6
			C121,104.2,115.4,109.8,108.5,109.8z"/>
		
			<linearGradient id="SVGID_1_" gradientUnits="userSpaceOnUse" x1="3.03" y1="-349.4501" x2="116.71" y2="-349.4501" gradientTransform="matrix(1 0 0 1 0 420)">
			<stop  offset="0" style="stop-color:#211D14"/>
			<stop  offset="0.1313" style="stop-color:#181510"/>
			<stop  offset="0.8015" style="stop-color:#433B30"/>
			<stop  offset="1" style="stop-color:#070604"/>
		</linearGradient>
		<path class="st1" d="M104.2,109.8H15.5C8.6,109.8,3,104.2,3,97.3V43.8c0-6.9,5.6-12.5,12.5-12.5h88.6c6.9,0,12.5,5.6,12.5,12.5
			v53.6C116.7,104.2,111.1,109.8,104.2,109.8z"/>
		
			<linearGradient id="SVGID_2_" gradientUnits="userSpaceOnUse" x1="3.03" y1="-346.59" x2="116.71" y2="-346.59" gradientTransform="matrix(1 0 0 1 0 420)">
			<stop  offset="0" style="stop-color:#665744"/>
			<stop  offset="0.359" style="stop-color:#645542"/>
			<stop  offset="0.5592" style="stop-color:#5C4E3D"/>
			<stop  offset="0.7203" style="stop-color:#4E4234"/>
			<stop  offset="0.8598" style="stop-color:#3A3128"/>
			<stop  offset="0.9855" style="stop-color:#211C17"/>
			<stop  offset="0.9948" style="stop-color:#1F1A16"/>
		</linearGradient>
		<path class="st2" d="M104.2,109.8H15.5C8.6,109.8,3,104.2,3,97.3V49.5C3,42.6,8.6,37,15.5,37h88.6c6.9,0,12.5,5.6,12.5,12.5v47.8
			C116.7,104.2,111.1,109.8,104.2,109.8z"/>
		
			<linearGradient id="SVGID_3_" gradientUnits="userSpaceOnUse" x1="3.03" y1="-344.17" x2="116.71" y2="-344.17" gradientTransform="matrix(1 0 0 1 0 420)">
			<stop  offset="0" style="stop-color:#120D09"/>
			<stop  offset="0.2622" style="stop-color:#1F1A16"/>
			<stop  offset="0.5" style="stop-color:#241F1B"/>
			<stop  offset="0.7779" style="stop-color:#221D19"/>
			<stop  offset="0.9049" style="stop-color:#1A1613"/>
			<stop  offset="1" style="stop-color:#0E0A09"/>
		</linearGradient>
		<path class="st3" d="M104.2,109.8H15.5C8.6,109.8,3,104.2,3,97.3v-43c0-6.9,5.6-12.5,12.5-12.5h88.6c6.9,0,12.5,5.6,12.5,12.5v43
			C116.7,104.2,111.1,109.8,104.2,109.8z"/>
	</g>
	<g>
		<path class="st4" d="M28.9,7.7V4.1l14.5,5.8v3.1l-14.5,5.8v-3.6l9.8-3.8L28.9,7.7z"/>
		<path class="st5" d="M70.3,0l3.3,13.3L77,0h3.7l3.6,13.3L87.4,0h3.7L86,19.9h-4.1L78.6,7.1l-3.3,12.8h-4.1L65.9,0H70.3z"/>
	</g>
	<path class="st6" d="M66.2,78.7v11.2H54.8V78.7H66.2z"/>
</g>
</svg>
