<?xml version="1.0" encoding="utf-8"?>
<!-- Generator: Adobe Illustrator 23.0.4, SVG Export Plug-In . SVG Version: 6.00 Build 0)  -->
<svg version="1.1" id="Layer_8" xmlns="http://www.w3.org/2000/svg" xmlns:xlink="http://www.w3.org/1999/xlink" x="0px" y="0px"
	 viewBox="0 0 188 150" style="enable-background:new 0 0 188 150;" xml:space="preserve">
<style type="text/css">
	.st0{fill:#030400;}
	.st1{fill:url(#SVGID_1_);}
	.st2{fill:url(#SVGID_2_);}
	.st3{fill:url(#SVGID_3_);}
	.st4{fill:#859DAF;}
	.st5{fill:#E0D497;}
	.st6{fill:#BFA992;}
	.st7{fill:#EDDECB;}
</style>
<g>
	<g>
		<path class="st0" d="M146.2,147.2H41.8c-22.9,0-41.7-18.7-41.7-41.7V84.8c0-22.8,18.7-41.5,41.7-41.5h104.6
			C169.3,43.3,188,62,188,85v20.7C187.9,128.5,169.1,147.2,146.2,147.2z"/>
		
			<linearGradient id="SVGID_1_" gradientUnits="userSpaceOnUse" x1="2.352" y1="471.4968" x2="184.1998" y2="471.4968" gradientTransform="matrix(1 0 0 -1 0 567.1756)">
			<stop  offset="0" style="stop-color:#211D14"/>
			<stop  offset="2.810000e-02" style="stop-color:#383429"/>
			<stop  offset="3.700000e-02" style="stop-color:#2C2920"/>
			<stop  offset="5.190000e-02" style="stop-color:#211D17"/>
			<stop  offset="7.290000e-02" style="stop-color:#1A1711"/>
			<stop  offset="0.1313" style="stop-color:#181510"/>
			<stop  offset="0.4854" style="stop-color:#1F1E1A"/>
			<stop  offset="0.8981" style="stop-color:#423A2D"/>
			<stop  offset="0.9331" style="stop-color:#443C2E"/>
			<stop  offset="0.9468" style="stop-color:#4B4233"/>
			<stop  offset="0.9567" style="stop-color:#574D3C"/>
			<stop  offset="0.96" style="stop-color:#5D5240"/>
			<stop  offset="0.9855" style="stop-color:#332D22"/>
			<stop  offset="1" style="stop-color:#211D14"/>
		</linearGradient>
		<path class="st1" d="M142.5,144.2H44c-22.9,0-41.7-18.7-41.7-41.7V88.8c0-22.9,18.7-41.7,41.7-41.7h98.5
			c22.9,0,41.7,18.7,41.7,41.7v13.8C184.1,125.5,165.3,144.2,142.5,144.2z"/>
		
			<linearGradient id="SVGID_2_" gradientUnits="userSpaceOnUse" x1="3.7595" y1="468.0485" x2="181.8071" y2="468.0485" gradientTransform="matrix(1 0 0 -1 0 567.1756)">
			<stop  offset="0" style="stop-color:#7C7563"/>
			<stop  offset="0.9845" style="stop-color:#383226"/>
		</linearGradient>
		<path class="st2" d="M140.1,144.2H45.4c-22.9,0-41.7-18.7-41.7-41.7v-6.9C3.8,72.7,22.5,54,45.4,54h94.7
			c22.9,0,41.7,18.7,41.7,41.7v6.9C181.8,125.5,163.1,144.2,140.1,144.2z"/>
		
			<linearGradient id="SVGID_3_" gradientUnits="userSpaceOnUse" x1="3.7595" y1="462.4185" x2="181.8071" y2="462.4185" gradientTransform="matrix(1 0 0 -1 0 567.1756)">
			<stop  offset="0" style="stop-color:#665A4A"/>
			<stop  offset="9.099999e-02" style="stop-color:#6D6251"/>
			<stop  offset="0.311" style="stop-color:#78705F"/>
			<stop  offset="0.5" style="stop-color:#7C7563"/>
			<stop  offset="0.7691" style="stop-color:#7A7361"/>
			<stop  offset="0.8921" style="stop-color:#746B59"/>
			<stop  offset="0.9853" style="stop-color:#695F4D"/>
			<stop  offset="1" style="stop-color:#675C4A"/>
		</linearGradient>
		<path class="st3" d="M140.1,149.9H45.4c-22.9,0-41.7-18.7-41.7-41.7v-6.9c0-22.9,18.7-41.7,41.7-41.7h94.7
			c22.9,0,41.7,18.7,41.7,41.7v6.9C181.8,131.1,163.1,149.9,140.1,149.9z"/>
	</g>
	<g>
		<path class="st4" d="M35.1,35.6l-1-1.7l17.2-20.7l2.3,2L38.7,32.9h19.3v2.8H35.1V35.6z"/>
		<path class="st5" d="M70.5,8.1h5.8v9.1c0,0.6,0,1-0.1,3.4c0.1-1,0.7-2.5,1-3.2l4.2-9.3h5.6l-5.6,10.4l6.6,17.6H82l-3.9-12.7
			l-1.7,3.8v8.9h-5.9V8.1L70.5,8.1z"/>
		<path class="st5" d="M95.7,19.5h6.8v4.6h-6.8v7h8.9v4.9H89.9v-28h14.6v4.9h-8.9C95.7,13.1,95.7,19.5,95.7,19.5z"/>
		<path class="st5" d="M110.7,24.7l-5.6-16.6h6.1l2.5,8.9c0.1,1.1,0.4,3,0.4,4.5c0.1-1.3,0.4-3.2,0.7-4.5l2.7-8.9h5.2l-6.2,16.6
			v11.5h-5.8V24.7L110.7,24.7z"/>
		<path class="st6" d="M134.2,8.1h5.8v9.1c0,0.6,0,1-0.1,3.4c0.1-1,0.7-2.5,1-3.2l4.2-9.3h5.6l-5.6,10.4l6.6,17.6h-5.9l-3.9-12.7
			l-1.7,3.8v8.9h-5.8L134.2,8.1L134.2,8.1z"/>
	</g>
	<path class="st7" d="M90.7,105.8v8H65.4V80.1h25.5v7.7H75.5v4.9h12.4v7.5H75.5v5.5L90.7,105.8L90.7,105.8z"/>
	<path class="st7" d="M120.3,105.8v8H95V80.1h25.5v7.7h-15.3v4.9h12.4v7.5h-12.4v5.5L120.3,105.8L120.3,105.8z"/>
</g>
</svg>
