<?xml version="1.0" encoding="utf-8"?>
<!-- Generator: Adobe Illustrator 23.1.0, SVG Export Plug-In . SVG Version: 6.00 Build 0)  -->
<svg version="1.1" id="Layer_8" xmlns="http://www.w3.org/2000/svg" xmlns:xlink="http://www.w3.org/1999/xlink" x="0px" y="0px"
	 viewBox="0 0 121.3 130.5" style="enable-background:new 0 0 121.3 130.5;" xml:space="preserve">
<style type="text/css">
	.st0{fill:#030400;}
	.st1{fill:url(#SVGID_1_);}
	.st2{fill:url(#SVGID_2_);}
	.st3{fill:url(#SVGID_3_);}
	.st4{fill:#859DAF;}
	.st5{fill:#E0D497;}
	.st6{fill:#EDDECB;}
</style>
<g>
	<g>
		<path class="st0" d="M4.3,125.1c2,3.4,5.6,5.4,9.5,5.4H73c19.6,0,48.3-40.3,48.3-59.9V50.8c0-14-11.3-25.3-25.3-25.3H12.8
			C5.9,25.5,0.3,31.1,0.3,38v55.6C0.3,99.4-1.6,115,4.3,125.1z"/>
		
			<linearGradient id="SVGID_1_" gradientUnits="userSpaceOnUse" x1="-748.8817" y1="-342.3" x2="-637.8246" y2="-342.3" gradientTransform="matrix(-1 0 0 1 -633.4614 420)">
			<stop  offset="0" style="stop-color:#211D14"/>
			<stop  offset="2.810000e-02" style="stop-color:#383429"/>
			<stop  offset="3.700000e-02" style="stop-color:#2C2920"/>
			<stop  offset="5.190000e-02" style="stop-color:#211D17"/>
			<stop  offset="7.290000e-02" style="stop-color:#1A1711"/>
			<stop  offset="0.1313" style="stop-color:#181510"/>
			<stop  offset="0.4854" style="stop-color:#1F1E1A"/>
			<stop  offset="0.8981" style="stop-color:#423A2D"/>
			<stop  offset="0.9331" style="stop-color:#443C2E"/>
			<stop  offset="0.9468" style="stop-color:#4B4233"/>
			<stop  offset="0.9567" style="stop-color:#574D3C"/>
			<stop  offset="0.96" style="stop-color:#5D5240"/>
			<stop  offset="0.9855" style="stop-color:#332D22"/>
			<stop  offset="1" style="stop-color:#211D14"/>
		</linearGradient>
		<path class="st1" d="M4.6,110.5c0.7,9.8,8.7,17.4,18.3,17.4h49.5c19.4,0,43-37.9,43-57.8v-17c0-14.1-11.2-25.6-24.9-25.6H16.8
			c-6.8,0-12.2,5.6-12.2,12.5v53.6C4.6,96.9,4.1,103.7,4.6,110.5z"/>
		
			<linearGradient id="SVGID_2_" gradientUnits="userSpaceOnUse" x1="-748.8817" y1="-339.4451" x2="-638.0217" y2="-339.4451" gradientTransform="matrix(-1 0 0 1 -633.4614 420)">
			<stop  offset="0" style="stop-color:#7C7563"/>
			<stop  offset="0.9845" style="stop-color:#383226"/>
		</linearGradient>
		<path class="st2" d="M5.9,114.7c1.3,7.7,7.8,13.2,15.4,13.2h34.7c18.7,0,59.5-37.3,59.5-56.5v-5.8c0-17.8-14.1-32.3-31.5-32.3
			H16.8c-6.8,0-12.2,5.6-12.2,12.5v47.8C4.6,97.5,4.6,106.7,5.9,114.7z"/>
		
			<linearGradient id="SVGID_3_" gradientUnits="userSpaceOnUse" x1="-748.8917" y1="-337.02" x2="-637.2689" y2="-337.02" gradientTransform="matrix(-1 0 0 1 -633.4614 420)">
			<stop  offset="0" style="stop-color:#665A4A"/>
			<stop  offset="9.099999e-02" style="stop-color:#6D6251"/>
			<stop  offset="0.311" style="stop-color:#78705F"/>
			<stop  offset="0.5" style="stop-color:#7C7563"/>
			<stop  offset="0.7691" style="stop-color:#7A7361"/>
			<stop  offset="0.8921" style="stop-color:#746B59"/>
			<stop  offset="0.9853" style="stop-color:#695F4D"/>
			<stop  offset="1" style="stop-color:#675C4A"/>
		</linearGradient>
		<path class="st3" d="M4.3,114.4c1,7.7,7.6,13.4,15.2,13.4h44.4c19.4,0,51.5-29.9,51.5-57.8l0,0c0-17.6-14-31.9-31.2-31.9H20.8
			c-8.9,0-16.2,7.4-16.2,16.6v34.8C4.6,94.8,3.1,105.6,4.3,114.4z"/>
	</g>
	<g>
		<path class="st4" d="M17.3,0v3.7H7.9v4.3h7.5v3.4H7.9v4.9h9.5v3.7H3.3V0L17.3,0L17.3,0z"/>
		<path class="st4" d="M32.8,13.1L32.8,13.1c-0.2-1-0.3-2-0.3-2.5V0h3.8v19.9h-4l-7.8-13l-0.8-1.6h-0.1c0.3,1.5,0.3,2.2,0.3,2.9
			v11.8h-3.8V0H25L32.8,13.1z"/>
		<path class="st4" d="M52.6,0v3.7h-4.7v16.2h-4.6V3.7h-4.7V0H52.6z"/>
		<path class="st4" d="M63.8,0c2.3,0,4.2,0.6,5.2,1.6c1,0.8,1.8,2.3,1.8,4.2c0,2.6-1.4,4.5-3.5,5.4l3.9,8.7H66l-3.2-7.8h-3.4v7.8
			h-4.6V0H63.8z M59.4,8.6h3.4c0.9,0,1.8,0,2.5-0.8c0.5-0.4,0.8-1.1,0.8-1.9c0-0.8-0.3-1.5-0.8-1.9c-0.7-0.6-1.9-0.6-2.4-0.6h-3.5
			L59.4,8.6L59.4,8.6z"/>
		<path class="st4" d="M83.4,11.5v8.4h-4.6v-8.4L72.2,0h5.2l4.2,7.6L85.8,0h4.1L83.4,11.5z"/>
	</g>
	<g>
		<path class="st5" d="M99.1,8.9V4.3c1.5-1.6,3.2-2.4,5.2-2.4c0.7,0,1.4,0.1,2,0.2s1.6,0.5,2.9,1s2.2,0.9,2.6,1s0.8,0.2,1.1,0.2
			c0.7,0,1.4-0.2,2.3-0.6s1.7-1,2.5-1.9v4.8c-0.5,0.6-1.3,1.1-2.3,1.6s-2,0.8-3,0.8c-0.6,0-1.2-0.1-1.7-0.2s-1.4-0.5-2.7-1
			c-1.8-0.8-3.2-1.2-4.3-1.2C102.3,6.4,100.7,7.3,99.1,8.9z M99.1,17.4v-4.5c1.5-1.6,3.2-2.4,5.2-2.4c0.7,0,1.4,0.1,2,0.2
			s1.6,0.5,2.9,1s2.2,0.8,2.6,1s0.8,0.2,1.1,0.2c0.7,0,1.4-0.2,2.3-0.6s1.7-1,2.5-1.9V15c-0.5,0.6-1.3,1.1-2.3,1.6s-2,0.8-3,0.8
			c-0.6,0-1.2-0.1-1.7-0.2s-1.4-0.5-2.7-1c-1.8-0.8-3.2-1.2-4.3-1.2C102.3,14.9,100.7,15.8,99.1,17.4z"/>
	</g>
	<path class="st6" d="M26.4,75.2H32v3.9h-5.6V85h7.3v4.1H21.6V65.7h12.1v4.1h-7.3V75.2z"/>
	<path class="st6" d="M35.9,65.8h4.7l3.8,10.7c0.3,0.9,0.9,3.4,1.1,4.6c-0.2-2.3-0.4-5.2-0.4-7.1v-8.2h3.9v23.3h-3.9l-4.4-11.9
		c-0.5-1.3-0.8-2.4-1.4-4.8c0.1,1,0.4,5.6,0.4,6.9v9.8h-3.9V65.8z"/>
	<path class="st6" d="M59.5,89.1h-4.8V70.1h-3.8v-4.4h12.5v4.4h-3.9L59.5,89.1L59.5,89.1z"/>
	<path class="st6" d="M69.9,75.2h5.6v3.9h-5.6V85h7.3v4.1H65.1V65.7h12.1v4.1h-7.3V75.2z"/>
	<path class="st6" d="M79.5,65.8h6c2.2,0,4.5,0.1,6,2.2c1,1.4,1.3,3.3,1.3,4.7c0,1.3-0.2,3.1-1,4.3c-0.5,0.8-1.3,1.5-2.1,2l3.5,10.1
		h-5l-2.7-9.2h-1.5v9.2h-4.7L79.5,65.8L79.5,65.8z M85.5,76c1.2,0,1.8-0.7,2-1c0.4-0.7,0.5-1.7,0.5-2.5c0-1.2-0.3-1.9-0.6-2.3
		c-0.6-0.8-1.4-0.8-2-0.8h-1.4V76L85.5,76L85.5,76z"/>
</g>
</svg>
