<?xml version="1.0" encoding="utf-8"?>
<!-- Generator: Adobe Illustrator 23.1.0, SVG Export Plug-In . SVG Version: 6.00 Build 0)  -->
<svg version="1.1" id="Layer_8" xmlns="http://www.w3.org/2000/svg" xmlns:xlink="http://www.w3.org/1999/xlink" x="0px" y="0px"
	 viewBox="0 0 151.1 106.2" style="enable-background:new 0 0 151.1 106.2;" xml:space="preserve">
<style type="text/css">
	.st0{fill:#030400;}
	.st1{fill:url(#SVGID_1_);}
	.st2{fill:url(#SVGID_2_);}
	.st3{fill:url(#SVGID_3_);}
	.st4{fill:#859DAF;}
	.st5{fill:#E0D497;}
	.st6{fill:#EDDECB;}
</style>
<g>
	<g>
		<path class="st0" d="M107.2,104.3H33C16.7,104.3,3.4,91,3.4,74.8V60.1c0-16.3,13.3-29.6,29.6-29.6h74.3
			c16.3,0,29.6,13.3,29.6,29.6v14.6C136.8,91,123.5,104.3,107.2,104.3z"/>
		
			<linearGradient id="SVGID_1_" gradientUnits="userSpaceOnUse" x1="5.05" y1="-352.225" x2="134.14" y2="-352.225" gradientTransform="matrix(1 0 0 1 0 420)">
			<stop  offset="0" style="stop-color:#211D14"/>
			<stop  offset="0.1313" style="stop-color:#181510"/>
			<stop  offset="0.8015" style="stop-color:#433B30"/>
			<stop  offset="1" style="stop-color:#070604"/>
		</linearGradient>
		<path class="st1" d="M104.6,102.2h-70C18.3,102.2,5,88.9,5,72.7v-9.8c0-16.3,13.3-29.6,29.6-29.6h70c16.3,0,29.6,13.3,29.6,29.6
			v9.8C134.1,88.9,120.8,102.2,104.6,102.2z"/>
		
			<linearGradient id="SVGID_2_" gradientUnits="userSpaceOnUse" x1="6.03" y1="-349.805" x2="132.49" y2="-349.805" gradientTransform="matrix(1 0 0 1 0 420)">
			<stop  offset="0" style="stop-color:#665744"/>
			<stop  offset="0.359" style="stop-color:#645542"/>
			<stop  offset="0.5592" style="stop-color:#5C4E3D"/>
			<stop  offset="0.7203" style="stop-color:#4E4234"/>
			<stop  offset="0.8598" style="stop-color:#3A3128"/>
			<stop  offset="0.9855" style="stop-color:#211C17"/>
			<stop  offset="0.9948" style="stop-color:#1F1A16"/>
		</linearGradient>
		<path class="st2" d="M102.9,102.2H35.6C19.3,102.2,6,88.9,6,72.7v-4.9c0-16.3,13.3-29.6,29.6-29.6h67.3
			c16.3,0,29.6,13.3,29.6,29.6v4.9C132.5,88.9,119.2,102.2,102.9,102.2z"/>
		
			<linearGradient id="SVGID_3_" gradientUnits="userSpaceOnUse" x1="6.03" y1="-345.805" x2="132.49" y2="-345.805" gradientTransform="matrix(1 0 0 1 0 420)">
			<stop  offset="0" style="stop-color:#120D09"/>
			<stop  offset="0.2622" style="stop-color:#1F1A16"/>
			<stop  offset="0.5" style="stop-color:#241F1B"/>
			<stop  offset="0.7779" style="stop-color:#221D19"/>
			<stop  offset="0.9049" style="stop-color:#1A1613"/>
			<stop  offset="1" style="stop-color:#0E0A09"/>
		</linearGradient>
		<path class="st3" d="M102.9,106.2H35.6C19.3,106.2,6,92.9,6,76.7v-4.9c0-16.3,13.3-29.6,29.6-29.6h67.3
			c16.3,0,29.6,13.3,29.6,29.6v4.9C132.5,92.9,119.2,106.2,102.9,106.2z"/>
	</g>
	<g>
		<path class="st4" d="M17.3,24c-0.8,0.2-1.5,0.2-2.4,0.2c-1.4,0-2.8-0.2-3.9-1.5c-0.5-0.7-0.9-1.6-1-2.4c-0.4,0.1-0.8,0.1-1.2,0.1
			c-2.5,0-4.6-0.9-6-2.2c-1.9-1.8-3-4.6-3-8C0,6.4,1.4,3.6,3.2,2C5.1,0.3,7.3,0,9,0s3.9,0.3,5.8,2c1.8,1.6,3.2,4.4,3.2,8.2
			c0,3.7-1.4,7.4-4.6,9.2c0,0.2,0.1,0.5,0.5,0.8c0.5,0.4,1,0.5,1.6,0.5c0.6,0,1.7-0.2,1.9-0.2L17.3,24L17.3,24z M6,15.2
			C6.6,16.1,7.6,17,9,17c1.4,0,2.4-0.9,2.9-1.8c0.4-0.7,1-2.1,1-5.1s-0.7-4.4-1-5C11.1,3.9,10,3.5,9,3.5S6.9,3.9,6,5.2
			c-0.4,0.6-1,2-1,5S5.6,14.6,6,15.2z"/>
		<path class="st4" d="M25.6,0.3v12.6c0,1.2,0,2.2,0.7,3.1c0.6,0.8,1.6,1,2.7,1c0.8,0,1.8-0.2,2.5-1c0.8-0.9,0.8-1.9,0.8-3.1V0.3H36
			V13c0,1.5,0,3.8-1.9,5.6c-0.8,0.8-2.5,1.9-5.5,1.9c-2.7,0-4.5-0.6-5.7-1.7c-1.7-1.5-2-3.4-2-5.6V0.3L25.6,0.3L25.6,0.3z"/>
		<path class="st4" d="M44.4,20.2h-4.6V0.3h4.6V20.2z"/>
		<path class="st4" d="M60.6,0.3v3.6h-4.7v16.2h-4.6V3.9h-4.7V0.3H60.6z"/>
		<path class="st5" d="M77,0.3c1.8,0,3.8,0.1,5.5,1.1c1.2,0.7,2.6,2.2,2.6,4.9c0,1.3-0.4,2.6-1.3,3.9c-1.9,2.4-4.4,2.4-6.2,2.4h-3.3
			v7.6h-4.6V0.3L77,0.3L77,0.3z M77.1,9.1c0.7,0,1.7,0,2.5-0.7c0.5-0.5,0.8-1.3,0.8-2c0-0.8-0.3-1.4-0.8-1.9C79,3.9,78,3.8,77.2,3.8
			h-3v5.3L77.1,9.1L77.1,9.1z"/>
		<path class="st5" d="M102,20.2h-4.8l-1.4-4.7h-6.1l-1.4,4.7h-3.9l6.3-19.9h5L102,20.2z M92.7,4.9l-2.2,7.3h4.4L92.7,4.9z"/>
		<path class="st5" d="M115,6c-0.1-0.5-0.4-1.1-1.1-1.6c-0.9-0.7-1.8-0.9-2.8-0.9c-2.3,0-2.8,1.2-2.8,2c0,1.5,1.9,1.9,2.6,2l2.5,0.6
			c1.5,0.3,2.9,0.7,4.1,1.7c1,0.8,2.1,2.1,2.1,4.3c0,2.3-1.3,3.8-2.4,4.7c-1.5,1.1-3.5,1.7-5.9,1.7c-5.5,0-8-3-8.7-5.8l4.3-0.8
			c0.4,1,1.1,2,1.9,2.5c0.9,0.6,1.9,0.6,2.6,0.6c2.9,0,3.3-1.5,3.3-2.2c0-1.8-2.1-2.3-2.7-2.4l-2.6-0.6c-1.1-0.2-2.8-0.9-3.7-1.6
			c-1-0.8-2.1-2-2.1-4.2c0-3.2,2.3-6.1,7.7-6.1c1.7,0,3.3,0.3,4.7,1.1c1.9,1.2,2.6,2.8,3,3.7L115,6z"/>
		<path class="st5" d="M134.8,0.3v3.6h-4.7v16.2h-4.6V3.9h-4.7V0.3H134.8z"/>
		<path class="st5" d="M151,0.3v3.6h-9.4v4.3h7.5v3.4h-7.5v4.9h9.5v3.7H137V0.3L151,0.3L151,0.3z"/>
	</g>
	<path class="st6" d="M54.3,70h5.6V74h-5.6v5.8h7.3v4.1H49.5V60.6h12.1v4.1h-7.3V70z"/>
	<path class="st6" d="M72,67.1c-0.3-1.4-0.8-2-1.2-2.3c-0.5-0.4-1-0.4-1.5-0.4s-1,0.1-1.5,0.5c-0.4,0.4-0.5,1.1-0.5,1.7
		c0,0.8,0.2,1.4,0.8,1.9c0.7,0.6,1.7,1,3.3,1.7c1.1,0.5,2.4,1.1,3.4,2.6c0.9,1.2,1.1,2.4,1.1,3.9c0,3.1-1.2,4.9-2.2,5.7
		c-1.2,1.1-3.1,1.7-4.9,1.7c-1.5,0-3.2-0.4-4.4-1.4c-1.7-1.4-2.3-3.6-2.5-4.9l3.8-1.4c0.2,0.9,0.7,2.4,1.3,2.9
		c0.4,0.4,1.1,0.5,1.8,0.5c0.5,0,1.2-0.1,1.7-0.6c0.4-0.4,0.6-1.1,0.6-1.8c0-0.8-0.2-1.4-0.8-1.9c-0.6-0.6-1.6-1-3.2-1.9
		c-1.2-0.6-2.5-1.3-3.4-2.6c-0.7-1.1-1-2.5-1-3.9c0-2.3,0.9-4.2,2.1-5.4c1.1-1.1,2.7-1.7,4.3-1.7c1.1,0,2.5,0.3,3.5,1
		c1.3,0.9,2.4,2.5,2.8,4.4L72,67.1z"/>
	<path class="st6" d="M87.7,69.6c-0.1-2.6-0.4-3.5-0.6-4c-0.4-0.9-1.1-1.2-1.9-1.2c-0.8,0-1.3,0.3-1.7,0.8c-0.4,0.5-1,2.1-1,7.7
		c0,3.2,0.2,4.8,0.6,5.8c0.4,1,1,1.3,2,1.3c0.9,0,1.5-0.4,2-1.3c0.4-0.8,0.6-2.3,0.6-3.3l4.1,0.3c0,1.5-0.4,4.5-2.1,6.5
		c-1.3,1.5-2.9,2-4.7,2c-2.7,0-4.4-1.2-5.4-2.6c-2.1-2.7-2.2-7.9-2.2-9.6c0-2,0.1-6.7,2.5-9.5c1-1.2,2.6-2.4,5.2-2.4
		c2.4,0,3.8,1.1,4.6,1.8c2,2,2.3,5.3,2.3,7.2L87.7,69.6z"/>
</g>
</svg>
