<?xml version="1.0" encoding="utf-8"?>
<!-- Generator: Adobe Illustrator 23.0.4, SVG Export Plug-In . SVG Version: 6.00 Build 0)  -->
<svg version="1.1" id="device" xmlns="http://www.w3.org/2000/svg" xmlns:xlink="http://www.w3.org/1999/xlink" x="0px" y="0px"
	 viewBox="0 0 62.6 62.6" style="enable-background:new 0 0 62.6 62.6;" xml:space="preserve">
<style type="text/css">
	.st0{fill:#242015;}
	.st1{fill:#50483B;}
	.st2{fill:#443E35;}
	.st3{fill:#38332C;}
	.st4{fill:#2D2823;}
	.st5{fill:url(#SVGID_1_);}
	.st6{fill:#FFF5E1;}
</style>
<g id="Layer_4">
	<g>
		<g>
			<ellipse class="st0" cx="31.3" cy="31.3" rx="31.3" ry="31.3"/>
			<ellipse class="st0" cx="31" cy="32" rx="30.6" ry="30.6"/>
			
				<ellipse transform="matrix(0.3195 -0.9476 0.9476 0.3195 -10.1188 51.4971)" class="st1" cx="30.8" cy="32.8" rx="29.2" ry="29.5"/>
			<ellipse class="st2" cx="30.6" cy="32" rx="27.1" ry="27.1"/>
			<circle class="st3" cx="30.8" cy="31.8" r="26.6"/>
			<circle class="st4" cx="31" cy="31.5" r="26.2"/>
			
				<radialGradient id="SVGID_1_" cx="31.3" cy="-66.0228" r="25.7" gradientTransform="matrix(1 0 0 1 0 97.3228)" gradientUnits="userSpaceOnUse">
				<stop  offset="0" style="stop-color:#50483B"/>
				<stop  offset="0.48" style="stop-color:#4E4639"/>
				<stop  offset="0.6529" style="stop-color:#474034"/>
				<stop  offset="0.7761" style="stop-color:#3C3529"/>
				<stop  offset="0.875" style="stop-color:#2B261B"/>
				<stop  offset="0.905" style="stop-color:#242015"/>
				<stop  offset="0.9486" style="stop-color:#332D22"/>
				<stop  offset="0.9845" style="stop-color:#383226"/>
			</radialGradient>
			<circle class="st5" cx="31.3" cy="31.3" r="25.7"/>
		</g>
		<g>
			<path class="st6" d="M18.9,18.7h10v3.9h-5.5v5.9h5.2v3.7h-5.2v9.5h-4.5V18.7L18.9,18.7z"/>
			<path class="st6" d="M31.7,37.4c0.9,0.5,2.1,0.9,3.3,0.9c2.2,0,3.4-1.3,3.4-3.2c0-2.5-1.9-3.5-4.2-3.5h-0.6v-3.2H34
				c1.6,0,3.7-0.7,3.7-2.8c0-1.6-1-2.5-2.6-2.5c-1,0-2,0.3-2.8,0.9l-0.6-3.3c0.9-0.6,2.7-1.2,4.5-1.2c3.9,0,5.8,2.5,5.8,5.3
				c0,2.2-1.2,4-3.2,5v0.1c2.1,0.7,3.8,2.6,3.8,5.6c0,3.4-2.6,6.7-7.4,6.7c-1.8,0-3.4-0.4-4.3-1L31.7,37.4z"/>
		</g>
	</g>
</g>
</svg>
