<?xml version="1.0" encoding="utf-8"?>
<!-- Generator: Adobe Illustrator 23.0.4, SVG Export Plug-In . SVG Version: 6.00 Build 0)  -->
<svg version="1.1" id="device" xmlns="http://www.w3.org/2000/svg" xmlns:xlink="http://www.w3.org/1999/xlink" x="0px" y="0px"
	 viewBox="0 0 62.6 62.6" style="enable-background:new 0 0 62.6 62.6;" xml:space="preserve">
<style type="text/css">
	.st0{fill:#242015;}
	.st1{fill:#50483B;}
	.st2{fill:#443E35;}
	.st3{fill:#38332C;}
	.st4{fill:#2D2823;}
	.st5{fill:url(#SVGID_1_);}
	.st6{fill:#FFF5E1;}
</style>
<g>
	<g>
		<ellipse class="st0" cx="31.3" cy="31.3" rx="31.3" ry="31.3"/>
		<ellipse transform="matrix(0.9239 -0.3827 0.3827 0.9239 -9.8861 14.299)" class="st0" cx="31" cy="32" rx="30.6" ry="30.6"/>
		
			<ellipse transform="matrix(0.3195 -0.9476 0.9476 0.3195 -10.0775 51.5454)" class="st1" cx="30.8" cy="32.8" rx="29.2" ry="29.5"/>
		
			<ellipse transform="matrix(0.9239 -0.3827 0.3827 0.9239 -9.8783 14.1383)" class="st2" cx="30.6" cy="31.9" rx="27.1" ry="27.1"/>
		
			<ellipse transform="matrix(0.9239 -0.3827 0.3827 0.9239 -9.8248 14.2073)" class="st3" cx="30.8" cy="31.8" rx="26.6" ry="26.6"/>
		<circle class="st4" cx="31.1" cy="31.5" r="26.2"/>
		
			<radialGradient id="SVGID_1_" cx="31.3" cy="-66.0228" r="25.7" gradientTransform="matrix(1 0 0 1 0 97.3228)" gradientUnits="userSpaceOnUse">
			<stop  offset="0" style="stop-color:#50483B"/>
			<stop  offset="0.48" style="stop-color:#4E4639"/>
			<stop  offset="0.6529" style="stop-color:#474034"/>
			<stop  offset="0.7761" style="stop-color:#3C3529"/>
			<stop  offset="0.875" style="stop-color:#2B261B"/>
			<stop  offset="0.905" style="stop-color:#242015"/>
			<stop  offset="0.9486" style="stop-color:#332D22"/>
			<stop  offset="0.9845" style="stop-color:#383226"/>
		</radialGradient>
		<circle class="st5" cx="31.3" cy="31.3" r="25.7"/>
	</g>
	<g>
		<path class="st6" d="M19,18.5h10v3.9h-5.5v5.9h5.2V32h-5.2v9.5H19V18.5L19,18.5z"/>
		<path class="st6" d="M42.7,23.2h-5.9l-0.5,4c0.2,0,0.4,0,0.7,0c1,0,2.9,0.5,4.2,1.7c1.2,1.2,1.9,2.9,1.9,5.1
			c0,4.3-2.8,7.8-7.7,7.8c-1.6,0-3.3-0.4-4.2-0.9l0.7-3.5c0.8,0.4,2,0.8,3.2,0.8c2.2,0,3.6-1.4,3.6-3.7c0-3-2.2-4-4.8-4
			c-0.6,0-1.1,0-1.6,0.1l1.2-11.1h9.2L42.7,23.2L42.7,23.2z"/>
	</g>
</g>
</svg>
