<?xml version="1.0" encoding="utf-8"?>
<!-- Generator: Adobe Illustrator 23.0.4, SVG Export Plug-In . SVG Version: 6.00 Build 0)  -->
<svg version="1.1" id="Layer_8" xmlns="http://www.w3.org/2000/svg" xmlns:xlink="http://www.w3.org/1999/xlink" x="0px" y="0px"
	 viewBox="0 0 188 150" style="enable-background:new 0 0 188 150;" xml:space="preserve">
<style type="text/css">
	.st0{fill:#030400;}
	.st1{fill:url(#SVGID_1_);}
	.st2{fill:url(#SVGID_2_);}
	.st3{fill:url(#SVGID_3_);}
	.st4{fill:#859DAF;}
	.st5{fill:#EDDECB;}
</style>
<g>
	<g>
		<path class="st0" d="M146.2,147.2H41.8c-22.9,0-41.7-18.7-41.7-41.7V85c0-22.9,18.7-41.7,41.7-41.7h104.6
			C169.3,43.3,188,62,188,85v20.5C187.9,128.4,169.1,147.2,146.2,147.2z"/>
		
			<linearGradient id="SVGID_1_" gradientUnits="userSpaceOnUse" x1="2.352" y1="473.7509" x2="184.1998" y2="473.7509" gradientTransform="matrix(1 0 0 -1 0 569.4)">
			<stop  offset="0" style="stop-color:#211D14"/>
			<stop  offset="2.810000e-02" style="stop-color:#383429"/>
			<stop  offset="3.700000e-02" style="stop-color:#2C2920"/>
			<stop  offset="5.190000e-02" style="stop-color:#211D17"/>
			<stop  offset="7.290000e-02" style="stop-color:#1A1711"/>
			<stop  offset="0.1313" style="stop-color:#181510"/>
			<stop  offset="0.4854" style="stop-color:#1F1E1A"/>
			<stop  offset="0.8981" style="stop-color:#423A2D"/>
			<stop  offset="0.9331" style="stop-color:#443C2E"/>
			<stop  offset="0.9468" style="stop-color:#4B4233"/>
			<stop  offset="0.9567" style="stop-color:#574D3C"/>
			<stop  offset="0.96" style="stop-color:#5D5240"/>
			<stop  offset="0.9855" style="stop-color:#332D22"/>
			<stop  offset="1" style="stop-color:#211D14"/>
		</linearGradient>
		<path class="st1" d="M142.5,144.2H44c-22.9,0-41.7-18.7-41.7-41.7V88.8c0-22.9,18.7-41.7,41.7-41.7h98.5
			c22.9,0,41.7,18.7,41.7,41.7v13.8C184.1,125.5,165.3,144.2,142.5,144.2z"/>
		
			<linearGradient id="SVGID_2_" gradientUnits="userSpaceOnUse" x1="3.7595" y1="470.3025" x2="181.8071" y2="470.3025" gradientTransform="matrix(1 0 0 -1 0 569.4)">
			<stop  offset="0" style="stop-color:#7C7563"/>
			<stop  offset="0.9845" style="stop-color:#383226"/>
		</linearGradient>
		<path class="st2" d="M140.1,144.2H45.4c-22.9,0-41.7-18.7-41.7-41.7v-6.9C3.8,72.7,22.5,54,45.4,54h94.7
			c22.9,0,41.7,18.7,41.7,41.7v6.9C181.8,125.5,163.1,144.2,140.1,144.2z"/>
		
			<linearGradient id="SVGID_3_" gradientUnits="userSpaceOnUse" x1="3.7595" y1="464.6725" x2="181.8071" y2="464.6725" gradientTransform="matrix(1 0 0 -1 0 569.4)">
			<stop  offset="0" style="stop-color:#665A4A"/>
			<stop  offset="9.099999e-02" style="stop-color:#6D6251"/>
			<stop  offset="0.311" style="stop-color:#78705F"/>
			<stop  offset="0.5" style="stop-color:#7C7563"/>
			<stop  offset="0.7691" style="stop-color:#7A7361"/>
			<stop  offset="0.8921" style="stop-color:#746B59"/>
			<stop  offset="0.9853" style="stop-color:#695F4D"/>
			<stop  offset="1" style="stop-color:#675C4A"/>
		</linearGradient>
		<path class="st3" d="M140.1,149.8H45.4c-22.9,0-41.7-18.7-41.7-41.7v-6.9c0-22.9,18.7-41.7,41.7-41.7h94.7
			c22.9,0,41.7,18.7,41.7,41.7v6.9C181.8,131.1,163.1,149.8,140.1,149.8z"/>
	</g>
	<g>
		<path class="st4" d="M29.8,18.9c-0.1-1.1-0.4-2.3-1-3.4c-1-1.7-2.1-2.4-4.1-2.4c-2.1,0-3.7,1-4.6,3.2c-0.7,1.7-1,3.5-1,6.2
			c0,2.8,0.3,4.8,1,6.3c1.3,2.7,3.2,3.2,4.6,3.2c1.4,0,2.8-0.4,3.9-2c0.8-1.1,1.1-2.7,1.3-3.8L36,27c-0.3,3.1-1.8,5.6-3.2,7
			c-1.5,1.5-4.1,3.1-7.9,3.1c-5.9,0-9.1-3.5-10.6-5.9s-2-5.8-2-8.6c0-4.8,1.7-8.7,4.1-11.1c2.8-3,6.3-3.2,8.4-3.2s5.5,0.6,8,3
			c0.4,0.6,2.8,3,3.2,7.2L29.8,18.9z"/>
		<path class="st4" d="M46.4,8.7v17.7c0,1.7,0,3.1,1,4.2c0.8,1.1,2.3,1.4,3.8,1.4c1.1,0,2.5-0.3,3.7-1.4c1.1-1.3,1.1-2.7,1.1-4.4
			V8.7h5.3v17.9c0,2.1,0,5.3-2.7,7.9c-1.1,1.1-3.7,2.7-7.7,2.7c-3.8,0-6.3-0.8-8-2.4c-2.4-2.1-2.8-4.8-2.8-7.9V8.7H46.4L46.4,8.7z"
			/>
		<path class="st4" d="M81.6,16.7C81.5,16,81,15.1,80,14.4c-1.1-1-2.4-1.3-3.9-1.3c-3.2,0-3.9,1.7-3.9,2.8c0,2.1,2.7,2.7,3.7,2.8
			l3.5,0.7c2.1,0.4,4.1,1,5.9,2.4c1.4,1.1,3,3,3,6.1c0,3.2-1.8,5.3-3.2,6.6C83,36.1,80,37,76.7,37c-7.7,0-11.1-4.2-12.2-8.2l6.1-1.1
			c0.6,1.4,1.5,2.8,2.7,3.5c1.3,0.7,2.7,0.8,3.7,0.8c4.1,0,4.6-2.1,4.6-3.1c0-2.5-3-3.2-3.8-3.4L74,24.7c-1.5-0.3-3.9-1.3-5.2-2.3
			c-1.4-1.1-3-2.8-3-5.9C65.8,12,69.1,8,76.7,8c2.4,0,4.6,0.4,6.6,1.5c2.7,1.7,3.7,3.9,4.2,5.2L81.6,16.7z"/>
		<path class="st4" d="M109.5,8.7v5.1h-6.6v22.8h-6.5V13.7h-6.6V8.7H109.5z"/>
		<path class="st4" d="M132,11.1c2.5,2.3,4.5,6.2,4.5,11.5c0,4.8-1.5,8.7-4.2,11.3c-1.5,1.5-4.4,3.1-8.4,3.1s-6.8-1.7-8.4-3.1
			c-2.7-2.5-4.2-6.5-4.2-11.3c0-5.3,2-9.3,4.5-11.5c2.7-2.4,5.8-2.8,8.2-2.8C126.2,8.2,129.3,8.7,132,11.1z M119.7,15.6
			c-0.6,0.8-1.4,2.8-1.4,7s0.8,6.2,1.4,7c0.8,1.3,2.1,2.5,4.1,2.5s3.4-1.3,4.1-2.5c0.6-1,1.4-3,1.4-7s-1-6.2-1.4-7
			c-1.1-1.8-2.5-2.4-4.1-2.4C122.3,13.2,120.9,13.7,119.7,15.6z"/>
		<path class="st4" d="M155.6,26.5L155.6,26.5l5.9-17.9h8.9v28h-6.3V14.9h-0.1l-6.8,21.8H153l-6.9-21.8h-0.1v21.8h-5.1v-28h8.9
			L155.6,26.5z"/>
	</g>
	<path class="st5" d="M57,95.6V82.8h6.8v32.8H57v-14.2h-5.1v14.2h-6.8V82.8h6.8v12.8H57L57,95.6z"/>
	<path class="st5" d="M85.8,86.2c1.1,1.7,2.7,5.1,2.7,12.9s-1.5,11.3-2.7,12.9c-2.4,3.5-5.3,4.1-7.6,4.1c-2.3,0-5.3-0.6-7.6-4.1
		c-1.1-1.7-2.7-5.1-2.7-12.9s1.5-11.3,2.7-12.9c2.4-3.5,5.3-4.1,7.6-4.1C80.5,82.1,83.4,82.8,85.8,86.2z M76,109
		c0.3,0.4,1,1.3,2.1,1.3s1.8-0.7,2.1-1.3c0.7-1.1,1.1-3.5,1.1-9.9c0-6.5-0.3-8.7-1.1-9.9c-0.3-0.4-1-1.3-2.1-1.3s-1.8,0.7-2.1,1.3
		c-0.7,1.1-1.1,3.5-1.1,9.9C75,105.6,75.3,107.9,76,109z"/>
	<path class="st5" d="M92.6,82.8h9.3l2.5,13.8c0.4,2.4,0.8,7.3,1,9.4c0.4-4.9,0.8-7.6,1.4-10.1l2.8-13.1h9v32.8h-6.5V96.9
		c0-5.2,0.1-2.5,0.3-10c-0.4,2.8-1.3,8.4-1.4,9.6l-3.9,19.1h-4.2L99,96.4c-0.3-1.7-0.6-3.8-1.3-9.3c0.1,2.3,0.3,7,0.3,9.1v19.4h-5.3
		C92.6,115.6,92.6,82.8,92.6,82.8z"/>
	<path class="st5" d="M130.4,96.1h7.9v5.5h-7.9v8.2h10.3v5.8h-17V82.8h17v5.8h-10.3V96.1z"/>
</g>
</svg>
