<?xml version="1.0" encoding="utf-8"?>
<!-- Generator: Adobe Illustrator 23.1.0, SVG Export Plug-In . SVG Version: 6.00 Build 0)  -->
<svg version="1.1" id="Layer_8" xmlns="http://www.w3.org/2000/svg" xmlns:xlink="http://www.w3.org/1999/xlink" x="0px" y="0px"
	 viewBox="0 0 99.2 137.3" style="enable-background:new 0 0 99.2 137.3;" xml:space="preserve">
<style type="text/css">
	.st0{fill:#030400;}
	.st1{fill:url(#SVGID_1_);}
	.st2{fill:url(#SVGID_2_);}
	.st3{fill:url(#SVGID_3_);}
	.st4{fill:#EDDECB;}
	.st5{fill:#859DAF;}
	.st6{fill:#E0D497;}
	.st7{fill:none;}
</style>
<g id="Layer_7">
	<g>
		<g>
			<path class="st0" d="M49.6,0C22.3,0,0,30.8,0,68.7c0,37.9,22.3,68.7,49.6,68.7c27.3,0,49.6-30.8,49.6-68.7C99.2,30.8,77,0,49.6,0
				z"/>
			
				<radialGradient id="SVGID_1_" cx="48.915" cy="-97.8301" r="48.9127" gradientTransform="matrix(1 0 0 -1.3722 0 -67.1274)" gradientUnits="userSpaceOnUse">
				<stop  offset="0" style="stop-color:#211D14"/>
				<stop  offset="0.116" style="stop-color:#1E1D19"/>
				<stop  offset="0.5849" style="stop-color:#181510"/>
				<stop  offset="0.9751" style="stop-color:#1F1E1A"/>
				<stop  offset="1" style="stop-color:#211D14"/>
			</radialGradient>
			<path class="st1" d="M48.9,0C22,0,0,30.1,0,67.1c0,37,21.9,67.1,48.9,67.1c27,0,48.9-30.1,48.9-67.1C97.8,30.1,75.9,0,48.9,0z"/>
			
				<linearGradient id="SVGID_2_" gradientUnits="userSpaceOnUse" x1="9.948730e-03" y1="-33.5827" x2="93.93" y2="-33.5827" gradientTransform="matrix(1 0 0 -1 0 30.8523)">
				<stop  offset="0" style="stop-color:#665744"/>
				<stop  offset="0.359" style="stop-color:#645542"/>
				<stop  offset="0.5592" style="stop-color:#5C4E3D"/>
				<stop  offset="0.7203" style="stop-color:#4E4234"/>
				<stop  offset="0.8598" style="stop-color:#3A3128"/>
				<stop  offset="0.9855" style="stop-color:#211C17"/>
				<stop  offset="0.9948" style="stop-color:#1F1A16"/>
			</linearGradient>
			<path class="st2" d="M47,0C21.1,0,0,28.9,0,64.4c0,35.5,21.1,64.4,47,64.4s47-28.9,47-64.4C93.9,28.9,72.9,0,47,0z"/>
			
				<radialGradient id="SVGID_3_" cx="45.695" cy="-94.6163" r="45.6959" gradientTransform="matrix(1 0 0 -1.3722 0 -67.1274)" gradientUnits="userSpaceOnUse">
				<stop  offset="0" style="stop-color:#120D09"/>
				<stop  offset="0.3831" style="stop-color:#16110D"/>
				<stop  offset="0.7465" style="stop-color:#211C18"/>
				<stop  offset="0.8093" style="stop-color:#241F1B"/>
				<stop  offset="0.8455" style="stop-color:#1B1714"/>
				<stop  offset="0.9148" style="stop-color:#110D0C"/>
				<stop  offset="1" style="stop-color:#0E0A09"/>
			</radialGradient>
			<path class="st3" d="M45.7,0C20.5,0,0,28.1,0,62.7c0,34.6,20.5,62.7,45.7,62.7s45.7-28.1,45.7-62.7C91.4,28.1,70.9,0,45.7,0z"/>
		</g>
		<path class="st4" d="M23.4,87.3c0,0,16.8,19,22.4,19c6,0,22.3-19,22.3-19C48.3,95.9,44,95.9,23.4,87.3z"/>
		<g>
			<g>
				<path class="st5" d="M28.5,45.1c0,0,13,14.7,17.3,14.7c4.6,0,17.2-14.7,17.2-14.7C47.7,51.8,44.4,51.8,28.5,45.1z"/>
			</g>
			<g>
				<path class="st5" d="M29.1,38.5l-1.3,3.2c16.4,6.8,20.1,6.8,35.8,0l-1.4-3.2C47.4,45,44.6,45,29.1,38.5z"/>
			</g>
			<g>
				<path class="st5" d="M29.1,31.5l-1.3,3.2c16.4,6.8,20.1,6.8,35.8,0l-1.4-3.2C47.4,38,44.6,38,29.1,31.5z"/>
			</g>
			<g>
				<path class="st5" d="M29.1,24.6l-1.3,3.2c16.4,6.8,20.1,6.8,35.8,0l-1.4-3.2C47.4,31,44.6,31,29.1,24.6z"/>
			</g>
		</g>
		<g>
			<path class="st6" d="M28.5,59.3c0,0,13,14.7,17.3,14.7c4.6,0,17.2-14.7,17.2-14.7C47.7,65.9,44.4,65.9,28.5,59.3z"/>
			<g>
				<line class="st7" x1="28.5" y1="76.3" x2="62.9" y2="76.3"/>
				<rect x="28.5" y="74" class="st6" width="34.5" height="4.6"/>
			</g>
		</g>
	</g>
</g>
</svg>
