<?xml version="1.0" encoding="utf-8"?>
<!-- Generator: Adobe Illustrator 23.0.4, SVG Export Plug-In . SVG Version: 6.00 Build 0)  -->
<svg version="1.1" id="Layer_8" xmlns="http://www.w3.org/2000/svg" xmlns:xlink="http://www.w3.org/1999/xlink" x="0px" y="0px"
	 viewBox="0 0 188 150" style="enable-background:new 0 0 188 150;" xml:space="preserve">
<style type="text/css">
	.st0{fill:#030400;}
	.st1{fill:url(#SVGID_1_);}
	.st2{fill:url(#SVGID_2_);}
	.st3{fill:url(#SVGID_3_);}
	.st4{fill:#859DAF;}
	.st5{fill:#E0D497;}
	.st6{fill:#EDDECB;}
</style>
<g>
	<g>
		<path class="st0" d="M146.2,146.4H41.8c-22.9,0-41.7-18.7-41.7-41.7V84.2c0-22.9,18.7-41.7,41.7-41.7h104.6
			c22.9,0,41.7,18.7,41.7,41.7v20.5C187.9,127.7,169.1,146.4,146.2,146.4z"/>
		
			<linearGradient id="SVGID_1_" gradientUnits="userSpaceOnUse" x1="2.352" y1="475.4954" x2="184.1998" y2="475.4954" gradientTransform="matrix(1 0 0 -1 0 570.4)">
			<stop  offset="0" style="stop-color:#211D14"/>
			<stop  offset="2.810000e-02" style="stop-color:#383429"/>
			<stop  offset="3.700000e-02" style="stop-color:#2C2920"/>
			<stop  offset="5.190000e-02" style="stop-color:#211D17"/>
			<stop  offset="7.290000e-02" style="stop-color:#1A1711"/>
			<stop  offset="0.1313" style="stop-color:#181510"/>
			<stop  offset="0.4854" style="stop-color:#1F1E1A"/>
			<stop  offset="0.8981" style="stop-color:#423A2D"/>
			<stop  offset="0.9331" style="stop-color:#443C2E"/>
			<stop  offset="0.9468" style="stop-color:#4B4233"/>
			<stop  offset="0.9567" style="stop-color:#574D3C"/>
			<stop  offset="0.96" style="stop-color:#5D5240"/>
			<stop  offset="0.9855" style="stop-color:#332D22"/>
			<stop  offset="1" style="stop-color:#211D14"/>
		</linearGradient>
		<path class="st1" d="M142.5,143.5H44c-22.9,0-41.7-18.7-41.7-41.7V88c0-22.9,18.7-41.7,41.7-41.7h98.5c22.9,0,41.7,18.7,41.7,41.7
			v13.8C184.1,124.7,165.3,143.5,142.5,143.5z"/>
		
			<linearGradient id="SVGID_2_" gradientUnits="userSpaceOnUse" x1="3.7595" y1="472.047" x2="181.8071" y2="472.047" gradientTransform="matrix(1 0 0 -1 0 570.4)">
			<stop  offset="0" style="stop-color:#7C7563"/>
			<stop  offset="0.9845" style="stop-color:#383226"/>
		</linearGradient>
		<path class="st2" d="M140.1,143.5H45.4c-22.9,0-41.7-18.7-41.7-41.7v-6.9c0-22.9,18.7-41.7,41.7-41.7h94.7
			c22.9,0,41.7,18.7,41.7,41.7v6.9C181.8,124.7,163.1,143.5,140.1,143.5z"/>
		
			<linearGradient id="SVGID_3_" gradientUnits="userSpaceOnUse" x1="3.7595" y1="466.4171" x2="181.8071" y2="466.4171" gradientTransform="matrix(1 0 0 -1 0 570.4)">
			<stop  offset="0" style="stop-color:#665A4A"/>
			<stop  offset="9.099999e-02" style="stop-color:#6D6251"/>
			<stop  offset="0.311" style="stop-color:#78705F"/>
			<stop  offset="0.5" style="stop-color:#7C7563"/>
			<stop  offset="0.7691" style="stop-color:#7A7361"/>
			<stop  offset="0.8921" style="stop-color:#746B59"/>
			<stop  offset="0.9853" style="stop-color:#695F4D"/>
			<stop  offset="1" style="stop-color:#675C4A"/>
		</linearGradient>
		<path class="st3" d="M140.1,149.1H45.4c-22.9,0-41.7-18.7-41.7-41.7v-6.9c0-22.9,18.7-41.7,41.7-41.7h94.7
			c22.9,0,41.7,18.7,41.7,41.7v6.9C181.8,130.4,163.1,149.1,140.1,149.1z"/>
	</g>
	<g>
		<path class="st4" d="M58.5,8.9l28.9,14.5L58.5,37.8V8.9L58.5,8.9z"/>
	</g>
	<g>
		<path class="st5" d="M144.5,35.9h-42.2v-5.2h42.2V35.9z"/>
	</g>
	<path class="st6" d="M45.4,82.1h9.3l2.5,13.8c0.4,2.4,0.8,7.3,1,9.4c0.4-4.9,0.8-7.6,1.4-10.1l2.8-13.1h9v32.8H65V96.2
		c0-5.2,0.1-2.5,0.3-10c-0.4,2.8-1.3,8.4-1.4,9.6l-3.9,19h-4.2l-3.8-19.3c-0.3-1.7-0.6-3.8-1.3-9.3c0.1,2.3,0.3,7,0.3,9.1v19.4h-5.3
		V82.1H45.4z"/>
	<path class="st6" d="M93.4,85.5c1.1,1.7,2.7,5.1,2.7,12.9s-1.5,11.3-2.7,12.9c-2.4,3.5-5.3,4.1-7.6,4.1s-5.3-0.6-7.6-4.1
		c-1.1-1.7-2.7-5.1-2.7-12.9s1.5-11.3,2.7-12.9c2.4-3.5,5.3-4.1,7.6-4.1S91.2,82.1,93.4,85.5z M83.7,108.3c0.3,0.4,1,1.3,2.1,1.3
		s1.8-0.7,2.1-1.3c0.7-1.1,1.1-3.5,1.1-9.9c0-6.5-0.3-8.7-1.1-9.9c-0.3-0.4-1-1.3-2.1-1.3S84,88,83.7,88.6c-0.7,1.1-1.1,3.5-1.1,9.9
		S83,107.1,83.7,108.3z"/>
	<path class="st6" d="M100.2,82.1h6.3c4.1,0,8.4,0.3,11.3,4.2c1.3,1.7,2.8,4.9,2.8,12c0,3.5-0.3,8.3-2.8,12.1
		c-1.1,1.8-3.5,4.5-8.6,4.5h-8.9L100.2,82.1L100.2,82.1z M108.9,109.1c1,0,2.3,0,3.4-1.4c0.6-0.7,1.4-2.5,1.4-9.7
		c0-2.3-0.1-7.7-1.8-9.3c-0.8-0.8-2.1-0.8-2.8-0.8h-2v21.3H108.9L108.9,109.1z"/>
	<path class="st6" d="M131.4,95.3h7.9v5.5h-7.9v8.2h10.3v5.8h-17V82h17v5.8h-10.3C131.4,87.7,131.4,95.3,131.4,95.3z"/>
</g>
</svg>
