<?xml version="1.0" encoding="utf-8"?>
<!-- Generator: Adobe Illustrator 23.0.4, SVG Export Plug-In . SVG Version: 6.00 Build 0)  -->
<svg version="1.1" id="Layer_8" xmlns="http://www.w3.org/2000/svg" xmlns:xlink="http://www.w3.org/1999/xlink" x="0px" y="0px"
	 viewBox="0 0 188 150" style="enable-background:new 0 0 188 150;" xml:space="preserve">
<style type="text/css">
	.st0{fill:#030400;}
	.st1{fill:url(#SVGID_1_);}
	.st2{fill:url(#SVGID_2_);}
	.st3{fill:url(#SVGID_3_);}
	.st4{fill:#859DAF;}
	.st5{fill:#BFA992;}
	.st6{fill:#EDDECB;}
</style>
<g>
	<g>
		<path class="st0" d="M146.2,146.7H41.8c-22.9,0-41.7-18.7-41.7-41.5V84.4c0-22.9,18.7-41.7,41.7-41.7h104.6
			c22.9,0,41.7,18.7,41.7,41.7v20.7C187.9,127.9,169.1,146.7,146.2,146.7z"/>
		
			<linearGradient id="SVGID_1_" gradientUnits="userSpaceOnUse" x1="2.4927" y1="474.5878" x2="184.3405" y2="474.5878" gradientTransform="matrix(1 0 0 -1 0 569.8)">
			<stop  offset="0" style="stop-color:#211D14"/>
			<stop  offset="2.810000e-02" style="stop-color:#383429"/>
			<stop  offset="3.700000e-02" style="stop-color:#2C2920"/>
			<stop  offset="5.190000e-02" style="stop-color:#211D17"/>
			<stop  offset="7.290000e-02" style="stop-color:#1A1711"/>
			<stop  offset="0.1313" style="stop-color:#181510"/>
			<stop  offset="0.4854" style="stop-color:#1F1E1A"/>
			<stop  offset="0.8981" style="stop-color:#423A2D"/>
			<stop  offset="0.9331" style="stop-color:#443C2E"/>
			<stop  offset="0.9468" style="stop-color:#4B4233"/>
			<stop  offset="0.9567" style="stop-color:#574D3C"/>
			<stop  offset="0.96" style="stop-color:#5D5240"/>
			<stop  offset="0.9855" style="stop-color:#332D22"/>
			<stop  offset="1" style="stop-color:#211D14"/>
		</linearGradient>
		<path class="st1" d="M142.5,143.7H44c-22.8,0-41.5-18.7-41.5-41.5V88.4c0-22.9,18.7-41.7,41.7-41.7h98.5
			c22.9,0,41.7,18.7,41.7,41.7v13.8C184.1,125,165.3,143.7,142.5,143.7z"/>
		
			<linearGradient id="SVGID_2_" gradientUnits="userSpaceOnUse" x1="3.7595" y1="471.2098" x2="181.8071" y2="471.2098" gradientTransform="matrix(1 0 0 -1 0 569.8)">
			<stop  offset="0" style="stop-color:#7C7563"/>
			<stop  offset="0.9845" style="stop-color:#383226"/>
		</linearGradient>
		<path class="st2" d="M140.1,143.7H45.4C22.5,143.7,3.8,125,3.8,102v-6.9c0-22.9,18.7-41.7,41.7-41.7h94.7
			c22.9,0,41.7,18.7,41.7,41.7v6.9C181.8,125,163.1,143.7,140.1,143.7z"/>
		
			<linearGradient id="SVGID_3_" gradientUnits="userSpaceOnUse" x1="3.7595" y1="465.5798" x2="181.8071" y2="465.5798" gradientTransform="matrix(1 0 0 -1 0 569.8)">
			<stop  offset="0" style="stop-color:#665A4A"/>
			<stop  offset="9.099999e-02" style="stop-color:#6D6251"/>
			<stop  offset="0.311" style="stop-color:#78705F"/>
			<stop  offset="0.5" style="stop-color:#7C7563"/>
			<stop  offset="0.7691" style="stop-color:#7A7361"/>
			<stop  offset="0.8921" style="stop-color:#746B59"/>
			<stop  offset="0.9853" style="stop-color:#695F4D"/>
			<stop  offset="1" style="stop-color:#675C4A"/>
		</linearGradient>
		<path class="st3" d="M140.1,149.3H45.4c-22.9,0-41.7-18.7-41.7-41.7v-6.9c0-22.9,18.7-41.7,41.7-41.7h94.7
			c22.9,0,41.7,18.7,41.7,41.7v6.9C181.8,130.6,163.1,149.3,140.1,149.3z"/>
	</g>
	<g>
		<path class="st4" d="M88.6,7.7h-7.5l-7,29.8H67l-2.4-11.4h-3.9v-5.1h8.4l0.7,3.7c0.3,1.1,0.6,4.6,0.6,6.2h0.4
			c0.1-3.9,1.1-9.3,1.8-12.4l3.9-15.9h12.2L88.6,7.7L88.6,7.7L88.6,7.7z"/>
		<path class="st5" d="M121.6,27.7c0,3.1-0.3,5.6-1.7,7.5c-2,2.7-5.3,3-7.5,3c-1.8,0-3.1-0.1-4.6-0.4v-5.1c2,0.4,3.1,0.4,3.2,0.4
			c1.5,0,2.5-0.6,3-1.1c0.8-1,0.8-2.5,0.8-3.9V9.6h6.5L121.6,27.7L121.6,27.7z"/>
	</g>
	<path class="st6" d="M81,82.1l12.4,12.7l12.4-12.7l5.1,5.2L98.5,99.9l12.4,12.5l-5.1,5.2L93.4,105L81,117.7l-5.1-5.2l12.4-12.5
		L76,87.3L81,82.1z"/>
</g>
</svg>
