<?xml version="1.0" encoding="UTF-8" standalone="no"?>
<!DOCTYPE svg PUBLIC "-//W3C//DTD SVG 1.1//EN" "http://www.w3.org/Graphics/SVG/1.1/DTD/svg11.dtd">
<svg width="100%" height="100%" viewBox="0 0 122 131" version="1.1" xmlns="http://www.w3.org/2000/svg" xmlns:xlink="http://www.w3.org/1999/xlink" xml:space="preserve" xmlns:serif="http://www.serif.com/" style="fill-rule:evenodd;clip-rule:evenodd;stroke-linecap:round;stroke-linejoin:round;stroke-miterlimit:1.5;">
    <g>
        <g>
            <path d="M117,125.4C115,128.8 111.4,130.8 107.5,130.8L48.3,130.8C28.7,130.8 0,90.5 0,70.9L0,51.1C0,37.1 11.3,25.8 25.3,25.8L108.5,25.8C115.4,25.8 121,31.4 121,38.3L121,93.9C121,99.6 122.9,115.3 117,125.4Z" style="fill:rgb(3,4,0);fill-rule:nonzero;"/>
            <path d="M116.7,110.7C116,120.5 108,128.1 98.4,128.1L48.9,128.1C29.5,128.1 5.8,90.2 5.8,70.3L5.8,53.3C5.8,39.2 17,27.7 30.7,27.7L104.4,27.7C111.2,27.7 116.6,33.3 116.6,40.2L116.6,93.8C116.7,97.2 117.2,104 116.7,110.7Z" style="fill:url(#_Linear1);fill-rule:nonzero;"/>
            <path d="M115.4,114.9C114.1,122.6 107.6,128.1 100,128.1L65.4,128.1C46.6,128.1 5.9,90.8 5.9,71.6L5.9,65.8C5.9,48 20,33.5 37.4,33.5L104.6,33.5C111.4,33.5 116.8,39.1 116.8,46L116.8,93.8C116.7,97.8 116.7,107 115.4,114.9Z" style="fill:url(#_Linear2);fill-rule:nonzero;"/>
            <path d="M117,114.7C116,122.4 109.4,128.1 101.8,128.1L57.4,128.1C38,128.1 5.9,98.2 5.9,70.3C5.9,52.7 19.8,38.4 37.1,38.4L100.6,38.4C109.5,38.4 116.8,45.8 116.8,55L116.8,89.8C116.7,95.1 118.2,105.9 117,114.7Z" style="fill:url(#_Linear3);fill-rule:nonzero;"/>
        </g>
        <g transform="matrix(1,0,0,1,-47.15,56)">
            <path d="M118.5,17.8C118.4,16.7 118.1,15.5 117.5,14.5C116.7,12.8 115.4,12.2 113.6,12.2C111.5,12.2 110.2,13.2 109.1,15.4C108.4,16.9 108.1,18.8 108.1,21.5C108.1,24.3 108.4,26.2 109.1,27.7C110.3,30.3 112.3,30.9 113.6,30.9C115,30.9 116.4,30.5 117.5,29C118.2,27.9 118.6,26.4 118.7,25.3L124.6,25.9C124.3,28.9 122.8,31.4 121.3,32.8C119.8,34.3 117.3,35.8 113.6,35.8C107.8,35.8 104.6,32.4 103.3,30C102,27.6 101.2,24.3 101.2,21.6C101.2,16.9 102.9,13.1 105.2,10.7C108.1,7.8 111.5,7.5 113.6,7.5C115.7,7.5 119,7.9 121.5,10.4C122.1,10.8 124.3,13.3 124.7,17.4L118.5,17.8Z" style="fill:rgb(237,222,203);fill-rule:nonzero;"/>
        </g>
        <g transform="matrix(1,0,0,1,-1.10954,-2.01639)">
            <circle cx="66.91" cy="79.316" r="26.899" style="fill:none;stroke:rgb(237,222,203);stroke-width:6px;"/>
        </g>
    </g>
    <defs>
        <linearGradient id="_Linear1" x1="0" y1="0" x2="1" y2="0" gradientUnits="userSpaceOnUse" gradientTransform="matrix(111.058,0,0,111.058,5.87,77.98)"><stop offset="0" style="stop-color:rgb(33,29,20);stop-opacity:1"/><stop offset="0.03" style="stop-color:rgb(56,52,41);stop-opacity:1"/><stop offset="0.04" style="stop-color:rgb(44,41,32);stop-opacity:1"/><stop offset="0.05" style="stop-color:rgb(33,29,23);stop-opacity:1"/><stop offset="0.07" style="stop-color:rgb(26,23,17);stop-opacity:1"/><stop offset="0.13" style="stop-color:rgb(24,21,16);stop-opacity:1"/><stop offset="0.49" style="stop-color:rgb(31,30,26);stop-opacity:1"/><stop offset="0.9" style="stop-color:rgb(66,58,45);stop-opacity:1"/><stop offset="0.93" style="stop-color:rgb(68,60,46);stop-opacity:1"/><stop offset="0.95" style="stop-color:rgb(75,66,51);stop-opacity:1"/><stop offset="0.96" style="stop-color:rgb(87,77,60);stop-opacity:1"/><stop offset="0.96" style="stop-color:rgb(93,82,64);stop-opacity:1"/><stop offset="0.99" style="stop-color:rgb(51,45,34);stop-opacity:1"/><stop offset="1" style="stop-color:rgb(33,29,20);stop-opacity:1"/></linearGradient>
        <linearGradient id="_Linear2" x1="0" y1="0" x2="1" y2="0" gradientUnits="userSpaceOnUse" gradientTransform="matrix(110.87,0,0,110.87,5.87,80.835)"><stop offset="0" style="stop-color:rgb(124,117,99);stop-opacity:1"/><stop offset="0.98" style="stop-color:rgb(56,50,38);stop-opacity:1"/><stop offset="1" style="stop-color:rgb(56,50,38);stop-opacity:1"/></linearGradient>
        <linearGradient id="_Linear3" x1="0" y1="0" x2="1" y2="0" gradientUnits="userSpaceOnUse" gradientTransform="matrix(111.623,0,0,111.623,5.86,83.2601)"><stop offset="0" style="stop-color:rgb(102,90,74);stop-opacity:1"/><stop offset="0.09" style="stop-color:rgb(109,98,81);stop-opacity:1"/><stop offset="0.31" style="stop-color:rgb(120,112,95);stop-opacity:1"/><stop offset="0.5" style="stop-color:rgb(124,117,99);stop-opacity:1"/><stop offset="0.77" style="stop-color:rgb(122,115,97);stop-opacity:1"/><stop offset="0.89" style="stop-color:rgb(116,107,89);stop-opacity:1"/><stop offset="0.99" style="stop-color:rgb(105,95,77);stop-opacity:1"/><stop offset="1" style="stop-color:rgb(103,92,74);stop-opacity:1"/></linearGradient>
    </defs>
</svg>
