<?xml version="1.0" encoding="utf-8"?>
<!-- Generator: Adobe Illustrator 23.1.0, SVG Export Plug-In . SVG Version: 6.00 Build 0)  -->
<svg version="1.1" id="Layer_8" xmlns="http://www.w3.org/2000/svg" xmlns:xlink="http://www.w3.org/1999/xlink" x="0px" y="0px"
	 viewBox="0 0 121.3 130.8" style="enable-background:new 0 0 121.3 130.8;" xml:space="preserve">
<style type="text/css">
	.st0{fill:#030400;}
	.st1{fill:url(#SVGID_1_);}
	.st2{fill:url(#SVGID_2_);}
	.st3{fill:url(#SVGID_3_);}
	.st4{fill:#859DAF;}
	.st5{fill:#EDDECB;}
</style>
<g>
	<g>
		<path class="st0" d="M117,125.4c-2,3.4-5.6,5.4-9.5,5.4H48.3C28.7,130.8,0,90.5,0,70.9V51.1c0-14,11.3-25.3,25.3-25.3h83.2
			c6.9,0,12.5,5.6,12.5,12.5v55.6C121,99.6,122.9,115.3,117,125.4z"/>
		
			<linearGradient id="SVGID_1_" gradientUnits="userSpaceOnUse" x1="-878.8871" y1="-342.02" x2="-767.8296" y2="-342.02" gradientTransform="matrix(1 0 0 1 884.7571 420)">
			<stop  offset="0" style="stop-color:#211D14"/>
			<stop  offset="2.810000e-02" style="stop-color:#383429"/>
			<stop  offset="3.700000e-02" style="stop-color:#2C2920"/>
			<stop  offset="5.190000e-02" style="stop-color:#211D17"/>
			<stop  offset="7.290000e-02" style="stop-color:#1A1711"/>
			<stop  offset="0.1313" style="stop-color:#181510"/>
			<stop  offset="0.4854" style="stop-color:#1F1E1A"/>
			<stop  offset="0.8981" style="stop-color:#423A2D"/>
			<stop  offset="0.9331" style="stop-color:#443C2E"/>
			<stop  offset="0.9468" style="stop-color:#4B4233"/>
			<stop  offset="0.9567" style="stop-color:#574D3C"/>
			<stop  offset="0.96" style="stop-color:#5D5240"/>
			<stop  offset="0.9855" style="stop-color:#332D22"/>
			<stop  offset="1" style="stop-color:#211D14"/>
		</linearGradient>
		<path class="st1" d="M116.7,110.7c-0.7,9.8-8.7,17.4-18.3,17.4H48.9c-19.4,0-43.1-37.9-43.1-57.8v-17c0-14.1,11.2-25.6,24.9-25.6
			h73.7c6.8,0,12.2,5.6,12.2,12.5v53.6C116.7,97.2,117.2,104,116.7,110.7z"/>
		
			<linearGradient id="SVGID_2_" gradientUnits="userSpaceOnUse" x1="-878.8871" y1="-339.165" x2="-768.0171" y2="-339.165" gradientTransform="matrix(1 0 0 1 884.7571 420)">
			<stop  offset="0" style="stop-color:#7C7563"/>
			<stop  offset="0.9845" style="stop-color:#383226"/>
		</linearGradient>
		<path class="st2" d="M115.4,114.9c-1.3,7.7-7.8,13.2-15.4,13.2H65.4c-18.8,0-59.5-37.3-59.5-56.5v-5.8C5.9,48,20,33.5,37.4,33.5
			h67.2c6.8,0,12.2,5.6,12.2,12.5v47.8C116.7,97.8,116.7,107,115.4,114.9z"/>
		
			<linearGradient id="SVGID_3_" gradientUnits="userSpaceOnUse" x1="-878.8971" y1="-336.7399" x2="-767.2742" y2="-336.7399" gradientTransform="matrix(1 0 0 1 884.7571 420)">
			<stop  offset="0" style="stop-color:#665A4A"/>
			<stop  offset="9.099999e-02" style="stop-color:#6D6251"/>
			<stop  offset="0.311" style="stop-color:#78705F"/>
			<stop  offset="0.5" style="stop-color:#7C7563"/>
			<stop  offset="0.7691" style="stop-color:#7A7361"/>
			<stop  offset="0.8921" style="stop-color:#746B59"/>
			<stop  offset="0.9853" style="stop-color:#695F4D"/>
			<stop  offset="1" style="stop-color:#675C4A"/>
		</linearGradient>
		<path class="st3" d="M117,114.7c-1,7.7-7.6,13.4-15.2,13.4H57.4C38,128.1,5.9,98.2,5.9,70.3l0,0c0-17.6,13.9-31.9,31.2-31.9h63.5
			c8.9,0,16.2,7.4,16.2,16.6v34.8C116.7,95.1,118.2,105.9,117,114.7z"/>
	</g>
	<g>
		<path class="st4" d="M51.5,2c1.8,1.6,3.2,4.4,3.2,8.2c0,3.4-1.1,6.2-3,8c-1.1,1.1-3.1,2.2-6,2.2c-2.9,0-4.8-1.2-6-2.2
			c-1.9-1.8-3-4.6-3-8c0-3.8,1.4-6.6,3.2-8.2c1.9-1.7,4.1-2,5.8-2C47.4,0,49.6,0.3,51.5,2z M42.8,5.2c-0.4,0.6-1,2-1,5s0.6,4.4,1,5
			c0.6,0.9,1.5,1.8,2.9,1.8s2.4-0.9,2.9-1.8c0.4-0.7,1-2.1,1-5c0-3-0.7-4.3-1-5c-0.8-1.3-1.9-1.7-2.9-1.7S43.6,3.9,42.8,5.2z"/>
		<path class="st4" d="M71.3,3.9h-8.9v4.3h7.1v3.4h-7.1v8.6h-4.6V0.3h13.5V3.9z"/>
		<path class="st4" d="M87.2,3.9h-8.9v4.3h7.1v3.4h-7.1v8.6h-4.6V0.3h13.5V3.9z"/>
	</g>
	<path class="st5" d="M61,68.5c0.8,1.2,1.9,3.6,1.9,9.2s-1.1,8-1.9,9.2c-1.7,2.4-3.8,2.9-5.4,2.9s-3.8-0.4-5.4-2.9
		c-0.8-1.2-1.9-3.6-1.9-9.2s1.1-8,1.9-9.2c1.7-2.4,3.8-2.9,5.4-2.9S59.4,66.1,61,68.5z M54.1,84.7c0.2,0.3,0.7,0.8,1.5,0.8
		s1.3-0.5,1.5-0.8c0.5-0.8,0.8-2.4,0.8-7s-0.2-6.2-0.8-7c-0.2-0.3-0.7-0.8-1.5-0.8s-1.3,0.5-1.5,0.8c-0.5,0.8-0.8,2.4-0.8,7
		S53.6,83.9,54.1,84.7z"/>
	<path class="st5" d="M65.8,66h4.7l3.8,10.7c0.3,0.9,0.9,3.4,1.1,4.6c-0.2-2.3-0.4-5.2-0.4-7.1V66H79v23.3h-3.9l-4.4-11.9
		c-0.5-1.3-0.8-2.4-1.4-4.8c0.1,1,0.4,5.6,0.4,6.9v9.8h-3.9V66z"/>
</g>
</svg>
