<?xml version="1.0" encoding="utf-8"?>
<!-- Generator: Adobe Illustrator 23.0.4, SVG Export Plug-In . SVG Version: 6.00 Build 0)  -->
<svg version="1.1" id="Layer_8" xmlns="http://www.w3.org/2000/svg" xmlns:xlink="http://www.w3.org/1999/xlink" x="0px" y="0px"
	 viewBox="0 0 188 150" style="enable-background:new 0 0 188 150;" xml:space="preserve">
<style type="text/css">
	.st0{fill:#030400;}
	.st1{fill:url(#SVGID_1_);}
	.st2{fill:url(#SVGID_2_);}
	.st3{fill:url(#SVGID_3_);}
	.st4{fill:#859DAF;}
	.st5{fill:#BFA992;}
	.st6{fill:#EDDECB;}
</style>
<g>
	<g>
		<path class="st0" d="M146.2,146.8H41.8c-22.9,0-41.7-18.7-41.7-41.7V84.6C0.1,61.7,18.8,43,41.8,43h104.6
			c22.9,0,41.7,18.7,41.7,41.7v20.7C187.9,128.1,169.1,146.8,146.2,146.8z"/>
		
			<linearGradient id="SVGID_1_" gradientUnits="userSpaceOnUse" x1="2.352" y1="475.0879" x2="184.1998" y2="475.0879" gradientTransform="matrix(1 0 0 -1 0 570.4)">
			<stop  offset="0" style="stop-color:#211D14"/>
			<stop  offset="2.810000e-02" style="stop-color:#383429"/>
			<stop  offset="3.700000e-02" style="stop-color:#2C2920"/>
			<stop  offset="5.190000e-02" style="stop-color:#211D17"/>
			<stop  offset="7.290000e-02" style="stop-color:#1A1711"/>
			<stop  offset="0.1313" style="stop-color:#181510"/>
			<stop  offset="0.4854" style="stop-color:#1F1E1A"/>
			<stop  offset="0.8981" style="stop-color:#423A2D"/>
			<stop  offset="0.9331" style="stop-color:#443C2E"/>
			<stop  offset="0.9468" style="stop-color:#4B4233"/>
			<stop  offset="0.9567" style="stop-color:#574D3C"/>
			<stop  offset="0.96" style="stop-color:#5D5240"/>
			<stop  offset="0.9855" style="stop-color:#332D22"/>
			<stop  offset="1" style="stop-color:#211D14"/>
		</linearGradient>
		<path class="st1" d="M142.5,143.9H44c-22.9,0-41.7-18.7-41.7-41.7V88.4c0-22.9,18.7-41.7,41.7-41.7h98.5
			c22.9,0,41.7,18.7,41.7,41.7v13.8C184.1,125.2,165.3,143.9,142.5,143.9z"/>
		
			<linearGradient id="SVGID_2_" gradientUnits="userSpaceOnUse" x1="3.7595" y1="471.6395" x2="181.8071" y2="471.6395" gradientTransform="matrix(1 0 0 -1 0 570.4)">
			<stop  offset="0" style="stop-color:#7C7563"/>
			<stop  offset="0.9845" style="stop-color:#383226"/>
		</linearGradient>
		<path class="st2" d="M140.1,143.9H45.4c-22.9,0-41.7-18.7-41.7-41.7v-6.9c0-22.9,18.7-41.7,41.7-41.7h94.7
			c22.9,0,41.7,18.7,41.7,41.7v6.9C181.8,125.2,163.1,143.9,140.1,143.9z"/>
		
			<linearGradient id="SVGID_3_" gradientUnits="userSpaceOnUse" x1="3.7595" y1="466.0096" x2="181.8071" y2="466.0096" gradientTransform="matrix(1 0 0 -1 0 570.4)">
			<stop  offset="0" style="stop-color:#665A4A"/>
			<stop  offset="9.099999e-02" style="stop-color:#6D6251"/>
			<stop  offset="0.311" style="stop-color:#78705F"/>
			<stop  offset="0.5" style="stop-color:#7C7563"/>
			<stop  offset="0.7691" style="stop-color:#7A7361"/>
			<stop  offset="0.8921" style="stop-color:#746B59"/>
			<stop  offset="0.9853" style="stop-color:#695F4D"/>
			<stop  offset="1" style="stop-color:#675C4A"/>
		</linearGradient>
		<path class="st3" d="M140.1,149.5H45.4c-22.9,0-41.7-18.7-41.7-41.7v-6.9c0-22.9,18.7-41.7,41.7-41.7h94.7
			c22.9,0,41.7,18.7,41.7,41.7v6.9C181.8,130.8,163.1,149.5,140.1,149.5z"/>
	</g>
	<g>
		<path class="st4" d="M51.9,6.9c3.2,0,5.9,0.8,7.3,2.3c1.4,1.1,2.5,3.2,2.5,5.9c0,3.7-2,6.3-4.9,7.6l5.5,12.2H55l-4.5-11h-4.8v11
			h-6.5v-28H51.9z M45.7,19h4.8c1.3,0,2.5,0,3.7-1.1c0.7-0.6,1.1-1.5,1.1-2.7s-0.4-2.1-1.1-2.7c-1-0.8-2.7-0.8-3.4-0.8h-4.9L45.7,19
			L45.7,19z"/>
		<path class="st4" d="M83.4,17.2c-0.1-1.1-0.4-2.4-1-3.4c-1-1.7-2.1-2.4-4.1-2.4c-2.1,0-3.7,1-4.6,3.2c-0.7,1.7-1,3.5-1,6.2
			c0,2.8,0.3,4.8,1,6.3c1.3,2.7,3.2,3.2,4.6,3.2c1.4,0,2.8-0.4,3.9-2c0.8-1.1,1.1-2.7,1.3-3.8l6.1,0.6c-0.3,3.1-1.8,5.6-3.2,7
			c-1.5,1.5-4.1,3.1-7.9,3.1c-5.9,0-9.1-3.5-10.6-5.9c-1.4-2.4-2-5.8-2-8.6c0-4.8,1.7-8.7,4.1-11.1c2.7-3,6.2-3.2,8.3-3.2
			s5.5,0.4,8,3c0.4,0.4,2.8,3,3.2,7.2L83.4,17.2z"/>
		<path class="st4" d="M100.2,29.7h12v5.2H93.6v-28h6.5v22.8H100.2z"/>
		<path class="st5" d="M135.4,6.9c2.5,0,5.3,0.1,7.7,1.5c1.7,1,3.7,3.1,3.7,6.9c0,1.8-0.6,3.7-1.8,5.5c-2.7,3.4-6.2,3.4-8.7,3.4
			h-4.6v10.7h-6.5v-28H135.4z M135.6,19.3c1,0,2.4,0,3.5-1c0.7-0.7,1.1-1.8,1.1-2.8c0-1.1-0.4-2.1-1.1-2.7c-1-0.8-2.4-1-3.4-1h-4.2
			v7.5H135.6L135.6,19.3L135.6,19.3z"/>
	</g>
	<path class="st6" d="M54.7,93.2c-0.4-2-1.1-2.8-1.7-3.2c-0.7-0.6-1.4-0.6-2.1-0.6c-0.7,0-1.4,0.1-2.1,0.7c-0.6,0.6-0.7,1.5-0.7,2.4
		c0,1.1,0.3,2,1.1,2.7c1,1,2.4,1.4,4.6,2.4c1.5,0.7,3.2,1.5,4.8,3.7c1.1,1.7,1.5,3.5,1.5,5.5c0,4.4-1.7,6.9-3.1,8
		c-1.7,1.5-4.4,2.4-6.9,2.4c-2.1,0-4.5-0.6-6.1-2c-2.4-2-3.2-5.1-3.5-6.9l5.3-2c0.3,1.4,1,3.4,1.8,4.1c0.6,0.6,1.5,0.7,2.5,0.7
		c0.7,0,1.7-0.1,2.4-0.8c0.6-0.6,1-1.5,1-2.5c0-1.1-0.3-2-1.1-2.7c-0.8-0.8-2.3-1.4-4.5-2.7c-1.7-0.8-3.5-1.8-4.8-3.8
		c-1-1.5-1.4-3.5-1.4-5.5c0-3.2,1.1-5.9,3-7.6c1.5-1.5,3.8-2.4,6.1-2.4c1.5,0,3.5,0.4,4.9,1.4c1.8,1.1,3.2,3.5,3.9,6.2L54.7,93.2z"
		/>
	<path class="st6" d="M72.4,116.8h-6.8V90.1h-5.3v-6.2h17.6v6.2h-5.5V116.8L72.4,116.8z"/>
	<path class="st6" d="M96.2,87.4c1.1,1.7,2.7,5.1,2.7,12.9s-1.5,11.3-2.7,12.9c-2.4,3.5-5.3,4.1-7.6,4.1s-5.3-0.6-7.6-4.1
		c-1.1-1.7-2.7-5.1-2.7-12.9s1.5-11.3,2.7-12.9c2.4-3.5,5.3-4.1,7.6-4.1S93.8,84.1,96.2,87.4z M86.4,110.2c0.3,0.4,1,1.1,2.1,1.1
		s1.8-0.7,2.1-1.1c0.7-1.1,1.1-3.5,1.1-9.9c0-6.5-0.3-8.7-1.1-9.9c-0.3-0.4-1-1.1-2.1-1.1s-1.8,0.7-2.1,1.1
		c-0.7,1.1-1.1,3.5-1.1,9.9S85.7,109.1,86.4,110.2z"/>
	<g>
		<path class="st6" d="M115.8,84.3l29,14.5l-29,14.4V84.3z"/>
	</g>
</g>
</svg>
