<?xml version="1.0" encoding="utf-8"?>
<!-- Generator: Adobe Illustrator 23.0.4, SVG Export Plug-In . SVG Version: 6.00 Build 0)  -->
<svg version="1.1" id="Layer_8" xmlns="http://www.w3.org/2000/svg" xmlns:xlink="http://www.w3.org/1999/xlink" x="0px" y="0px"
	 viewBox="0 0 188 150" style="enable-background:new 0 0 188 150;" xml:space="preserve">
<style type="text/css">
	.st0{fill:#030400;}
	.st1{fill:url(#SVGID_1_);}
	.st2{fill:url(#SVGID_2_);}
	.st3{fill:url(#SVGID_3_);}
	.st4{fill:#E0D497;}
	.st5{fill:#859DAF;}
	.st6{fill:#EDDECB;}
</style>
<g>
	<g>
		<path class="st0" d="M141.8,146.9H40.4C18.2,146.9,0,128.8,0,106.5V86.5c0-22.3,18.2-40.4,40.4-40.4H142
			c22.3,0,40.4,18.2,40.4,40.4v20.1C182.3,128.8,164.1,146.9,141.8,146.9z"/>
		
			<linearGradient id="SVGID_1_" gradientUnits="userSpaceOnUse" x1="2.3227" y1="473.9712" x2="178.8459" y2="473.9712" gradientTransform="matrix(1 0 0 -1 0 570.9)">
			<stop  offset="0" style="stop-color:#211D14"/>
			<stop  offset="2.810000e-02" style="stop-color:#383429"/>
			<stop  offset="3.700000e-02" style="stop-color:#2C2920"/>
			<stop  offset="5.190000e-02" style="stop-color:#211D17"/>
			<stop  offset="7.290000e-02" style="stop-color:#1A1711"/>
			<stop  offset="0.1313" style="stop-color:#181510"/>
			<stop  offset="0.4854" style="stop-color:#1F1E1A"/>
			<stop  offset="0.8981" style="stop-color:#423A2D"/>
			<stop  offset="0.9331" style="stop-color:#443C2E"/>
			<stop  offset="0.9468" style="stop-color:#4B4233"/>
			<stop  offset="0.9567" style="stop-color:#574D3C"/>
			<stop  offset="0.96" style="stop-color:#5D5240"/>
			<stop  offset="0.9855" style="stop-color:#332D22"/>
			<stop  offset="1" style="stop-color:#211D14"/>
		</linearGradient>
		<path class="st1" d="M138.3,144.1H42.6c-22.1,0-40.3-18.2-40.3-40.4V90.2c0-22.3,18.2-40.4,40.4-40.4h95.6
			c22.3,0,40.4,18.2,40.4,40.4v13.4C178.6,125.9,160.4,144.1,138.3,144.1z"/>
		
			<linearGradient id="SVGID_2_" gradientUnits="userSpaceOnUse" x1="3.5523" y1="470.6238" x2="176.3866" y2="470.6238" gradientTransform="matrix(1 0 0 -1 0 570.9)">
			<stop  offset="0" style="stop-color:#7C7563"/>
			<stop  offset="0.9845" style="stop-color:#383226"/>
		</linearGradient>
		<path class="st2" d="M135.9,144.1H44c-22.3,0-40.4-18.2-40.4-40.4v-6.7c0-22.3,18.2-40.4,40.4-40.4h92c22.3,0,40.4,18.2,40.4,40.4
			v6.7C176.4,125.9,158.2,144.1,135.9,144.1z"/>
		
			<linearGradient id="SVGID_3_" gradientUnits="userSpaceOnUse" x1="3.5523" y1="465.1587" x2="176.3866" y2="465.1587" gradientTransform="matrix(1 0 0 -1 0 570.9)">
			<stop  offset="0" style="stop-color:#665A4A"/>
			<stop  offset="9.099999e-02" style="stop-color:#6D6251"/>
			<stop  offset="0.311" style="stop-color:#78705F"/>
			<stop  offset="0.5" style="stop-color:#7C7563"/>
			<stop  offset="0.7691" style="stop-color:#7A7361"/>
			<stop  offset="0.8921" style="stop-color:#746B59"/>
			<stop  offset="0.9853" style="stop-color:#695F4D"/>
			<stop  offset="1" style="stop-color:#675C4A"/>
		</linearGradient>
		<path class="st3" d="M135.9,149.5H44c-22.3,0-40.4-18.2-40.4-40.4v-6.7C3.6,80.1,21.7,62,44,62h92c22.3,0,40.4,18.2,40.4,40.4v6.7
			C176.4,131.4,158.2,149.5,135.9,149.5z"/>
	</g>
	<g>
		<path class="st4" d="M174.7,12.4v3.4h-5.5v-3.4H174.7z"/>
		<path class="st4" d="M184.9,18.4h3.1v3.8h-10.9v-3.8h3.4V6.1c-1.2,1.4-1.9,2-3.3,2.9V4.6c1.4-0.7,3.4-2.7,4.4-4.1h3.4v17.9H184.9z
			"/>
	</g>
	<g>
		<path class="st5" d="M35.8,12.5v4.9h-6.4v22.1h-6.3V17.4h-6.4v-4.9H35.8z"/>
		<path class="st5" d="M58.6,39.7h-6.6l-1.9-6.4h-8.3l-1.9,6.4h-5.3l8.6-27.2H50L58.6,39.7z M46,18.8l-3,10h5.9L46,18.8z"/>
		<path class="st5" d="M78.8,30.4L78.8,30.4c-0.3-1.4-0.4-2.7-0.4-3.4V12.5h5.2v27.2h-5.5L67.5,21.9l-1-2.3h-0.1
			c0.4,2,0.4,2.9,0.4,4v16.1h-5.2V12.5h6.6L78.8,30.4z"/>
		<path class="st4" d="M115.2,12.5v4.9h-6.4v22.1h-6.3V17.4H96v-4.9H115.2z"/>
		<path class="st4" d="M138,39.7h-6.6l-1.9-6.4h-8.3l-1.9,6.4h-5.3l8.6-27.2h6.8L138,39.7z M125.3,18.8l-3,10h5.9L125.3,18.8z"/>
		<path class="st4" d="M158.2,30.4L158.2,30.4c-0.3-1.4-0.4-2.7-0.4-3.4V12.5h5.2v27.2h-5.5l-10.7-17.8l-1.1-2.2h-0.1
			c0.4,2,0.4,2.9,0.4,4v16.1h-5.2V12.5h6.6L158.2,30.4z"/>
	</g>
	<path class="st6" d="M96.6,90.9v25H87v-25h-6.8V83h23.1v7.9H96.6z"/>
</g>
</svg>
