<?xml version="1.0" encoding="utf-8"?>
<!-- Generator: Adobe Illustrator 23.0.4, SVG Export Plug-In . SVG Version: 6.00 Build 0)  -->
<svg version="1.1" id="Layer_8" xmlns="http://www.w3.org/2000/svg" xmlns:xlink="http://www.w3.org/1999/xlink" x="0px" y="0px"
	 viewBox="0 0 188 150" style="enable-background:new 0 0 188 150;" xml:space="preserve">
<style type="text/css">
	.st0{fill:#030400;}
	.st1{fill:url(#SVGID_1_);}
	.st2{fill:url(#SVGID_2_);}
	.st3{fill:url(#SVGID_3_);}
	.st4{fill:#859DAF;}
	.st5{fill:#E0D497;}
	.st6{fill:#EDDECB;}
</style>
<g>
	<g>
		<path class="st0" d="M146.2,146.6H41.8c-22.9,0-41.7-18.7-41.7-41.5V84.4c0-22.9,18.7-41.7,41.7-41.7h104.6
			c22.9,0,41.7,18.7,41.7,41.7v20.7C187.9,127.9,169.1,146.6,146.2,146.6z"/>
		
			<linearGradient id="SVGID_1_" gradientUnits="userSpaceOnUse" x1="2.4927" y1="475.5286" x2="184.3405" y2="475.5286" gradientTransform="matrix(1 0 0 -1 0 570.7)">
			<stop  offset="0" style="stop-color:#211D14"/>
			<stop  offset="2.810000e-02" style="stop-color:#383429"/>
			<stop  offset="3.700000e-02" style="stop-color:#2C2920"/>
			<stop  offset="5.190000e-02" style="stop-color:#211D17"/>
			<stop  offset="7.290000e-02" style="stop-color:#1A1711"/>
			<stop  offset="0.1313" style="stop-color:#181510"/>
			<stop  offset="0.4854" style="stop-color:#1F1E1A"/>
			<stop  offset="0.8981" style="stop-color:#423A2D"/>
			<stop  offset="0.9331" style="stop-color:#443C2E"/>
			<stop  offset="0.9468" style="stop-color:#4B4233"/>
			<stop  offset="0.9567" style="stop-color:#574D3C"/>
			<stop  offset="0.96" style="stop-color:#5D5240"/>
			<stop  offset="0.9855" style="stop-color:#332D22"/>
			<stop  offset="1" style="stop-color:#211D14"/>
		</linearGradient>
		<path class="st1" d="M142.5,143.7H44c-22.8,0-41.5-18.7-41.5-41.5V88.3c0-22.9,18.7-41.7,41.7-41.7h98.5
			c22.9,0,41.7,18.7,41.7,41.7v13.8C184.1,124.9,165.3,143.7,142.5,143.7z"/>
		
			<linearGradient id="SVGID_2_" gradientUnits="userSpaceOnUse" x1="3.7595" y1="472.0803" x2="181.8071" y2="472.0803" gradientTransform="matrix(1 0 0 -1 0 570.7)">
			<stop  offset="0" style="stop-color:#7C7563"/>
			<stop  offset="0.9845" style="stop-color:#383226"/>
		</linearGradient>
		<path class="st2" d="M140.1,143.7H45.4c-22.9,0-41.7-18.7-41.7-41.5v-6.9c0-22.9,18.7-41.7,41.7-41.7h94.7
			c22.9,0,41.7,18.7,41.7,41.7v6.9C181.8,124.9,163.1,143.7,140.1,143.7z"/>
		
			<linearGradient id="SVGID_3_" gradientUnits="userSpaceOnUse" x1="3.7595" y1="466.4503" x2="181.8071" y2="466.4503" gradientTransform="matrix(1 0 0 -1 0 570.7)">
			<stop  offset="0" style="stop-color:#665A4A"/>
			<stop  offset="9.099999e-02" style="stop-color:#6D6251"/>
			<stop  offset="0.311" style="stop-color:#78705F"/>
			<stop  offset="0.5" style="stop-color:#7C7563"/>
			<stop  offset="0.7691" style="stop-color:#7A7361"/>
			<stop  offset="0.8921" style="stop-color:#746B59"/>
			<stop  offset="0.9853" style="stop-color:#695F4D"/>
			<stop  offset="1" style="stop-color:#675C4A"/>
		</linearGradient>
		<path class="st3" d="M140.1,149.3H45.4c-22.9,0-41.7-18.7-41.7-41.5v-6.9c0-22.9,18.7-41.7,41.7-41.7h94.7
			c22.9,0,41.7,18.7,41.7,41.7v6.9C181.8,130.6,163.1,149.3,140.1,149.3z"/>
	</g>
	<g>
		<path class="st4" d="M86.5,10.9v16.9c0,4.9,0.4,7.3,0.8,8.9h-5.2c-0.4-1-1-3.5-1-8.3V10.9h-9.9c-0.3,7.9-2.1,20.7-4.2,25.8H62
			c2.3-5.9,3.9-17.7,4.2-25.8c-2.4,0-4.6,0.1-6.2,0.6l-0.7-3.2c1.3-0.8,3.8-1.5,8.6-1.5h23.4l-0.6,4.2H86.5L86.5,10.9z"/>
	</g>
	<g>
		<g>
			<path class="st5" d="M120.9,36c-7.9,0-14.2-6.3-14.2-14.2S113,7.4,120.9,7.4s14.2,6.3,14.2,14.2S128.6,36,120.9,36z M120.9,11.6
				c-5.5,0-10,4.5-10,10s4.5,10,10,10c5.5,0,10-4.5,10-10S126.4,11.6,120.9,11.6z"/>
		</g>
		<g>
			<rect x="108.3" y="19.7" class="st5" width="23.9" height="4.2"/>
		</g>
	</g>
	<g>
		<path class="st6" d="M121.6,104.2l-5.9,5.9l-19-19l-19,19l-5.9-5.9l24.9-24.9L121.6,104.2z"/>
	</g>
</g>
</svg>
