<?xml version="1.0" encoding="utf-8"?>
<!-- Generator: Adobe Illustrator 23.0.4, SVG Export Plug-In . SVG Version: 6.00 Build 0)  -->
<svg version="1.1" id="Layer_8" xmlns="http://www.w3.org/2000/svg" xmlns:xlink="http://www.w3.org/1999/xlink" x="0px" y="0px"
	 viewBox="0 0 188 150" style="enable-background:new 0 0 188 150;" xml:space="preserve">
<style type="text/css">
	.st0{fill:#030400;}
	.st1{fill:url(#SVGID_1_);}
	.st2{fill:url(#SVGID_2_);}
	.st3{fill:url(#SVGID_3_);}
	.st4{fill:#BFA992;}
	.st5{fill:#859DAF;}
	.st6{fill:#EDDECB;}
</style>
<g>
	<g>
		<path class="st0" d="M146.2,146.3H41.8c-22.9,0-41.7-18.7-41.7-41.7V84.1c0-22.9,18.7-41.7,41.7-41.7h104.6
			c22.9,0,41.7,18.7,41.7,41.7v20.7C187.9,127.5,169.1,146.3,146.2,146.3z"/>
		
			<linearGradient id="SVGID_1_" gradientUnits="userSpaceOnUse" x1="2.352" y1="474.4509" x2="184.1998" y2="474.4509" gradientTransform="matrix(1 0 0 -1 0 569.2)">
			<stop  offset="0" style="stop-color:#211D14"/>
			<stop  offset="2.810000e-02" style="stop-color:#383429"/>
			<stop  offset="3.700000e-02" style="stop-color:#2C2920"/>
			<stop  offset="5.190000e-02" style="stop-color:#211D17"/>
			<stop  offset="7.290000e-02" style="stop-color:#1A1711"/>
			<stop  offset="0.1313" style="stop-color:#181510"/>
			<stop  offset="0.4854" style="stop-color:#1F1E1A"/>
			<stop  offset="0.8981" style="stop-color:#423A2D"/>
			<stop  offset="0.9331" style="stop-color:#443C2E"/>
			<stop  offset="0.9468" style="stop-color:#4B4233"/>
			<stop  offset="0.9567" style="stop-color:#574D3C"/>
			<stop  offset="0.96" style="stop-color:#5D5240"/>
			<stop  offset="0.9855" style="stop-color:#332D22"/>
			<stop  offset="1" style="stop-color:#211D14"/>
		</linearGradient>
		<path class="st1" d="M142.5,143.3H44c-22.9,0-41.7-18.7-41.7-41.7V87.9c0-22.9,18.7-41.7,41.7-41.7h98.5
			c22.9,0,41.7,18.7,41.7,41.7v13.8C184.1,124.6,165.3,143.3,142.5,143.3z"/>
		
			<linearGradient id="SVGID_2_" gradientUnits="userSpaceOnUse" x1="3.7595" y1="471.0025" x2="181.8071" y2="471.0025" gradientTransform="matrix(1 0 0 -1 0 569.2)">
			<stop  offset="0" style="stop-color:#7C7563"/>
			<stop  offset="0.9845" style="stop-color:#383226"/>
		</linearGradient>
		<path class="st2" d="M140.1,143.3H45.4c-22.9,0-41.7-18.7-41.7-41.7v-6.9c0-22.9,18.7-41.7,41.7-41.7h94.7
			c22.9,0,41.7,18.7,41.7,41.7v6.9C181.8,124.6,163.1,143.3,140.1,143.3z"/>
		
			<linearGradient id="SVGID_3_" gradientUnits="userSpaceOnUse" x1="3.7595" y1="465.3725" x2="181.8071" y2="465.3725" gradientTransform="matrix(1 0 0 -1 0 569.2)">
			<stop  offset="0" style="stop-color:#665A4A"/>
			<stop  offset="9.099999e-02" style="stop-color:#6D6251"/>
			<stop  offset="0.311" style="stop-color:#78705F"/>
			<stop  offset="0.5" style="stop-color:#7C7563"/>
			<stop  offset="0.7691" style="stop-color:#7A7361"/>
			<stop  offset="0.8921" style="stop-color:#746B59"/>
			<stop  offset="0.9853" style="stop-color:#695F4D"/>
			<stop  offset="1" style="stop-color:#675C4A"/>
		</linearGradient>
		<path class="st3" d="M140.1,148.9H45.4c-22.9,0-41.7-18.7-41.7-41.7v-6.9c0-22.9,18.7-41.7,41.7-41.7h94.7
			c22.9,0,41.7,18.7,41.7,41.7v6.9C181.8,130.2,163.1,148.9,140.1,148.9z"/>
	</g>
	<g>
		<path class="st4" d="M121.1,12.3h-12.5v6.1h10v4.8h-10v12.1h-6.5V7.1h19V12.3z"/>
	</g>
	<g>
		<path class="st5" d="M70.1,11.3c5.6,0,10.1,4.5,10.1,10.1s-4.5,10.1-10.1,10.1c-5.6,0-10.1-4.5-10.1-10.1S64.4,11.3,70.1,11.3z
			 M70.1,26.5c2.8,0,5.1-2.3,5.1-4.9s-2.3-4.9-5.1-4.9c-2.8,0-5.1,2.3-5.1,4.9C65,24.2,67.2,26.5,70.1,26.5z"/>
	</g>
	<path class="st6" d="M86.2,76.3h8.6V128h-8.6C86.2,128,86.2,76.3,86.2,76.3z"/>
</g>
</svg>
