<?xml version="1.0" encoding="utf-8"?>
<!-- Generator: Adobe Illustrator 23.0.4, SVG Export Plug-In . SVG Version: 6.00 Build 0)  -->
<svg version="1.1" id="Layer_8" xmlns="http://www.w3.org/2000/svg" xmlns:xlink="http://www.w3.org/1999/xlink" x="0px" y="0px"
	 viewBox="0 0 188 150" style="enable-background:new 0 0 188 150;" xml:space="preserve">
<style type="text/css">
	.st0{fill:#030400;}
	.st1{fill:url(#SVGID_1_);}
	.st2{fill:url(#SVGID_2_);}
	.st3{fill:url(#SVGID_3_);}
	.st4{fill:#859DAF;}
	.st5{fill:#E0D497;}
	.st6{fill:#EDDECB;}
</style>
<g>
	<g>
		<path class="st0" d="M146.2,146.9H41.8c-22.9,0-41.7-18.7-41.7-41.7V84.7c0-22.9,18.7-41.7,41.7-41.7h104.6
			c22.9,0,41.7,18.7,41.7,41.7v20.7C187.9,128.2,169.1,146.9,146.2,146.9z"/>
		
			<linearGradient id="SVGID_1_" gradientUnits="userSpaceOnUse" x1="2.352" y1="473.9766" x2="184.1998" y2="473.9766" gradientTransform="matrix(1 0 0 -1 0 569.4)">
			<stop  offset="0" style="stop-color:#211D14"/>
			<stop  offset="2.810000e-02" style="stop-color:#383429"/>
			<stop  offset="3.700000e-02" style="stop-color:#2C2920"/>
			<stop  offset="5.190000e-02" style="stop-color:#211D17"/>
			<stop  offset="7.290000e-02" style="stop-color:#1A1711"/>
			<stop  offset="0.1313" style="stop-color:#181510"/>
			<stop  offset="0.4854" style="stop-color:#1F1E1A"/>
			<stop  offset="0.8981" style="stop-color:#423A2D"/>
			<stop  offset="0.9331" style="stop-color:#443C2E"/>
			<stop  offset="0.9468" style="stop-color:#4B4233"/>
			<stop  offset="0.9567" style="stop-color:#574D3C"/>
			<stop  offset="0.96" style="stop-color:#5D5240"/>
			<stop  offset="0.9855" style="stop-color:#332D22"/>
			<stop  offset="1" style="stop-color:#211D14"/>
		</linearGradient>
		<path class="st1" d="M142.5,144H44c-22.9,0-41.7-18.7-41.7-41.7V88.5c0-22.9,18.7-41.7,41.7-41.7h98.5c22.9,0,41.7,18.7,41.7,41.7
			v13.8C184.1,125.3,165.3,144,142.5,144z"/>
		
			<linearGradient id="SVGID_2_" gradientUnits="userSpaceOnUse" x1="3.7595" y1="470.5283" x2="181.8071" y2="470.5283" gradientTransform="matrix(1 0 0 -1 0 569.4)">
			<stop  offset="0" style="stop-color:#7C7563"/>
			<stop  offset="0.9845" style="stop-color:#383226"/>
		</linearGradient>
		<path class="st2" d="M140.1,144H45.4c-22.9,0-41.7-18.7-41.7-41.7v-6.9c0-22.9,18.7-41.7,41.7-41.7h94.7
			c22.9,0,41.7,18.7,41.7,41.7v6.9C181.8,125.3,163.1,144,140.1,144z"/>
		
			<linearGradient id="SVGID_3_" gradientUnits="userSpaceOnUse" x1="3.7595" y1="464.8983" x2="181.8071" y2="464.8983" gradientTransform="matrix(1 0 0 -1 0 569.4)">
			<stop  offset="0" style="stop-color:#665A4A"/>
			<stop  offset="9.099999e-02" style="stop-color:#6D6251"/>
			<stop  offset="0.311" style="stop-color:#78705F"/>
			<stop  offset="0.5" style="stop-color:#7C7563"/>
			<stop  offset="0.7691" style="stop-color:#7A7361"/>
			<stop  offset="0.8921" style="stop-color:#746B59"/>
			<stop  offset="0.9853" style="stop-color:#695F4D"/>
			<stop  offset="1" style="stop-color:#675C4A"/>
		</linearGradient>
		<path class="st3" d="M140.1,149.6H45.4c-22.9,0-41.7-18.7-41.7-41.7v-6.9c0-22.9,18.7-41.7,41.7-41.7h94.7
			c22.9,0,41.7,18.7,41.7,41.7v6.9C181.8,130.9,163.1,149.6,140.1,149.6z"/>
	</g>
	<g>
		<path class="st4" d="M59.6,31.4h12v5.2H53.2V8.4h6.5V31.4z"/>
		<path class="st4" d="M92.7,27L92.7,27c-0.3-1.4-0.4-2.8-0.4-3.5V8.4h5.3v28H92L81,18.2l-1.1-2.3h-0.1c0.4,2.1,0.4,3,0.4,4.1v16.6
			h-5.3V8.4h6.9L92.7,27z"/>
		<path class="st5" d="M132.1,30.1c-0.7,2.5-2.3,4.1-3.4,4.9c-1.7,1.1-3.9,1.8-6.6,1.8c-3.4,0-5.9-1.4-7.5-3c-1.4-1.4-3-3.9-3-7.9
			c0-4.6,2-7.2,3.7-8.6c2.4-2.1,5.1-2.3,6.9-2.3c3.9,0,6.5,1.8,7.9,3.5c1.3,1.5,2.4,3.9,2.4,7.5v1.1h-14.6c0,1.1,0.1,2.4,0.7,3.4
			c0.6,1.1,1.8,2.3,3.7,2.3c1.5,0,2.5-0.6,3.1-1.1c0.6-0.6,0.8-1.3,1-2.1L132.1,30.1z M126.1,23.8c0-1-0.3-2.1-0.8-3
			c-0.6-0.7-1.5-1.5-3.1-1.5c-1.3,0-2.4,0.6-3.1,1.3c-0.7,0.7-1.1,2-1.1,3.2H126.1z"/>
	</g>
	<g>
		<path class="st5" d="M140.6,7c2-3.1,4.1-4.6,5.5-4.6c1.3,0,2.1,1.3,3,4.1l0.6,2.1c3.2-4.6,4.9-6.2,6.8-6.2c1.3,0,2,1,2,2
			c0,0.7-0.6,1.8-1.1,2.1c-0.4,0.3-0.7,0.4-1,0.4c-0.6,0-0.8-1.1-1.7-1.1s-2.4,1.4-4.4,4.4l1.5,4.8c0.7,2.1,1.3,3,1.8,3
			c0.6,0,1.4-0.6,3-2.4l0.7,1.1c-2.1,3.4-4.4,4.8-5.9,4.8c-1.3,0-2.3-1.3-3.2-4.6l-0.8-3c-3.5,5.3-5.2,7.5-7,7.5
			c-1.3,0-2.1-0.8-2.1-2.3c0.1-1.4,1.3-2.7,2.1-2.7c0.6,0,1,1.1,1.7,1.1c0.7,0,2-1.3,4.9-5.5l-1-3.4c-0.7-2.4-1.1-3-1.5-3
			c-0.4,0-1.1,0.4-2.4,2.1L140.6,7z"/>
	</g>
	<path class="st6" d="M107.5,81.2l-9.9,15.6L109,115H96.9l-6.2-10.7L84.4,115H75l10.8-17.5L75.4,81.2h12.1l5.2,9.1l5.5-9.1H107.5z"
		/>
</g>
</svg>
