<?xml version="1.0" encoding="utf-8"?>
<!-- Generator: Adobe Illustrator 23.0.4, SVG Export Plug-In . SVG Version: 6.00 Build 0)  -->
<svg version="1.1" id="Layer_8" xmlns="http://www.w3.org/2000/svg" xmlns:xlink="http://www.w3.org/1999/xlink" x="0px" y="0px"
	 viewBox="0 0 188 150" style="enable-background:new 0 0 188 150;" xml:space="preserve">
<style type="text/css">
	.st0{fill:#030400;}
	.st1{fill:url(#SVGID_1_);}
	.st2{fill:url(#SVGID_2_);}
	.st3{fill:url(#SVGID_3_);}
	.st4{fill:#E0D497;}
	.st5{fill:#859DAF;}
	.st6{fill:#EDDECB;}
</style>
<g>
	<g>
		<path class="st0" d="M144.1,147.1H43.9c-22,0-40-18-40-40V87.4c0-22,18-40,40-40h100.3c22,0,40,18,40,40v19.9
			C184.1,129.1,166.1,147.1,144.1,147.1z"/>
		
			<linearGradient id="SVGID_1_" gradientUnits="userSpaceOnUse" x1="6.0611" y1="473.2235" x2="180.5533" y2="473.2235" gradientTransform="matrix(1 0 0 -1 0 570.9)">
			<stop  offset="0" style="stop-color:#211D14"/>
			<stop  offset="2.810000e-02" style="stop-color:#383429"/>
			<stop  offset="3.700000e-02" style="stop-color:#2C2920"/>
			<stop  offset="5.190000e-02" style="stop-color:#211D17"/>
			<stop  offset="7.290000e-02" style="stop-color:#1A1711"/>
			<stop  offset="0.1313" style="stop-color:#181510"/>
			<stop  offset="0.4854" style="stop-color:#1F1E1A"/>
			<stop  offset="0.8981" style="stop-color:#423A2D"/>
			<stop  offset="0.9331" style="stop-color:#443C2E"/>
			<stop  offset="0.9468" style="stop-color:#4B4233"/>
			<stop  offset="0.9567" style="stop-color:#574D3C"/>
			<stop  offset="0.96" style="stop-color:#5D5240"/>
			<stop  offset="0.9855" style="stop-color:#332D22"/>
			<stop  offset="1" style="stop-color:#211D14"/>
		</linearGradient>
		<path class="st1" d="M140.6,144.3H46c-22,0-40-18-40-40V91.1c0-22,18-40,40-40h94.5c22,0,40,18,40,40v13.2
			C180.4,126.3,162.5,144.3,140.6,144.3z"/>
		
			<linearGradient id="SVGID_2_" gradientUnits="userSpaceOnUse" x1="7.4117" y1="469.9147" x2="178.2573" y2="469.9147" gradientTransform="matrix(1 0 0 -1 0 570.9)">
			<stop  offset="0" style="stop-color:#7C7563"/>
			<stop  offset="0.9845" style="stop-color:#383226"/>
		</linearGradient>
		<path class="st2" d="M138.3,144.3H47.4c-22,0-40-18-40-40v-6.6c0-22,18-40,40-40h90.9c22,0,40,18,40,40v6.6
			C178.3,126.3,160.3,144.3,138.3,144.3z"/>
		
			<linearGradient id="SVGID_3_" gradientUnits="userSpaceOnUse" x1="7.4117" y1="464.5125" x2="178.2573" y2="464.5125" gradientTransform="matrix(1 0 0 -1 0 570.9)">
			<stop  offset="0" style="stop-color:#665A4A"/>
			<stop  offset="9.099999e-02" style="stop-color:#6D6251"/>
			<stop  offset="0.311" style="stop-color:#78705F"/>
			<stop  offset="0.5" style="stop-color:#7C7563"/>
			<stop  offset="0.7691" style="stop-color:#7A7361"/>
			<stop  offset="0.8921" style="stop-color:#746B59"/>
			<stop  offset="0.9853" style="stop-color:#695F4D"/>
			<stop  offset="1" style="stop-color:#675C4A"/>
		</linearGradient>
		<path class="st3" d="M138.3,149.7H47.4c-22,0-40-18-40-40v-6.6c0-22,18-40,40-40h90.9c22,0,40,18,40,40v6.6
			C178.3,131.7,160.3,149.7,138.3,149.7z"/>
	</g>
	<g>
		<path class="st4" d="M170.3,14.1v3.4h-5.4v-3.4H170.3z"/>
		<path class="st4" d="M180.4,20h3.1v3.8h-10.8V20h3.4V7.9c-1.2,1.4-1.9,2-3.2,2.8V6.4c1.4-0.7,3.4-2.7,4.3-4.1h3.4V20H180.4z"/>
	</g>
	<g>
		<path class="st5" d="M42.8,21.9c-0.1-0.7-0.5-1.5-1.5-2.2c-1.2-0.9-2.4-1.2-3.8-1.2c-3.1,0-3.8,1.6-3.8,2.7c0,2,2.6,2.6,3.5,2.7
			l3.4,0.7c2,0.4,3.9,0.9,5.5,2.3c1.4,1.1,2.8,2.8,2.8,5.8c0,3.1-1.8,5.1-3.2,6.3c-1.9,1.5-4.7,2.3-8,2.3c-7.4,0-10.7-4.1-11.7-7.8
			l5.8-1.1c0.5,1.4,1.5,2.7,2.6,3.4c1.2,0.7,2.6,0.8,3.5,0.8c3.9,0,4.5-2,4.5-3c0-2.4-2.8-3.1-3.6-3.2l-3.5-0.8
			c-1.5-0.3-3.8-1.2-4.9-2.2c-1.4-1.1-2.8-2.7-2.8-5.7c0-4.3,3.1-8.2,10.4-8.2c2.3,0,4.5,0.4,6.3,1.5c2.6,1.6,3.5,3.8,4.1,5
			L42.8,21.9z"/>
		<path class="st5" d="M59.4,41.1h-6.2V14.2h6.2V41.1z"/>
		<path class="st5" d="M81.8,31.9L81.8,31.9c-0.3-1.4-0.4-2.7-0.4-3.4V14.2h5.1v26.9h-5.4L70.6,23.5l-0.9-2.3h-0.1
			c0.5,2,0.4,2.8,0.4,3.9v15.9h-5.1V14.2h6.5L81.8,31.9z"/>
		<path class="st4" d="M115.9,21.9c-0.1-0.7-0.5-1.5-1.5-2.2c-1.1-0.9-2.4-1.2-3.8-1.2c-3.1,0-3.8,1.6-3.8,2.7c0,2,2.6,2.6,3.5,2.7
			l3.4,0.7c2,0.4,3.9,0.9,5.5,2.3c1.4,1.1,2.8,2.8,2.8,5.8c0,3.1-1.8,5.1-3.2,6.3c-2,1.5-4.7,2.3-8,2.3c-7.4,0-10.8-4.1-11.7-7.8
			l5.8-1.1c0.5,1.4,1.5,2.7,2.6,3.4c1.2,0.7,2.6,0.8,3.5,0.8c3.9,0,4.5-2,4.5-3c0-2.4-2.8-3.1-3.6-3.2l-3.5-0.8
			c-1.5-0.3-3.8-1.2-4.9-2.2c-1.4-1.1-2.8-2.7-2.8-5.7c0-4.3,3.1-8.2,10.4-8.2c2.3,0,4.5,0.4,6.3,1.5c2.6,1.6,3.5,3.8,4.1,5
			L115.9,21.9z"/>
		<path class="st4" d="M132.5,41.1h-6.2V14.2h6.2V41.1z"/>
		<path class="st4" d="M154.9,31.9L154.9,31.9c-0.3-1.4-0.4-2.7-0.4-3.4V14.2h5.1v26.9h-5.4l-10.5-17.6l-1.1-2.2h-0.1
			c0.5,2,0.4,2.8,0.4,3.9v15.9h-5.1v-27h6.5L154.9,31.9z"/>
	</g>
	<path class="st6" d="M112.1,84L102,102.7v13.8h-9.6v-13.8L81.4,84h10.9L98,94.7l5.4-10.7H112.1z"/>
</g>
</svg>
