<?xml version="1.0" encoding="utf-8"?>
<!-- Generator: Adobe Illustrator 23.0.4, SVG Export Plug-In . SVG Version: 6.00 Build 0)  -->
<svg version="1.1" id="Layer_8" xmlns="http://www.w3.org/2000/svg" xmlns:xlink="http://www.w3.org/1999/xlink" x="0px" y="0px"
	 viewBox="0 0 188 150" style="enable-background:new 0 0 188 150;" xml:space="preserve">
<style type="text/css">
	.st0{fill:#030400;}
	.st1{fill:url(#SVGID_1_);}
	.st2{fill:url(#SVGID_2_);}
	.st3{fill:url(#SVGID_3_);}
	.st4{fill:#E0D497;}
	.st5{fill:#859DAF;}
	.st6{fill:#EDDECB;}
</style>
<g>
	<g>
		<path class="st0" d="M137.6,146.8H39.3c-21.6,0-39.2-17.6-39.2-39.2V88.2C0.1,66.6,17.7,49,39.3,49h98.5
			c21.6,0,39.2,17.6,39.2,39.2v19.5C176.9,129.1,159.2,146.8,137.6,146.8z"/>
		
			<linearGradient id="SVGID_1_" gradientUnits="userSpaceOnUse" x1="2.3527" y1="472.632" x2="173.5564" y2="472.632" gradientTransform="matrix(1 0 0 -1 0 570.9)">
			<stop  offset="0" style="stop-color:#211D14"/>
			<stop  offset="2.810000e-02" style="stop-color:#383429"/>
			<stop  offset="3.700000e-02" style="stop-color:#2C2920"/>
			<stop  offset="5.190000e-02" style="stop-color:#211D17"/>
			<stop  offset="7.290000e-02" style="stop-color:#1A1711"/>
			<stop  offset="0.1313" style="stop-color:#181510"/>
			<stop  offset="0.4854" style="stop-color:#1F1E1A"/>
			<stop  offset="0.8981" style="stop-color:#423A2D"/>
			<stop  offset="0.9331" style="stop-color:#443C2E"/>
			<stop  offset="0.9468" style="stop-color:#4B4233"/>
			<stop  offset="0.9567" style="stop-color:#574D3C"/>
			<stop  offset="0.96" style="stop-color:#5D5240"/>
			<stop  offset="0.9855" style="stop-color:#332D22"/>
			<stop  offset="1" style="stop-color:#211D14"/>
		</linearGradient>
		<path class="st1" d="M134.2,144H41.4C20,144,2.4,126.4,2.4,104.8v-13c0-21.6,17.6-39.2,39.2-39.2h92.8c21.6,0,39.2,17.6,39.2,39.2
			v13C173.3,126.4,155.7,144,134.2,144z"/>
		
			<linearGradient id="SVGID_2_" gradientUnits="userSpaceOnUse" x1="3.5453" y1="469.3856" x2="171.1712" y2="469.3856" gradientTransform="matrix(1 0 0 -1 0 570.9)">
			<stop  offset="0" style="stop-color:#7C7563"/>
			<stop  offset="0.9845" style="stop-color:#383226"/>
		</linearGradient>
		<path class="st2" d="M131.9,144H42.8c-21.6,0-39.2-17.6-39.2-39.2v-6.5C3.5,76.7,21.2,59,42.8,59h89.2c21.6,0,39.2,17.6,39.2,39.2
			v6.5C171.2,126.4,153.5,144,131.9,144z"/>
		
			<linearGradient id="SVGID_3_" gradientUnits="userSpaceOnUse" x1="3.5453" y1="464.0851" x2="171.1712" y2="464.0851" gradientTransform="matrix(1 0 0 -1 0 570.9)">
			<stop  offset="0" style="stop-color:#665A4A"/>
			<stop  offset="9.099999e-02" style="stop-color:#6D6251"/>
			<stop  offset="0.311" style="stop-color:#78705F"/>
			<stop  offset="0.5" style="stop-color:#7C7563"/>
			<stop  offset="0.7691" style="stop-color:#7A7361"/>
			<stop  offset="0.8921" style="stop-color:#746B59"/>
			<stop  offset="0.9853" style="stop-color:#695F4D"/>
			<stop  offset="1" style="stop-color:#675C4A"/>
		</linearGradient>
		<path class="st3" d="M131.9,149.3H42.8c-21.6,0-39.2-17.6-39.2-39.2v-6.5c0-21.6,17.6-39.2,39.2-39.2h89.2
			c21.6,0,39.2,17.6,39.2,39.2v6.5C171.2,131.7,153.5,149.3,131.9,149.3z"/>
	</g>
	<g>
		<path class="st4" d="M175,16.2v3.3h-5.3v-3.3H175z"/>
		<path class="st4" d="M185,22.1h3v3.7h-10.6v-3.7h3.3V10.1c-1.2,1.3-1.9,2-3.2,2.8V8.7c1.3-0.7,3.3-2.7,4.2-4h3.3v17.4H185z"/>
	</g>
	<g>
		<path class="st5" d="M24.2,26c-0.1-1.1-0.4-2.1-0.9-3.2c-0.9-1.6-2-2.3-3.8-2.3c-2,0-3.3,0.9-4.4,3c-0.7,1.6-0.9,3.3-0.9,5.8
			c0,2.7,0.3,4.5,0.9,6c1.2,2.5,3,3,4.4,3s2.7-0.4,3.7-1.9c0.7-1.1,1.1-2.5,1.2-3.6l5.7,0.5c-0.3,2.9-1.7,5.3-3.2,6.6
			c-1.5,1.5-3.8,2.9-7.4,2.9c-5.6,0-8.6-3.3-9.9-5.6s-2-5.4-2-8.1c0-4.5,1.6-8.2,3.8-10.5c2.8-2.8,6.1-3,8.1-3s5.2,0.5,7.6,2.8
			c0.5,0.5,2.7,2.8,3,6.8L24.2,26z"/>
		<path class="st5" d="M52,18.6c2.4,2.1,4.2,5.8,4.2,10.9c0,4.5-1.5,8.2-4,10.6c-1.5,1.5-4.1,2.9-8,2.9s-6.4-1.6-8-2.9
			c-2.5-2.4-4-6.1-4-10.6c0-5,1.9-8.7,4.2-10.9c2.5-2.3,5.4-2.7,7.7-2.7C46.6,16,49.5,16.4,52,18.6z M40.5,22.9
			c-0.5,0.8-1.3,2.7-1.3,6.6s0.8,5.8,1.3,6.6c0.7,1.2,2,2.4,3.8,2.4c1.9,0,3.2-1.2,3.8-2.4c0.5-0.9,1.3-2.8,1.3-6.6
			s-0.9-5.8-1.3-6.6c-1.1-1.7-2.5-2.3-3.8-2.3C43,20.6,41.6,21.1,40.5,22.9z"/>
		<path class="st5" d="M74.7,23.9c-0.1-0.7-0.5-1.5-1.5-2.1c-1.2-0.9-2.4-1.2-3.7-1.2c-3,0-3.7,1.6-3.7,2.7c0,2,2.5,2.5,3.4,2.7
			l3.3,0.7c2,0.4,3.8,0.9,5.4,2.3c1.3,1.1,2.8,2.8,2.8,5.7c0,3-1.7,5-3.2,6.2c-2,1.6-4.6,2.4-7.8,2.4c-7.3,0-10.6-4-11.5-7.7
			l5.7-1.1c0.5,1.3,1.5,2.7,2.5,3.3c1.2,0.7,2.5,0.8,3.4,0.8c3.8,0,4.4-2,4.4-2.9c0-2.4-2.8-3-3.6-3.2l-3.4-0.8
			c-1.5-0.3-3.7-1.2-4.9-2.1c-1.3-1.1-2.8-2.7-2.8-5.6c0-4.2,3-8.1,10.2-8.1c2.3,0,4.4,0.4,6.2,1.5c2.5,1.6,3.4,3.7,4,4.9L74.7,23.9
			z"/>
		<path class="st4" d="M109.2,26c-0.1-1.1-0.4-2.1-0.9-3.2c-0.9-1.6-2.1-2.3-3.8-2.3c-2,0-3.3,0.9-4.4,3c-0.7,1.6-0.9,3.3-0.9,5.8
			c0,2.7,0.3,4.5,0.9,6c1.2,2.5,3,3,4.4,3c1.3,0,2.7-0.4,3.7-1.9c0.7-1.1,1.1-2.5,1.2-3.6l5.7,0.5c-0.3,2.9-1.7,5.3-3.2,6.6
			c-1.5,1.5-3.8,2.9-7.4,2.9c-5.6,0-8.6-3.3-9.9-5.6s-2-5.4-2-8.1c0-4.5,1.6-8.2,3.8-10.5c2.8-2.8,6.1-3,8.1-3c2,0,5.2,0.5,7.6,2.8
			c0.5,0.5,2.7,2.8,3,6.8L109.2,26z"/>
		<path class="st4" d="M137,18.6c2.4,2.1,4.2,5.8,4.2,10.9c0,4.5-1.5,8.2-4,10.6c-1.5,1.5-4.1,2.9-8,2.9c-3.8,0-6.4-1.6-8-2.9
			c-2.5-2.4-4-6.1-4-10.6c0-5,1.9-8.7,4.2-10.9c2.5-2.3,5.4-2.7,7.7-2.7C131.6,16,134.5,16.4,137,18.6z M125.5,22.9
			c-0.5,0.8-1.3,2.7-1.3,6.6s0.8,5.8,1.3,6.6c0.7,1.2,2,2.4,3.8,2.4c1.9,0,3.2-1.2,3.8-2.4c0.5-0.9,1.3-2.8,1.3-6.6
			s-0.9-5.8-1.3-6.6c-1.1-1.7-2.5-2.3-3.8-2.3C128,20.6,126.5,21.1,125.5,22.9z"/>
		<path class="st4" d="M159.6,23.9c-0.1-0.7-0.5-1.5-1.5-2.1c-1.2-0.9-2.4-1.2-3.7-1.2c-3,0-3.7,1.6-3.7,2.7c0,2,2.5,2.5,3.4,2.7
			l3.3,0.7c2,0.4,3.8,0.9,5.4,2.3c1.3,1.1,2.8,2.8,2.8,5.7c0,3-1.7,5-3.2,6.2c-2,1.5-4.6,2.3-7.8,2.3c-7.3,0-10.6-4-11.5-7.7
			l5.7-1.1c0.5,1.3,1.5,2.7,2.5,3.3c1.2,0.7,2.5,0.8,3.4,0.8c3.8,0,4.4-2,4.4-2.9c0-2.4-2.8-3-3.6-3.2l-3.4-0.8
			c-1.5-0.3-3.7-1.2-4.8-2.1c-1.3-1.1-2.8-2.7-2.8-5.6c0-4.2,3-8.1,10.2-8.1c2.3,0,4.4,0.4,6.2,1.5c2.5,1.6,3.4,3.7,4,4.9
			L159.6,23.9z"/>
	</g>
	<path class="st6" d="M100.7,109.1v7.6H74.2v-6.1l14-18.4h-13v-7.3h24.9v6.2l-13.6,18H100.7L100.7,109.1z"/>
</g>
</svg>
