<?xml version="1.0" encoding="utf-8"?>
<!-- Generator: Adobe Illustrator 23.0.4, SVG Export Plug-In . SVG Version: 6.00 Build 0)  -->
<svg version="1.1" id="Layer_8" xmlns="http://www.w3.org/2000/svg" xmlns:xlink="http://www.w3.org/1999/xlink" x="0px" y="0px"
	 viewBox="0 0 271 150" style="enable-background:new 0 0 271 150;" xml:space="preserve">
<style type="text/css">
	.st0{fill:#030400;}
	.st1{fill:url(#SVGID_1_);}
	.st2{fill:url(#SVGID_2_);}
	.st3{fill:url(#SVGID_3_);}
	.st4{fill:#EDDECB;}
</style>
<g>
	<path class="st0" d="M210.9,150.9H60c-33.1,0-60.1-27-60.1-60.1V61.2c0-33.1,27-60.1,60.1-60.1h150.9c33.1,0,60.1,27,60.1,60.1V91
		C270.8,123.9,243.8,150.9,210.9,150.9z"/>
	
		<linearGradient id="SVGID_1_" gradientUnits="userSpaceOnUse" x1="3.3522" y1="-341.4893" x2="265.5171" y2="-341.4893" gradientTransform="matrix(1 0 0 1 0 418.2)">
		<stop  offset="0" style="stop-color:#665A4A"/>
		<stop  offset="9.099999e-02" style="stop-color:#6D6251"/>
		<stop  offset="0.311" style="stop-color:#78705F"/>
		<stop  offset="0.5" style="stop-color:#7C7563"/>
		<stop  offset="0.7691" style="stop-color:#7A7361"/>
		<stop  offset="0.8921" style="stop-color:#746B59"/>
		<stop  offset="0.9853" style="stop-color:#695F4D"/>
		<stop  offset="1" style="stop-color:#675C4A"/>
	</linearGradient>
	<path class="st1" d="M205.4,146.7H63.3c-32.9,0-59.9-27-59.9-59.9V66.9c0-33.1,27-60.1,59.9-60.1h142.1c33.1,0,60.1,27,60.1,60.1
		v19.9C265.5,119.7,238.5,146.7,205.4,146.7z"/>
	
		<linearGradient id="SVGID_2_" gradientUnits="userSpaceOnUse" x1="5.3829" y1="-340.5754" x2="262.2679" y2="-340.5754" gradientTransform="matrix(1 0 0 1 0 418.2)">
		<stop  offset="0" style="stop-color:#211D14"/>
		<stop  offset="2.810000e-02" style="stop-color:#383429"/>
		<stop  offset="3.700000e-02" style="stop-color:#2C2920"/>
		<stop  offset="5.190000e-02" style="stop-color:#211D17"/>
		<stop  offset="7.290000e-02" style="stop-color:#1A1711"/>
		<stop  offset="0.1313" style="stop-color:#181510"/>
		<stop  offset="0.4854" style="stop-color:#1F1E1A"/>
		<stop  offset="0.8981" style="stop-color:#423A2D"/>
		<stop  offset="0.9331" style="stop-color:#443C2E"/>
		<stop  offset="0.9468" style="stop-color:#4B4233"/>
		<stop  offset="0.9567" style="stop-color:#574D3C"/>
		<stop  offset="0.96" style="stop-color:#5D5240"/>
		<stop  offset="0.9855" style="stop-color:#332D22"/>
		<stop  offset="1" style="stop-color:#211D14"/>
	</linearGradient>
	<path class="st2" d="M202.2,142.6H65.3c-32.9,0-59.9-27-59.9-59.9v-10c0-33.1,27-60.1,60.1-60.1h136.7c33.1,0,60.1,27,60.1,60.1v10
		C262.1,115.6,235.1,142.6,202.2,142.6z"/>
	
		<radialGradient id="SVGID_3_" cx="133.8254" cy="-684.1648" r="125.9262" gradientTransform="matrix(1 0 0 0.5055 0 423.4396)" gradientUnits="userSpaceOnUse">
		<stop  offset="0" style="stop-color:#7C7563"/>
		<stop  offset="0.2236" style="stop-color:#77705F"/>
		<stop  offset="0.4855" style="stop-color:#696252"/>
		<stop  offset="0.7655" style="stop-color:#514B3D"/>
		<stop  offset="1" style="stop-color:#383226"/>
	</radialGradient>
	<path class="st3" d="M196.9,140H70.6c-33.1,0-60.1-27-60.1-60.1V75c0-33.1,27-60.1,60.1-60.1h126.5c33.1,0,60.1,27,60.1,60.1v4.9
		C257,113,230,140,196.9,140z"/>
	<path class="st4" d="M116.7,77.8c7.1,0,21.1,0,42,0c0,2.2,0,6.9,0,14c-6.9,0-20.9,0-42,0c0-1.6,0-3.5,0-5.9
		C116.7,83.7,116.7,81.1,116.7,77.8z"/>
</g>
</svg>
