<?xml version="1.0" encoding="utf-8"?>
<!-- Generator: Adobe Illustrator 23.0.4, SVG Export Plug-In . SVG Version: 6.00 Build 0)  -->
<svg version="1.1" id="Layer_8" xmlns="http://www.w3.org/2000/svg" xmlns:xlink="http://www.w3.org/1999/xlink" x="0px" y="0px"
	 viewBox="0 0 121 80.6" style="enable-background:new 0 0 121 80.6;" xml:space="preserve">
<style type="text/css">
	.st0{fill:#030400;}
	.st1{fill:url(#SVGID_1_);}
	.st2{fill:url(#SVGID_2_);}
	.st3{fill:url(#SVGID_3_);}
	.st4{fill:#EDDECB;}
</style>
<g>
	<g>
		<path class="st0" d="M108.5,80.6H35.6C15.9,80.6,0,64.6,0,45V25.3C0,11.3,11.3,0,25.3,0h83.2c6.9,0,12.5,5.6,12.5,12.5V68
			C121,74.9,115.4,80.6,108.5,80.6z"/>
		
			<radialGradient id="SVGID_1_" cx="-525.1151" cy="430.7" r="48.9239" gradientTransform="matrix(1 0 0 -1 584.9158 472)" gradientUnits="userSpaceOnUse">
			<stop  offset="0" style="stop-color:#000000"/>
			<stop  offset="0.4536" style="stop-color:#070604"/>
			<stop  offset="1" style="stop-color:#231F1B"/>
		</radialGradient>
		<path class="st1" d="M104.2,80.6H39.1C19.2,80.6,3,64.4,3,44.5V34.4c0-9,3.3-17.8,9.5-24.3C17.2,5.3,22.9,2,28.5,2h75.6
			c6.9,0,12.5,5.6,12.5,12.5V68C116.7,74.9,111.1,80.6,104.2,80.6z"/>
		
			<radialGradient id="SVGID_2_" cx="-524.0658" cy="430.85" r="67.1303" gradientTransform="matrix(1 0 0 -1 584.9158 472)" gradientUnits="userSpaceOnUse">
			<stop  offset="0" style="stop-color:#000000"/>
			<stop  offset="0.8178" style="stop-color:#181510"/>
			<stop  offset="0.9172" style="stop-color:#433B30"/>
		</radialGradient>
		<path class="st2" d="M104.2,77.6H39.8C20.6,77.6,5,62,5,42.7V37C5,19.2,19.5,4.7,37.3,4.7h66.9c6.9,0,12.5,5.6,12.5,12.5V65
			C116.7,71.9,111.1,77.6,104.2,77.6z"/>
		
			<radialGradient id="SVGID_3_" cx="798.8438" cy="639.7404" r="50.9684" gradientTransform="matrix(-1 0 0 -0.6231 859.1937 440.1722)" gradientUnits="userSpaceOnUse">
			<stop  offset="0" style="stop-color:#000000"/>
			<stop  offset="0.6426" style="stop-color:#181510"/>
			<stop  offset="0.8225" style="stop-color:#231F1B"/>
			<stop  offset="0.8933" style="stop-color:#201C18"/>
			<stop  offset="0.9528" style="stop-color:#151310"/>
			<stop  offset="1" style="stop-color:#070604"/>
		</radialGradient>
		<path class="st3" d="M100.1,75.6h-61C19.2,75.6,7,59.4,7,39.5l0,0c0-17.7,10.3-32,28-32h65.1c9.2,0,13.6,7.4,13.6,16.6V59
			C113.7,68.1,109.3,75.6,100.1,75.6z"/>
	</g>
	<path class="st4" d="M50.7,31.8c2-2.9,5.8-5.8,11.3-5.8s9.2,2.9,11.3,5.8c2.4,3.4,3.4,8.6,3.4,13.8c0,16.3-9.1,19.3-14.6,19.3
		s-14.6-3-14.6-19.3C47.4,40.4,48.4,35.2,50.7,31.8z M58,56.3c1,1.4,2.4,2,4.1,2s3-0.7,4.1-2c0.7-1,2.3-3.5,2.3-10.8
		c0-2.8,0-8.8-2.4-11.5c-1-1.1-2.3-1.7-4-1.7s-3,0.6-4,1.7c-2.3,2.6-2.4,8.7-2.4,11.5C55.6,52.8,57.2,55.3,58,56.3z"/>
</g>
</svg>
