<?xml version="1.0" encoding="utf-8"?>
<!-- Generator: Adobe Illustrator 23.0.4, SVG Export Plug-In . SVG Version: 6.00 Build 0)  -->
<svg version="1.1" id="Layer_1" xmlns="http://www.w3.org/2000/svg" xmlns:xlink="http://www.w3.org/1999/xlink" x="0px" y="0px"
	 viewBox="0 0 271 155" style="enable-background:new 0 0 271 155;" xml:space="preserve">
<style type="text/css">
	.st0{fill:#030400;}
	.st1{fill:url(#SVGID_1_);}
	.st2{fill:url(#SVGID_2_);}
	.st3{fill:url(#SVGID_3_);}
	.st4{fill:#EDDECB;}
</style>
<g>
	<g>
		<path class="st0" d="M210.6,155H60.1C27,155,0,128,0,94.9V65.3c0-33,27-60.1,60.1-60.1h150.8c33.1,0,60.1,27,60.1,60.1V95
			C270.7,128,243.7,155,210.6,155z"/>
		
			<linearGradient id="SVGID_1_" gradientUnits="userSpaceOnUse" x1="3.2" y1="584.6" x2="265.5" y2="584.6" gradientTransform="matrix(1 0 0 -1 0 665.4)">
			<stop  offset="0" style="stop-color:#AFCBE0"/>
			<stop  offset="0.3164" style="stop-color:#ADC9DE"/>
			<stop  offset="0.4929" style="stop-color:#A7C1D6"/>
			<stop  offset="0.635" style="stop-color:#9BB5C8"/>
			<stop  offset="0.7587" style="stop-color:#8CA3B4"/>
			<stop  offset="0.8705" style="stop-color:#778C9B"/>
			<stop  offset="0.9723" style="stop-color:#5E707C"/>
			<stop  offset="0.9948" style="stop-color:#586974"/>
		</linearGradient>
		<path class="st1" d="M205.3,150.7h-142c-33.1,0-60.1-27-60.1-59.9V71c0-33.1,27-60.1,60.1-60.1h142.1c33.1,0,60.1,27,60.1,60.1v20
			C265.3,123.9,238.3,150.7,205.3,150.7z"/>
		
			<linearGradient id="SVGID_2_" gradientUnits="userSpaceOnUse" x1="5.3" y1="583.7" x2="262.1" y2="583.7" gradientTransform="matrix(1 0 0 -1 0 665.4)">
			<stop  offset="0" style="stop-color:#708899"/>
			<stop  offset="2.810000e-02" style="stop-color:#758B9B"/>
			<stop  offset="3.070000e-02" style="stop-color:#6F8493"/>
			<stop  offset="3.950000e-02" style="stop-color:#60717D"/>
			<stop  offset="5.000000e-02" style="stop-color:#54636C"/>
			<stop  offset="6.290000e-02" style="stop-color:#4C5861"/>
			<stop  offset="8.100000e-02" style="stop-color:#47535A"/>
			<stop  offset="0.1313" style="stop-color:#465158"/>
			<stop  offset="0.4854" style="stop-color:#627684"/>
			<stop  offset="0.8981" style="stop-color:#9BB0C2"/>
			<stop  offset="0.9545" style="stop-color:#9AAFC0"/>
			<stop  offset="0.96" style="stop-color:#9AAEBF"/>
			<stop  offset="0.9668" style="stop-color:#8D9FAF"/>
			<stop  offset="0.989" style="stop-color:#65747F"/>
			<stop  offset="1" style="stop-color:#56636D"/>
		</linearGradient>
		<path class="st2" d="M201.9,146.7H65.4c-33.1,0-60.1-27-60.1-59.9v-10c0-33.1,27-60.1,60.1-60.1H202c33.1,0,60.1,27,60.1,60.1v10
			C262,119.9,235,146.7,201.9,146.7z"/>
		
			<radialGradient id="SVGID_3_" cx="133.7" cy="943.1987" r="112.2144" gradientTransform="matrix(1 0 0 -0.5719 0 621.1653)" gradientUnits="userSpaceOnUse">
			<stop  offset="0.2906" style="stop-color:#7F898A"/>
			<stop  offset="0.451" style="stop-color:#818B8E"/>
			<stop  offset="0.5932" style="stop-color:#869398"/>
			<stop  offset="0.7286" style="stop-color:#8FA0AA"/>
			<stop  offset="0.859" style="stop-color:#9CB1C4"/>
			<stop  offset="0.8688" style="stop-color:#9DB3C6"/>
			<stop  offset="0.9336" style="stop-color:#9CB2C4"/>
			<stop  offset="0.9697" style="stop-color:#99AEBC"/>
			<stop  offset="0.9987" style="stop-color:#93A6AE"/>
			<stop  offset="1" style="stop-color:#93A6AD"/>
		</radialGradient>
		<path class="st3" d="M196.9,144.3H70.5c-33.1,0-60.1-27-60.1-60.1v-4.9c0-33.1,27-60.1,60.1-60.1h126.4c33.1,0,60.1,27,60.1,60.1
			v4.9C257,117.2,230,144.3,196.9,144.3z"/>
	</g>
	<path class="st4" d="M116.9,100.2l-0.6,9h-26v-9.3c8.6-9,16.3-15.8,16.3-25.8c0-0.8,0-4.9-3.4-4.9c-2.9,0-4.3,2.9-4.4,9l-8.3-1.8
		c1-13.6,9-15.4,13.4-15.4c2.9,0,12.8,0.8,12.8,13.4c0,10.4-6.7,16.4-16.3,26L116.9,100.2L116.9,100.2z"/>
	<path class="st4" d="M122.4,61.8h9.6l7.7,21.7c0.6,1.8,1.8,6.9,2.3,9.3c-0.4-4.7-0.8-10.6-0.8-14.4V61.8h8V109h-8l-9-24.1
		c-1-2.7-1.6-4.9-2.9-9.7c0.3,2,0.8,11.4,0.8,14v20h-8C122.4,109.2,122.4,61.8,122.4,61.8z"/>
	<path class="st4" d="M156.5,61.8h9.1c5.9,0,12.1,0.4,16.3,6.1c1.8,2.4,4,7.1,4,17.3c0,5.1-0.4,12-4,17.4c-1.6,2.7-5.1,6.4-12.4,6.4
		h-12.8L156.5,61.8L156.5,61.8z M168.8,101c1.4,0,3.3,0,4.9-1.8c0.8-1,1.8-3.7,1.8-14c0-3.3-0.3-11.1-2.7-13.4c-1.3-1.3-3-1.3-4-1.3
		H166v30.7L168.8,101L168.8,101z"/>
</g>
</svg>
