<?xml version="1.0" encoding="utf-8"?>
<!-- Generator: Adobe Illustrator 23.0.4, SVG Export Plug-In . SVG Version: 6.00 Build 0)  -->
<svg version="1.1" id="Layer_8" xmlns="http://www.w3.org/2000/svg" xmlns:xlink="http://www.w3.org/1999/xlink" x="0px" y="0px"
	 viewBox="0 0 121 80.7" style="enable-background:new 0 0 121 80.7;" xml:space="preserve">
<style type="text/css">
	.st0{fill:#030400;}
	.st1{fill:url(#SVGID_1_);}
	.st2{fill:url(#SVGID_2_);}
	.st3{fill:url(#SVGID_3_);}
	.st4{fill:#EDDECB;}
</style>
<g>
	<g>
		<path class="st0" d="M12.5,80.7h72.9c19.6,0,35.6-15.9,35.6-35.6V25.3C121,11.3,109.7,0,95.7,0H12.5C5.6,0,0,5.6,0,12.5v55.6
			C0,75,5.6,80.7,12.5,80.7z"/>
		
			<radialGradient id="SVGID_1_" cx="-373.072" cy="428.4" r="48.8693" gradientTransform="matrix(-1 0 0 -1 -311.922 469.8)" gradientUnits="userSpaceOnUse">
			<stop  offset="0" style="stop-color:#000000"/>
			<stop  offset="0.4536" style="stop-color:#070604"/>
			<stop  offset="1" style="stop-color:#231F1B"/>
		</radialGradient>
		<path class="st1" d="M16.8,80.7h65.1c19.9,0,36.1-16.2,36.1-36.1V34.5c0-9-3.3-17.8-9.5-24.3c-4.7-4.8-10.4-8.1-16-8.1H16.8
			C9.9,2.1,4.3,7.7,4.3,14.6v53.6C4.3,75,9.9,80.7,16.8,80.7z"/>
		
			<radialGradient id="SVGID_2_" cx="-372.022" cy="428.55" r="67.089" gradientTransform="matrix(-1 0 0 -1 -311.922 469.8)" gradientUnits="userSpaceOnUse">
			<stop  offset="0" style="stop-color:#000000"/>
			<stop  offset="0.8178" style="stop-color:#181510"/>
			<stop  offset="0.9172" style="stop-color:#433B30"/>
		</radialGradient>
		<path class="st2" d="M16.8,77.7h66.3c19.2,0,32.8-15.6,32.8-34.8v-5.8c0-17.8-12.5-32.3-30.3-32.3H16.8c-6.9,0-12.5,5.6-12.5,12.5
			v47.8C4.3,72,9.9,77.7,16.8,77.7z"/>
		
			<radialGradient id="SVGID_3_" cx="60.65" cy="637.4344" r="50.977" gradientTransform="matrix(1 0 0 -0.6231 0 438.8354)" gradientUnits="userSpaceOnUse">
			<stop  offset="0" style="stop-color:#000000"/>
			<stop  offset="0.6426" style="stop-color:#181510"/>
			<stop  offset="0.8225" style="stop-color:#231F1B"/>
			<stop  offset="0.8933" style="stop-color:#201C18"/>
			<stop  offset="0.9528" style="stop-color:#151310"/>
			<stop  offset="1" style="stop-color:#070604"/>
		</radialGradient>
		<path class="st3" d="M20.9,75.7h61c19.9,0,32.1-16.2,32.1-36.1l0,0c0-17.7-10.3-32-28-32H20.9C11.7,7.6,7.3,15,7.3,24.2V59
			C7.3,68.2,11.7,75.7,20.9,75.7z"/>
	</g>
	<path class="st4" d="M44.6,35.8c2-6.9,8-10,14.4-10c4.3,0,7.8,1.4,9.9,3.3c2,1.8,3.3,4.3,3.3,7c0,3.9-2.6,7.2-6.3,8.2
		c4.4,0.9,7.6,4.1,7.6,9c0,4.4-2.4,7-3.9,8.1c-2.6,2-6.9,3.1-10.9,3.1c-6.8,0-13.3-3.2-15.3-10.9l7.6-1.3c0.8,3.2,3.4,5.6,7.3,5.6
		c1.5,0,3.7-0.5,4.9-1.5c1-0.8,1.7-2.2,1.7-3.7c0-1.7-0.9-3.1-2-4c-0.5-0.4-2-1.2-5.5-1.2h-4v-5.9h3.5c1.8,0,3.7-0.1,5.1-1.1
		c1.1-0.8,1.8-2.1,1.8-3.5c0-1.1-0.4-2.4-1.6-3.3c-0.9-0.8-2.2-1.3-4-1.3c-3.3,0-5.5,2.1-6.3,4.8L44.6,35.8z"/>
</g>
</svg>
