<?xml version="1.0" encoding="utf-8"?>
<!-- Generator: Adobe Illustrator 23.0.4, SVG Export Plug-In . SVG Version: 6.00 Build 0)  -->
<svg version="1.1" id="Layer_8" xmlns="http://www.w3.org/2000/svg" xmlns:xlink="http://www.w3.org/1999/xlink" x="0px" y="0px"
	 viewBox="0 0 121 80.6" style="enable-background:new 0 0 121 80.6;" xml:space="preserve">
<style type="text/css">
	.st0{fill:#030400;}
	.st1{fill:url(#SVGID_1_);}
	.st2{fill:url(#SVGID_2_);}
	.st3{fill:url(#SVGID_3_);}
	.st4{fill:#EDDECB;}
</style>
<g>
	<g>
		<path class="st0" d="M108.5,80.6H35.6C15.9,80.6,0,64.7,0,45.1V25.3C0,11.3,11.3,0,25.3,0h83.2c6.9,0,12.5,5.6,12.5,12.5v55.6
			C121,75,115.4,80.6,108.5,80.6z"/>
		
			<radialGradient id="SVGID_1_" cx="-525.1151" cy="429.25" r="48.92" gradientTransform="matrix(1 0 0 -1 584.9158 470.6)" gradientUnits="userSpaceOnUse">
			<stop  offset="0" style="stop-color:#000000"/>
			<stop  offset="0.4536" style="stop-color:#070604"/>
			<stop  offset="1" style="stop-color:#231F1B"/>
		</radialGradient>
		<path class="st1" d="M104.2,80.6H39.1C19.2,80.6,3,64.5,3,44.6V34.5c0-9,3.3-17.8,9.5-24.3c4.7-4.8,10.4-8.1,16-8.1h75.6
			c6.9,0,12.5,5.6,12.5,12.5v53.6C116.7,75,111.1,80.6,104.2,80.6z"/>
		
			<radialGradient id="SVGID_2_" cx="-524.0658" cy="429.45" r="67.0966" gradientTransform="matrix(1 0 0 -1 584.9158 470.6)" gradientUnits="userSpaceOnUse">
			<stop  offset="0" style="stop-color:#000000"/>
			<stop  offset="0.8178" style="stop-color:#181510"/>
			<stop  offset="0.9172" style="stop-color:#433B30"/>
		</radialGradient>
		<path class="st2" d="M104.2,77.6H39.8C20.6,77.6,5,62,5,42.8V37C5,19.2,19.5,4.7,37.3,4.7h66.9c6.9,0,12.5,5.6,12.5,12.5V65
			C116.7,72,111.1,77.6,104.2,77.6z"/>
		
			<radialGradient id="SVGID_3_" cx="798.8438" cy="638.9" r="50.9607" gradientTransform="matrix(-1 0 0 -0.6231 859.1937 439.6985)" gradientUnits="userSpaceOnUse">
			<stop  offset="0" style="stop-color:#000000"/>
			<stop  offset="0.6426" style="stop-color:#181510"/>
			<stop  offset="0.8225" style="stop-color:#231F1B"/>
			<stop  offset="0.8933" style="stop-color:#201C18"/>
			<stop  offset="0.9528" style="stop-color:#151310"/>
			<stop  offset="1" style="stop-color:#070604"/>
		</radialGradient>
		<path class="st3" d="M100.1,75.6h-61C19.2,75.6,7,59.5,7,39.5l0,0C7,21.9,17.3,7.6,35,7.6h65.1c9.2,0,13.6,7.4,13.6,16.6V59
			C113.7,68.2,109.3,75.6,100.1,75.6z"/>
	</g>
	<path class="st4" d="M71.7,49.1h5.7v6.4h-5.7V64h-8.4v-8.5H46.6v-6.1l15.3-23.1h9.8L71.7,49.1L71.7,49.1z M63.3,34l-9.8,15.1h9.8
		V34z"/>
</g>
</svg>
