<?xml version="1.0" encoding="utf-8"?>
<!-- Generator: Adobe Illustrator 23.0.4, SVG Export Plug-In . SVG Version: 6.00 Build 0)  -->
<svg version="1.1" id="Layer_8" xmlns="http://www.w3.org/2000/svg" xmlns:xlink="http://www.w3.org/1999/xlink" x="0px" y="0px"
	 viewBox="0 0 121 78.6" style="enable-background:new 0 0 121 78.6;" xml:space="preserve">
<style type="text/css">
	.st0{fill:#030400;}
	.st1{fill:url(#SVGID_1_);}
	.st2{fill:url(#SVGID_2_);}
	.st3{fill:url(#SVGID_3_);}
	.st4{fill:#EDDECB;}
</style>
<g>
	<g>
		<path class="st0" d="M108.5,78.6h-96C5.6,78.6,0,73,0,66.1V10.5C0,3.6,5.6-2,12.5-2h96c6.9,0,12.5,5.6,12.5,12.5v55.6
			C121,73,115.4,78.6,108.5,78.6z"/>
		
			<radialGradient id="SVGID_1_" cx="59.8007" cy="429.3" r="48.9039" gradientTransform="matrix(1 0 0 -1 0 468.6)" gradientUnits="userSpaceOnUse">
			<stop  offset="0" style="stop-color:#000000"/>
			<stop  offset="0.4536" style="stop-color:#070604"/>
			<stop  offset="1" style="stop-color:#231F1B"/>
		</radialGradient>
		<path class="st1" d="M104.2,78.6H15.5C8.6,78.6,3,73,3,66.1V12.5C3,5.6,8.6,0,15.5,0h88.6c6.9,0,12.5,5.6,12.5,12.5v53.6
			C116.7,73,111.1,78.6,104.2,78.6z"/>
		
			<radialGradient id="SVGID_2_" cx="59.8007" cy="429.95" r="47.9714" gradientTransform="matrix(1 0 0 -1 0 468.6)" gradientUnits="userSpaceOnUse">
			<stop  offset="0" style="stop-color:#000000"/>
			<stop  offset="0.8178" style="stop-color:#181510"/>
			<stop  offset="0.9172" style="stop-color:#433B30"/>
		</radialGradient>
		<path class="st2" d="M104.2,75.6H15.5C8.6,75.6,3,70,3,63.1V15.2C3,8.3,8.6,2.7,15.5,1.7h88.6c6.9,1,12.5,6.6,12.5,13.5V63
			C116.7,70,111.1,75.6,104.2,75.6z"/>
		
			<radialGradient id="SVGID_3_" cx="59.8007" cy="659.5293" r="51.847" gradientTransform="matrix(1 0 0 -0.6005 0 434.6474)" gradientUnits="userSpaceOnUse">
			<stop  offset="0" style="stop-color:#000000"/>
			<stop  offset="0.6426" style="stop-color:#181510"/>
			<stop  offset="0.8225" style="stop-color:#231F1B"/>
			<stop  offset="0.8933" style="stop-color:#201C18"/>
			<stop  offset="0.9528" style="stop-color:#151310"/>
			<stop  offset="1" style="stop-color:#070604"/>
		</radialGradient>
		<path class="st3" d="M102.5,72.6H17.1c-6.9,0-12.5-5.6-12.5-12.5v-43c0-6.9,5.6-12.5,12.5-12.5h85.4c6.9,0,12.5,5.6,12.5,12.5v43
			C115.1,67,109.5,72.6,102.5,72.6z"/>
	</g>
	<path class="st4" d="M46.9,34.4c0-3,1.7-6.4,4.3-8.4c2.4-1.9,5.9-2.7,9.4-2.7c4.9,0,7.8,1.5,9.1,2.3c3.6,2.2,4.5,5.2,4.5,7.4
		c0,4.1-2.7,6.9-5.8,8.1c2,0.8,7.3,3.5,7.3,9.6c0,3.2-1.5,6.4-4.3,8.5c-2.7,2-7,2.9-11,2.9c-6.4,0-9.9-2.3-11.2-3.3
		c-2.5-1.9-3.7-4.3-3.7-7c0-5,3.8-7.9,7.1-9.1C49.6,41.3,46.9,38.3,46.9,34.4z M53.2,51.2c0,1.9,1.4,5.1,7.3,5.1
		c5.1,0,6.7-2.4,6.7-4.3c0-3.3-4.5-5-8.6-6.2C56.3,46.5,53.2,48.3,53.2,51.2z M66.6,34.1c0-2.1-1.7-4.8-6.3-4.8
		c-4.1,0-5.4,2.4-5.4,4c0,2.5,3,4.6,6.9,5.6C64.3,38,66.6,36.5,66.6,34.1z"/>
</g>
</svg>
