<?xml version="1.0" encoding="utf-8"?>
<!-- Generator: Adobe Illustrator 23.0.4, SVG Export Plug-In . SVG Version: 6.00 Build 0)  -->
<svg version="1.1" id="Layer_8" xmlns="http://www.w3.org/2000/svg" xmlns:xlink="http://www.w3.org/1999/xlink" x="0px" y="0px"
	 viewBox="0 0 121 80.6" style="enable-background:new 0 0 121 80.6;" xml:space="preserve">
<style type="text/css">
	.st0{fill:#030400;}
	.st1{fill:url(#SVGID_1_);}
	.st2{fill:url(#SVGID_2_);}
	.st3{fill:url(#SVGID_3_);}
	.st4{fill:#EDDECB;}
</style>
<g>
	<g>
		<path class="st0" d="M12.5,80.6h72.9C105,80.6,121,64.7,121,45V25.3C121,11.3,109.7,0,95.7,0H12.5C5.6,0,0,5.6,0,12.5v55.6
			C0,75,5.6,80.6,12.5,80.6z"/>
		
			<radialGradient id="SVGID_1_" cx="-373.072" cy="431.6507" r="48.8494" gradientTransform="matrix(-1 0 0 -1 -311.922 473)" gradientUnits="userSpaceOnUse">
			<stop  offset="0" style="stop-color:#000000"/>
			<stop  offset="0.4536" style="stop-color:#070604"/>
			<stop  offset="1" style="stop-color:#231F1B"/>
		</radialGradient>
		<path class="st1" d="M16.8,80.6h65.1c19.9,0,36.1-16.2,36.1-36.1v-10c0-9-3.3-17.8-9.5-24.3c-4.7-4.8-10.4-8.1-16-8.1H16.8
			C9.9,2,4.3,7.6,4.3,14.5v53.6C4.3,75,9.9,80.6,16.8,80.6z"/>
		
			<radialGradient id="SVGID_2_" cx="-372.022" cy="431.85" r="67.0429" gradientTransform="matrix(-1 0 0 -1 -311.922 473)" gradientUnits="userSpaceOnUse">
			<stop  offset="0" style="stop-color:#000000"/>
			<stop  offset="0.8178" style="stop-color:#181510"/>
			<stop  offset="0.9172" style="stop-color:#433B30"/>
		</radialGradient>
		<path class="st2" d="M16.8,77.6h66.3c19.2,0,32.8-15.6,32.8-34.8V37c0-17.8-12.5-32.3-30.3-32.3H16.8c-6.9,0-12.5,5.6-12.5,12.5
			V65C4.3,72,9.9,77.6,16.8,77.6z"/>
		
			<radialGradient id="SVGID_3_" cx="60.65" cy="640.098" r="50.9519" gradientTransform="matrix(1 0 0 -0.6231 0 440.4451)" gradientUnits="userSpaceOnUse">
			<stop  offset="0" style="stop-color:#000000"/>
			<stop  offset="0.6426" style="stop-color:#181510"/>
			<stop  offset="0.8225" style="stop-color:#231F1B"/>
			<stop  offset="0.8933" style="stop-color:#201C18"/>
			<stop  offset="0.9528" style="stop-color:#151310"/>
			<stop  offset="1" style="stop-color:#070604"/>
		</radialGradient>
		<path class="st3" d="M20.9,75.6h61c19.9,0,32.1-16.1,32.1-36.1l0,0c0-17.6-10.3-31.9-27.9-31.9H20.9C11.7,7.6,7.3,15,7.3,24.2V59
			C7.3,68.2,11.7,75.6,20.9,75.6z"/>
	</g>
	<path class="st4" d="M52.4,53c0.4,2.1,1.9,4.8,5.5,4.8c4.8,0,7.3-5.5,7.1-12.7c-2,3.3-5.2,5.1-9.2,5.1c-7.9,0-12.1-5.8-12.1-11.9
		c0-3.7,1.7-7.1,4.5-9.5c2.4-2,5.7-3.4,9.8-3.4c4.4,0,9.1,1.5,12.2,6.2c2.5,3.7,3.3,8.1,3.3,12.5c0,5.2-1.1,10.8-5,15.3
		c-3.3,3.8-6.7,4.8-10.6,4.8c-1.9,0-11.1-0.3-13-10.1L52.4,53z M54,33.5c-1.3,1.2-1.7,2.7-1.7,4.2c0,1.9,0.7,3.3,1.8,4.4
		c0.9,0.9,2.1,1.8,4,1.8s3.4-0.8,4.5-1.8c1.5-1.5,1.9-3.2,1.9-4.5c0-1.9-0.9-3.2-1.6-3.9c-1-1-2.8-1.9-4.6-1.9
		C57.3,31.8,55.6,32,54,33.5z"/>
</g>
</svg>
