<?xml version="1.0" encoding="utf-8"?>
<!-- Generator: Adobe Illustrator 23.0.4, SVG Export Plug-In . SVG Version: 6.00 Build 0)  -->
<svg version="1.1" id="Layer_8" xmlns="http://www.w3.org/2000/svg" xmlns:xlink="http://www.w3.org/1999/xlink" x="0px" y="0px"
	 viewBox="0 0 133.4 73.8" style="enable-background:new 0 0 133.4 73.8;" xml:space="preserve">
<style type="text/css">
	.st0{fill:#030400;}
	.st1{fill:url(#SVGID_1_);}
	.st2{fill:url(#SVGID_2_);}
	.st3{fill:url(#SVGID_3_);}
	.st4{fill:#453E36;}
</style>
<g>
	<g>
		<path class="st0" d="M103.8,73.8H29.6C13.3,73.8,0,60.5,0,44.3V29.6C0,13.3,13.3,0,29.6,0h74.3c16.3,0,29.6,13.3,29.6,29.6v14.6
			C133.4,60.5,120.1,73.8,103.8,73.8z"/>
		
			<radialGradient id="SVGID_1_" cx="66.2" cy="430.3049" r="51.7295" gradientTransform="matrix(1 0 0 -1 0 467.6)" gradientUnits="userSpaceOnUse">
			<stop  offset="0" style="stop-color:#9B766F"/>
			<stop  offset="2.850000e-02" style="stop-color:#A7867C"/>
			<stop  offset="7.490000e-02" style="stop-color:#B6998C"/>
			<stop  offset="0.1289" style="stop-color:#C0A797"/>
			<stop  offset="0.1968" style="stop-color:#C6AF9D"/>
			<stop  offset="0.3239" style="stop-color:#C8B19F"/>
			<stop  offset="0.6076" style="stop-color:#C6AF9D"/>
			<stop  offset="0.7658" style="stop-color:#C0A795"/>
			<stop  offset="0.8928" style="stop-color:#B69988"/>
			<stop  offset="1" style="stop-color:#A88676"/>
		</radialGradient>
		<path class="st1" d="M101.2,71.7h-70c-16.3,0-29.6-13.3-29.6-29.6v-9.8C1.6,16,14.9,2.7,31.2,2.7h70c16.3,0,29.6,13.3,29.6,29.6
			v9.8C130.7,58.4,117.4,71.7,101.2,71.7z"/>
		
			<linearGradient id="SVGID_2_" gradientUnits="userSpaceOnUse" x1="2.6" y1="429.95" x2="129.1" y2="429.95" gradientTransform="matrix(1 0 0 -1 0 467.6)">
			<stop  offset="0" style="stop-color:#CCBAA2"/>
			<stop  offset="2.810000e-02" style="stop-color:#CBB9A5"/>
			<stop  offset="3.440000e-02" style="stop-color:#BEAB9A"/>
			<stop  offset="4.540000e-02" style="stop-color:#AE9A8D"/>
			<stop  offset="5.900000e-02" style="stop-color:#A28F84"/>
			<stop  offset="7.820000e-02" style="stop-color:#9C887E"/>
			<stop  offset="0.1313" style="stop-color:#9A867D"/>
			<stop  offset="0.4854" style="stop-color:#C8B19F"/>
			<stop  offset="0.8981" style="stop-color:#C9B2A0"/>
			<stop  offset="0.945" style="stop-color:#C9B39E"/>
			<stop  offset="0.96" style="stop-color:#C8B499"/>
			<stop  offset="0.9722" style="stop-color:#C0AC8F"/>
			<stop  offset="1" style="stop-color:#B19C7D"/>
		</linearGradient>
		<path class="st2" d="M99.5,69.7H32.2c-16.3,0-29.6-13.3-29.6-29.6v-4.9c0-16.3,13.3-29.6,29.6-29.6h67.3
			c16.3,0,29.6,13.3,29.6,29.6v4.9C129.1,56.4,115.8,69.7,99.5,69.7z"/>
		
			<radialGradient id="SVGID_3_" cx="65.85" cy="821.4326" r="61.8371" gradientTransform="matrix(1 0 0 -0.4655 0 420.0769)" gradientUnits="userSpaceOnUse">
			<stop  offset="0" style="stop-color:#9B766F"/>
			<stop  offset="2.850000e-02" style="stop-color:#A7867C"/>
			<stop  offset="7.490000e-02" style="stop-color:#B6998C"/>
			<stop  offset="0.1289" style="stop-color:#C0A797"/>
			<stop  offset="0.1968" style="stop-color:#C6AF9D"/>
			<stop  offset="0.3239" style="stop-color:#C8B19F"/>
			<stop  offset="0.6076" style="stop-color:#C6AF9D"/>
			<stop  offset="0.7658" style="stop-color:#C0A795"/>
			<stop  offset="0.8928" style="stop-color:#B69988"/>
			<stop  offset="1" style="stop-color:#A88676"/>
		</radialGradient>
		<path class="st3" d="M97,68.5H34.7c-16.3,0-29.6-13.3-29.6-29.6v-2.4c0-16.3,13.3-29.6,29.6-29.6H97c16.3,0,29.6,13.3,29.6,29.6
			v2.4C126.6,55.2,113.3,68.5,97,68.5z"/>
	</g>
	<path class="st4" d="M38.8,27.7L44,51.1h-4.8l-0.9-5h-4.6l-0.9,5h-4.3l5.3-23.3h5V27.7z M36.4,36c-0.4-1.8-0.5-3.1-0.5-3.9
		c0,0.4-0.1,1.6-0.5,3.7l-1.3,6.4h3.6L36.4,36z"/>
	<path class="st4" d="M45.6,27.7h4.8v19h6V51H45.7L45.6,27.7L45.6,27.7z"/>
	<path class="st4" d="M58.2,27.7h5.9c2.5,0,4.6,0.1,6,2.2c1,1.3,1.4,3.5,1.4,5.1c0,1.5-0.4,4-1.6,5.4c-1.6,2-3.9,2-5.7,2h-1.4V51
		h-4.7L58.2,27.7L58.2,27.7z M64.1,38.3c0.5,0,1.2,0,1.8-0.6c0.3-0.4,0.8-1.2,0.8-3.1c0-0.7-0.1-1.9-0.7-2.6
		c-0.5-0.6-1.2-0.7-1.8-0.7H63v6.9L64.1,38.3L64.1,38.3z"/>
	<path class="st4" d="M82.2,36.9v-9.1H87v23.3h-4.8V41h-3.6v10.1h-4.8V27.7h4.8v9.1L82.2,36.9L82.2,36.9z"/>
	<path class="st4" d="M98.7,27.7L104,51h-4.8l-0.9-5h-4.6l-1,5h-4.3l5.3-23.3C93.7,27.7,98.7,27.7,98.7,27.7z M96.4,36
		c-0.4-1.8-0.5-3.1-0.5-3.9c0,0.4-0.1,1.6-0.5,3.7l-1.3,6.4h3.6L96.4,36z"/>
</g>
</svg>
