<?xml version="1.0" encoding="utf-8"?>
<!-- Generator: Adobe Illustrator 23.0.4, SVG Export Plug-In . SVG Version: 6.00 Build 0)  -->
<svg version="1.1" id="Layer_8" xmlns="http://www.w3.org/2000/svg" xmlns:xlink="http://www.w3.org/1999/xlink" x="0px" y="0px"
	 viewBox="0 0 133.4 73.8" style="enable-background:new 0 0 133.4 73.8;" xml:space="preserve">
<style type="text/css">
	.st0{fill:#030400;}
	.st1{fill:url(#SVGID_1_);}
	.st2{fill:url(#SVGID_2_);}
	.st3{fill:url(#SVGID_3_);}
	.st4{fill:#77455C;}
</style>
<g>
	<g>
		<path class="st0" d="M103.8,73.8H29.6C13.3,73.8,0,60.5,0,44.2V29.6C0,13.3,13.3,0,29.6,0h74.3c16.3,0,29.6,13.3,29.6,29.6v14.6
			C133.4,60.5,120.1,73.8,103.8,73.8z"/>
		
			<radialGradient id="SVGID_1_" cx="66.2" cy="429.4" r="51.7112" gradientTransform="matrix(1 0 0 -1 0 466.6)" gradientUnits="userSpaceOnUse">
			<stop  offset="0" style="stop-color:#000000"/>
			<stop  offset="0.4536" style="stop-color:#070604"/>
			<stop  offset="1" style="stop-color:#231F1B"/>
		</radialGradient>
		<path class="st1" d="M101.2,71.7h-70c-16.3,0-29.6-13.3-29.6-29.6v-9.8C1.6,16,14.9,2.7,31.2,2.7h70c16.3,0,29.6,13.3,29.6,29.6
			v9.8C130.7,58.4,117.4,71.7,101.2,71.7z"/>
		
			<radialGradient id="SVGID_2_" cx="65.85" cy="428.95" r="50.1386" gradientTransform="matrix(1 0 0 -1 0 466.6)" gradientUnits="userSpaceOnUse">
			<stop  offset="0" style="stop-color:#000000"/>
			<stop  offset="0.8178" style="stop-color:#181510"/>
			<stop  offset="0.9172" style="stop-color:#433B30"/>
		</radialGradient>
		<path class="st2" d="M99.5,69.7H32.2c-16.3,0-29.6-13.3-29.6-29.6v-4.9c0-16.3,13.3-29.6,29.6-29.6h67.3
			c16.3,0,29.6,13.3,29.6,29.6v4.9C129.1,56.4,115.8,69.7,99.5,69.7z"/>
		
			<radialGradient id="SVGID_3_" cx="65.85" cy="763.4864" r="62.048" gradientTransform="matrix(1 0 0 -0.5055 0 423.6173)" gradientUnits="userSpaceOnUse">
			<stop  offset="0" style="stop-color:#000000"/>
			<stop  offset="0.6426" style="stop-color:#181510"/>
			<stop  offset="0.8225" style="stop-color:#231F1B"/>
			<stop  offset="0.8933" style="stop-color:#201C18"/>
			<stop  offset="0.9528" style="stop-color:#151310"/>
			<stop  offset="1" style="stop-color:#070604"/>
		</radialGradient>
		<path class="st3" d="M97,68.4H34.7c-16.3,0-29.6-13.3-29.6-29.6v-2.4c0-16.3,13.3-29.6,29.6-29.6H97c16.3,0,29.6,13.3,29.6,29.6
			v2.4C126.6,55.1,113.3,68.4,97,68.4z"/>
	</g>
	<path class="st4" d="M46.9,28.7L52.2,52h-4.8l-0.9-5h-4.6l-1,5h-4.3l5.3-23.3C41.9,28.7,46.9,28.7,46.9,28.7z M44.6,37
		c-0.4-1.8-0.5-3.1-0.5-3.9c0,0.4-0.1,1.6-0.5,3.7l-1.3,6.4h3.6L44.6,37z"/>
	<path class="st4" d="M53.6,28.7h5.9c2.5,0,4.6,0.1,6,2.2c1,1.3,1.4,3.5,1.4,5.1c0,1.5-0.4,4-1.6,5.4c-1.6,2-3.9,2-5.7,2h-1.4V52
		h-4.7L53.6,28.7L53.6,28.7z M59.4,39.3c0.5,0,1.2,0,1.8-0.6c0.3-0.4,0.8-1.2,0.8-3.1c0-0.7-0.1-1.9-0.7-2.6
		c-0.5-0.6-1.2-0.7-1.8-0.7h-1.2v7H59.4L59.4,39.3z"/>
	<path class="st4" d="M69.2,28.7H75c2.5,0,4.6,0.1,6,2.2c1,1.3,1.4,3.5,1.4,5.1c0,1.5-0.4,4-1.6,5.4c-1.6,2-3.9,2-5.7,2h-1.4V52H69
		L69.2,28.7L69.2,28.7z M75,39.3c0.5,0,1.2,0,1.8-0.6c0.3-0.4,0.8-1.2,0.8-3.1c0-0.7-0.1-1.9-0.7-2.6c-0.5-0.6-1.2-0.7-1.8-0.7h-1.2
		v7H75L75,39.3z"/>
	<path class="st4" d="M93.1,35.3c-0.3-1.4-0.8-2-1.2-2.3c-0.5-0.4-1-0.4-1.5-0.4s-1,0.1-1.5,0.5c-0.4,0.4-0.5,1.1-0.5,1.7
		c0,0.8,0.2,1.4,0.8,1.9c0.7,0.6,1.7,1,3.3,1.7c1.1,0.5,2.4,1.1,3.4,2.6c0.9,1.2,1.1,2.5,1.1,3.9c0,3.1-1.2,4.9-2.2,5.7
		c-1.2,1.1-3.1,1.7-4.9,1.7c-1.5,0-3.2-0.4-4.4-1.4c-1.7-1.4-2.3-3.6-2.5-4.9l3.8-1.4c0.2,1,0.7,2.4,1.3,2.9
		c0.4,0.4,1.1,0.5,1.8,0.5c0.5,0,1.2-0.1,1.7-0.6c0.4-0.4,0.6-1.1,0.6-1.8c0-0.8-0.2-1.4-0.8-1.9c-0.6-0.6-1.6-1-3.2-1.9
		c-1.2-0.6-2.5-1.3-3.4-2.6c-0.7-1.1-1-2.5-1-3.9c0-2.3,0.9-4.2,2.1-5.4c1.1-1.1,2.7-1.7,4.3-1.7c1.1,0,2.5,0.3,3.5,1
		c1.3,0.9,2.4,2.5,2.8,4.4L93.1,35.3z"/>
</g>
</svg>
