<?xml version="1.0" encoding="utf-8"?>
<!-- Generator: Adobe Illustrator 23.0.4, SVG Export Plug-In . SVG Version: 6.00 Build 0)  -->
<svg version="1.1" id="Layer_3" xmlns="http://www.w3.org/2000/svg" xmlns:xlink="http://www.w3.org/1999/xlink" x="0px" y="0px"
	 viewBox="0 0 271 150" style="enable-background:new 0 0 271 150;" xml:space="preserve">
<style type="text/css">
	.st0{fill:#030400;}
	.st1{fill:url(#SVGID_1_);}
	.st2{fill:url(#SVGID_2_);}
	.st3{fill:url(#SVGID_3_);}
	.st4{fill:#EDDECB;}
</style>
<g>
	<g>
		<path class="st0" d="M209.3,149.7H58.8c-33,0-59.9-26.9-59.9-59.9V60.2c0-33,26.9-59.9,59.9-59.9h150.4c33,0,59.9,26.9,59.9,59.9
			v29.6C269,122.8,242.1,149.7,209.3,149.7z"/>
		
			<linearGradient id="SVGID_1_" gradientUnits="userSpaceOnUse" x1="2.1261" y1="486.2913" x2="263.7355" y2="486.2913" gradientTransform="matrix(1 0 0 -1 0 562)">
			<stop  offset="0" style="stop-color:#665A4A"/>
			<stop  offset="9.099999e-02" style="stop-color:#6D6251"/>
			<stop  offset="0.311" style="stop-color:#78705F"/>
			<stop  offset="0.5" style="stop-color:#7C7563"/>
			<stop  offset="0.7691" style="stop-color:#7A7361"/>
			<stop  offset="0.8921" style="stop-color:#746B59"/>
			<stop  offset="0.9853" style="stop-color:#695F4D"/>
			<stop  offset="1" style="stop-color:#675C4A"/>
		</linearGradient>
		<path class="st1" d="M203.8,145.5H62.1c-33,0-59.9-26.9-59.9-59.7V65.9C2.1,32.9,29.1,6,62.1,6h141.7c33,0,59.9,26.9,59.9,59.9
			v19.8C263.7,118.7,236.6,145.5,203.8,145.5z"/>
		
			<linearGradient id="SVGID_2_" gradientUnits="userSpaceOnUse" x1="4.1509" y1="485.3801" x2="260.2944" y2="485.3801" gradientTransform="matrix(1 0 0 -1 0 562)">
			<stop  offset="0" style="stop-color:#211D14"/>
			<stop  offset="2.810000e-02" style="stop-color:#383429"/>
			<stop  offset="3.700000e-02" style="stop-color:#2C2920"/>
			<stop  offset="5.190000e-02" style="stop-color:#211D17"/>
			<stop  offset="7.290000e-02" style="stop-color:#1A1711"/>
			<stop  offset="0.1313" style="stop-color:#181510"/>
			<stop  offset="0.4854" style="stop-color:#1F1E1A"/>
			<stop  offset="0.8981" style="stop-color:#423A2D"/>
			<stop  offset="0.9331" style="stop-color:#443C2E"/>
			<stop  offset="0.9468" style="stop-color:#4B4233"/>
			<stop  offset="0.9567" style="stop-color:#574D3C"/>
			<stop  offset="0.96" style="stop-color:#5D5240"/>
			<stop  offset="0.9855" style="stop-color:#332D22"/>
			<stop  offset="1" style="stop-color:#211D14"/>
		</linearGradient>
		<path class="st2" d="M200.6,141.4H64.1c-32.8,0-59.9-26.9-59.9-59.7v-9.9c0-33,26.9-59.9,59.9-59.9h136.3
			c33,0,59.9,26.9,59.9,59.9v9.9C260.5,114.7,233.6,141.4,200.6,141.4z"/>
		
			<radialGradient id="SVGID_3_" cx="132.5258" cy="859.012" r="125.5147" gradientTransform="matrix(1 0 0 -0.5055 0 510.8504)" gradientUnits="userSpaceOnUse">
			<stop  offset="0" style="stop-color:#7C7563"/>
			<stop  offset="0.2236" style="stop-color:#77705F"/>
			<stop  offset="0.4855" style="stop-color:#696252"/>
			<stop  offset="0.7655" style="stop-color:#514B3D"/>
			<stop  offset="1" style="stop-color:#383226"/>
		</radialGradient>
		<path class="st3" d="M195.5,139H69.4C36.5,139,9.6,112.1,9.6,79v-4.9c0-33,26.9-59.9,59.9-59.9h125.9c33,0,59.9,26.9,59.9,59.9V79
			C255.2,112.1,228.5,139,195.5,139z"/>
	</g>
	<g>
		<path class="st4" d="M162.5,74.8l-28.1-25.1v71.1h-7.9V49.7L98.1,74.8l-5.5-4.9l37.5-33.6l37.7,33.6L162.5,74.8z"/>
	</g>
</g>
</svg>
