<?xml version="1.0" encoding="utf-8"?>
<!-- Generator: Adobe Illustrator 23.0.4, SVG Export Plug-In . SVG Version: 6.00 Build 0)  -->
<svg version="1.1" id="Layer_8" xmlns="http://www.w3.org/2000/svg" xmlns:xlink="http://www.w3.org/1999/xlink" x="0px" y="0px"
	 viewBox="0 0 133.4 73.9" style="enable-background:new 0 0 133.4 73.9;" xml:space="preserve">
<style type="text/css">
	.st0{fill:#030400;}
	.st1{fill:url(#SVGID_1_);}
	.st2{fill:url(#SVGID_2_);}
	.st3{fill:url(#SVGID_3_);}
	.st4{fill:#EDDECB;}
</style>
<g>
	<g>
		<path class="st0" d="M103.8,73.9H29.6C13.3,73.9,0,60.6,0,44.3V29.6C0,13.3,13.3,0,29.6,0h74.3c16.3,0,29.6,13.3,29.6,29.6v14.6
			C133.4,60.6,120.1,73.9,103.8,73.9z"/>
		
			<linearGradient id="SVGID_1_" gradientUnits="userSpaceOnUse" x1="1.6" y1="431.9" x2="130.8" y2="431.9" gradientTransform="matrix(1 0 0 -1 0 469.2)">
			<stop  offset="0" style="stop-color:#665A4A"/>
			<stop  offset="9.099999e-02" style="stop-color:#6D6251"/>
			<stop  offset="0.311" style="stop-color:#78705F"/>
			<stop  offset="0.5" style="stop-color:#7C7563"/>
			<stop  offset="0.7691" style="stop-color:#7A7361"/>
			<stop  offset="0.8921" style="stop-color:#746B59"/>
			<stop  offset="0.9853" style="stop-color:#695F4D"/>
			<stop  offset="1" style="stop-color:#675C4A"/>
		</linearGradient>
		<path class="st1" d="M101.2,71.8h-70c-16.3,0-29.6-13.3-29.6-29.6v-9.8c0-16.3,13.3-29.6,29.6-29.6h70c16.3,0,29.6,13.3,29.6,29.6
			v9.8C130.7,58.5,117.4,71.8,101.2,71.8z"/>
		
			<linearGradient id="SVGID_2_" gradientUnits="userSpaceOnUse" x1="2.6" y1="431.45" x2="129.1" y2="431.45" gradientTransform="matrix(1 0 0 -1 0 469.2)">
			<stop  offset="0" style="stop-color:#211D14"/>
			<stop  offset="2.810000e-02" style="stop-color:#383429"/>
			<stop  offset="3.700000e-02" style="stop-color:#2C2920"/>
			<stop  offset="5.190000e-02" style="stop-color:#211D17"/>
			<stop  offset="7.290000e-02" style="stop-color:#1A1711"/>
			<stop  offset="0.1313" style="stop-color:#181510"/>
			<stop  offset="0.4854" style="stop-color:#1F1E1A"/>
			<stop  offset="0.8981" style="stop-color:#423A2D"/>
			<stop  offset="0.9331" style="stop-color:#443C2E"/>
			<stop  offset="0.9468" style="stop-color:#4B4233"/>
			<stop  offset="0.9567" style="stop-color:#574D3C"/>
			<stop  offset="0.96" style="stop-color:#5D5240"/>
			<stop  offset="0.9855" style="stop-color:#332D22"/>
			<stop  offset="1" style="stop-color:#211D14"/>
		</linearGradient>
		<path class="st2" d="M99.5,69.8H32.2c-16.3,0-29.6-13.3-29.6-29.6v-4.9C2.6,19,15.9,5.7,32.2,5.7h67.3c16.3,0,29.6,13.3,29.6,29.6
			v4.9C129.1,56.5,115.8,69.8,99.5,69.8z"/>
		
			<radialGradient id="SVGID_3_" cx="65.85" cy="765.0386" r="62.0408" gradientTransform="matrix(1 0 0 -0.5055 0 424.477)" gradientUnits="userSpaceOnUse">
			<stop  offset="0" style="stop-color:#7C7563"/>
			<stop  offset="0.2236" style="stop-color:#77705F"/>
			<stop  offset="0.4855" style="stop-color:#696252"/>
			<stop  offset="0.7655" style="stop-color:#514B3D"/>
			<stop  offset="1" style="stop-color:#383226"/>
		</radialGradient>
		<path class="st3" d="M97,68.5H34.7c-16.3,0-29.6-13.3-29.6-29.6v-2.3C5.1,20.3,18.4,7,34.7,7H97c16.3,0,29.6,13.3,29.6,29.6V39
			C126.6,55.2,113.3,68.5,97,68.5z"/>
	</g>
	<g>
		<path class="st4" d="M49.8,25.8c-1.4,2.8-2.4,4.7-3.1,5.8c-0.7,1.1-2,2.8-3.7,5h56v3.5H42.9c2.4,2.5,4.7,6.1,6.9,10.9h-2.7
			c-3-3.4-5.6-5.9-7.8-7.7c-2.2-1.8-4.4-3.2-6.8-4.3v-1.6c2-0.9,4.2-2.2,6.4-4c2.2-1.8,5-4.4,8.1-7.8L49.8,25.8L49.8,25.8z"/>
	</g>
</g>
</svg>
