<?xml version="1.0" encoding="utf-8"?>
<!-- Generator: Adobe Illustrator 23.0.4, SVG Export Plug-In . SVG Version: 6.00 Build 0)  -->
<svg version="1.1" id="Layer_8" xmlns="http://www.w3.org/2000/svg" xmlns:xlink="http://www.w3.org/1999/xlink" x="0px" y="0px"
	 viewBox="0 0 133.4 73.8" style="enable-background:new 0 0 133.4 73.8;" xml:space="preserve">
<style type="text/css">
	.st0{fill:#030400;}
	.st1{fill:url(#SVGID_1_);}
	.st2{fill:url(#SVGID_2_);}
	.st3{fill:url(#SVGID_3_);}
	.st4{fill:#EDDECB;}
</style>
<g>
	<g>
		<path class="st0" d="M103.8,73.8H29.6C13.3,73.8,0,60.5,0,44.2V29.6C0,13.3,13.3,0,29.6,0h74.3c16.3,0,29.6,13.3,29.6,29.6v14.6
			C133.4,60.5,120.1,73.8,103.8,73.8z"/>
		
			<linearGradient id="SVGID_1_" gradientUnits="userSpaceOnUse" x1="1.7" y1="429.4" x2="130.9" y2="429.4" gradientTransform="matrix(1 0 0 -1 0 466.6)">
			<stop  offset="0" style="stop-color:#665A4A"/>
			<stop  offset="9.099999e-02" style="stop-color:#6D6251"/>
			<stop  offset="0.311" style="stop-color:#78705F"/>
			<stop  offset="0.5" style="stop-color:#7C7563"/>
			<stop  offset="0.7691" style="stop-color:#7A7361"/>
			<stop  offset="0.8921" style="stop-color:#746B59"/>
			<stop  offset="0.9853" style="stop-color:#695F4D"/>
			<stop  offset="1" style="stop-color:#675C4A"/>
		</linearGradient>
		<path class="st1" d="M101.2,71.7h-70C15,71.7,1.7,58.4,1.7,42.1v-9.8C1.7,16,15,2.7,31.3,2.7h70c16.3,0,29.6,13.3,29.6,29.6v9.8
			C130.7,58.4,117.4,71.7,101.2,71.7z"/>
		
			<linearGradient id="SVGID_2_" gradientUnits="userSpaceOnUse" x1="2.6" y1="428.95" x2="129.1" y2="428.95" gradientTransform="matrix(1 0 0 -1 0 466.6)">
			<stop  offset="0" style="stop-color:#211D14"/>
			<stop  offset="2.810000e-02" style="stop-color:#383429"/>
			<stop  offset="3.700000e-02" style="stop-color:#2C2920"/>
			<stop  offset="5.190000e-02" style="stop-color:#211D17"/>
			<stop  offset="7.290000e-02" style="stop-color:#1A1711"/>
			<stop  offset="0.1313" style="stop-color:#181510"/>
			<stop  offset="0.4854" style="stop-color:#1F1E1A"/>
			<stop  offset="0.8981" style="stop-color:#423A2D"/>
			<stop  offset="0.9331" style="stop-color:#443C2E"/>
			<stop  offset="0.9468" style="stop-color:#4B4233"/>
			<stop  offset="0.9567" style="stop-color:#574D3C"/>
			<stop  offset="0.96" style="stop-color:#5D5240"/>
			<stop  offset="0.9855" style="stop-color:#332D22"/>
			<stop  offset="1" style="stop-color:#211D14"/>
		</linearGradient>
		<path class="st2" d="M99.5,69.7H32.2c-16.3,0-29.6-13.3-29.6-29.6v-4.9c0-16.3,13.3-29.6,29.6-29.6h67.3
			c16.3,0,29.6,13.3,29.6,29.6v4.9C129.1,56.4,115.8,69.7,99.5,69.7z"/>
		
			<radialGradient id="SVGID_3_" cx="65.85" cy="763.4968" r="62.0498" gradientTransform="matrix(1 0 0 -0.5055 0 423.6127)" gradientUnits="userSpaceOnUse">
			<stop  offset="0" style="stop-color:#7C7563"/>
			<stop  offset="0.2236" style="stop-color:#77705F"/>
			<stop  offset="0.4855" style="stop-color:#696252"/>
			<stop  offset="0.7655" style="stop-color:#514B3D"/>
			<stop  offset="1" style="stop-color:#383226"/>
		</radialGradient>
		<path class="st3" d="M97,68.4H34.7c-16.3,0-29.6-13.3-29.6-29.6v-2.4c0-16.3,13.3-29.6,29.6-29.6H97c16.3,0,29.6,13.3,29.6,29.6
			v2.4C126.6,55.1,113.3,68.4,97,68.4z"/>
	</g>
	<path class="st4" d="M27,36.5c-0.1-2.5-0.4-3.5-0.6-4c-0.4-0.9-1.1-1.2-1.9-1.2s-1.3,0.3-1.7,0.8c-0.4,0.5-1,2.1-1,7.7
		c0,3.2,0.2,4.8,0.6,5.8s1,1.3,2,1.3c0.9,0,1.5-0.4,2-1.3c0.4-0.8,0.6-2.3,0.6-3.3l4.1,0.3c0,1.5-0.4,4.5-2.1,6.5
		c-1.3,1.5-2.9,2-4.7,2c-2.7,0-4.4-1.2-5.4-2.5c-2.1-2.7-2.2-7.9-2.2-9.6c0-2,0.1-6.7,2.5-9.5c1-1.2,2.6-2.4,5.2-2.4
		c2.4,0,3.8,1.1,4.6,1.8c2,2,2.3,5.3,2.3,7.2L27,36.5z"/>
	<path class="st4" d="M41.7,27.5L47,50.8h-4.8l-0.9-5h-4.6l-1,5h-4.3l5.3-23.3H41.7z M39.4,35.8c-0.4-1.8-0.5-3.1-0.5-3.9
		c0,0.4-0.1,1.6-0.5,3.7L37.1,42h3.6L39.4,35.8z"/>
	<path class="st4" d="M54.7,50.8h-4.8V31.9h-3.8v-4.4h12.5v4.4h-3.9V50.8L54.7,50.8z"/>
	<path class="st4" d="M67.3,27.5l5.3,23.3h-4.8l-0.9-5h-4.6l-1,5H57l5.3-23.3H67.3z M65,35.8c-0.4-1.8-0.5-3.1-0.5-3.9
		c0,0.4-0.1,1.6-0.5,3.7L62.7,42h3.6L65,35.8z"/>
	<path class="st4" d="M74.2,27.5H79v19h6v4.3H74.2V27.5L74.2,27.5z"/>
	<path class="st4" d="M97.9,30c0.8,1.2,1.9,3.6,1.9,9.2s-1.1,8-1.9,9.2c-1.7,2.5-3.8,2.9-5.4,2.9s-3.9-0.5-5.5-3
		c-0.8-1.2-1.9-3.6-1.9-9.2s1.1-8,1.9-9.2c1.7-2.5,3.8-2.9,5.4-2.9S96.2,27.5,97.9,30z M90.9,46.1c0.2,0.3,0.7,0.9,1.5,0.9
		s1.3-0.5,1.5-0.9c0.5-0.8,0.8-2.5,0.8-7c0-4.6-0.2-6.2-0.8-7c-0.2-0.3-0.7-0.9-1.5-0.9s-1.3,0.5-1.5,0.9c-0.5,0.8-0.8,2.5-0.8,7
		S90.4,45.3,90.9,46.1z"/>
	<path class="st4" d="M116.4,50.8h-2.1l-0.6-2.8c-0.3,0.8-0.9,1.6-1.5,2.1c-1,0.9-2.2,1-3.2,1c-1.3,0-3.3-0.2-4.9-2.4
		c-0.7-0.9-2.2-3.4-2.2-9.5s1.6-8.7,2.4-9.6c1-1.3,2.7-2.6,5.3-2.6c2.1,0,3.6,0.9,4.5,1.8c1.5,1.5,2.2,4.1,2.3,6.1l-4,0.8
		c-0.3-2.4-0.6-3.3-1-3.7s-1-0.7-1.8-0.7s-1.3,0.3-1.7,0.9s-1,2.1-1,7c0,2.2,0.1,5.4,0.8,6.6c0.6,1,1.3,1.1,2,1.1s1.4-0.2,1.9-0.9
		c0.5-0.7,0.7-2.5,0.6-3.7h-2.9v-3.9h7.1L116.4,50.8L116.4,50.8z"/>
</g>
</svg>
