<?xml version="1.0" encoding="utf-8"?>
<!-- Generator: Adobe Illustrator 23.0.4, SVG Export Plug-In . SVG Version: 6.00 Build 0)  -->
<svg version="1.1" id="Layer_1" xmlns="http://www.w3.org/2000/svg" xmlns:xlink="http://www.w3.org/1999/xlink" x="0px" y="0px"
	 viewBox="0 0 271 150" style="enable-background:new 0 0 271 150;" xml:space="preserve">
<style type="text/css">
	.st0{fill:#030400;}
	.st1{fill:url(#SVGID_1_);}
	.st2{fill:url(#SVGID_2_);}
	.st3{fill:url(#SVGID_3_);}
	.st4{fill:#EDDECB;}
</style>
<g>
	<g>
		<path class="st0" d="M208.9,149.8H58.2c-33.1,0-60-27-60-60V60.2c0-33.1,27-60,60-60h150.7c33.1,0,60,27,60,60v29.6
			C268.7,122.9,241.8,149.8,208.9,149.8z"/>
		
			<linearGradient id="SVGID_1_" gradientUnits="userSpaceOnUse" x1="1.6231" y1="-400.2901" x2="263.4581" y2="-400.2901" gradientTransform="matrix(1 0 0 1 0 476)">
			<stop  offset="0" style="stop-color:#665A4A"/>
			<stop  offset="9.099999e-02" style="stop-color:#6D6251"/>
			<stop  offset="0.311" style="stop-color:#78705F"/>
			<stop  offset="0.5" style="stop-color:#7C7563"/>
			<stop  offset="0.7691" style="stop-color:#7A7361"/>
			<stop  offset="0.8921" style="stop-color:#746B59"/>
			<stop  offset="0.9853" style="stop-color:#695F4D"/>
			<stop  offset="1" style="stop-color:#675C4A"/>
		</linearGradient>
		<path class="st1" d="M203.4,145.6h-142c-32.9,0-59.8-26.8-59.8-60V65.7c0-32.9,27-59.8,59.8-59.8h142c33.1,0,60,27,60,60v19.9
			C263.3,118.8,236.3,145.6,203.4,145.6z"/>
		
			<linearGradient id="SVGID_2_" gradientUnits="userSpaceOnUse" x1="3.4484" y1="-399.4789" x2="260.0114" y2="-399.4789" gradientTransform="matrix(1 0 0 1 0 476)">
			<stop  offset="0" style="stop-color:#211D14"/>
			<stop  offset="2.810000e-02" style="stop-color:#383429"/>
			<stop  offset="3.700000e-02" style="stop-color:#2C2920"/>
			<stop  offset="5.190000e-02" style="stop-color:#211D17"/>
			<stop  offset="7.290000e-02" style="stop-color:#1A1711"/>
			<stop  offset="0.1313" style="stop-color:#181510"/>
			<stop  offset="0.4854" style="stop-color:#1F1E1A"/>
			<stop  offset="0.8981" style="stop-color:#423A2D"/>
			<stop  offset="0.9331" style="stop-color:#443C2E"/>
			<stop  offset="0.9468" style="stop-color:#4B4233"/>
			<stop  offset="0.9567" style="stop-color:#574D3C"/>
			<stop  offset="0.96" style="stop-color:#5D5240"/>
			<stop  offset="0.9855" style="stop-color:#332D22"/>
			<stop  offset="1" style="stop-color:#211D14"/>
		</linearGradient>
		<path class="st2" d="M200,141.5H63.5c-33.1,0-60-27-60-60v-9.9c0-33.1,27-60,60-60H200c33.1,0,60,27,60,60v9.9
			C260.2,114.8,233.2,141.5,200,141.5z"/>
		
			<radialGradient id="SVGID_3_" cx="131.7293" cy="-746.5399" r="125.899" gradientTransform="matrix(1 0 0 0.5055 0 454.0289)" gradientUnits="userSpaceOnUse">
			<stop  offset="0" style="stop-color:#7C7563"/>
			<stop  offset="0.2236" style="stop-color:#77705F"/>
			<stop  offset="0.4855" style="stop-color:#696252"/>
			<stop  offset="0.7655" style="stop-color:#514B3D"/>
			<stop  offset="1" style="stop-color:#383226"/>
		</radialGradient>
		<path class="st3" d="M194.9,139.1H68.6c-33.1,0-60-27.2-60-60.2V74c0-33.1,27-60,60-60h126.4c33.1,0,60,27,60,60v4.9
			C254.9,111.9,228,139.1,194.9,139.1z"/>
	</g>
	<path class="st4" d="M79.7,74.2c-0.2-5.1-0.8-7.1-1.4-8.1c-0.8-1.8-2.2-2.4-3.9-2.4s-2.6,0.6-3.4,1.6c-0.8,1-2,4.3-2,15.6
		c0,6.5,0.4,9.7,1.4,11.8c0.8,2,2,2.6,4.1,2.6c1.8,0,3-0.8,4.1-2.6c0.8-1.6,1.2-4.7,1.2-6.7l8.3,0.6c0,3-0.8,9.1-4.3,13.2
		c-2.6,3-5.9,4.1-9.5,4.1c-5.5,0-8.9-2.4-11-5.1c-4.3-5.5-4.5-16-4.5-19.5c0-4.1,0.2-13.6,5.1-19.3c2-2.4,5.3-4.9,10.5-4.9
		c4.9,0,7.7,2.2,9.3,3.7c4.1,4.1,4.7,10.7,4.7,14.6L79.7,74.2z"/>
	<path class="st4" d="M93.1,55.9h9.7v38.5H115v8.7H93.1V55.9z"/>
	<path class="st4" d="M128.4,75.2h11.4v7.9h-11.4v11.8h14.8v8.3h-24.5V55.9h24.5v8.3h-14.8V75.2z"/>
	<path class="st4" d="M164.3,55.9l10.7,47.3h-9.7l-1.8-10.1h-9.3l-2,10.1h-8.7l10.7-47.3H164.3z M159.4,72.8c-0.8-3.7-1-6.3-1-7.9
		c0,0.8-0.2,3.2-1,7.5l-2.6,13h7.3L159.4,72.8z"/>
	<path class="st4" d="M177.7,55.9h12.2c4.5,0,9.1,0.2,12.2,4.5c2,2.8,2.6,6.7,2.6,9.5c0,2.6-0.4,6.3-2,8.7c-1,1.6-2.6,3-4.3,4.1
		l7.1,20.5h-10.1l-5.5-18.7H187v18.7h-9.5L177.7,55.9L177.7,55.9z M190,76.8c2.4,0,3.7-1.4,4.1-2c0.8-1.2,1-3.4,1-5.1
		c0-2.4-0.6-3.9-1.2-4.7c-1.2-1.6-2.8-1.8-4.1-1.8H187v13.4L190,76.8L190,76.8z"/>
</g>
</svg>
