<?xml version="1.0" encoding="utf-8"?>
<!-- Generator: Adobe Illustrator 23.0.4, SVG Export Plug-In . SVG Version: 6.00 Build 0)  -->
<svg version="1.1" id="Layer_8" xmlns="http://www.w3.org/2000/svg" xmlns:xlink="http://www.w3.org/1999/xlink" x="0px" y="0px"
	 viewBox="0 0 121 80.6" style="enable-background:new 0 0 121 80.6;" xml:space="preserve">
<style type="text/css">
	.st0{fill:#030400;}
	.st1{fill:url(#SVGID_1_);}
	.st2{fill:url(#SVGID_2_);}
	.st3{fill:url(#SVGID_3_);}
	.st4{fill:#EDDECB;}
</style>
<g>
	<g>
		<path class="st0" d="M108.5,80.6h-96C5.6,80.6,0,75,0,68.1V12.5C0,5.6,5.6,0,12.5,0h96c6.9,0,12.5,5.6,12.5,12.5v55.6
			C121,75,115.4,80.6,108.5,80.6z"/>
		
			<radialGradient id="SVGID_1_" cx="59.8007" cy="430.05" r="48.908" gradientTransform="matrix(1 0 0 -1 0 471.4)" gradientUnits="userSpaceOnUse">
			<stop  offset="0" style="stop-color:#000000"/>
			<stop  offset="0.4536" style="stop-color:#070604"/>
			<stop  offset="1" style="stop-color:#231F1B"/>
		</radialGradient>
		<path class="st1" d="M104.2,80.6H15.5C8.6,80.6,3,75,3,68.1V14.6C3,7.7,8.6,2.1,15.5,2.1h88.6c6.9,0,12.5,5.6,12.5,12.5v53.6
			C116.7,75,111.1,80.6,104.2,80.6z"/>
		
			<radialGradient id="SVGID_2_" cx="59.8007" cy="430.7" r="47.9753" gradientTransform="matrix(1 0 0 -1 0 471.4)" gradientUnits="userSpaceOnUse">
			<stop  offset="0" style="stop-color:#000000"/>
			<stop  offset="0.8178" style="stop-color:#181510"/>
			<stop  offset="0.9172" style="stop-color:#433B30"/>
		</radialGradient>
		<path class="st2" d="M104.2,77.6H15.5C8.6,77.6,3,72,3,65.1V17.3C3,10.4,8.6,4.8,15.5,3.8h88.6c6.9,1,12.5,6.6,12.5,13.5v47.8
			C116.7,72,111.1,77.6,104.2,77.6z"/>
		
			<radialGradient id="SVGID_3_" cx="59.8007" cy="661.0244" r="51.8184" gradientTransform="matrix(1 0 0 -0.6005 0 437.5452)" gradientUnits="userSpaceOnUse">
			<stop  offset="0" style="stop-color:#000000"/>
			<stop  offset="0.6426" style="stop-color:#181510"/>
			<stop  offset="0.8225" style="stop-color:#231F1B"/>
			<stop  offset="0.8933" style="stop-color:#201C18"/>
			<stop  offset="0.9528" style="stop-color:#151310"/>
			<stop  offset="1" style="stop-color:#070604"/>
		</radialGradient>
		<path class="st3" d="M102.5,74.6H17.1c-6.9,0-12.5-5.6-12.5-12.5v-43c0-6.9,5.6-12.5,12.5-12.5h85.4c6.9,0,12.5,5.6,12.5,12.5v43
			C115.1,69,109.5,74.6,102.5,74.6z"/>
	</g>
	<path class="st4" d="M66.2,49.4v11.2H54.8V49.4H66.2z"/>
</g>
</svg>
