<?xml version="1.0" encoding="utf-8"?>
<!-- Generator: Adobe Illustrator 23.1.0, SVG Export Plug-In . SVG Version: 6.00 Build 0)  -->
<svg version="1.1" id="Layer_8" xmlns="http://www.w3.org/2000/svg" xmlns:xlink="http://www.w3.org/1999/xlink" x="0px" y="0px"
	 viewBox="0 0 99.2 137.4" style="enable-background:new 0 0 99.2 137.4;" xml:space="preserve">
<style type="text/css">
	.st0{fill:#EDDECB;}
	.st1{fill:#859DAF;}
	.st2{fill:#E0D497;}
	.st3{fill:none;}
	.st4{fill:#030400;}
	.st5{fill:url(#SVGID_1_);}
	.st6{fill:url(#SVGID_2_);}
	.st7{fill:url(#SVGID_3_);}
</style>
<g id="Layer_7">
	<g>
		<path class="st0" d="M23.4,50.1c0,0,16.8-19,22.4-19c6,0,22.3,19,22.3,19C48.3,41.5,44,41.5,23.4,50.1z"/>
		<g>
			<path class="st1" d="M28.5,92.2c0,0,13-14.7,17.3-14.7c4.6,0,17.2,14.7,17.2,14.7C47.7,85.6,44.4,85.6,28.5,92.2z"/>
		</g>
		<g>
			<path class="st1" d="M29.1,98.9l-1.3-3.2c16.4-6.8,20.1-6.8,35.8,0l-1.4,3.2C47.4,92.4,44.6,92.4,29.1,98.9z"/>
		</g>
		<g>
			<path class="st1" d="M29.1,105.8l-1.3-3.2c16.4-6.8,20.1-6.8,35.8,0l-1.4,3.2C47.4,99.4,44.6,99.4,29.1,105.8z"/>
		</g>
		<g>
			<path class="st1" d="M29.1,112.8l-1.3-3.2c16.4-6.8,20.1-6.8,35.8,0l-1.4,3.2C47.4,106.3,44.6,106.3,29.1,112.8z"/>
		</g>
		<path class="st2" d="M28.5,78.1c0,0,13-14.7,17.3-14.7c4.6,0,17.2,14.7,17.2,14.7C47.7,71.5,44.4,71.5,28.5,78.1z"/>
		<g>
			<line class="st3" x1="28.5" y1="61.1" x2="62.9" y2="61.1"/>
			<rect x="28.5" y="58.8" class="st2" width="34.5" height="4.6"/>
		</g>
		<g>
			<path class="st4" d="M49.6,137.4C22.3,137.4,0,106.5,0,68.7C0,30.8,22.3,0,49.6,0C77,0,99.2,30.8,99.2,68.7
				C99.2,106.5,77,137.4,49.6,137.4z"/>
			
				<radialGradient id="SVGID_1_" cx="48.915" cy="-514.1254" r="48.9127" gradientTransform="matrix(1 0 0 1.3722 0 775.7178)" gradientUnits="userSpaceOnUse">
				<stop  offset="0" style="stop-color:#000000"/>
				<stop  offset="0.5796" style="stop-color:#000000"/>
				<stop  offset="0.6521" style="stop-color:#000000"/>
				<stop  offset="0.7319" style="stop-color:#040403"/>
				<stop  offset="0.8152" style="stop-color:#110E0D"/>
				<stop  offset="0.884" style="stop-color:#211C19"/>
				<stop  offset="1" style="stop-color:#2D2825"/>
			</radialGradient>
			<path class="st5" d="M48.9,137.4C22,137.4,0,107.2,0,70.2c0-37,21.9-67.1,48.9-67.1c27,0,48.9,30.1,48.9,67.1
				C97.8,107.2,75.9,137.4,48.9,137.4z"/>
			
				<radialGradient id="SVGID_2_" cx="48.97" cy="-667.5848" r="56.3787" gradientTransform="matrix(1 0 0 1 0 738.4998)" gradientUnits="userSpaceOnUse">
				<stop  offset="0" style="stop-color:#120D09"/>
				<stop  offset="0.3831" style="stop-color:#16110D"/>
				<stop  offset="0.7465" style="stop-color:#211C18"/>
				<stop  offset="0.8093" style="stop-color:#241F1B"/>
				<stop  offset="0.8455" style="stop-color:#1B1714"/>
				<stop  offset="0.9148" style="stop-color:#110D0C"/>
				<stop  offset="1" style="stop-color:#0E0A09"/>
			</radialGradient>
			<path class="st6" d="M49,135.4c-25.9,0-47-28.9-47-64.4C2,35.4,23.1,6.5,49,6.5s47,28.9,47,64.4C95.9,106.4,74.9,135.4,49,135.4z
				"/>
			
				<radialGradient id="SVGID_3_" cx="48.695" cy="-513.0978" r="45.6959" gradientTransform="matrix(1 0 0 1.3722 0 775.7178)" gradientUnits="userSpaceOnUse">
				<stop  offset="0" style="stop-color:#000000"/>
				<stop  offset="0.8178" style="stop-color:#181510"/>
				<stop  offset="0.9172" style="stop-color:#433B30"/>
			</radialGradient>
			<path class="st7" d="M48.7,134.4C23.5,134.4,3,106.2,3,71.7C3,37.1,23.5,8.9,48.7,8.9s45.7,28.1,45.7,62.7
				C94.4,106.2,73.9,134.4,48.7,134.4z"/>
		</g>
		<path class="st0" d="M26.4,49.1c0,0,16.8-19,22.4-19c6,0,22.3,19,22.3,19C51.3,40.5,47,40.5,26.4,49.1z"/>
		<g>
			<g>
				<path class="st1" d="M31.5,91.2c0,0,13-14.7,17.3-14.7c4.6,0,17.2,14.7,17.2,14.7C50.7,84.6,47.4,84.6,31.5,91.2z"/>
			</g>
			<g>
				<path class="st1" d="M32.1,97.9l-1.3-3.2c16.4-6.8,20.1-6.8,35.8,0l-1.4,3.2C50.4,91.4,47.6,91.4,32.1,97.9z"/>
			</g>
			<g>
				<path class="st1" d="M32.1,104.8l-1.3-3.2c16.4-6.8,20.1-6.8,35.8,0l-1.4,3.2C50.4,98.4,47.6,98.4,32.1,104.8z"/>
			</g>
			<g>
				<path class="st1" d="M32.1,111.8l-1.3-3.2c16.4-6.8,20.1-6.8,35.8,0l-1.4,3.2C50.4,105.3,47.6,105.3,32.1,111.8z"/>
			</g>
		</g>
		<g>
			<path class="st2" d="M31.5,77.1c0,0,13-14.7,17.3-14.7c4.6,0,17.2,14.7,17.2,14.7C50.7,70.5,47.4,70.5,31.5,77.1z"/>
			<g>
				<line class="st3" x1="31.5" y1="60.1" x2="65.9" y2="60.1"/>
				<rect x="31.5" y="57.8" class="st2" width="34.5" height="4.6"/>
			</g>
		</g>
	</g>
</g>
</svg>
