<?xml version="1.0" encoding="utf-8"?>
<!-- Generator: Adobe Illustrator 23.1.0, SVG Export Plug-In . SVG Version: 6.00 Build 0)  -->
<svg version="1.1" id="Layer_8" xmlns="http://www.w3.org/2000/svg" xmlns:xlink="http://www.w3.org/1999/xlink" x="0px" y="0px"
	 viewBox="0 0 99.2 137.3" style="enable-background:new 0 0 99.2 137.3;" xml:space="preserve">
<style type="text/css">
	.st0{fill:#030400;}
	.st1{fill:url(#SVGID_1_);}
	.st2{fill:url(#SVGID_2_);}
	.st3{fill:url(#SVGID_3_);}
	.st4{fill:#EDDECB;}
	.st5{fill:#859DAF;}
	.st6{fill:#E0D497;}
	.st7{fill:none;}
</style>
<g id="Layer_7">
	<g>
		<g>
			<path class="st0" d="M49.6,0C22.3,0,0,30.8,0,68.7c0,37.9,22.3,68.7,49.6,68.7c27.3,0,49.6-30.8,49.6-68.7C99.2,30.8,77,0,49.6,0
				z"/>
			
				<radialGradient id="SVGID_1_" cx="48.915" cy="-97.8301" r="48.9127" gradientTransform="matrix(1 0 0 -1.3722 0 -67.1274)" gradientUnits="userSpaceOnUse">
				<stop  offset="0" style="stop-color:#000000"/>
				<stop  offset="0.5796" style="stop-color:#000000"/>
				<stop  offset="0.6521" style="stop-color:#000000"/>
				<stop  offset="0.7319" style="stop-color:#040403"/>
				<stop  offset="0.8152" style="stop-color:#110E0D"/>
				<stop  offset="0.884" style="stop-color:#211C19"/>
				<stop  offset="1" style="stop-color:#2D2825"/>
			</radialGradient>
			<path class="st1" d="M48.9,0C22,0,0,30.1,0,67.1c0,37,21.9,67.1,48.9,67.1c27,0,48.9-30.1,48.9-67.1C97.8,30.1,75.9,0,48.9,0z"/>
			
				<radialGradient id="SVGID_2_" cx="48.97" cy="-35.5827" r="56.3787" gradientTransform="matrix(1 0 0 -1 0 30.8523)" gradientUnits="userSpaceOnUse">
				<stop  offset="0" style="stop-color:#120D09"/>
				<stop  offset="0.3831" style="stop-color:#16110D"/>
				<stop  offset="0.7465" style="stop-color:#211C18"/>
				<stop  offset="0.8093" style="stop-color:#241F1B"/>
				<stop  offset="0.8455" style="stop-color:#1B1714"/>
				<stop  offset="0.9148" style="stop-color:#110D0C"/>
				<stop  offset="1" style="stop-color:#0E0A09"/>
			</radialGradient>
			<path class="st2" d="M49,2C23.1,2,2,30.9,2,66.4c0,35.5,21.1,64.4,47,64.4s47-28.9,47-64.4C95.9,30.9,74.9,2,49,2z"/>
			
				<radialGradient id="SVGID_3_" cx="48.695" cy="-96.8025" r="45.6959" gradientTransform="matrix(1 0 0 -1.3722 0 -67.1274)" gradientUnits="userSpaceOnUse">
				<stop  offset="0" style="stop-color:#000000"/>
				<stop  offset="0.8178" style="stop-color:#181510"/>
				<stop  offset="0.9172" style="stop-color:#433B30"/>
			</radialGradient>
			<path class="st3" d="M48.7,3C23.5,3,3,31.1,3,65.7c0,34.6,20.5,62.7,45.7,62.7s45.7-28.1,45.7-62.7C94.4,31.1,73.9,3,48.7,3z"/>
		</g>
		<path class="st4" d="M26.4,88.3c0,0,16.8,19,22.4,19c6,0,22.3-19,22.3-19C51.3,96.9,47,96.9,26.4,88.3z"/>
		<g>
			<g>
				<path class="st5" d="M31.5,46.1c0,0,13,14.7,17.3,14.7c4.6,0,17.2-14.7,17.2-14.7C50.7,52.8,47.4,52.8,31.5,46.1z"/>
			</g>
			<g>
				<path class="st5" d="M32.1,39.5l-1.3,3.2c16.4,6.8,20.1,6.8,35.8,0l-1.4-3.2C50.4,46,47.6,46,32.1,39.5z"/>
			</g>
			<g>
				<path class="st5" d="M32.1,32.5l-1.3,3.2c16.4,6.8,20.1,6.8,35.8,0l-1.4-3.2C50.4,39,47.6,39,32.1,32.5z"/>
			</g>
			<g>
				<path class="st5" d="M32.1,25.6l-1.3,3.2c16.4,6.8,20.1,6.8,35.8,0l-1.4-3.2C50.4,32,47.6,32,32.1,25.6z"/>
			</g>
		</g>
		<g>
			<path class="st6" d="M31.5,60.3c0,0,13,14.7,17.3,14.7c4.6,0,17.2-14.7,17.2-14.7C50.7,66.9,47.4,66.9,31.5,60.3z"/>
			<g>
				<line class="st7" x1="31.5" y1="77.3" x2="65.9" y2="77.3"/>
				<rect x="31.5" y="75" class="st6" width="34.5" height="4.6"/>
			</g>
		</g>
	</g>
</g>
</svg>
