<?xml version="1.0" encoding="utf-8"?>
<!-- Generator: Adobe Illustrator 23.1.0, SVG Export Plug-In . SVG Version: 6.00 Build 0)  -->
<svg version="1.1" id="Layer_8" xmlns="http://www.w3.org/2000/svg" xmlns:xlink="http://www.w3.org/1999/xlink" x="0px" y="0px"
	 viewBox="0 0 99.2 100.1" style="enable-background:new 0 0 99.2 100.1;" xml:space="preserve">
<style type="text/css">
	.st0{fill:#030400;}
	.st1{fill:url(#SVGID_1_);}
	.st2{fill:url(#SVGID_2_);}
	.st3{fill:url(#SVGID_3_);}
	.st4{fill:#EDDECB;}
</style>
<g id="Layer_7">
	<g>
		<path class="st0" d="M49.6,100.1C22.3,100.1,0,77.6,0,50.1C0,22.4,22.3,0,49.6,0C77,0,99.2,22.4,99.2,50.1
			C99.2,77.6,77,100.1,49.6,100.1z"/>
		
			<radialGradient id="SVGID_1_" cx="48.915" cy="-368.82" r="48.9125" gradientTransform="matrix(1 0 0 1 0 420)" gradientUnits="userSpaceOnUse">
			<stop  offset="0" style="stop-color:#000000"/>
			<stop  offset="0.5796" style="stop-color:#000000"/>
			<stop  offset="0.6521" style="stop-color:#000000"/>
			<stop  offset="0.7319" style="stop-color:#040403"/>
			<stop  offset="0.8152" style="stop-color:#110E0D"/>
			<stop  offset="0.884" style="stop-color:#211C19"/>
			<stop  offset="1" style="stop-color:#2D2825"/>
		</radialGradient>
		<path class="st1" d="M48.9,100.1C22,100.1,0,78.2,0,51.2S21.9,2.3,48.9,2.3c27,0,48.9,21.9,48.9,48.9
			C97.8,78.2,75.9,100.1,48.9,100.1z"/>
		
			<radialGradient id="SVGID_2_" cx="48.97" cy="-368.865" r="46.9575" gradientTransform="matrix(1 0 0 1 0 420)" gradientUnits="userSpaceOnUse">
			<stop  offset="0" style="stop-color:#120D09"/>
			<stop  offset="0.3831" style="stop-color:#16110D"/>
			<stop  offset="0.7465" style="stop-color:#211C18"/>
			<stop  offset="0.8093" style="stop-color:#241F1B"/>
			<stop  offset="0.8455" style="stop-color:#1B1714"/>
			<stop  offset="0.9148" style="stop-color:#110D0C"/>
			<stop  offset="1" style="stop-color:#0E0A09"/>
		</radialGradient>
		<path class="st2" d="M49,98.1C23.1,98.1,2,77,2,51.1c0-25.9,21.1-47,47-47s47,21.1,47,47C95.9,77,74.9,98.1,49,98.1z"/>
		
			<radialGradient id="SVGID_3_" cx="48.695" cy="-368.605" r="45.695" gradientTransform="matrix(1 0 0 1 0 420)" gradientUnits="userSpaceOnUse">
			<stop  offset="0" style="stop-color:#000000"/>
			<stop  offset="0.8178" style="stop-color:#181510"/>
			<stop  offset="0.9172" style="stop-color:#433B30"/>
		</radialGradient>
		<path class="st3" d="M48.7,97.1C23.5,97.1,3,76.6,3,51.4C3,26.2,23.5,5.7,48.7,5.7c25.2,0,45.7,20.5,45.7,45.7
			C94.4,76.6,73.9,97.1,48.7,97.1z"/>
		<path class="st4" d="M52.7,73.3c0,0,19-16.8,19-22.4c0-6-19-22.3-19-22.3C61.3,48.4,61.3,52.6,52.7,73.3z"/>
	</g>
</g>
</svg>
