<?xml version="1.0" encoding="utf-8"?>
<!-- Generator: Adobe Illustrator 23.0.4, SVG Export Plug-In . SVG Version: 6.00 Build 0)  -->
<svg version="1.1" id="Layer_8" xmlns="http://www.w3.org/2000/svg" xmlns:xlink="http://www.w3.org/1999/xlink" x="0px" y="0px"
	 viewBox="0 0 133.4 73.9" style="enable-background:new 0 0 133.4 73.9;" xml:space="preserve">
<style type="text/css">
	.st0{fill:#030400;}
	.st1{fill:url(#SVGID_1_);}
	.st2{fill:url(#SVGID_2_);}
	.st3{fill:url(#SVGID_3_);}
	.st4{fill:#EDDECB;}
</style>
<g>
	<g>
		<path class="st0" d="M103.8,73.9H29.6C13.3,73.9,0,60.6,0,44.3V29.6C0,13.3,13.3,0,29.6,0h74.3c16.3,0,29.6,13.3,29.6,29.6v14.6
			C133.4,60.6,120.1,73.9,103.8,73.9z"/>
		
			<linearGradient id="SVGID_1_" gradientUnits="userSpaceOnUse" x1="1.6" y1="431.9" x2="130.8" y2="431.9" gradientTransform="matrix(1 0 0 -1 0 469.2)">
			<stop  offset="0" style="stop-color:#665A4A"/>
			<stop  offset="9.099999e-02" style="stop-color:#6D6251"/>
			<stop  offset="0.311" style="stop-color:#78705F"/>
			<stop  offset="0.5" style="stop-color:#7C7563"/>
			<stop  offset="0.7691" style="stop-color:#7A7361"/>
			<stop  offset="0.8921" style="stop-color:#746B59"/>
			<stop  offset="0.9853" style="stop-color:#695F4D"/>
			<stop  offset="1" style="stop-color:#675C4A"/>
		</linearGradient>
		<path class="st1" d="M101.2,71.8h-70c-16.3,0-29.6-13.3-29.6-29.6v-9.8c0-16.3,13.3-29.6,29.6-29.6h70c16.3,0,29.6,13.3,29.6,29.6
			v9.8C130.7,58.5,117.4,71.8,101.2,71.8z"/>
		
			<linearGradient id="SVGID_2_" gradientUnits="userSpaceOnUse" x1="2.6" y1="431.45" x2="129.1" y2="431.45" gradientTransform="matrix(1 0 0 -1 0 469.2)">
			<stop  offset="0" style="stop-color:#211D14"/>
			<stop  offset="2.810000e-02" style="stop-color:#383429"/>
			<stop  offset="3.700000e-02" style="stop-color:#2C2920"/>
			<stop  offset="5.190000e-02" style="stop-color:#211D17"/>
			<stop  offset="7.290000e-02" style="stop-color:#1A1711"/>
			<stop  offset="0.1313" style="stop-color:#181510"/>
			<stop  offset="0.4854" style="stop-color:#1F1E1A"/>
			<stop  offset="0.8981" style="stop-color:#423A2D"/>
			<stop  offset="0.9331" style="stop-color:#443C2E"/>
			<stop  offset="0.9468" style="stop-color:#4B4233"/>
			<stop  offset="0.9567" style="stop-color:#574D3C"/>
			<stop  offset="0.96" style="stop-color:#5D5240"/>
			<stop  offset="0.9855" style="stop-color:#332D22"/>
			<stop  offset="1" style="stop-color:#211D14"/>
		</linearGradient>
		<path class="st2" d="M99.5,69.8H32.2c-16.3,0-29.6-13.3-29.6-29.6v-4.9C2.6,19,15.9,5.7,32.2,5.7h67.3c16.3,0,29.6,13.3,29.6,29.6
			v4.9C129.1,56.5,115.8,69.8,99.5,69.8z"/>
		
			<radialGradient id="SVGID_3_" cx="65.85" cy="764.0603" r="62.0435" gradientTransform="matrix(1 0 0 -0.5055 0 423.9825)" gradientUnits="userSpaceOnUse">
			<stop  offset="0" style="stop-color:#7C7563"/>
			<stop  offset="0.2236" style="stop-color:#77705F"/>
			<stop  offset="0.4855" style="stop-color:#696252"/>
			<stop  offset="0.7655" style="stop-color:#514B3D"/>
			<stop  offset="1" style="stop-color:#383226"/>
		</radialGradient>
		<path class="st3" d="M97,68.5H34.7c-16.3,0-29.6-13.3-29.6-29.6v-2.3C5.1,20.3,18.4,7,34.7,7H97c16.3,0,29.6,13.3,29.6,29.6V39
			C126.6,55.2,113.3,68.5,97,68.5z"/>
	</g>
	<path class="st4" d="M32.7,27.6h6.6l1.8,9.8c0.3,1.7,0.6,5.2,0.7,6.7c0.3-3.5,0.6-5.4,1-7.2l2-9.3h6.4v23.3h-4.6V37.6
		c0-3.7,0.1-1.8,0.2-7.1c-0.3,2-0.9,6-1,6.8L43,50.9h-3l-2.7-13.7c-0.2-1.2-0.4-2.7-0.9-6.6c0.1,1.6,0.2,5,0.2,6.5v13.8h-3.8
		L32.7,27.6L32.7,27.6z"/>
	<path class="st4" d="M66.9,30c0.8,1.2,1.9,3.6,1.9,9.2c0,5.6-1.1,8-1.9,9.2c-1.7,2.5-3.8,2.9-5.4,2.9s-3.8-0.4-5.4-2.9
		c-0.8-1.2-1.9-3.6-1.9-9.2c0-5.6,1.1-8,1.9-9.2c1.7-2.5,3.8-2.9,5.4-2.9S65.2,27.6,66.9,30z M59.9,46.2c0.2,0.3,0.7,0.9,1.5,0.9
		s1.3-0.5,1.5-0.9c0.5-0.8,0.8-2.5,0.8-7c0-4.6-0.2-6.2-0.8-7c-0.2-0.3-0.7-0.9-1.5-0.9s-1.3,0.5-1.5,0.9c-0.5,0.8-0.8,2.5-0.8,7
		S59.4,45.4,59.9,46.2z"/>
	<path class="st4" d="M71.6,27.6h4.5c2.9,0,6,0.2,8,3c0.9,1.2,2,3.5,2,8.5c0,2.5-0.2,5.9-2,8.6c-0.8,1.3-2.5,3.2-6.1,3.2h-6.3
		L71.6,27.6L71.6,27.6z M77.8,46.8c0.7,0,1.6,0,2.4-1c0.4-0.5,1-1.8,1-6.9c0-1.6-0.1-5.5-1.3-6.6c-0.6-0.6-1.5-0.6-2-0.6h-1.4v15.1
		H77.8L77.8,46.8z"/>
	<path class="st4" d="M93.8,37h5.6v3.9h-5.6v5.8h7.3v4.1H89V27.5h12.1v4.1h-7.3C93.8,31.6,93.8,37,93.8,37z"/>
</g>
</svg>
