<?xml version="1.0" encoding="utf-8"?>
<!-- Generator: Adobe Illustrator 23.0.4, SVG Export Plug-In . SVG Version: 6.00 Build 0)  -->
<svg version="1.1" id="Layer_8" xmlns="http://www.w3.org/2000/svg" xmlns:xlink="http://www.w3.org/1999/xlink" x="0px" y="0px"
	 viewBox="0 0 121.3 105" style="enable-background:new 0 0 121.3 105;" xml:space="preserve">
<style type="text/css">
	.st0{fill:#030400;}
	.st1{fill:url(#SVGID_1_);}
	.st2{fill:url(#SVGID_2_);}
	.st3{fill:url(#SVGID_3_);}
	.st4{fill:#EDDECB;}
</style>
<g>
	<g>
		<path class="st0" d="M117,99.6c-2,3.4-5.6,5.4-9.5,5.4H48.3C28.7,105,0,64.7,0,45.1V25.3C0,11.3,11.3,0,25.3,0h83.2
			c6.9,0,12.5,5.6,12.5,12.5v55.6C121,73.8,122.9,89.5,117,99.6z"/>
		
			<linearGradient id="SVGID_1_" gradientUnits="userSpaceOnUse" x1="-881.1571" y1="446.3" x2="-767.8309" y2="446.3" gradientTransform="matrix(1 0 0 -1 884.7571 498.4)">
			<stop  offset="0" style="stop-color:#665A4A"/>
			<stop  offset="9.099999e-02" style="stop-color:#6D6251"/>
			<stop  offset="0.311" style="stop-color:#78705F"/>
			<stop  offset="0.5" style="stop-color:#7C7563"/>
			<stop  offset="0.7691" style="stop-color:#7A7361"/>
			<stop  offset="0.8921" style="stop-color:#746B59"/>
			<stop  offset="0.9853" style="stop-color:#695F4D"/>
			<stop  offset="1" style="stop-color:#675C4A"/>
		</linearGradient>
		<path class="st1" d="M116.7,84.9c-0.7,9.8-8.7,17.4-18.3,17.4H53.9c-19.4,0-50.3-35.9-50.3-55.8v-17c0-14.1,13.5-27.6,27.3-27.6
			h73.7c6.8,0,12.2,5.6,12.2,12.5V68C116.7,71.4,117.2,78.2,116.7,84.9z"/>
		
			<linearGradient id="SVGID_2_" gradientUnits="userSpaceOnUse" x1="-880.1571" y1="445.7313" x2="-768.0571" y2="445.7313" gradientTransform="matrix(1 0 0 -1 884.7571 498.4)">
			<stop  offset="0" style="stop-color:#211D14"/>
			<stop  offset="2.810000e-02" style="stop-color:#383429"/>
			<stop  offset="3.700000e-02" style="stop-color:#2C2920"/>
			<stop  offset="5.190000e-02" style="stop-color:#211D17"/>
			<stop  offset="7.290000e-02" style="stop-color:#1A1711"/>
			<stop  offset="0.1313" style="stop-color:#181510"/>
			<stop  offset="0.4854" style="stop-color:#1F1E1A"/>
			<stop  offset="0.8981" style="stop-color:#423A2D"/>
			<stop  offset="0.9331" style="stop-color:#443C2E"/>
			<stop  offset="0.9468" style="stop-color:#4B4233"/>
			<stop  offset="0.9567" style="stop-color:#574D3C"/>
			<stop  offset="0.96" style="stop-color:#5D5240"/>
			<stop  offset="0.9855" style="stop-color:#332D22"/>
			<stop  offset="1" style="stop-color:#211D14"/>
		</linearGradient>
		<path class="st2" d="M115.4,86.1c-1.3,7.7-7.8,13.2-15.4,13.2l-33.5,1.3c-8.2,0.3-16.4-1.2-23.7-4.8C18.5,84.1,4.6,57.8,4.6,41.7
			v-5.8C4.6,18.1,20,4.7,37.4,4.7h67.1c6.8,0,12.2,5.6,12.2,12.5V65C116.7,69,116.7,78.2,115.4,86.1z"/>
		
			<radialGradient id="SVGID_3_" cx="-823.0732" cy="515.5323" r="50.4181" gradientTransform="matrix(1 0 0 -0.8365 884.7571 483.6928)" gradientUnits="userSpaceOnUse">
			<stop  offset="0" style="stop-color:#7C7563"/>
			<stop  offset="0.2236" style="stop-color:#77705F"/>
			<stop  offset="0.4855" style="stop-color:#696252"/>
			<stop  offset="0.7655" style="stop-color:#514B3D"/>
			<stop  offset="1" style="stop-color:#383226"/>
		</radialGradient>
		<path class="st3" d="M117,83.9c-1,7.7-7.6,13.4-15.2,13.4H57.4C38,97.3,5.9,67.4,5.9,39.5l0,0c0-17.6,13.9-31.9,31.2-31.9h63.5
			c8.9,0,16.2,7.4,16.2,16.6V59C116.7,64.3,118.2,75.1,117,83.9z"/>
	</g>
	<path class="st4" d="M61.9,42.7c0.8,1.2,1.9,3.6,1.9,9.2s-1.1,8-1.9,9.2c-1.7,2.4-3.8,2.9-5.4,2.9s-3.8-0.4-5.4-2.9
		c-0.8-1.2-1.9-3.6-1.9-9.2s1.1-8,1.9-9.2c1.7-2.4,3.8-2.9,5.4-2.9S60.2,40.3,61.9,42.7z M54.9,58.9c0.2,0.3,0.7,0.8,1.5,0.8
		s1.3-0.5,1.5-0.8c0.5-0.8,0.8-2.4,0.8-7s-0.2-6.2-0.8-7c-0.2-0.3-0.7-0.8-1.5-0.8s-1.3,0.5-1.5,0.8c-0.5,0.8-0.8,2.4-0.8,7
		S54.4,58.1,54.9,58.9z"/>
	<path class="st4" d="M66.7,40.2h4.7l3.8,10.7c0.3,0.9,0.9,3.4,1.1,4.6c-0.2-2.3-0.4-5.2-0.4-7.1v-8.2h3.9v23.3h-3.9l-4.4-11.9
		c-0.5-1.3-0.8-2.4-1.4-4.8c0.1,1,0.4,5.6,0.4,6.9v9.8h-3.9V40.2H66.7z"/>
</g>
</svg>
