<?xml version="1.0" encoding="utf-8"?>
<!-- Generator: Adobe Illustrator 23.0.4, SVG Export Plug-In . SVG Version: 6.00 Build 0)  -->
<svg version="1.1" id="Layer_8" xmlns="http://www.w3.org/2000/svg" xmlns:xlink="http://www.w3.org/1999/xlink" x="0px" y="0px"
	 viewBox="0 0 133.4 73.8" style="enable-background:new 0 0 133.4 73.8;" xml:space="preserve">
<style type="text/css">
	.st0{fill:#030400;}
	.st1{fill:url(#SVGID_1_);}
	.st2{fill:url(#SVGID_2_);}
	.st3{fill:url(#SVGID_3_);}
	.st4{fill:#EDDECB;}
</style>
<g>
	<g>
		<path class="st0" d="M103.8,73.8H29.6C13.3,73.8,0,60.5,0,44.3V29.6C0,13.3,13.3,0,29.6,0h74.3c16.3,0,29.6,13.3,29.6,29.6v14.7
			C133.4,60.5,120.1,73.8,103.8,73.8z"/>
		
			<linearGradient id="SVGID_1_" gradientUnits="userSpaceOnUse" x1="1.7" y1="430.5" x2="130.8" y2="430.5" gradientTransform="matrix(1 0 0 -1 0 467.8)">
			<stop  offset="0" style="stop-color:#665A4A"/>
			<stop  offset="9.099999e-02" style="stop-color:#6D6251"/>
			<stop  offset="0.311" style="stop-color:#78705F"/>
			<stop  offset="0.5" style="stop-color:#7C7563"/>
			<stop  offset="0.7691" style="stop-color:#7A7361"/>
			<stop  offset="0.8921" style="stop-color:#746B59"/>
			<stop  offset="0.9853" style="stop-color:#695F4D"/>
			<stop  offset="1" style="stop-color:#675C4A"/>
		</linearGradient>
		<path class="st1" d="M101.2,71.7h-70C15,71.7,1.7,58.4,1.7,42.2v-9.8C1.7,16.2,15,2.9,31.2,2.9h70c16.3,0,29.6,13.3,29.6,29.6v9.8
			C130.7,58.4,117.4,71.7,101.2,71.7z"/>
		
			<linearGradient id="SVGID_2_" gradientUnits="userSpaceOnUse" x1="2.6" y1="430.15" x2="129.1" y2="430.15" gradientTransform="matrix(1 0 0 -1 0 467.8)">
			<stop  offset="0" style="stop-color:#211D14"/>
			<stop  offset="2.810000e-02" style="stop-color:#383429"/>
			<stop  offset="3.700000e-02" style="stop-color:#2C2920"/>
			<stop  offset="5.190000e-02" style="stop-color:#211D17"/>
			<stop  offset="7.290000e-02" style="stop-color:#1A1711"/>
			<stop  offset="0.1313" style="stop-color:#181510"/>
			<stop  offset="0.4854" style="stop-color:#1F1E1A"/>
			<stop  offset="0.8981" style="stop-color:#423A2D"/>
			<stop  offset="0.9331" style="stop-color:#443C2E"/>
			<stop  offset="0.9468" style="stop-color:#4B4233"/>
			<stop  offset="0.9567" style="stop-color:#574D3C"/>
			<stop  offset="0.96" style="stop-color:#5D5240"/>
			<stop  offset="0.9855" style="stop-color:#332D22"/>
			<stop  offset="1" style="stop-color:#211D14"/>
		</linearGradient>
		<path class="st2" d="M99.5,69.7H32.2c-16.3,0-29.6-13.3-29.6-29.6v-4.9c0-16.3,13.3-29.6,29.6-29.6h67.3
			c16.3,0,29.6,13.3,29.6,29.6v4.9C129.1,56.4,115.8,69.7,99.5,69.7z"/>
		
			<radialGradient id="SVGID_3_" cx="65.9" cy="763.7087" r="62.0037" gradientTransform="matrix(1 0 0 -0.5055 0 423.7548)" gradientUnits="userSpaceOnUse">
			<stop  offset="0" style="stop-color:#7C7563"/>
			<stop  offset="0.2236" style="stop-color:#77705F"/>
			<stop  offset="0.4855" style="stop-color:#696252"/>
			<stop  offset="0.7655" style="stop-color:#514B3D"/>
			<stop  offset="1" style="stop-color:#383226"/>
		</radialGradient>
		<path class="st3" d="M97,68.5H34.7c-16.2,0-29.5-13.3-29.5-29.6v-2.4c0-16.3,13.3-29.6,29.6-29.6H97c16.3,0,29.6,13.3,29.6,29.6
			v2.4C126.6,55.2,113.3,68.5,97,68.5z"/>
	</g>
	<path class="st4" d="M39.4,35.5c-0.3-1.4-0.8-2-1.2-2.3c-0.5-0.4-1-0.4-1.5-0.4s-1,0.1-1.5,0.5c-0.4,0.4-0.5,1.1-0.5,1.7
		c0,0.8,0.2,1.4,0.8,1.9c0.7,0.7,1.7,1,3.3,1.7c1.1,0.5,2.3,1.1,3.4,2.6c0.8,1.2,1.1,2.5,1.1,3.9c0,3.1-1.2,4.9-2.2,5.7
		c-1.2,1.1-3.1,1.7-4.9,1.7c-1.5,0-3.2-0.4-4.3-1.4c-1.7-1.4-2.3-3.6-2.5-4.9l3.8-1.4c0.2,1,0.7,2.4,1.3,2.9
		c0.4,0.4,1.1,0.5,1.8,0.5c0.5,0,1.2-0.1,1.7-0.6c0.4-0.4,0.7-1.1,0.7-1.8c0-0.8-0.2-1.4-0.8-1.9c-0.6-0.6-1.6-1-3.2-1.9
		c-1.2-0.6-2.5-1.3-3.4-2.7c-0.7-1.1-1-2.5-1-3.9c0-2.3,0.8-4.2,2.1-5.4c1.1-1.1,2.7-1.7,4.3-1.7c1.1,0,2.5,0.3,3.5,1
		c1.3,0.8,2.3,2.5,2.8,4.4L39.4,35.5z"/>
	<path class="st4" d="M52.1,52.3h-4.8v-19h-3.8v-4.4H56v4.4h-3.9V52.3L52.1,52.3z"/>
	<path class="st4" d="M69,31.4c0.8,1.2,1.9,3.6,1.9,9.2s-1.1,8-1.9,9.2c-1.7,2.5-3.8,2.9-5.4,2.9s-3.8-0.4-5.4-2.9
		c-0.8-1.2-1.9-3.6-1.9-9.2s1.1-8,1.9-9.2c1.7-2.5,3.8-2.9,5.4-2.9C65.2,28.5,67.3,29,69,31.4z M62,47.6c0.2,0.3,0.7,0.8,1.5,0.8
		c0.8,0,1.3-0.5,1.5-0.8c0.5-0.8,0.8-2.5,0.8-7c0-4.6-0.2-6.2-0.8-7c-0.2-0.3-0.7-0.8-1.5-0.8s-1.3,0.5-1.5,0.8
		c-0.5,0.8-0.8,2.5-0.8,7S61.5,46.8,62,47.6z"/>
	<g>
		<path class="st4" d="M82.9,29.2l20.6,10.3L82.9,49.7V29.2z"/>
	</g>
</g>
</svg>
