<?xml version="1.0" encoding="utf-8"?>
<!-- Generator: Adobe Illustrator 23.0.4, SVG Export Plug-In . SVG Version: 6.00 Build 0)  -->
<svg version="1.1" id="Layer_8" xmlns="http://www.w3.org/2000/svg" xmlns:xlink="http://www.w3.org/1999/xlink" x="0px" y="0px"
	 viewBox="0 0 133.4 73.8" style="enable-background:new 0 0 133.4 73.8;" xml:space="preserve">
<style type="text/css">
	.st0{fill:#030400;}
	.st1{fill:url(#SVGID_1_);}
	.st2{fill:url(#SVGID_2_);}
	.st3{fill:url(#SVGID_3_);}
	.st4{fill:#EDDECB;}
</style>
<g>
	<g>
		<path class="st0" d="M103.8,73.8H29.6C13.3,73.8,0,60.5,0,44.2V29.6C0,13.3,13.3,0,29.6,0h74.3c16.3,0,29.6,13.3,29.6,29.6v14.7
			C133.4,60.5,120.1,73.8,103.8,73.8z"/>
		
			<linearGradient id="SVGID_1_" gradientUnits="userSpaceOnUse" x1="1.7" y1="431.35" x2="130.9" y2="431.35" gradientTransform="matrix(1 0 0 -1 0 468.6)">
			<stop  offset="0" style="stop-color:#665A4A"/>
			<stop  offset="9.099999e-02" style="stop-color:#6D6251"/>
			<stop  offset="0.311" style="stop-color:#78705F"/>
			<stop  offset="0.5" style="stop-color:#7C7563"/>
			<stop  offset="0.7691" style="stop-color:#7A7361"/>
			<stop  offset="0.8921" style="stop-color:#746B59"/>
			<stop  offset="0.9853" style="stop-color:#695F4D"/>
			<stop  offset="1" style="stop-color:#675C4A"/>
		</linearGradient>
		<path class="st1" d="M101.2,71.7h-70C15,71.7,1.7,58.4,1.7,42.2v-9.8C1.7,16.1,15,2.8,31.3,2.8h70c16.3,0,29.6,13.3,29.6,29.6v9.8
			C130.7,58.4,117.4,71.7,101.2,71.7z"/>
		
			<linearGradient id="SVGID_2_" gradientUnits="userSpaceOnUse" x1="2.6" y1="430.95" x2="129.1" y2="430.95" gradientTransform="matrix(1 0 0 -1 0 468.6)">
			<stop  offset="0" style="stop-color:#211D14"/>
			<stop  offset="2.810000e-02" style="stop-color:#383429"/>
			<stop  offset="3.700000e-02" style="stop-color:#2C2920"/>
			<stop  offset="5.190000e-02" style="stop-color:#211D17"/>
			<stop  offset="7.290000e-02" style="stop-color:#1A1711"/>
			<stop  offset="0.1313" style="stop-color:#181510"/>
			<stop  offset="0.4854" style="stop-color:#1F1E1A"/>
			<stop  offset="0.8981" style="stop-color:#423A2D"/>
			<stop  offset="0.9331" style="stop-color:#443C2E"/>
			<stop  offset="0.9468" style="stop-color:#4B4233"/>
			<stop  offset="0.9567" style="stop-color:#574D3C"/>
			<stop  offset="0.96" style="stop-color:#5D5240"/>
			<stop  offset="0.9855" style="stop-color:#332D22"/>
			<stop  offset="1" style="stop-color:#211D14"/>
		</linearGradient>
		<path class="st2" d="M99.5,69.7H32.2c-16.3,0-29.6-13.3-29.6-29.6v-4.9c0-16.3,13.3-29.6,29.6-29.6h67.3
			c16.3,0,29.6,13.3,29.6,29.6v4.9C129.1,56.4,115.8,69.7,99.5,69.7z"/>
		
			<radialGradient id="SVGID_3_" cx="65.85" cy="763.5242" r="62.0499" gradientTransform="matrix(1 0 0 -0.5055 0 423.6466)" gradientUnits="userSpaceOnUse">
			<stop  offset="0" style="stop-color:#7C7563"/>
			<stop  offset="0.2236" style="stop-color:#77705F"/>
			<stop  offset="0.4855" style="stop-color:#696252"/>
			<stop  offset="0.7655" style="stop-color:#514B3D"/>
			<stop  offset="1" style="stop-color:#383226"/>
		</radialGradient>
		<path class="st3" d="M97,68.4H34.7c-16.3,0-29.6-13.3-29.6-29.6v-2.4c0-16.3,13.3-29.6,29.6-29.6H97c16.3,0,29.6,13.3,29.6,29.6
			v2.4C126.6,55.1,113.3,68.4,97,68.4z"/>
	</g>
	<path class="st4" d="M61.9,24.5H68v36.7h-6.1V24.5z"/>
</g>
</svg>
