<?xml version="1.0" encoding="utf-8"?>
<!-- Generator: Adobe Illustrator 23.0.4, SVG Export Plug-In . SVG Version: 6.00 Build 0)  -->
<svg version="1.1" id="Layer_1" xmlns="http://www.w3.org/2000/svg" xmlns:xlink="http://www.w3.org/1999/xlink" x="0px" y="0px"
	 viewBox="0 0 271 150" style="enable-background:new 0 0 271 150;" xml:space="preserve">
<style type="text/css">
	.st0{fill:#030400;}
	.st1{fill:url(#SVGID_1_);}
	.st2{fill:url(#SVGID_2_);}
	.st3{fill:url(#SVGID_3_);}
	.st4{fill:#453E36;}
</style>
<g>
	<g>
		<path class="st0" d="M210.4,149.1H61.3c-32.8,0-59.5-26.7-59.5-59.5V60.3c0-32.8,26.7-59.5,59.5-59.5h149.3
			c32.8,0,59.5,26.7,59.5,59.5v29.3C269.9,122.4,243.1,149.1,210.4,149.1z"/>
		
			<linearGradient id="SVGID_1_" gradientUnits="userSpaceOnUse" x1="5.0233" y1="-400.3972" x2="264.6288" y2="-400.3972" gradientTransform="matrix(1 0 0 1 0 476)">
			<stop  offset="0" style="stop-color:#FFF6BE"/>
			<stop  offset="0.3942" style="stop-color:#FDF4BC"/>
			<stop  offset="0.6141" style="stop-color:#F7EDB4"/>
			<stop  offset="0.7911" style="stop-color:#EDE2A6"/>
			<stop  offset="0.9443" style="stop-color:#DFD292"/>
			<stop  offset="0.9948" style="stop-color:#D9CB8A"/>
		</linearGradient>
		<path class="st1" d="M205.2,144.9H64.5C31.7,144.9,5,118.2,5,85.4V65.8C5,33,31.7,6.3,64.5,6.3h140.7c32.8,0,59.5,26.7,59.5,59.5
			v19.7C264.4,118.2,237.7,144.9,205.2,144.9z"/>
		
			<linearGradient id="SVGID_2_" gradientUnits="userSpaceOnUse" x1="7.0326" y1="-399.493" x2="261.2129" y2="-399.493" gradientTransform="matrix(1 0 0 1 0 476)">
			<stop  offset="0" style="stop-color:#A99D6B"/>
			<stop  offset="2.810000e-02" style="stop-color:#9F9864"/>
			<stop  offset="3.640000e-02" style="stop-color:#AAA06D"/>
			<stop  offset="5.140000e-02" style="stop-color:#B5A876"/>
			<stop  offset="7.260000e-02" style="stop-color:#BCAD7B"/>
			<stop  offset="0.1313" style="stop-color:#BEAE7D"/>
			<stop  offset="0.4854" style="stop-color:#887F58"/>
			<stop  offset="0.8981" style="stop-color:#CDBE83"/>
			<stop  offset="0.945" style="stop-color:#CEBF85"/>
			<stop  offset="0.96" style="stop-color:#D0C18A"/>
			<stop  offset="0.9645" style="stop-color:#C6B883"/>
			<stop  offset="0.9882" style="stop-color:#968C60"/>
			<stop  offset="1" style="stop-color:#847B52"/>
		</linearGradient>
		<path class="st2" d="M201.7,140.9H66.5C33.8,140.9,7,114.2,7,81.4v-9.8c0-32.8,26.7-59.5,59.5-59.5h135.2
			c32.8,0,59.5,26.7,59.5,59.5v9.8C261.2,114.2,234.5,140.9,201.7,140.9z"/>
		
			<radialGradient id="SVGID_3_" cx="134.1227" cy="-653.2133" r="112.2874" gradientTransform="matrix(1 0 0 0.5832 0 457.4912)" gradientUnits="userSpaceOnUse">
			<stop  offset="0" style="stop-color:#A0976E"/>
			<stop  offset="0.5212" style="stop-color:#A2996F"/>
			<stop  offset="0.7089" style="stop-color:#A99F73"/>
			<stop  offset="0.8427" style="stop-color:#B4A97A"/>
			<stop  offset="0.9501" style="stop-color:#C5B884"/>
			<stop  offset="1" style="stop-color:#D0C18A"/>
			<stop  offset="1" style="stop-color:#C6B883"/>
			<stop  offset="1" style="stop-color:#968C60"/>
			<stop  offset="1" style="stop-color:#847B52"/>
		</radialGradient>
		<path class="st3" d="M196.7,138.3H71.5c-32.8,0-59.5-26.7-59.5-59.5V74c0-32.8,26.7-59.5,59.5-59.5h125.2
			c32.8,0,59.5,26.7,59.5,59.5v4.8C256.2,111.6,229.5,138.3,196.7,138.3z"/>
	</g>
	<path class="st4" d="M137.6,56.5c2.6,4.4,5.6,9,9.4,14.1c4.2,5.8,7.8,10,10.4,13.1c-2.2,2.2-5.6,6.6-10.4,13.1
		c-3.8,5.2-7,9.8-9.4,14.1c-0.8-1.4-1.8-3.2-3.2-5.2c-2.4-3.4-5.2-7.4-8.6-12.1c-0.8-1-3.4-4.2-7.8-9.8c2.8-3.2,6.6-8,11.3-14.1
		C132.4,65,135.4,60.7,137.6,56.5z"/>
</g>
</svg>
