<?xml version="1.0" encoding="utf-8"?>
<!-- Generator: Adobe Illustrator 23.0.4, SVG Export Plug-In . SVG Version: 6.00 Build 0)  -->
<svg version="1.1" xmlns="http://www.w3.org/2000/svg" xmlns:xlink="http://www.w3.org/1999/xlink" x="0px" y="0px"
	 viewBox="0 0 73.7 147.7" style="enable-background:new 0 0 73.7 147.7;" xml:space="preserve">
<style type="text/css">
	.st0{fill:none;}
	.st1{fill:#0A0A0A;}
</style>
<g id="Layer_1">
</g>
<g id="Layer_2">
	<g>
		<path class="st0" d="M70.9,147.5c0-1.9,1.1-3.5,2.8-4.1v-6.5c-1.6-0.7-2.8-2.2-2.8-4.1c0-1.9,1.1-3.5,2.8-4.2v-6.5
			c-1.6-0.7-2.8-2.2-2.8-4.1c0-1.9,1.1-3.5,2.8-4.1v-6.5c-1.6-0.7-2.8-2.2-2.8-4.1c0-1.9,1.1-3.5,2.8-4.2v-6.6
			c-1.6-0.7-2.8-2.2-2.8-4.1c0-1.9,1.1-3.5,2.8-4.1v-6.5c-1.6-0.7-2.8-2.2-2.8-4.1c0-1.9,1.1-3.5,2.8-4.1v-6.5
			c-1.6-0.6-2.8-2.2-2.8-4.1c0-1.9,1.1-3.5,2.8-4.2v-6.5c-1.6-0.6-2.8-2.2-2.8-4.1c0-1.9,1.1-3.5,2.8-4.1v-6.5
			c-1.6-0.6-2.8-2.2-2.8-4.1c0-1.9,1.1-3.5,2.8-4.2v-6.5c-1.6-0.6-2.8-2.2-2.8-4.1c0-1.9,1.1-3.5,2.8-4.1V4.2
			c-1.6-0.6-2.8-2.2-2.8-4.1h2.8V0H0v147.7h73.7v-0.2H70.9z M72.1,125.4c0,2.3-1.8,4.1-4.1,4.1s-4.1-1.9-4.1-4.1s1.8-4.1,4.1-4.1
			S72.1,123.1,72.1,125.4z M72.1,110.7c0,2.3-1.8,4.1-4.1,4.1s-4.1-1.9-4.1-4.1c0-2.3,1.8-4.1,4.1-4.1S72.1,108.4,72.1,110.7z
			 M72.1,95.9c0,2.3-1.8,4.1-4.1,4.1s-4.1-1.9-4.1-4.1s1.8-4.1,4.1-4.1S72.1,93.6,72.1,95.9z M72.1,81.2c0,2.3-1.8,4.1-4.1,4.1
			s-4.1-1.9-4.1-4.1c0-2.3,1.7-4.1,4-4.1S72.1,78.9,72.1,81.2z M72,66.4c0,2.3-1.8,4.1-4.1,4.1c-2.3,0-4.1-1.8-4.1-4.1
			c0-2.3,1.8-4.1,4.1-4.1C70.2,62.3,72,64.1,72,66.4z M72.1,51.7c0,2.3-1.8,4.1-4.1,4.1s-4.1-1.9-4.1-4.1c0-2.3,1.8-4.1,4.1-4.1
			S72.1,49.4,72.1,51.7z M72.1,36.9c0,2.3-1.8,4.1-4.1,4.1s-4.1-1.9-4.1-4.1s1.8-4.1,4.1-4.1S72.1,34.6,72.1,36.9z M72.1,22.2
			c0,2.3-1.8,4.1-4.1,4.1s-4.1-1.9-4.1-4.1c0-2.2,1.7-4.1,4-4.1S72.1,19.9,72.1,22.2z M67.9,3.4c2.3,0,4.1,1.8,4.1,4.1
			c0,2.2-1.7,4.1-4,4.1s-4.1-1.9-4.1-4.1C63.9,5.2,65.6,3.4,67.9,3.4z M64.3,0.1c0,2-1.7,3.7-3.7,3.7s-3.7-1.7-3.7-3.7H64.3z
			 M60.6,11.1c2,0,3.7,1.6,3.7,3.7c0,2.1-1.7,3.7-3.7,3.7s-3.7-1.7-3.7-3.7S58.6,11.1,60.6,11.1z M60.6,25.9c2,0,3.7,1.7,3.7,3.7
			s-1.7,3.7-3.7,3.7s-3.7-1.7-3.7-3.7S58.6,25.9,60.6,25.9z M60.6,40.6c2,0,3.7,1.7,3.7,3.7c0,2.1-1.7,3.7-3.7,3.7s-3.7-1.7-3.7-3.7
			S58.6,40.6,60.6,40.6z M60.6,55.4c2,0,3.7,1.7,3.7,3.7s-1.7,3.7-3.7,3.7s-3.7-1.7-3.7-3.7S58.6,55.4,60.6,55.4z M60.6,70.1
			c2,0,3.7,1.6,3.7,3.7c0,2.1-1.7,3.7-3.7,3.7s-3.7-1.7-3.7-3.7S58.6,70.1,60.6,70.1z M60.6,84.8c2,0,3.7,1.6,3.7,3.7
			c0,2.1-1.7,3.8-3.7,3.7c-2,0-3.7-1.6-3.7-3.7C56.9,86.5,58.6,84.8,60.6,84.8z M60.6,99.6c2,0,3.7,1.6,3.7,3.7c0,2-1.7,3.7-3.7,3.7
			s-3.7-1.6-3.7-3.7C56.9,101.3,58.6,99.6,60.6,99.6z M60.6,114.3c2,0,3.7,1.6,3.7,3.7c0,2.1-1.7,3.7-3.7,3.7s-3.7-1.6-3.7-3.7
			C56.9,116,58.6,114.3,60.6,114.3z M60.6,129.1c2,0,3.7,1.6,3.7,3.7c0,2-1.7,3.7-3.7,3.7s-3.7-1.7-3.7-3.7S58.6,129.1,60.6,129.1z
			 M53.1,4.2c1.9,0,3.4,1.5,3.4,3.3c0,1.8-1.5,3.3-3.4,3.3c-1.9,0-3.4-1.5-3.4-3.3C49.7,5.7,51.2,4.2,53.1,4.2z M2.8,0.1
			c0,0.7-0.5,1.2-1.2,1.2c-0.7,0-1.2-0.5-1.2-1.2H2.8z M1.6,13.6c0.7,0,1.2,0.5,1.2,1.2c0,0.7-0.5,1.2-1.2,1.2
			c-0.7,0-1.2-0.5-1.2-1.2C0.4,14.1,0.9,13.6,1.6,13.6z M1.6,28.4c0.7,0,1.2,0.5,1.2,1.2s-0.5,1.2-1.2,1.2c-0.7,0-1.2-0.5-1.2-1.2
			S0.9,28.4,1.6,28.4z M1.6,43.1c0.7,0,1.2,0.5,1.2,1.2s-0.5,1.2-1.2,1.2c-0.7,0-1.2-0.5-1.2-1.2S0.9,43.1,1.6,43.1z M1.6,57.9
			c0.7,0,1.2,0.5,1.2,1.2s-0.5,1.2-1.2,1.2c-0.7,0-1.2-0.5-1.2-1.2S0.9,57.9,1.6,57.9z M1.6,72.6c0.7,0,1.2,0.5,1.2,1.2
			c0,0.7-0.5,1.2-1.2,1.2c-0.7,0-1.2-0.5-1.2-1.2C0.4,73.1,0.9,72.6,1.6,72.6z M1.6,87.3c0.7,0,1.2,0.5,1.2,1.2
			c0,0.7-0.5,1.2-1.2,1.2c-0.7,0-1.2-0.5-1.2-1.2C0.4,87.8,0.9,87.3,1.6,87.3z M1.6,102.1c0.7,0,1.2,0.5,1.2,1.2
			c0,0.7-0.5,1.2-1.2,1.2c-0.7,0-1.2-0.5-1.2-1.2C0.4,102.6,0.9,102.1,1.6,102.1z M1.6,116.8c0.7,0,1.2,0.5,1.2,1.2
			c0,0.7-0.5,1.2-1.2,1.2c-0.7,0-1.2-0.5-1.2-1.2C0.4,117.3,0.9,116.8,1.6,116.8z M1.6,131.6c0.7,0,1.2,0.5,1.2,1.2
			c0,0.7-0.5,1.2-1.2,1.2c-0.7,0-1.2-0.5-1.2-1.2C0.4,132.1,0.9,131.6,1.6,131.6z M0.4,147.5c0-0.7,0.5-1.2,1.2-1.2
			c0.6,0,1.2,0.6,1.2,1.2H0.4z M9,141.3c-0.7,0-1.2-0.5-1.2-1.2s0.5-1.2,1.2-1.2c0.7,0,1.2,0.5,1.2,1.2S9.7,141.3,9,141.3z M9,126.6
			c-0.7,0-1.2-0.5-1.2-1.2s0.5-1.2,1.2-1.2c0.6,0,1.2,0.5,1.2,1.2S9.7,126.6,9,126.6z M9,111.9c-0.7,0-1.2-0.5-1.2-1.2
			c0-0.7,0.5-1.2,1.2-1.2c0.7,0,1.2,0.5,1.2,1.2C10.2,111.4,9.7,111.9,9,111.9z M9,97.1c-0.7,0-1.2-0.5-1.2-1.2
			c0-0.7,0.5-1.2,1.2-1.2c0.7,0,1.2,0.5,1.2,1.2C10.2,96.6,9.7,97.1,9,97.1z M9,82.4c-0.7,0-1.2-0.5-1.2-1.2C7.8,80.5,8.3,80,9,80
			c0.7,0,1.2,0.5,1.2,1.2C10.2,81.9,9.7,82.4,9,82.4z M9,67.6c-0.7,0-1.2-0.5-1.2-1.2c0-0.7,0.5-1.2,1.2-1.2c0.7,0,1.2,0.5,1.2,1.2
			C10.2,67.1,9.7,67.6,9,67.6z M9,52.9c-0.7,0-1.2-0.5-1.2-1.2c0-0.7,0.5-1.2,1.2-1.2c0.7,0,1.2,0.5,1.2,1.2
			C10.2,52.4,9.7,52.9,9,52.9z M9,38.1c-0.7,0-1.2-0.5-1.2-1.2c0-0.7,0.5-1.2,1.2-1.2c0.7,0,1.2,0.5,1.2,1.2
			C10.2,37.6,9.7,38.1,9,38.1z M9,23.4c-0.7,0-1.2-0.5-1.2-1.2C7.8,21.5,8.3,21,9,21c0.7,0,1.2,0.5,1.2,1.2
			C10.2,22.9,9.7,23.4,9,23.4z M9,8.7c-0.7,0-1.2-0.5-1.2-1.2c0-0.7,0.5-1.2,1.2-1.2c0.6,0,1.2,0.6,1.2,1.2C10.2,8.1,9.7,8.7,9,8.7z
			 M17.8,147.6h-3.1c0-0.9,0.7-1.6,1.6-1.6C17.2,146,17.9,146.7,17.8,147.6z M16.3,134.4c-0.9,0-1.6-0.7-1.6-1.6
			c0-0.9,0.7-1.6,1.6-1.6c0.9,0,1.6,0.7,1.6,1.6C17.9,133.7,17.2,134.4,16.3,134.4z M16.3,119.6c-0.9,0-1.6-0.7-1.6-1.6
			c0-0.9,0.7-1.6,1.6-1.6c0.9,0,1.6,0.7,1.6,1.6C17.9,118.9,17.2,119.6,16.3,119.6z M16.3,104.9c-0.9,0-1.6-0.7-1.6-1.6
			s0.7-1.6,1.6-1.6c0.9,0,1.6,0.7,1.6,1.6S17.2,104.9,16.3,104.9z M16.3,90.1c-0.8,0-1.6-0.7-1.6-1.6c0-0.9,0.7-1.6,1.6-1.6
			c0.9,0,1.6,0.7,1.6,1.6C17.9,89.4,17.1,90.1,16.3,90.1z M16.3,75.4c-0.9,0-1.6-0.7-1.6-1.6s0.7-1.6,1.6-1.6c0.9,0,1.6,0.7,1.6,1.6
			S17.2,75.4,16.3,75.4z M16.3,60.7c-0.9,0-1.6-0.7-1.6-1.6s0.7-1.6,1.6-1.6c0.9,0,1.6,0.7,1.6,1.6S17.2,60.7,16.3,60.7z M16.3,45.9
			c-0.9,0-1.6-0.7-1.6-1.6c0-0.9,0.7-1.6,1.6-1.6c0.9,0,1.6,0.7,1.6,1.6C17.9,45.2,17.2,45.9,16.3,45.9z M16.3,31.2
			c-0.9,0-1.6-0.7-1.6-1.6s0.7-1.6,1.6-1.6c0.9,0,1.6,0.7,1.6,1.6S17.2,31.2,16.3,31.2z M16.3,16.4c-0.9,0-1.6-0.7-1.6-1.6
			s0.7-1.6,1.6-1.6c0.9,0,1.6,0.7,1.6,1.6S17.2,16.4,16.3,16.4z M16.3,1.7c-0.8,0-1.5-0.7-1.5-1.6h3.1C17.9,1,17.2,1.7,16.3,1.7z
			 M23.7,142.1c-1.1,0-1.9-0.9-1.9-1.9s0.8-1.9,1.9-1.9c1,0,1.9,0.9,1.9,1.9S24.8,142.1,23.7,142.1z M23.7,127.3
			c-1.1,0-1.9-0.8-1.9-1.9c0-1,0.8-1.9,1.9-1.9c1,0,1.9,0.9,1.9,1.9S24.8,127.3,23.7,127.3z M23.7,112.6c-1.1,0-1.9-0.9-1.9-1.9
			s0.8-1.9,1.9-1.9c1,0,1.9,0.9,1.9,1.9S24.8,112.6,23.7,112.6z M23.7,97.8c-1.1,0-1.9-0.9-1.9-1.9s0.8-1.9,1.9-1.9
			c1,0,1.9,0.9,1.9,1.9S24.8,97.8,23.7,97.8z M23.7,83.1c-1.1,0-1.9-0.9-1.9-1.9s0.8-1.9,1.9-1.9c1,0,1.9,0.9,1.9,1.9
			S24.8,83.1,23.7,83.1z M23.7,68.3c-1.1,0-1.9-0.9-1.9-1.9s0.8-1.9,1.9-1.9c1,0,1.9,0.9,1.9,1.9S24.8,68.3,23.7,68.3z M23.7,53.6
			c-1.1,0-1.9-0.9-1.9-1.9s0.8-1.9,1.9-1.9c1,0,1.9,0.9,1.9,1.9S24.8,53.6,23.7,53.6z M23.7,38.9c-1.1,0-1.9-0.9-1.9-1.9
			s0.8-1.9,1.9-1.9c1,0,1.9,0.9,1.9,1.9S24.8,38.9,23.7,38.9z M23.7,24.1c-1.1,0-1.9-0.9-1.9-1.9s0.8-1.9,1.9-1.9
			c1,0,1.9,0.9,1.9,1.9S24.8,24.1,23.7,24.1z M23.7,9.4c-1.1,0-1.9-0.9-1.9-1.9s0.8-1.9,1.9-1.9c1,0,1.9,0.9,1.9,1.9
			S24.8,9.4,23.7,9.4z M28.8,147.5c0-1.3,1-2.3,2.3-2.3c1.2,0,2.2,1.1,2.2,2.3H28.8z M31.1,135c-1.3,0-2.3-1-2.3-2.3s1-2.3,2.3-2.3
			c1.3,0,2.3,1,2.3,2.3S32.4,135,31.1,135z M31.1,120.3c-1.3,0-2.3-1-2.3-2.3c0-1.3,1-2.3,2.3-2.3c1.3,0,2.3,1,2.3,2.3
			C33.4,119.3,32.4,120.3,31.1,120.3z M31.1,105.6c-1.3,0-2.3-1.1-2.3-2.3c0-1.3,1-2.3,2.3-2.3c1.3,0,2.3,1,2.3,2.3
			C33.4,104.6,32.4,105.6,31.1,105.6z M31.1,90.8c-1.3,0-2.3-1-2.3-2.3c0-1.3,1-2.3,2.3-2.3c1.3,0,2.3,1,2.3,2.3
			C33.4,89.8,32.4,90.8,31.1,90.8z M31.1,76.1c-1.3,0-2.3-1-2.3-2.3c0-1.3,1-2.3,2.3-2.3c1.3,0,2.3,1,2.3,2.3
			C33.4,75.1,32.4,76.1,31.1,76.1z M31.1,61.3c-1.3,0-2.3-1-2.3-2.3c0-1.3,1-2.3,2.3-2.3c1.3,0,2.3,1,2.3,2.3
			C33.4,60.3,32.4,61.3,31.1,61.3z M31.1,46.6c-1.3,0-2.3-1-2.3-2.3s1-2.3,2.3-2.3c1.3,0,2.3,1,2.3,2.3S32.4,46.6,31.1,46.6z
			 M31.1,31.9c-1.3,0-2.3-1-2.3-2.3s1-2.3,2.3-2.3c1.3,0,2.3,1,2.3,2.3S32.4,31.9,31.1,31.9z M31.1,17.1c-1.3,0-2.3-1-2.3-2.3
			s1-2.3,2.3-2.3c1.3,0,2.3,1,2.3,2.3S32.4,17.1,31.1,17.1z M31.1,2.4c-1.3,0-2.3-1-2.2-2.3h4.5C33.4,1.4,32.4,2.4,31.1,2.4z
			 M38.5,142.7c-1.4,0-2.6-1.2-2.6-2.6s1.1-2.6,2.6-2.6c1.4,0,2.6,1.1,2.6,2.6S39.9,142.8,38.5,142.7z M38.5,128
			c-1.4,0-2.6-1.2-2.6-2.6s1.1-2.6,2.6-2.6c1.4,0,2.6,1.1,2.6,2.6S39.9,128,38.5,128z M38.5,113.3c-1.4,0-2.6-1.2-2.6-2.6
			c0-1.4,1.1-2.6,2.6-2.6c1.4,0,2.6,1.1,2.6,2.6C41.1,112.1,39.9,113.3,38.5,113.3z M38.5,98.5c-1.4,0-2.6-1.2-2.6-2.6
			c0-1.4,1.1-2.6,2.6-2.6c1.4,0,2.6,1.1,2.6,2.6S39.9,98.5,38.5,98.5z M38.5,83.8c-1.4,0-2.6-1.2-2.6-2.6c0-1.4,1.1-2.6,2.6-2.6
			c1.4,0,2.6,1.1,2.6,2.6C41.1,82.6,39.9,83.8,38.5,83.8z M38.5,69c-1.4,0-2.6-1.2-2.6-2.6c0-1.4,1.1-2.6,2.6-2.6
			c1.4,0,2.6,1.1,2.6,2.6S39.9,69.1,38.5,69z M38.5,54.3c-1.4,0-2.6-1.1-2.6-2.6c0-1.4,1.1-2.6,2.6-2.6c1.4,0,2.6,1.1,2.6,2.6
			C41.1,53.1,39.9,54.3,38.5,54.3z M38.5,39.5c-1.4,0-2.6-1.1-2.6-2.6c0-1.4,1.1-2.6,2.6-2.6c1.4,0,2.6,1.1,2.6,2.6
			S39.9,39.6,38.5,39.5z M38.5,24.8c-1.4,0-2.6-1.1-2.6-2.6c0-1.4,1.1-2.6,2.6-2.6c1.4,0,2.6,1.1,2.6,2.6S39.9,24.8,38.5,24.8z
			 M38.5,10.1c-1.4,0-2.6-1.1-2.6-2.6c0-1.4,1.1-2.6,2.6-2.6c1.4,0,2.6,1.1,2.6,2.6C41.1,8.9,39.9,10.1,38.5,10.1z M42.8,147.5
			c0-1.7,1.4-3,3-3c1.7,0,3,1.4,3,3H42.8z M45.8,135.8c-1.7,0-3-1.3-3-3c0-1.7,1.3-3,3-3c1.7,0,3,1.4,3,3
			C48.8,134.4,47.5,135.8,45.8,135.8z M45.8,121c-1.7,0-3-1.3-3-3c0-1.7,1.3-3,3-3c1.7,0,3,1.3,3,3C48.8,119.7,47.5,121,45.8,121z
			 M45.8,106.3c-1.7,0-3-1.3-3-3c0-1.7,1.3-3,3-3c1.7,0,3,1.3,3,3C48.8,104.9,47.5,106.3,45.8,106.3z M45.8,91.5c-1.7,0-3-1.3-3-3
			c0-1.7,1.3-3,3-3c1.7,0,3,1.3,3,3C48.8,90.2,47.5,91.5,45.8,91.5z M45.8,76.8c-1.7,0-3-1.3-3-3c0-1.7,1.3-3,3-3c1.7,0,3,1.3,3,3
			S47.5,76.8,45.8,76.8z M45.8,62.1c-1.7,0-3-1.3-3-3s1.3-3,3-3c1.7,0,3,1.3,3,3C48.8,60.7,47.5,62.1,45.8,62.1z M45.8,47.3
			c-1.7,0-3-1.3-3-3s1.3-3,3-3c1.7,0,3,1.3,3,3S47.5,47.3,45.8,47.3z M45.8,32.6c-1.7,0-3-1.3-3-3s1.3-3,3-3c1.7,0,3,1.4,3,3
			S47.5,32.6,45.8,32.6z M45.8,17.8c-1.7,0-3-1.3-3-3s1.3-3,3-3c1.7,0,3,1.4,3,3C48.8,16.5,47.5,17.8,45.8,17.8z M45.8,3.1
			c-1.6,0-3-1.4-3-3h6C48.8,1.8,47.4,3.1,45.8,3.1z M53.1,122.1c1.9,0,3.4,1.5,3.4,3.3c0,1.9-1.5,3.4-3.4,3.4
			c-1.9,0-3.4-1.6-3.4-3.4S51.2,122.1,53.1,122.1z M53.2,48.4c1.8,0,3.3,1.5,3.3,3.3c0,1.8-1.5,3.3-3.3,3.3c-1.8,0-3.3-1.5-3.3-3.3
			C49.9,49.9,51.4,48.4,53.2,48.4z M49.9,36.9c0-1.8,1.5-3.3,3.3-3.3c1.8,0,3.3,1.5,3.3,3.3c0,1.8-1.5,3.3-3.3,3.3
			C51.4,40.2,49.9,38.7,49.9,36.9z M53.2,63.1c1.8,0,3.3,1.5,3.3,3.3c0,1.8-1.5,3.3-3.3,3.3c-1.8,0-3.3-1.5-3.3-3.3
			C49.9,64.6,51.4,63.1,53.2,63.1z M53.2,77.9c1.8,0,3.3,1.5,3.3,3.3c0,1.8-1.5,3.3-3.3,3.3c-1.8,0-3.3-1.5-3.3-3.3
			C49.9,79.4,51.4,77.9,53.2,77.9z M53.2,92.6c1.8,0,3.3,1.5,3.3,3.3c0,1.8-1.5,3.3-3.3,3.3c-1.8,0-3.3-1.5-3.3-3.3
			C49.9,94.1,51.4,92.6,53.2,92.6z M53.2,107.4c1.8,0,3.3,1.5,3.3,3.3c0,1.8-1.5,3.3-3.3,3.3c-1.8,0-3.3-1.5-3.3-3.3
			C49.9,108.9,51.4,107.4,53.2,107.4z M53.2,143.5c-1.9,0-3.4-1.5-3.4-3.4s1.5-3.4,3.4-3.4s3.4,1.5,3.4,3.4S55.1,143.5,53.2,143.5z
			 M53.2,25.6c-1.9,0-3.4-1.5-3.4-3.4c0-1.9,1.5-3.4,3.4-3.4s3.4,1.5,3.4,3.4C56.6,24.1,55.1,25.6,53.2,25.6z M56.9,147.5
			c0-2,1.7-3.7,3.7-3.7s3.7,1.7,3.7,3.7H56.9z M63.9,140.1c0-2.2,1.8-4,4-4c2.3,0,4.2,1.7,4.2,4s-1.8,4.1-4.1,4.1
			S63.9,142.3,63.9,140.1z"/>
		<path class="st1" d="M68,11.6c2.3,0,4-1.9,4-4.1c0-2.3-1.8-4.1-4.1-4.1s-4,1.8-4,4.1C63.9,9.7,65.7,11.6,68,11.6z"/>
		<path class="st1" d="M53.1,10.8c1.9,0,3.4-1.5,3.4-3.3c0-1.8-1.5-3.3-3.4-3.3c-1.9,0-3.4,1.5-3.4,3.3
			C49.7,9.3,51.2,10.8,53.1,10.8z"/>
		<path class="st1" d="M38.5,4.9c-1.5,0-2.6,1.2-2.6,2.6c0,1.5,1.2,2.6,2.6,2.6c1.4,0,2.6-1.2,2.6-2.6C41.1,6,39.9,4.9,38.5,4.9z"/>
		<path class="st1" d="M23.7,5.6c-1.1,0-1.9,0.9-1.9,1.9s0.8,1.9,1.9,1.9s1.9-0.9,1.9-1.9S24.7,5.6,23.7,5.6z"/>
		<path class="st1" d="M9,6.3c-0.7,0-1.2,0.5-1.2,1.2c0,0.7,0.5,1.2,1.2,1.2s1.2-0.6,1.2-1.2C10.2,6.9,9.6,6.3,9,6.3z"/>
		<path class="st1" d="M67.9,18.1c-2.3,0-4,1.9-4,4.1c0,2.2,1.8,4.1,4.1,4.1s4.1-1.8,4.1-4.1C72.1,19.9,70.2,18.1,67.9,18.1z"/>
		<path class="st1" d="M53.2,18.8c-1.9,0-3.4,1.5-3.4,3.4c0,1.9,1.5,3.4,3.4,3.4s3.4-1.5,3.4-3.4C56.6,20.3,55.1,18.8,53.2,18.8z"/>
		<path class="st1" d="M38.5,19.6c-1.5,0-2.6,1.2-2.6,2.6c0,1.5,1.2,2.6,2.6,2.6c1.4,0,2.6-1.1,2.6-2.6S39.9,19.6,38.5,19.6z"/>
		<path class="st1" d="M23.7,20.3c-1.1,0-1.9,0.9-1.9,1.9s0.8,1.9,1.9,1.9s1.9-0.9,1.9-1.9S24.7,20.3,23.7,20.3z"/>
		<path class="st1" d="M9,21c-0.7,0-1.2,0.5-1.2,1.2c0,0.7,0.5,1.2,1.2,1.2c0.7,0,1.2-0.5,1.2-1.2C10.2,21.5,9.7,21,9,21z"/>
		<path class="st1" d="M63.9,36.9c0,2.2,1.8,4.1,4.1,4.1s4.1-1.8,4.1-4.1s-1.8-4.1-4.1-4.1S63.9,34.7,63.9,36.9z"/>
		<circle class="st1" cx="53.2" cy="36.9" r="3.3"/>
		<path class="st1" d="M38.5,34.3c-1.5,0-2.6,1.2-2.6,2.6c0,1.5,1.2,2.6,2.6,2.6c1.4,0.1,2.6-1.1,2.6-2.6S39.9,34.3,38.5,34.3z"/>
		<path class="st1" d="M23.7,35.1c-1.1,0-1.9,0.9-1.9,1.9s0.8,1.9,1.9,1.9s1.9-0.9,1.9-1.9S24.7,35.1,23.7,35.1z"/>
		<circle class="st1" cx="9" cy="36.9" r="1.2"/>
		<path class="st1" d="M63.9,51.7c0,2.2,1.8,4.1,4.1,4.1s4.1-1.8,4.1-4.1c0-2.3-1.8-4.1-4.1-4.1S63.9,49.4,63.9,51.7z"/>
		<path class="st1" d="M53.2,55c1.8,0,3.3-1.5,3.3-3.3c0-1.8-1.5-3.3-3.3-3.3c-1.8,0-3.3,1.5-3.3,3.3C49.9,53.5,51.4,55,53.2,55z"/>
		<path class="st1" d="M38.5,49.1c-1.5,0-2.6,1.2-2.6,2.6c0,1.5,1.2,2.6,2.6,2.6c1.4,0,2.6-1.2,2.6-2.6
			C41.1,50.2,39.9,49.1,38.5,49.1z"/>
		<path class="st1" d="M23.7,49.8c-1.1,0-1.9,0.9-1.9,1.9s0.8,1.9,1.9,1.9s1.9-0.9,1.9-1.9S24.7,49.8,23.7,49.8z"/>
		<path class="st1" d="M9,50.5c-0.7,0-1.2,0.5-1.2,1.2c0,0.7,0.5,1.2,1.2,1.2c0.7,0,1.2-0.5,1.2-1.2C10.2,51,9.7,50.5,9,50.5z"/>
		<path class="st1" d="M67.9,62.3c-2.3,0-4.1,1.8-4.1,4.1c0,2.3,1.8,4.1,4.1,4.1c2.3,0,4.1-1.8,4.1-4.1C72,64.1,70.2,62.3,67.9,62.3
			z"/>
		<circle class="st1" cx="53.2" cy="66.4" r="3.3"/>
		<path class="st1" d="M38.5,63.8c-1.5,0-2.6,1.2-2.6,2.6c0,1.4,1.2,2.6,2.6,2.6c1.4,0.1,2.6-1.1,2.6-2.6S39.9,63.8,38.5,63.8z"/>
		<circle class="st1" cx="23.7" cy="66.4" r="1.9"/>
		<circle class="st1" cx="9" cy="66.4" r="1.2"/>
		<path class="st1" d="M67.9,77.1c-2.3,0-4,1.8-4,4.1c0,2.2,1.8,4.1,4.1,4.1s4.1-1.8,4.1-4.1S70.2,77.1,67.9,77.1z"/>
		<path class="st1" d="M53.2,84.5c1.8,0,3.3-1.5,3.3-3.3c0-1.8-1.5-3.3-3.3-3.3c-1.8,0-3.3,1.5-3.3,3.3C49.9,83,51.4,84.5,53.2,84.5
			z"/>
		<path class="st1" d="M38.5,78.6c-1.5,0-2.6,1.2-2.6,2.6c0,1.4,1.2,2.6,2.6,2.6c1.4,0,2.6-1.2,2.6-2.6
			C41.1,79.7,39.9,78.6,38.5,78.6z"/>
		<path class="st1" d="M23.7,79.3c-1.1,0-1.9,0.9-1.9,1.9s0.8,1.9,1.9,1.9s1.9-0.9,1.9-1.9S24.7,79.3,23.7,79.3z"/>
		<path class="st1" d="M9,80c-0.7,0-1.2,0.5-1.2,1.2c0,0.7,0.5,1.2,1.2,1.2c0.7,0,1.2-0.5,1.2-1.2C10.2,80.5,9.7,80,9,80z"/>
		<path class="st1" d="M63.9,95.9c0,2.2,1.8,4.1,4.1,4.1s4.1-1.8,4.1-4.1s-1.8-4.1-4.1-4.1S63.9,93.7,63.9,95.9z"/>
		<circle class="st1" cx="53.2" cy="95.9" r="3.3"/>
		<path class="st1" d="M38.5,93.3c-1.5,0-2.6,1.2-2.6,2.6c0,1.4,1.2,2.6,2.6,2.6c1.4,0,2.6-1.1,2.6-2.6S39.9,93.3,38.5,93.3z"/>
		<circle class="st1" cx="23.7" cy="95.9" r="1.9"/>
		<circle class="st1" cx="9" cy="95.9" r="1.2"/>
		<path class="st1" d="M63.9,110.7c0,2.2,1.8,4.1,4.1,4.1s4.1-1.8,4.1-4.1s-1.8-4.1-4.1-4.1S63.9,108.4,63.9,110.7z"/>
		<path class="st1" d="M53.2,114c1.8,0,3.3-1.5,3.3-3.3c0-1.8-1.5-3.3-3.3-3.3c-1.8,0-3.3,1.5-3.3,3.3C49.9,112.5,51.4,114,53.2,114
			z"/>
		<path class="st1" d="M38.5,108.1c-1.5,0-2.6,1.2-2.6,2.6c0,1.4,1.2,2.6,2.6,2.6c1.4,0,2.6-1.2,2.6-2.6
			C41.1,109.2,39.9,108.1,38.5,108.1z"/>
		<path class="st1" d="M23.7,108.8c-1.1,0-1.9,0.9-1.9,1.9s0.8,1.9,1.9,1.9s1.9-0.9,1.9-1.9S24.7,108.8,23.7,108.8z"/>
		<path class="st1" d="M9,109.5c-0.7,0-1.2,0.5-1.2,1.2c0,0.7,0.5,1.2,1.2,1.2c0.7,0,1.2-0.5,1.2-1.2C10.2,110,9.7,109.5,9,109.5z"
			/>
		<path class="st1" d="M63.9,125.4c0,2.2,1.8,4.1,4.1,4.1s4.1-1.8,4.1-4.1s-1.8-4.1-4.1-4.1S63.9,123.2,63.9,125.4z"/>
		<path class="st1" d="M53.1,128.8c1.9,0,3.4-1.5,3.4-3.4c0-1.8-1.5-3.3-3.4-3.3c-1.9,0-3.4,1.5-3.4,3.3S51.2,128.8,53.1,128.8z"/>
		<path class="st1" d="M38.5,122.8c-1.5,0-2.6,1.2-2.6,2.6s1.2,2.6,2.6,2.6c1.4,0,2.6-1.1,2.6-2.6S39.9,122.8,38.5,122.8z"/>
		<circle class="st1" cx="23.7" cy="125.4" r="1.9"/>
		<circle class="st1" cx="9" cy="125.4" r="1.2"/>
		<path class="st1" d="M72.1,140.1c0-2.3-1.9-4-4.2-4c-2.2,0-4,1.8-4,4s1.8,4.1,4.1,4.1S72.1,142.4,72.1,140.1z"/>
		<path class="st1" d="M53.2,136.7c-1.9,0-3.4,1.5-3.4,3.4s1.5,3.4,3.4,3.4s3.4-1.5,3.4-3.4S55.1,136.7,53.2,136.7z"/>
		<path class="st1" d="M38.5,137.5c-1.5,0-2.6,1.2-2.6,2.6s1.2,2.6,2.6,2.6c1.4,0.1,2.6-1.1,2.6-2.6S39.9,137.5,38.5,137.5z"/>
		<path class="st1" d="M23.7,138.3c-1.1,0-1.9,0.9-1.9,1.9s0.8,1.9,1.9,1.9s1.9-0.9,1.9-1.9S24.7,138.3,23.7,138.3z"/>
		<circle class="st1" cx="9" cy="140.1" r="1.2"/>
		<path class="st1" d="M73.7,4.2V0.1h-2.8C70.9,2,72.1,3.6,73.7,4.2z"/>
		<path class="st1" d="M60.6,3.8c2,0,3.7-1.7,3.7-3.7h-7.4C56.9,2.1,58.6,3.8,60.6,3.8z"/>
		<path class="st1" d="M45.8,3.1c1.6,0,3-1.3,3-3h-6C42.8,1.7,44.2,3.1,45.8,3.1z"/>
		<path class="st1" d="M31.1,2.4c1.3,0,2.3-1,2.3-2.3h-4.5C28.8,1.4,29.8,2.4,31.1,2.4z"/>
		<path class="st1" d="M16.3,1.7c0.9,0,1.6-0.7,1.6-1.6h-3.1C14.8,1,15.5,1.7,16.3,1.7z"/>
		<path class="st1" d="M1.6,1.3c0.7,0,1.2-0.5,1.2-1.2H0.4C0.4,0.8,0.9,1.3,1.6,1.3z"/>
		<path class="st1" d="M70.9,14.8c0,1.9,1.2,3.5,2.8,4.1v-8.2C72,11.3,70.9,12.9,70.9,14.8z"/>
		<path class="st1" d="M60.6,18.5c2,0,3.7-1.6,3.7-3.7c0-2.1-1.7-3.7-3.7-3.7s-3.7,1.7-3.7,3.7S58.6,18.5,60.6,18.5z"/>
		<circle class="st1" cx="45.8" cy="14.8" r="3"/>
		<path class="st1" d="M31.1,12.5c-1.3,0-2.3,1-2.3,2.3s1,2.3,2.3,2.3c1.3,0,2.3-1,2.3-2.3S32.4,12.5,31.1,12.5z"/>
		<path class="st1" d="M16.3,13.2c-0.9,0-1.6,0.7-1.6,1.6s0.7,1.6,1.6,1.6c0.9,0,1.6-0.7,1.6-1.6S17.2,13.2,16.3,13.2z"/>
		<path class="st1" d="M1.6,16c0.7,0,1.2-0.5,1.2-1.2c0-0.7-0.5-1.2-1.2-1.2c-0.7,0-1.2,0.5-1.2,1.2C0.4,15.5,0.9,16,1.6,16z"/>
		<path class="st1" d="M70.9,29.6c0,1.9,1.2,3.5,2.8,4.1v-8.3C72,26.1,70.9,27.7,70.9,29.6z"/>
		<path class="st1" d="M60.6,33.3c2,0,3.7-1.7,3.7-3.7s-1.7-3.7-3.7-3.7s-3.7,1.7-3.7,3.7S58.6,33.3,60.6,33.3z"/>
		<circle class="st1" cx="45.8" cy="29.6" r="3"/>
		<path class="st1" d="M31.1,27.3c-1.3,0-2.3,1-2.3,2.3s1,2.3,2.3,2.3c1.3,0,2.3-1,2.3-2.3S32.4,27.3,31.1,27.3z"/>
		<path class="st1" d="M16.3,28c-0.9,0-1.6,0.7-1.6,1.6s0.7,1.6,1.6,1.6c0.9,0,1.6-0.7,1.6-1.6S17.2,28,16.3,28z"/>
		<path class="st1" d="M1.6,30.8c0.7,0,1.2-0.5,1.2-1.2s-0.5-1.2-1.2-1.2c-0.7,0-1.2,0.5-1.2,1.2S0.9,30.8,1.6,30.8z"/>
		<path class="st1" d="M70.9,44.3c0,1.9,1.2,3.5,2.8,4.1v-8.2C72,40.8,70.9,42.4,70.9,44.3z"/>
		<path class="st1" d="M60.6,48c2,0,3.7-1.6,3.7-3.7c0-2-1.7-3.7-3.7-3.7s-3.7,1.7-3.7,3.7S58.6,48,60.6,48z"/>
		<circle class="st1" cx="45.8" cy="44.3" r="3"/>
		<path class="st1" d="M31.1,42c-1.3,0-2.3,1-2.3,2.3s1,2.3,2.3,2.3c1.3,0,2.3-1,2.3-2.3S32.4,42,31.1,42z"/>
		<path class="st1" d="M16.3,42.7c-0.9,0-1.6,0.7-1.6,1.6c0,0.9,0.7,1.6,1.6,1.6c0.9,0,1.6-0.7,1.6-1.6
			C17.9,43.4,17.2,42.7,16.3,42.7z"/>
		<path class="st1" d="M1.6,45.5c0.7,0,1.2-0.5,1.2-1.2s-0.5-1.2-1.2-1.2c-0.7,0-1.2,0.5-1.2,1.2S0.9,45.5,1.6,45.5z"/>
		<path class="st1" d="M70.9,59.1c0,1.9,1.2,3.5,2.8,4.1v-8.3C72,55.6,70.9,57.2,70.9,59.1z"/>
		<path class="st1" d="M60.6,62.8c2,0,3.7-1.7,3.7-3.7s-1.7-3.7-3.7-3.7s-3.7,1.7-3.7,3.7S58.6,62.8,60.6,62.8z"/>
		<circle class="st1" cx="45.8" cy="59.1" r="3"/>
		<path class="st1" d="M31.1,56.7c-1.3,0-2.3,1-2.3,2.3c0,1.3,1,2.3,2.3,2.3c1.3,0,2.3-1,2.3-2.3C33.4,57.7,32.4,56.7,31.1,56.7z"/>
		<path class="st1" d="M16.3,57.5c-0.9,0-1.6,0.7-1.6,1.6s0.7,1.6,1.6,1.6c0.9,0,1.6-0.7,1.6-1.6S17.2,57.5,16.3,57.5z"/>
		<path class="st1" d="M1.6,60.3c0.7,0,1.2-0.5,1.2-1.2s-0.5-1.2-1.2-1.2c-0.7,0-1.2,0.5-1.2,1.2S0.9,60.3,1.6,60.3z"/>
		<path class="st1" d="M70.9,73.8c0,1.8,1.2,3.4,2.8,4.1v-8.2C72,70.3,70.9,71.9,70.9,73.8z"/>
		<path class="st1" d="M60.6,77.5c2,0,3.7-1.6,3.7-3.7c0-2.1-1.7-3.7-3.7-3.7s-3.7,1.7-3.7,3.7S58.6,77.5,60.6,77.5z"/>
		<circle class="st1" cx="45.8" cy="73.8" r="3"/>
		<path class="st1" d="M31.1,71.5c-1.3,0-2.3,1-2.3,2.3c0,1.3,1,2.3,2.3,2.3c1.3,0,2.3-1,2.3-2.3C33.4,72.5,32.4,71.5,31.1,71.5z"/>
		<path class="st1" d="M16.3,72.2c-0.9,0-1.6,0.7-1.6,1.6s0.7,1.6,1.6,1.6c0.9,0,1.6-0.7,1.6-1.6S17.2,72.2,16.3,72.2z"/>
		<path class="st1" d="M1.6,75c0.7,0,1.2-0.5,1.2-1.2c0-0.7-0.5-1.2-1.2-1.2c-0.7,0-1.2,0.5-1.2,1.2C0.4,74.5,0.9,75,1.6,75z"/>
		<path class="st1" d="M70.9,88.5c0,1.8,1.2,3.4,2.8,4.1v-8.2C72,85,70.9,86.6,70.9,88.5z"/>
		<path class="st1" d="M60.6,92.2c2,0.1,3.7-1.6,3.7-3.7c0-2.1-1.7-3.7-3.7-3.7s-3.7,1.7-3.7,3.7C56.9,90.6,58.6,92.2,60.6,92.2z"/>
		<circle class="st1" cx="45.8" cy="88.5" r="3"/>
		<path class="st1" d="M31.1,86.2c-1.3,0-2.3,1-2.3,2.3c0,1.3,1,2.3,2.3,2.3c1.3,0,2.3-1,2.3-2.3C33.4,87.2,32.4,86.2,31.1,86.2z"/>
		<path class="st1" d="M16.3,86.9c-0.9,0-1.6,0.7-1.6,1.6c0,0.9,0.8,1.6,1.6,1.6c0.8,0,1.6-0.7,1.6-1.6
			C17.9,87.6,17.2,86.9,16.3,86.9z"/>
		<path class="st1" d="M1.6,89.7c0.7,0,1.2-0.5,1.2-1.2c0-0.7-0.5-1.2-1.2-1.2c-0.7,0-1.2,0.5-1.2,1.2C0.4,89.2,0.9,89.7,1.6,89.7z"
			/>
		<path class="st1" d="M70.9,103.3c0,1.8,1.2,3.4,2.8,4.1v-8.2C72,99.8,70.9,101.4,70.9,103.3z"/>
		<path class="st1" d="M60.6,107c2,0,3.7-1.7,3.7-3.7c0-2.1-1.7-3.7-3.7-3.7s-3.7,1.7-3.7,3.7C56.9,105.4,58.6,107,60.6,107z"/>
		<circle class="st1" cx="45.8" cy="103.3" r="3"/>
		<path class="st1" d="M31.1,101c-1.3,0-2.3,1-2.3,2.3c0,1.2,1,2.3,2.3,2.3c1.3,0,2.3-1,2.3-2.3C33.4,102,32.4,101,31.1,101z"/>
		<path class="st1" d="M16.3,101.7c-0.9,0-1.6,0.7-1.6,1.6s0.7,1.6,1.6,1.6c0.9,0,1.6-0.7,1.6-1.6S17.2,101.7,16.3,101.7z"/>
		<path class="st1" d="M1.6,104.5c0.7,0,1.2-0.5,1.2-1.2c0-0.7-0.5-1.2-1.2-1.2c-0.7,0-1.2,0.5-1.2,1.2C0.4,104,0.9,104.5,1.6,104.5
			z"/>
		<path class="st1" d="M70.9,118c0,1.8,1.2,3.4,2.8,4.1v-8.2C72,114.5,70.9,116.1,70.9,118z"/>
		<path class="st1" d="M60.6,121.7c2,0,3.7-1.6,3.7-3.7c0-2.1-1.7-3.7-3.7-3.7s-3.7,1.7-3.7,3.7C56.9,120.1,58.6,121.7,60.6,121.7z"
			/>
		<path class="st1" d="M45.8,115c-1.7,0-3,1.3-3,3c0,1.7,1.3,3,3,3c1.7,0,3-1.3,3-3C48.8,116.3,47.5,115,45.8,115z"/>
		<path class="st1" d="M31.1,115.7c-1.3,0-2.3,1-2.3,2.3c0,1.3,1,2.3,2.3,2.3c1.3,0,2.3-1,2.3-2.3C33.4,116.7,32.4,115.7,31.1,115.7
			z"/>
		<path class="st1" d="M16.3,116.4c-0.9,0-1.6,0.7-1.6,1.6c0,0.9,0.7,1.6,1.6,1.6c0.9,0,1.6-0.7,1.6-1.6
			C17.9,117.1,17.2,116.4,16.3,116.4z"/>
		<path class="st1" d="M1.6,119.2c0.7,0,1.2-0.5,1.2-1.2c0-0.7-0.5-1.2-1.2-1.2c-0.7,0-1.2,0.5-1.2,1.2
			C0.4,118.7,0.9,119.2,1.6,119.2z"/>
		<path class="st1" d="M70.9,132.8c0,1.8,1.2,3.4,2.8,4.1v-8.3C72,129.3,70.9,130.9,70.9,132.8z"/>
		<path class="st1" d="M60.6,136.5c2,0,3.7-1.7,3.7-3.7c0-2.1-1.7-3.7-3.7-3.7s-3.7,1.7-3.7,3.7S58.6,136.5,60.6,136.5z"/>
		<circle class="st1" cx="45.8" cy="132.8" r="3"/>
		<path class="st1" d="M31.1,130.4c-1.3,0-2.3,1-2.3,2.3s1,2.3,2.3,2.3c1.3,0,2.3-1,2.3-2.3S32.4,130.4,31.1,130.4z"/>
		<path class="st1" d="M16.3,131.2c-0.9,0-1.6,0.7-1.6,1.6c0,0.9,0.7,1.6,1.6,1.6c0.9,0,1.6-0.7,1.6-1.6
			C17.9,131.9,17.2,131.2,16.3,131.2z"/>
		<path class="st1" d="M1.6,134c0.7,0,1.2-0.5,1.2-1.2c0-0.7-0.5-1.2-1.2-1.2c-0.7,0-1.2,0.5-1.2,1.2C0.4,133.5,0.9,134,1.6,134z"/>
		<path class="st1" d="M70.9,147.5h2.8v-4.1C72,144,70.9,145.6,70.9,147.5z"/>
		<path class="st1" d="M60.6,143.8c-2,0-3.7,1.7-3.7,3.7h7.4C64.3,145.5,62.6,143.8,60.6,143.8z"/>
		<path class="st1" d="M45.8,144.5c-1.6,0-3,1.3-3,3h6C48.8,145.9,47.5,144.5,45.8,144.5z"/>
		<path class="st1" d="M31.1,145.2c-1.3,0-2.3,1-2.3,2.3h4.5C33.3,146.3,32.3,145.2,31.1,145.2z"/>
		<path class="st1" d="M16.3,146c-0.9,0-1.6,0.7-1.6,1.6h3.1C17.9,146.7,17.2,146,16.3,146z"/>
		<path class="st1" d="M1.6,146.3c-0.7,0-1.2,0.5-1.2,1.2h2.4C2.8,146.9,2.2,146.3,1.6,146.3z"/>
	</g>
</g>
</svg>
