<?xml version="1.0" encoding="utf-8"?>
<!-- Generator: Adobe Illustrator 23.0.5, SVG Export Plug-In . SVG Version: 6.00 Build 0)  -->
<svg version="1.1" id="Layer_1" xmlns="http://www.w3.org/2000/svg" xmlns:xlink="http://www.w3.org/1999/xlink" x="0px" y="0px"
	 viewBox="0 0 1170 836.2" style="enable-background:new 0 0 1170 836.2;" xml:space="preserve">
<style type="text/css">
	.st0{fill:url(#SVGID_1_);}
	.st1{opacity:0.65;fill:#767C58;enable-background:new    ;}
	.st2{fill:url(#SVGID_2_);}
	.st3{fill:url(#SVGID_3_);}
	.st4{fill:url(#SVGID_4_);stroke:url(#SVGID_5_);stroke-width:6;stroke-miterlimit:10;}
	.st5{fill:#50483B;}
	.st6{fill:#242015;}
	.st7{fill:#736C5C;}
	.st8{fill:#FFF5E1;}
	.st9{fill:url(#SVGID_6_);stroke:url(#SVGID_7_);stroke-width:6;stroke-miterlimit:10;}
	.st10{clip-path:url(#SVGID_9_);fill:#3C352B;}
	.st11{clip-path:url(#SVGID_9_);fill:#3D362C;}
	.st12{clip-path:url(#SVGID_9_);fill:#3E372D;}
	.st13{clip-path:url(#SVGID_9_);fill:#3F382D;}
	.st14{clip-path:url(#SVGID_9_);fill:#40392E;}
	.st15{clip-path:url(#SVGID_9_);fill:#413A2F;}
	.st16{clip-path:url(#SVGID_9_);fill:#423B30;}
	.st17{clip-path:url(#SVGID_9_);fill:#433C31;}
	.st18{clip-path:url(#SVGID_9_);fill:#443C31;}
	.st19{clip-path:url(#SVGID_9_);fill:#453D32;}
	.st20{clip-path:url(#SVGID_9_);fill:#463E33;}
	.st21{clip-path:url(#SVGID_9_);fill:#473F34;}
	.st22{clip-path:url(#SVGID_9_);fill:#484035;}
	.st23{clip-path:url(#SVGID_9_);fill:#494135;}
	.st24{clip-path:url(#SVGID_9_);fill:#4A4236;}
	.st25{clip-path:url(#SVGID_9_);fill:#4C4337;}
	.st26{clip-path:url(#SVGID_9_);fill:#4D4438;}
	.st27{clip-path:url(#SVGID_9_);fill:#4E4538;}
	.st28{clip-path:url(#SVGID_9_);fill:#4F4639;}
	.st29{clip-path:url(#SVGID_9_);fill:#50473A;}
	.st30{clip-path:url(#SVGID_9_);fill:#51483B;}
	.st31{clip-path:url(#SVGID_9_);fill:#52493C;}
	.st32{clip-path:url(#SVGID_9_);fill:#53493C;}
	.st33{clip-path:url(#SVGID_9_);fill:#544A3D;}
	.st34{clip-path:url(#SVGID_9_);fill:#554B3E;}
	.st35{clip-path:url(#SVGID_9_);fill:#564C3F;}
	.st36{clip-path:url(#SVGID_9_);fill:#574D40;}
	.st37{clip-path:url(#SVGID_9_);fill:#584E40;}
	.st38{clip-path:url(#SVGID_9_);fill:#594F41;}
	.st39{clip-path:url(#SVGID_9_);fill:#5A5042;}
	.st40{clip-path:url(#SVGID_9_);fill:#52483C;}
	.st41{clip-path:url(#SVGID_9_);fill:#51473B;}
	.st42{clip-path:url(#SVGID_9_);fill:#4B4236;}
	.st43{clip-path:url(#SVGID_9_);fill:#4A4135;}
	.st44{clip-path:url(#SVGID_9_);fill:#494034;}
	.st45{clip-path:url(#SVGID_9_);fill:#483F34;}
	.st46{clip-path:url(#SVGID_9_);fill:#473E33;}
	.st47{clip-path:url(#SVGID_9_);fill:#433B31;}
	.st48{clip-path:url(#SVGID_9_);fill:#423A30;}
	.st49{clip-path:url(#SVGID_9_);fill:#41392F;}
	.st50{clip-path:url(#SVGID_9_);fill:#40382E;}
	.st51{clip-path:url(#SVGID_9_);fill:#3F372D;}
	.st52{clip-path:url(#SVGID_9_);fill:#3E362D;}
	.st53{clip-path:url(#SVGID_9_);fill:#3D352C;}
	.st54{clip-path:url(#SVGID_9_);fill:#3C342B;}
	.st55{clip-path:url(#SVGID_9_);fill:#3B342A;}
	.st56{clip-path:url(#SVGID_9_);fill:#3A3329;}
	.st57{clip-path:url(#SVGID_9_);fill:#393229;}
	.st58{clip-path:url(#SVGID_9_);fill:#383128;}
	.st59{clip-path:url(#SVGID_9_);fill:#373027;}
	.st60{clip-path:url(#SVGID_9_);fill:#362F26;}
	.st61{clip-path:url(#SVGID_9_);fill:#352E25;}
	.st62{clip-path:url(#SVGID_9_);fill:#342D25;}
	.st63{clip-path:url(#SVGID_9_);fill:#332C24;}
	.st64{clip-path:url(#SVGID_9_);fill:#322B23;}
	.st65{clip-path:url(#SVGID_9_);fill:#352E26;}
	.st66{clip-path:url(#SVGID_9_);fill:#3A332A;}
	.st67{clip-path:url(#SVGID_9_);fill:#3B342B;}
	.st68{clip-path:url(#SVGID_9_);fill:#3C352C;}
	.st69{clip-path:url(#SVGID_9_);fill:#3E362C;}
	.st70{clip-path:url(#SVGID_9_);fill:#443C32;}
	.st71{clip-path:url(#SVGID_9_);fill:#433B30;}
	.st72{clip-path:url(#SVGID_9_);fill:#423A2F;}
	.st73{clip-path:url(#SVGID_9_);fill:#41392E;}
	.st74{clip-path:url(#SVGID_9_);fill:#3F392D;}
	.st75{clip-path:url(#SVGID_9_);fill:#3E382C;}
	.st76{clip-path:url(#SVGID_9_);fill:#3D372B;}
	.st77{clip-path:url(#SVGID_9_);fill:#3C362A;}
	.st78{clip-path:url(#SVGID_9_);fill:#3B3529;}
	.st79{clip-path:url(#SVGID_9_);fill:#3A3428;}
	.st80{clip-path:url(#SVGID_9_);fill:#393327;}
	.st81{clip-path:url(#SVGID_9_);fill:#383226;}
	.st82{clip-path:url(#SVGID_9_);fill:#3D362B;}
	.st83{clip-path:url(#SVGID_9_);fill:#3E372C;}
	.st84{fill:url(#SVGID_10_);}
	.st85{fill:url(#SVGID_11_);stroke:url(#SVGID_12_);stroke-width:6;stroke-miterlimit:10;}
	.st86{fill:url(#SVGID_13_);stroke:url(#SVGID_14_);stroke-width:6;stroke-miterlimit:10;}
	.st87{fill:#C4C78A;}
</style>
<g id="Layer_3">
	
		<linearGradient id="SVGID_1_" gradientUnits="userSpaceOnUse" x1="1169.9999" y1="2058.1587" x2="1.818989e-12" y2="2058.1587" gradientTransform="matrix(1 0 0 -1 0 2476.2588)">
		<stop  offset="0" style="stop-color:#211D14"/>
		<stop  offset="2.810000e-02" style="stop-color:#343026"/>
		<stop  offset="3.700000e-02" style="stop-color:#2C2920"/>
		<stop  offset="5.190000e-02" style="stop-color:#211D17"/>
		<stop  offset="7.290000e-02" style="stop-color:#1A1711"/>
		<stop  offset="0.1313" style="stop-color:#181510"/>
		<stop  offset="0.4854" style="stop-color:#1F1E1A"/>
		<stop  offset="0.8981" style="stop-color:#181612"/>
		<stop  offset="0.9333" style="stop-color:#29251B"/>
		<stop  offset="0.9468" style="stop-color:#2B271E"/>
		<stop  offset="0.9567" style="stop-color:#242018"/>
		<stop  offset="0.9855" style="stop-color:#18160F"/>
		<stop  offset="1" style="stop-color:#211D14"/>
	</linearGradient>
	<path class="st0" d="M1040.7,0H129.2C57.8,0,0,50.9,0,113.6v609c0,62.7,57.8,113.6,129.2,113.6h911.6
		c71.3,0,129.2-50.9,129.2-113.6v-609C1169.9,50.9,1112.1,0,1040.7,0z M1111.3,759.2c0,19.5-15.8,35.3-35.3,35.3H208.6
		c-19.5,0-35.3-15.8-35.3-35.3v-688c0-19.5,15.8-35.3,35.3-35.3h867.2c19.5,0,35.3,15.8,35.3,35.3v688H1111.3z"/>
</g>
<path class="st1" d="M1075.6,793.4H203.3c-19.7,0-35.5-15.8-35.5-35.3V70c0-19.5,15.9-35.3,35.5-35.3h872.2
	c19.7,0,35.5,15.8,35.5,35.3v688C1111.2,777.5,1095.2,793.4,1075.6,793.4z"/>
<g id="Layer_4">
	
		<linearGradient id="SVGID_2_" gradientUnits="userSpaceOnUse" x1="585.05" y1="-903.9" x2="585.05" y2="-103.9" gradientTransform="matrix(1 0 0 1 0 922)">
		<stop  offset="0" style="stop-color:#7C7563"/>
		<stop  offset="6.340000e-02" style="stop-color:#4A4237"/>
		<stop  offset="0.4923" style="stop-color:#473F34"/>
		<stop  offset="0.7964" style="stop-color:#665A4A"/>
		<stop  offset="0.8671" style="stop-color:#675C4A"/>
		<stop  offset="0.9286" style="stop-color:#655A49"/>
		<stop  offset="0.9507" style="stop-color:#5E5443"/>
		<stop  offset="0.9665" style="stop-color:#534A3A"/>
		<stop  offset="0.9792" style="stop-color:#423B2D"/>
		<stop  offset="0.9845" style="stop-color:#383226"/>
	</linearGradient>
	<path class="st2" d="M1021.4,18.1H148.6C80.3,18.1,25,66.8,25,126.8v582.6c0,60,55.3,108.7,123.6,108.7h872.9
		c68.2,0,123.6-48.7,123.6-108.7V126.8C1145,66.8,1089.7,18.1,1021.4,18.1z M1071.6,782.9c-94.2,5.6-480,25.2-869.1-0.2
		c-10.2-0.5-18.2-9-18.4-19.1c-1.6-112.1-5.2-689,6.5-701.2C203.3,49.1,1074,41.6,1086.8,52c11.5,9.4,6.3,588,6.5,708
		C1093.2,772.1,1083.8,782.2,1071.6,782.9z"/>
</g>
<linearGradient id="SVGID_3_" gradientUnits="userSpaceOnUse" x1="1770.899" y1="-1337.8223" x2="2692.176" y2="-1337.8223" gradientTransform="matrix(-1 6.685938e-03 6.685938e-03 1 2879.1313 1745.808)">
	<stop  offset="0" style="stop-color:#211D14"/>
	<stop  offset="2.810000e-02" style="stop-color:#383429"/>
	<stop  offset="3.700000e-02" style="stop-color:#2C2920"/>
	<stop  offset="5.190000e-02" style="stop-color:#211D17"/>
	<stop  offset="7.290000e-02" style="stop-color:#1A1711"/>
	<stop  offset="0.1313" style="stop-color:#181510"/>
	<stop  offset="0.4854" style="stop-color:#1F1E1A"/>
	<stop  offset="0.8981" style="stop-color:#26241D"/>
	<stop  offset="0.9331" style="stop-color:#342F25"/>
	<stop  offset="0.9567" style="stop-color:#574D3C"/>
	<stop  offset="0.96" style="stop-color:#5D5240"/>
	<stop  offset="0.9855" style="stop-color:#332D22"/>
	<stop  offset="1" style="stop-color:#211D14"/>
</linearGradient>
<path class="st3" d="M180.3,768.4c0.1,12.1,9.7,22.2,22,22.8c94.9,5,483.6,22.2,875.4-6.1c10.3-0.7,18.3-9.2,18.4-19.4
	c0.9-113.1,6.9-700.3-4.9-712.5c-12-15.2-782.8-5.5-890.4-4.5c-6.9,0.1-12,5.6-12.6,12.5C180.2,155.1,179.8,657.7,180.3,768.4z
	 M198.3,763.5c-0.5-102,6.5-607.3,7.7-691.9c0.1-6.7,5.5-12.1,12.2-12.1c104.3-1,852.3-7.5,864,3.8c11.5,11.1,5.7,593,4.7,697.2
	c-0.1,9.4-7.8,17.3-17.9,17.9c-380.2,26.4-757.2,10.5-849.3,5.9C207.7,783.8,198.4,774.5,198.3,763.5z"/>
<g>
	
		<radialGradient id="SVGID_4_" cx="105.5" cy="155.6" r="46.9" gradientTransform="matrix(1 0 0 -1 0 836)" gradientUnits="userSpaceOnUse">
		<stop  offset="0" style="stop-color:#40392E"/>
		<stop  offset="0.3476" style="stop-color:#383226"/>
		<stop  offset="0.6732" style="stop-color:#484035"/>
		<stop  offset="0.8101" style="stop-color:#322B23"/>
		<stop  offset="0.9162" style="stop-color:#5A5042"/>
		<stop  offset="1" style="stop-color:#3C352B"/>
	</radialGradient>
	
		<linearGradient id="SVGID_5_" gradientUnits="userSpaceOnUse" x1="55.6" y1="155.6" x2="155.4" y2="155.6" gradientTransform="matrix(1 0 0 -1 0 836)">
		<stop  offset="0" style="stop-color:#2A2200"/>
		<stop  offset="8.379889e-03" style="stop-color:#1F1D19"/>
		<stop  offset="0.5767" style="stop-color:#383226"/>
		<stop  offset="1" style="stop-color:#1F1D19"/>
	</linearGradient>
	<circle class="st4" cx="105.5" cy="680.4" r="46.9"/>
	<g>
		<path class="st5" d="M68.2,681.4c0-20.2,16.6-36.7,36.9-36.7s36.9,16.5,36.9,36.7s-16.6,36.7-36.9,36.7
			C84.7,718,68.2,701.6,68.2,681.4z"/>
		<g>
			<path class="st6" d="M124.5,712.6c-25.2,13-51.2-6.3-53.8-31c-1.3-13.5,10.9-32.9,28.1-36.4c-17.4,3.2-31.1,17-31.1,34.9
				c0,20.2,15.4,38.7,38.4,38.1C112.8,717.9,119,715.7,124.5,712.6z"/>
			<path class="st7" d="M101.7,646.6c20.3,0,38.3,15.4,38.3,35.7c0,12-5.6,24.9-21,33.1c13.6-5.4,23.3-18.6,23.3-34
				c0-20.3-16.6-36.7-36.9-36.7c-8.2,0-16.8,2.9-23,7.5C87.1,649,96.8,646.6,101.7,646.6z"/>
		</g>
	</g>
	<g>
		<path class="st8" d="M90.7,666.4h11.7v4.5h-6.5v6.9h6.1v4.4h-6.1v11.1h-5.3V666.4z"/>
		<path class="st8" d="M118.6,671.9h-6.9l-0.6,4.7c0.3,0,0.5,0,0.8,0c1.1,0,3.4,0.6,4.9,2c1.5,1.4,2.3,3.4,2.3,6
			c0,5-3.4,9.2-9.1,9.2c-1.9,0-3.8-0.5-4.9-1l0.8-4.1c1,0.5,2.3,0.9,3.7,0.9c2.6,0,4.3-1.6,4.3-4.4c0-3.5-2.6-4.7-5.6-4.7
			c-0.7,0-1.3,0-1.9,0.1l1.5-13h10.8V671.9z"/>
	</g>
</g>
<g>
	
		<radialGradient id="SVGID_6_" cx="105.5" cy="297.6" r="46.9" gradientTransform="matrix(1 0 0 -1 0 836)" gradientUnits="userSpaceOnUse">
		<stop  offset="0" style="stop-color:#40392E"/>
		<stop  offset="0.3476" style="stop-color:#383226"/>
		<stop  offset="0.6732" style="stop-color:#484035"/>
		<stop  offset="0.8101" style="stop-color:#322B23"/>
		<stop  offset="0.9162" style="stop-color:#5A5042"/>
		<stop  offset="1" style="stop-color:#3C352B"/>
	</radialGradient>
	
		<linearGradient id="SVGID_7_" gradientUnits="userSpaceOnUse" x1="55.6" y1="297.6" x2="155.4" y2="297.6" gradientTransform="matrix(1 0 0 -1 0 836)">
		<stop  offset="0" style="stop-color:#2A2200"/>
		<stop  offset="8.379889e-03" style="stop-color:#1F1D19"/>
		<stop  offset="0.5767" style="stop-color:#383226"/>
		<stop  offset="1" style="stop-color:#1F1D19"/>
	</linearGradient>
	<circle class="st9" cx="105.5" cy="538.4" r="46.9"/>
	<g>
		<path class="st5" d="M68.1,538.9c0-20.2,16.6-36.7,36.9-36.7s36.9,16.5,36.9,36.7s-16.6,36.7-36.9,36.7
			C84.7,575.5,68.1,559.1,68.1,538.9z"/>
		<g>
			<path class="st6" d="M124.4,570.1c-25.2,13-51.2-6.3-53.8-31c-1.3-13.5,10.9-32.9,28.1-36.4c-17.4,3.2-31.1,17-31.1,34.9
				c0,20.2,15.4,38.7,38.4,38.1C112.8,575.3,119,573.1,124.4,570.1z"/>
			<path class="st7" d="M101.7,504c20.3,0,38.3,15.4,38.3,35.7c0,12-5.6,24.9-21,33.1c13.6-5.4,23.3-18.6,23.3-34
				c0-20.3-16.6-36.7-36.9-36.7c-8.2,0-16.8,2.9-23,7.5C87.1,506.4,96.8,504,101.7,504z"/>
		</g>
	</g>
	<g>
		<path class="st8" d="M90.7,525h11.7v4.5h-6.5v6.9h6.1v4.4h-6.1v11.1h-5.3V525z"/>
		<path class="st8" d="M113.4,551.9v-6.2h-8.9v-3.6l8.5-16.2h5.1v15.6h2.6v4.2H118v6.2H113.4z M113.4,541.5v-5.3
			c0-1.4,0.1-2.9,0.3-4.3h-0.1c-0.6,1.4-1.1,2.6-1.8,4.1l-2.8,5.5v0.1H113.4z"/>
	</g>
</g>
<g>
	<g>
		<g>
			<defs>
				<circle id="SVGID_8_" cx="105.5" cy="396.5" r="46.9"/>
			</defs>
			<clipPath id="SVGID_9_">
				<use xlink:href="#SVGID_8_"  style="overflow:visible;"/>
			</clipPath>
			<rect x="58.6" y="349.6" class="st10" width="93.8" height="93.8"/>
			<circle class="st10" cx="105.5" cy="396.5" r="46.9"/>
			<circle class="st11" cx="105.5" cy="396.5" r="46.8"/>
			<circle class="st12" cx="105.5" cy="396.5" r="46.6"/>
			<circle class="st13" cx="105.5" cy="396.5" r="46.5"/>
			<circle class="st14" cx="105.5" cy="396.5" r="46.4"/>
			<circle class="st15" cx="105.5" cy="396.5" r="46.2"/>
			<circle class="st16" cx="105.5" cy="396.5" r="46.1"/>
			<circle class="st17" cx="105.5" cy="396.5" r="46"/>
			<circle class="st18" cx="105.5" cy="396.5" r="45.9"/>
			<circle class="st19" cx="105.5" cy="396.5" r="45.7"/>
			<circle class="st20" cx="105.5" cy="396.5" r="45.6"/>
			<circle class="st21" cx="105.5" cy="396.5" r="45.5"/>
			<circle class="st22" cx="105.5" cy="396.5" r="45.3"/>
			<circle class="st23" cx="105.5" cy="396.5" r="45.2"/>
			<circle class="st24" cx="105.5" cy="396.5" r="45.1"/>
			<circle class="st25" cx="105.5" cy="396.5" r="44.9"/>
			<circle class="st26" cx="105.5" cy="396.5" r="44.8"/>
			<circle class="st27" cx="105.5" cy="396.5" r="44.7"/>
			<circle class="st28" cx="105.5" cy="396.5" r="44.5"/>
			<circle class="st29" cx="105.5" cy="396.5" r="44.4"/>
			<circle class="st30" cx="105.5" cy="396.5" r="44.3"/>
			<circle class="st31" cx="105.5" cy="396.5" r="44.1"/>
			<circle class="st32" cx="105.5" cy="396.5" r="44"/>
			<circle class="st33" cx="105.5" cy="396.5" r="43.9"/>
			<circle class="st34" cx="105.5" cy="396.5" r="43.8"/>
			<circle class="st35" cx="105.5" cy="396.5" r="43.6"/>
			<circle class="st36" cx="105.5" cy="396.5" r="43.5"/>
			<circle class="st37" cx="105.5" cy="396.5" r="43.4"/>
			<circle class="st38" cx="105.5" cy="396.5" r="43.2"/>
			<circle class="st39" cx="105.5" cy="396.5" r="43.1"/>
			<circle class="st39" cx="105.5" cy="396.5" r="43"/>
			<circle class="st38" cx="105.5" cy="396.5" r="42.8"/>
			<circle class="st37" cx="105.5" cy="396.5" r="42.7"/>
			<circle class="st36" cx="105.5" cy="396.5" r="42.6"/>
			<circle class="st35" cx="105.5" cy="396.5" r="42.5"/>
			<circle class="st34" cx="105.5" cy="396.5" r="42.3"/>
			<circle class="st33" cx="105.5" cy="396.5" r="42.2"/>
			<circle class="st32" cx="105.5" cy="396.5" r="42.1"/>
			<circle class="st40" cx="105.5" cy="396.5" r="42"/>
			<circle class="st41" cx="105.5" cy="396.5" r="41.9"/>
			<circle class="st29" cx="105.5" cy="396.5" r="41.7"/>
			<circle class="st28" cx="105.5" cy="396.5" r="41.6"/>
			<circle class="st27" cx="105.5" cy="396.5" r="41.5"/>
			<circle class="st26" cx="105.5" cy="396.5" r="41.4"/>
			<circle class="st25" cx="105.5" cy="396.5" r="41.2"/>
			<circle class="st42" cx="105.5" cy="396.5" r="41.1"/>
			<circle class="st43" cx="105.5" cy="396.5" r="41"/>
			<circle class="st44" cx="105.5" cy="396.5" r="40.9"/>
			<circle class="st45" cx="105.5" cy="396.5" r="40.7"/>
			<circle class="st46" cx="105.5" cy="396.5" r="40.6"/>
			<circle class="st19" cx="105.5" cy="396.5" r="40.5"/>
			<circle class="st18" cx="105.5" cy="396.5" r="40.4"/>
			<circle class="st47" cx="105.5" cy="396.5" r="40.2"/>
			<circle class="st48" cx="105.5" cy="396.5" r="40.1"/>
			<circle class="st49" cx="105.5" cy="396.5" r="40"/>
			<circle class="st50" cx="105.5" cy="396.5" r="39.9"/>
			<circle class="st51" cx="105.5" cy="396.5" r="39.7"/>
			<circle class="st52" cx="105.5" cy="396.5" r="39.6"/>
			<circle class="st53" cx="105.5" cy="396.5" r="39.5"/>
			<circle class="st54" cx="105.5" cy="396.5" r="39.4"/>
			<circle class="st55" cx="105.5" cy="396.5" r="39.2"/>
			<circle class="st56" cx="105.5" cy="396.5" r="39.1"/>
			<circle class="st57" cx="105.5" cy="396.5" r="39"/>
			<circle class="st58" cx="105.5" cy="396.5" r="38.9"/>
			<circle class="st59" cx="105.5" cy="396.5" r="38.7"/>
			<circle class="st60" cx="105.5" cy="396.5" r="38.6"/>
			<circle class="st61" cx="105.5" cy="396.5" r="38.5"/>
			<circle class="st62" cx="105.5" cy="396.5" r="38.4"/>
			<circle class="st63" cx="105.5" cy="396.5" r="38.2"/>
			<circle class="st64" cx="105.5" cy="396.5" r="38.1"/>
			<circle class="st64" cx="105.5" cy="396.5" r="38"/>
			<circle class="st63" cx="105.5" cy="396.5" r="37.7"/>
			<circle class="st62" cx="105.5" cy="396.5" r="37.4"/>
			<circle class="st65" cx="105.5" cy="396.5" r="37.1"/>
			<circle class="st60" cx="105.5" cy="396.5" r="36.8"/>
			<circle class="st59" cx="105.5" cy="396.5" r="36.5"/>
			<circle class="st58" cx="105.5" cy="396.5" r="36.2"/>
			<circle class="st57" cx="105.5" cy="396.5" r="36"/>
			<circle class="st66" cx="105.5" cy="396.5" r="35.7"/>
			<circle class="st67" cx="105.5" cy="396.5" r="35.4"/>
			<circle class="st68" cx="105.5" cy="396.5" r="35.1"/>
			<circle class="st69" cx="105.5" cy="396.5" r="34.8"/>
			<circle class="st51" cx="105.5" cy="396.5" r="34.5"/>
			<circle class="st50" cx="105.5" cy="396.5" r="34.2"/>
			<circle class="st49" cx="105.5" cy="396.5" r="33.9"/>
			<circle class="st48" cx="105.5" cy="396.5" r="33.6"/>
			<circle class="st47" cx="105.5" cy="396.5" r="33.3"/>
			<circle class="st70" cx="105.5" cy="396.5" r="33"/>
			<circle class="st19" cx="105.5" cy="396.5" r="32.7"/>
			<circle class="st20" cx="105.5" cy="396.5" r="32.4"/>
			<circle class="st21" cx="105.5" cy="396.5" r="32.2"/>
			<circle class="st22" cx="105.5" cy="396.5" r="31.9"/>
			<circle class="st22" cx="105.5" cy="396.5" r="31.6"/>
			<circle class="st21" cx="105.5" cy="396.5" r="30.6"/>
			<circle class="st20" cx="105.5" cy="396.5" r="29.7"/>
			<circle class="st19" cx="105.5" cy="396.5" r="28.7"/>
			<circle class="st18" cx="105.5" cy="396.5" r="27.8"/>
			<circle class="st71" cx="105.5" cy="396.5" r="26.8"/>
			<circle class="st72" cx="105.5" cy="396.5" r="25.8"/>
			<circle class="st73" cx="105.5" cy="396.5" r="24.9"/>
			<circle class="st74" cx="105.5" cy="396.5" r="23.9"/>
			<circle class="st75" cx="105.5" cy="396.5" r="23"/>
			<circle class="st76" cx="105.5" cy="396.5" r="22"/>
			<circle class="st77" cx="105.5" cy="396.5" r="21.1"/>
			<circle class="st78" cx="105.5" cy="396.5" r="20.1"/>
			<circle class="st79" cx="105.5" cy="396.5" r="19.2"/>
			<circle class="st80" cx="105.5" cy="396.5" r="18.2"/>
			<circle class="st81" cx="105.5" cy="396.5" r="17.3"/>
			<circle class="st81" cx="105.5" cy="396.5" r="16.3"/>
			<circle class="st80" cx="105.5" cy="396.5" r="14.3"/>
			<circle class="st79" cx="105.5" cy="396.5" r="12.2"/>
			<circle class="st78" cx="105.5" cy="396.5" r="10.2"/>
			<circle class="st82" cx="105.5" cy="396.5" r="8.2"/>
			<circle class="st83" cx="105.5" cy="396.5" r="6.1"/>
			<circle class="st13" cx="105.5" cy="396.5" r="4.1"/>
			<circle class="st14" cx="105.5" cy="396.5" r="2"/>
		</g>
		
			<linearGradient id="SVGID_10_" gradientUnits="userSpaceOnUse" x1="55.6001" y1="439.4998" x2="155.3999" y2="439.4998" gradientTransform="matrix(1 0 0 -1 0 836)">
			<stop  offset="0" style="stop-color:#2A2200"/>
			<stop  offset="8.379889e-03" style="stop-color:#1F1D19"/>
			<stop  offset="0.5767" style="stop-color:#383226"/>
			<stop  offset="1" style="stop-color:#1F1D19"/>
		</linearGradient>
		<path class="st84" d="M105.5,446.4c-27.5,0-49.9-22.4-49.9-49.9c0-27.5,22.4-49.9,49.9-49.9s49.9,22.4,49.9,49.9
			C155.4,424,133,446.4,105.5,446.4z M105.5,352.6c-24.2,0-43.9,19.7-43.9,43.9c0,24.2,19.7,43.9,43.9,43.9s43.9-19.7,43.9-43.9
			C149.4,372.3,129.7,352.6,105.5,352.6z"/>
	</g>
	<g>
		<g>
			<path class="st5" d="M68.2,397.6c0-20.2,16.6-36.7,36.9-36.7s36.9,16.5,36.9,36.7s-16.6,36.7-36.9,36.7S68.2,417.8,68.2,397.6z"
				/>
		</g>
		<g>
			<g>
				<path class="st6" d="M124.5,428.9c-25.2,13-51.2-6.3-53.8-31c-1.3-13.5,10.9-32.9,28.1-36.4c-17.4,3.2-31.1,17-31.1,34.9
					c0,20.2,15.4,38.7,38.4,38.1C112.9,434.1,119,432,124.5,428.9z"/>
			</g>
			<g>
				<path class="st7" d="M101.6,362.7c20.3,0,38.3,15.4,38.3,35.7c0,12-5.6,24.9-21,33.1c13.6-5.4,23.3-18.6,23.3-34
					c0-20.3-16.6-36.7-36.9-36.7c-8.2,0-16.8,2.9-23,7.5C87.1,365.3,96.8,362.7,101.6,362.7z"/>
			</g>
		</g>
	</g>
	<g>
		<path class="st8" d="M90.7,384.2h11.7v4.5h-6.5v6.9h6.1v4.4h-6.1v11.1h-5.3V384.2z"/>
		<path class="st8" d="M105.7,406.2c1,0.6,2.5,1,3.9,1c2.5,0,4-1.6,4-3.8c0-2.9-2.2-4.1-4.9-4.1H108v-3.8h0.5c1.9,0,4.4-0.8,4.4-3.3
			c0-1.9-1.2-3-3-3c-1.2,0-2.3,0.4-3.3,1l-0.7-3.9c1.1-0.7,3.2-1.4,5.3-1.4c4.6,0,6.9,2.9,6.9,6.3c0,2.6-1.4,4.7-3.7,5.8v0.1
			c2.5,0.9,4.4,3.1,4.4,6.6c0,4-3,7.8-8.7,7.8c-2.1,0-4-0.5-5.1-1.1L105.7,406.2z"/>
	</g>
</g>
<g>
	
		<radialGradient id="SVGID_11_" cx="105.5" cy="581.4" r="46.9" gradientTransform="matrix(1 0 0 -1 0 836)" gradientUnits="userSpaceOnUse">
		<stop  offset="0" style="stop-color:#40392E"/>
		<stop  offset="0.3476" style="stop-color:#383226"/>
		<stop  offset="0.6732" style="stop-color:#484035"/>
		<stop  offset="0.8101" style="stop-color:#322B23"/>
		<stop  offset="0.9162" style="stop-color:#5A5042"/>
		<stop  offset="1" style="stop-color:#3C352B"/>
	</radialGradient>
	
		<linearGradient id="SVGID_12_" gradientUnits="userSpaceOnUse" x1="55.6" y1="581.4" x2="155.4" y2="581.4" gradientTransform="matrix(1 0 0 -1 0 836)">
		<stop  offset="0" style="stop-color:#2A2200"/>
		<stop  offset="8.379889e-03" style="stop-color:#1F1D19"/>
		<stop  offset="0.5767" style="stop-color:#383226"/>
		<stop  offset="1" style="stop-color:#1F1D19"/>
	</linearGradient>
	<circle class="st85" cx="105.5" cy="254.6" r="46.9"/>
	<g>
		<path class="st5" d="M68.2,255.3c0-20.2,16.6-36.7,36.9-36.7s36.9,16.5,36.9,36.7S125.4,292,105.1,292
			C84.8,291.9,68.2,275.5,68.2,255.3z"/>
		<g>
			<path class="st6" d="M124.5,286.5c-25.2,13-51.2-6.3-53.8-31.1c-1.3-13.5,10.9-32.9,28.1-36.5c-17.4,3.1-31.1,17-31.1,34.9
				c0,20.2,15.4,38.7,38.4,38.1C112.9,291.8,119,289.7,124.5,286.5z"/>
			<path class="st7" d="M101.6,220.5c20.3,0,38.3,15.4,38.3,35.7c0,12-5.6,24.9-21,33.1c13.6-5.4,23.3-18.6,23.3-34.1
				c0-20.3-16.6-36.7-36.9-36.7c-8.2,0-16.8,2.9-23,7.5C87.1,222.9,96.8,220.5,101.6,220.5z"/>
		</g>
	</g>
	<g>
		<path class="st8" d="M90.7,242h11.7v4.5h-6.5v6.9h6.1v4.4h-6.1V269h-5.3V242z"/>
		<path class="st8" d="M105,269v-3.5l2.6-3.3c3.4-4.3,6.1-7.9,6.1-11.6c0-2.1-1.2-3.6-3.3-3.6c-1.6,0-2.9,0.7-3.9,1.3l-0.9-4
			c1.2-0.8,3.4-1.6,5.8-1.6c5.7,0,7.5,3.8,7.5,7.5c0,4.9-3.1,8.8-6,12.2l-1.6,1.8v0.1h7.9v4.6H105z"/>
	</g>
</g>
<g>
	
		<radialGradient id="SVGID_13_" cx="105.5" cy="723.3" r="46.9" gradientTransform="matrix(1 0 0 -1 0 836)" gradientUnits="userSpaceOnUse">
		<stop  offset="0" style="stop-color:#40392E"/>
		<stop  offset="0.3476" style="stop-color:#383226"/>
		<stop  offset="0.6732" style="stop-color:#484035"/>
		<stop  offset="0.8101" style="stop-color:#322B23"/>
		<stop  offset="0.9162" style="stop-color:#5A5042"/>
		<stop  offset="1" style="stop-color:#3C352B"/>
	</radialGradient>
	
		<linearGradient id="SVGID_14_" gradientUnits="userSpaceOnUse" x1="55.6" y1="723.3" x2="155.4" y2="723.3" gradientTransform="matrix(1 0 0 -1 0 836)">
		<stop  offset="0" style="stop-color:#2A2200"/>
		<stop  offset="8.379889e-03" style="stop-color:#1F1D19"/>
		<stop  offset="0.5767" style="stop-color:#383226"/>
		<stop  offset="1" style="stop-color:#1F1D19"/>
	</linearGradient>
	<circle class="st86" cx="105.5" cy="112.7" r="46.9"/>
	<g>
		<path class="st5" d="M68.1,111.9c0-20.2,16.6-36.7,36.9-36.7s36.9,16.5,36.9,36.7s-16.6,36.7-36.9,36.7S68.1,132.1,68.1,111.9z"/>
		<g>
			<path class="st6" d="M124.5,143.2c-25.2,13-51.3-6.1-53.8-31.1c-1.3-13.5,10.9-32.9,28.1-36.5c-17.4,3.1-31.1,17-31.1,34.9
				c0,20.2,15.4,38.7,38.4,38.1C112.8,148.5,118.9,146.3,124.5,143.2z"/>
			<path class="st7" d="M101.6,77.2c20.3,0,38.3,15.4,38.3,35.7c0,12-5.6,24.8-21,33.1c13.6-5.4,23.3-18.6,23.3-34.1
				c0-20.3-16.6-36.7-36.9-36.7c-8.2,0-16.8,2.9-23,7.5C87,79.6,96.7,77.2,101.6,77.2z"/>
		</g>
	</g>
	<g>
		<path class="st8" d="M90.7,98.3h11.7v4.5h-6.5v6.9h6.1v4.4h-6.1v11.1h-5.3V98.3z"/>
		<path class="st8" d="M111.2,104.2L111.2,104.2l-4.5,2.3l-0.9-4.1l6-3.1h4.6v26h-5.2V104.2z"/>
	</g>
</g>
<g>
	<path class="st87" d="M72.3,316.4l-5,18.7h-4.8l-2.6-10.3l-2.5,10.3h-5l-5-18.7h5.4l2.6,10.7l2.5-10.7h4.5l2.8,10.8l2.6-10.8H72.3z
		"/>
	<path class="st87" d="M79.8,316.4v18.7h-5.7v-18.7H79.8z"/>
	<path class="st87" d="M99.1,335.1h-4.7l-5.1-8.2c-0.7-1.1-1.3-2.3-2-3.9c0.3,1.2,0.5,2.2,0.5,3.1v9h-4.6v-18.7h5.4l4.3,6.8
		c0.9,1.4,1.5,2.6,2,3.6c-0.3-1.6-0.4-3.2-0.4-4.9v-5.5h4.7L99.1,335.1L99.1,335.1z"/>
	<path class="st87" d="M102.3,335.1v-18.7h7.2c3.1,0,5.5,0.9,7,2.8s2.3,4,2.3,6.5c0,2.8-0.8,5.1-2.5,6.8c-1.7,1.7-3.8,2.6-6.5,2.6
		L102.3,335.1L102.3,335.1z M108,330.8h1.5c0.9,0,1.7-0.5,2.4-1.4s1-2.2,1-3.8c0-1.4-0.3-2.5-0.9-3.5s-1.4-1.5-2.5-1.5H108V330.8z"
		/>
	<path class="st87" d="M129.4,335.4c-2.6,0-4.8-0.9-6.4-2.6c-1.7-1.7-2.5-4.1-2.5-7c0-2.8,0.8-5.1,2.4-6.9s3.8-2.7,6.6-2.7
		c2.6,0,4.7,0.9,6.4,2.6c1.6,1.7,2.5,4,2.5,6.9c0,3-0.8,5.3-2.5,7.1C134.1,334.5,132,335.4,129.4,335.4z M129.4,331.1
		c1,0,1.7-0.4,2.1-1.3c0.4-0.8,0.6-2.4,0.6-4.6c0-3.2-0.9-4.9-2.6-4.9c-1.9,0-2.8,1.9-2.8,5.6C126.7,329.4,127.6,331.1,129.4,331.1z
		"/>
	<path class="st87" d="M163.6,316.4l-5,18.7h-4.8l-2.6-10.3l-2.5,10.3h-5l-5-18.7h5.4l2.6,10.7l2.5-10.7h4.5l2.9,10.8l2.6-10.8
		H163.6z"/>
</g>
<g>
	<path class="st87" d="M107.1,174.3l-5.8,10.8v7.9h-5.6v-7.9l-6.3-10.8h6.3l3.3,6.2l3.1-6.2H107.1z"/>
	<path class="st87" d="M121.6,179.3v3.5H108v-3.5H121.6z M121.6,184.6v3.5H108v-3.5H121.6z"/>
</g>
<g>
	<path class="st87" d="M76.9,466.4v10.5h-2.8c-0.2-0.8-0.5-1.4-0.8-2c-1.2,1.5-2.9,2.2-5.1,2.2c-2.4,0-4.4-0.8-5.9-2.5
		s-2.3-4-2.3-6.8s0.7-5.1,2.2-7s3.7-2.9,6.7-2.9c2.2,0,4,0.6,5.4,1.7s2.2,2.7,2.6,4.8l-5.6,0.5c-0.3-1.9-1.1-2.9-2.6-2.9
		c-1.9,0-2.8,1.8-2.8,5.4c0,2.2,0.3,3.6,0.9,4.3s1.3,1,2.2,1c0.7,0,1.3-0.2,1.8-0.6s0.7-1,0.7-1.7h-3v-4H76.9z"/>
	<path class="st87" d="M96.5,476.9h-6.4l-2.7-7.1h-1.8v7.1h-5.7v-18.7h9.7c2.2,0,3.8,0.5,5,1.5s1.8,2.3,1.8,4c0,1.1-0.2,2-0.7,2.9
		c-0.4,0.8-1.3,1.6-2.7,2.2L96.5,476.9z M85.6,465.8H88c0.7,0,1.3-0.2,1.7-0.5s0.7-0.7,0.7-1.3c0-1.2-0.7-1.8-2.2-1.8h-2.6V465.8
		L85.6,465.8z"/>
	<path class="st87" d="M109.5,476.9l-1.1-3.7h-5l-1.1,3.7h-4.7l5.8-18.7h6.1l5.9,18.7H109.5z M104.4,469.1h3l-1.5-5.4L104.4,469.1z"
		/>
	<path class="st87" d="M122.9,470.1v6.8h-5.8v-18.7h8c2,0,3.5,0.2,4.5,0.7s1.9,1.2,2.5,2.1s0.9,2,0.9,3.2c0,1.8-0.6,3.2-1.9,4.3
		c-1.2,1.1-2.9,1.6-5,1.6H122.9z M122.8,466.1h1.9c1.7,0,2.5-0.6,2.5-1.9c0-1.2-0.8-1.8-2.3-1.8h-2.1V466.1L122.8,466.1z"/>
	<path class="st87" d="M150.9,458.2v18.7h-5.7v-7.3h-4.4v7.3h-5.7v-18.7h5.7v6.9h4.4v-6.9H150.9z"/>
</g>
<g>
	<path class="st87" d="M68.4,604.6v14.2H63v-14.2h-3.9v-4.5h13.2v4.5H68.4z"/>
	<path class="st87" d="M73.9,618.8v-18.7h9.5c2,0,3.4,0.5,4.3,1.5s1.4,2.1,1.4,3.4c0,0.9-0.3,1.8-0.8,2.5c-0.5,0.8-1.3,1.3-2.3,1.6
		c2.4,0.6,3.6,2,3.6,4.3c0,1.4-0.4,2.6-1.3,3.7c-0.9,1.1-2.7,1.6-5.5,1.6h-8.9C73.9,618.7,73.9,618.8,73.9,618.8z M79.1,607.3h2.7
		c0.7,0,1.1-0.2,1.4-0.5s0.4-0.7,0.4-1.1c0-1-0.6-1.6-1.9-1.6h-2.6V607.3L79.1,607.3z M79.1,614.6h2.8c0.7,0,1.2-0.2,1.5-0.5
		s0.5-0.7,0.5-1.2s-0.2-0.8-0.5-1.2s-0.9-0.5-1.7-0.5h-2.6C79.1,611.2,79.1,614.6,79.1,614.6z"/>
	<path class="st87" d="M104.9,614.2v4.6H91.8v-18.7h5.7v14.1L104.9,614.2L104.9,614.2z"/>
	<path class="st87" d="M105,613.4l5.3-1c0.4,1.5,1.6,2.3,3.4,2.3c1.4,0,2.2-0.4,2.2-1.1c0-0.4-0.2-0.7-0.5-0.9s-0.9-0.4-1.8-0.6
		c-3.3-0.6-5.4-1.4-6.3-2.5c-0.9-1-1.4-2.2-1.4-3.6c0-1.8,0.7-3.2,2-4.4s3.3-1.8,5.8-1.8c3.8,0,6.3,1.5,7.5,4.6l-4.7,1.4
		c-0.5-1.2-1.5-1.9-3-1.9c-1.2,0-1.9,0.4-1.9,1.2c0,0.3,0.1,0.6,0.4,0.8s0.8,0.4,1.6,0.5c2.2,0.5,3.8,0.9,4.8,1.3
		c0.9,0.4,1.7,1,2.4,1.9c0.6,0.9,0.9,1.9,0.9,3.1c0,1.9-0.8,3.4-2.3,4.6s-3.5,1.8-6,1.8C108.9,619.1,106.1,617.2,105,613.4z"/>
	<path class="st87" d="M138,614.3v4.5h-14v-18.7h14v4.3h-8.4v2.7h6.8v4.1h-6.8v3h8.4V614.3z"/>
	<path class="st87" d="M147.9,604.6v14.2h-5.4v-14.2h-3.9v-4.5h13.2v4.5H147.9z"/>
</g>
<g>
	<path class="st87" d="M75.4,746.2v14.2H70v-14.2h-3.9v-4.5h13.2v4.5H75.4z"/>
	<path class="st87" d="M90.2,760.4l-1.1-3.7h-5l-1.1,3.7h-4.7l5.8-18.7h6.1l5.9,18.7H90.2z M85.1,752.7h3l-1.5-5.4L85.1,752.7z"/>
	<path class="st87" d="M97.8,760.4v-18.7h9.5c2,0,3.4,0.5,4.3,1.5s1.4,2.1,1.4,3.4c0,0.9-0.3,1.8-0.8,2.5c-0.5,0.8-1.3,1.3-2.3,1.6
		c2.4,0.6,3.6,2,3.6,4.3c0,1.4-0.4,2.6-1.3,3.7c-0.9,1.1-2.7,1.6-5.5,1.6h-8.9C97.8,760.3,97.8,760.4,97.8,760.4z M103.1,748.9h2.7
		c0.7,0,1.1-0.2,1.4-0.5s0.4-0.7,0.4-1.1c0-1-0.6-1.6-1.9-1.6h-2.6V748.9L103.1,748.9z M103.1,756.3h2.8c0.7,0,1.2-0.2,1.5-0.5
		s0.5-0.7,0.5-1.2s-0.2-0.8-0.5-1.2s-0.9-0.5-1.7-0.5h-2.6C103.1,752.9,103.1,756.3,103.1,756.3z"/>
	<path class="st87" d="M128.9,755.8v4.6h-13.1v-18.7h5.7v14.1L128.9,755.8L128.9,755.8z"/>
	<path class="st87" d="M144.9,756v4.5h-14v-18.7h14v4.3h-8.4v2.7h6.8v4.1h-6.8v3h8.4V756z"/>
</g>
</svg>
