<?xml version="1.0" encoding="utf-8"?>
<!-- Generator: Adobe Illustrator 23.0.4, SVG Export Plug-In . SVG Version: 6.00 Build 0)  -->
<svg version="1.1" id="device" xmlns="http://www.w3.org/2000/svg" xmlns:xlink="http://www.w3.org/1999/xlink" x="0px" y="0px"
	 viewBox="0 0 661.2 768.8" style="enable-background:new 0 0 661.2 768.8;" xml:space="preserve">
<style type="text/css">
	.st0{fill:url(#SVGID_1_);}
	.st1{fill:url(#SVGID_2_);}
	.st2{fill:url(#SVGID_3_);}
	.st3{fill:url(#SVGID_4_);}
	.st4{fill:#030400;}
	.st5{fill:url(#SVGID_5_);}
	.st6{fill:url(#SVGID_6_);}
	.st7{fill:url(#SVGID_7_);}
	.st8{fill:#1E1C11;}
	.st9{opacity:0.65;fill:#767C58;enable-background:new    ;}
	.st10{fill:url(#SVGID_8_);}
	.st11{fill:url(#SVGID_9_);}
	.st12{fill:url(#SVGID_10_);}
	.st13{fill:#50483B;}
	.st14{fill:#242015;}
	.st15{fill:#736C5C;}
	.st16{fill:#FFF5E1;}
	.st17{fill:#96B4B4;}
	.st18{fill:#C2C882;}
</style>
<g>
	
		<linearGradient id="SVGID_1_" gradientUnits="userSpaceOnUse" x1="-2.621638e-02" y1="-454.9364" x2="661.2037" y2="-454.9364" gradientTransform="matrix(1 0 0 1 0 839.3228)">
		<stop  offset="0" style="stop-color:#0F0F0F"/>
		<stop  offset="1" style="stop-color:#211D14"/>
	</linearGradient>
	<path class="st0" d="M642.7,22.7c-64-12.1-287.6-45.3-625.7,1.6C7.6,25.6,0.6,32.7,0.4,41.1c-3.1,177.8,11.7,563.6,12.5,589.2
		C24,693.2,61,729.1,91.1,748.6c20.6,13.3,45.6,20.2,71.2,20.2h337.1c22.3,0,44.1-5.7,62.7-16.6c30.3-17.8,69.6-52.9,82.1-118.2
		c0.5-2.5,0.8-5,0.9-7.6c3-60.9,13.8-492.8,16.1-583.2C661.4,33.4,653.7,24.8,642.7,22.7z M553.6,549.9
		c-50.2,2.9-255.6,13-462.9-0.1c-5.5-0.3-9.7-4.6-9.8-9.8C80,482.6,74.8,170.7,81,164.5c6.8-6.8,470.7-10.7,477.4-5.3
		c6.1,4.8,6.7,317.7,6.8,379.1C565.2,544.4,560.1,549.5,553.6,549.9z"/>
	
		<linearGradient id="SVGID_2_" gradientUnits="userSpaceOnUse" x1="12.8571" y1="-208.5155" x2="12.9467" y2="-208.5155" gradientTransform="matrix(1 0 0 1 0 839.3228)">
		<stop  offset="0" style="stop-color:#6B6157"/>
		<stop  offset="1" style="stop-color:#211D14"/>
	</linearGradient>
	<path class="st1" d="M12.9,630.3c0-0.1,0-0.2-0.1-0.3C13,632.1,13,632.1,12.9,630.3z"/>
</g>
<g>
	
		<linearGradient id="SVGID_3_" gradientUnits="userSpaceOnUse" x1="12.8571" y1="-207.4959" x2="12.9467" y2="-207.4959" gradientTransform="matrix(1 0 0 1 0 839.3228)">
		<stop  offset="0" style="stop-color:#211D14"/>
		<stop  offset="2.810000e-02" style="stop-color:#383429"/>
		<stop  offset="3.700000e-02" style="stop-color:#2C2920"/>
		<stop  offset="5.190000e-02" style="stop-color:#211D17"/>
		<stop  offset="7.290000e-02" style="stop-color:#1A1711"/>
		<stop  offset="0.1313" style="stop-color:#181510"/>
		<stop  offset="0.4854" style="stop-color:#1F1E1A"/>
		<stop  offset="0.8981" style="stop-color:#423A2D"/>
		<stop  offset="0.9331" style="stop-color:#443C2E"/>
		<stop  offset="0.9468" style="stop-color:#4B4233"/>
		<stop  offset="0.9567" style="stop-color:#574D3C"/>
		<stop  offset="0.96" style="stop-color:#5D5240"/>
		<stop  offset="0.9855" style="stop-color:#332D22"/>
		<stop  offset="1" style="stop-color:#211D14"/>
	</linearGradient>
	<path class="st2" d="M12.9,631.3c0-0.1,0-0.2-0.1-0.3C13,633.1,13,633.2,12.9,631.3z"/>
	
		<linearGradient id="SVGID_4_" gradientUnits="userSpaceOnUse" x1="-2.621638e-02" y1="-452.0353" x2="661.2037" y2="-452.0353" gradientTransform="matrix(1 0 0 1 0 839.3228)">
		<stop  offset="0" style="stop-color:#000000"/>
		<stop  offset="2.810000e-02" style="stop-color:#141414"/>
		<stop  offset="3.859645e-02" style="stop-color:#000000"/>
		<stop  offset="5.190000e-02" style="stop-color:#000000"/>
		<stop  offset="7.366867e-02" style="stop-color:#000000"/>
		<stop  offset="0.1312" style="stop-color:#000000"/>
		<stop  offset="0.4855" style="stop-color:#000000"/>
		<stop  offset="0.8989" style="stop-color:#000000"/>
		<stop  offset="0.9384" style="stop-color:#000000"/>
		<stop  offset="0.9472" style="stop-color:#000000"/>
		<stop  offset="0.9567" style="stop-color:#000000"/>
		<stop  offset="0.9632" style="stop-color:#141414"/>
		<stop  offset="0.9861" style="stop-color:#000000"/>
		<stop  offset="1" style="stop-color:#080808"/>
	</linearGradient>
	<path class="st3" d="M642.7,28.3c-64-12-287.6-44.9-625.7,1.6C7.6,31.1,0.6,38.2,0.4,46.5c-3.1,176.4,11.7,559.4,12.5,584.8
		C24,693.7,61,729.4,91.1,748.7c20.6,13.2,45.6,20.1,71.2,20.1h337.1c22.3,0,44.1-5.7,62.7-16.5c30.3-17.7,69.6-52.5,82.1-117.3
		c0.5-2.5,0.8-5,0.9-7.5c3-60.5,13.8-489.1,16.1-578.9C661.4,38.8,653.7,30.3,642.7,28.3z M553.6,549.9
		c-50.2,2.9-255.6,13-462.9-0.1c-5.5-0.3-9.7-4.6-9.8-9.8C80,482.6,74.8,170.7,81,164.5c6.8-6.8,470.7-10.7,477.4-5.3
		c6.1,4.8,6.7,317.7,6.8,379.1C565.2,544.4,560.1,549.5,553.6,549.9z"/>
</g>
<path class="st4" d="M577.3,62.5c-9.7-9.7-20.6-18.4-32.4-24.3c-30-15-113.5-15.6-170.1-14c-37,1-74,1.2-111,0.5
	c-52.7-1-126.8,3.6-154.3,16.9c-12.8,6.2-25.6,13.3-35.7,24.9C48,96.3,34,132.8,33,170.3L29.1,482l3.4,147.1c0,0,0.2,1.7,0.7,4.7
	c11.5,69.9,64.9,129.5,160.4,121.6H319h171.4c17.7,0,35.3-3.2,51.3-10c32.1-13.5,52.1-37.5,64.4-60.2c12.8-23.5,19.1-49.3,19.1-75.3
	V481.5V175.9C625.2,134.3,608.5,93.8,577.3,62.5z M553.6,549.9c-50.2,2.9-255.6,13-462.9-0.1c-5.5-0.3-9.7-4.6-9.8-9.8
	C80,482.6,74.8,170.7,81,164.5c6.8-6.8,470.7-10.7,477.4-5.3c6.1,4.8,6.7,317.7,6.8,379.1C565.2,544.4,560.1,549.5,553.6,549.9z"/>
<linearGradient id="SVGID_5_" gradientUnits="userSpaceOnUse" x1="32.5" y1="-449.4012" x2="622.2" y2="-449.4012" gradientTransform="matrix(1 0 0 1 0 839.3228)">
	<stop  offset="0" style="stop-color:#7C7563"/>
	<stop  offset="0.9845" style="stop-color:#383226"/>
</linearGradient>
<path class="st5" d="M574.8,65.8c-9.6-9.6-20.4-18.3-32-24.1C513,26.8,430.3,26.3,374.3,27.8c-36.6,1-73.3,1.2-109.9,0.5
	c-52.2-1-125.6,3.6-152.7,16.8C99,51.2,86.3,58.2,76.3,69.8C50.7,99.3,36.9,135.4,36,172.5l-3.5,308.8l3,145.5c0,0,0.2,1.7,0.6,4.7
	c11.3,69.2,64.2,128.3,158.8,120.4H319h169.7c17.5,0,35-3.2,50.8-9.9c31.8-13.4,51.6-37.1,63.8-59.6c12.7-23.3,18.9-48.8,18.9-74.6
	V480.6V178.1C622.2,136.9,605.7,96.8,574.8,65.8z M553.6,549.9c-50.2,2.9-255.6,13-462.9-0.1c-5.5-0.3-9.7-4.6-9.8-9.8
	C80,482.6,74.8,170.7,81,164.5c6.8-6.8,470.7-10.7,477.4-5.3c6.1,4.8,6.7,317.7,6.8,379.1C565.2,544.4,560.1,549.5,553.6,549.9z"/>
<linearGradient id="SVGID_6_" gradientUnits="userSpaceOnUse" x1="33" y1="-449.4359" x2="618.7018" y2="-449.4359" gradientTransform="matrix(1 0 0 1 0 839.3228)">
	<stop  offset="0" style="stop-color:#7C7563"/>
	<stop  offset="6.340000e-02" style="stop-color:#4A4237"/>
	<stop  offset="0.4923" style="stop-color:#473F34"/>
	<stop  offset="0.7964" style="stop-color:#665A4A"/>
	<stop  offset="0.8671" style="stop-color:#675C4A"/>
	<stop  offset="0.9286" style="stop-color:#655A49"/>
	<stop  offset="0.9507" style="stop-color:#5E5443"/>
	<stop  offset="0.9665" style="stop-color:#534A3A"/>
	<stop  offset="0.9792" style="stop-color:#423B2D"/>
	<stop  offset="0.9845" style="stop-color:#383226"/>
</linearGradient>
<path class="st6" d="M571.9,69.5c-9.5-9.5-20.2-18.1-31.7-23.8C510.9,31,429.1,30.4,373.7,32c-36.2,1-72.4,1.2-108.7,0.5
	c-51.6-0.9-124.2,3.6-151,16.6c-12.5,6.1-25.1,13-35,24.4c-25.3,29.2-38.9,64.9-39.9,101.6L33,479.5L38.7,624c0,0,0.2,1.7,0.6,4.6
	c11.2,68.4,63.5,126.8,157,119.1H319h167.8c17.3,0,34.6-3.2,50.2-9.8c31.4-13.2,51-36.7,63-58.9c12.5-23,18.7-48.3,18.7-73.8V479.5
	v-299C618.9,139.7,602.5,100.1,571.9,69.5z M553.6,549.9c-50.2,2.9-255.6,13-462.9-0.1c-5.5-0.3-9.7-4.6-9.8-9.8
	C80,482.6,74.8,170.7,81,164.5c6.8-6.8,470.7-10.7,477.4-5.3c6.1,4.8,6.7,317.7,6.8,379.1C565.2,544.4,560.1,549.5,553.6,549.9z"/>
<linearGradient id="SVGID_7_" gradientUnits="userSpaceOnUse" x1="72.9153" y1="-488.21" x2="575" y2="-488.21" gradientTransform="matrix(1 0 0 1 0 839.3228)">
	<stop  offset="0" style="stop-color:#211D14"/>
	<stop  offset="2.810000e-02" style="stop-color:#383429"/>
	<stop  offset="3.700000e-02" style="stop-color:#2C2920"/>
	<stop  offset="5.190000e-02" style="stop-color:#211D17"/>
	<stop  offset="7.290000e-02" style="stop-color:#1A1711"/>
	<stop  offset="0.1313" style="stop-color:#181510"/>
	<stop  offset="0.4854" style="stop-color:#1F1E1A"/>
	<stop  offset="0.8981" style="stop-color:#423A2D"/>
	<stop  offset="0.9331" style="stop-color:#443C2E"/>
	<stop  offset="0.9468" style="stop-color:#4B4233"/>
	<stop  offset="0.9567" style="stop-color:#574D3C"/>
	<stop  offset="0.96" style="stop-color:#5D5240"/>
	<stop  offset="0.9855" style="stop-color:#332D22"/>
	<stop  offset="1" style="stop-color:#211D14"/>
</linearGradient>
<path class="st7" d="M568,144.4c-7-5.8-485-1.6-492,5.8c-6.4,6.8-1,330.4-0.1,392.7c0.1,5.6,4.5,10.3,10.1,10.6
	c213.6,14.1,425.4,3.2,477.1,0.1c6.7-0.4,11.9-6,11.9-12.7C574.9,474.2,574.3,149.6,568,144.4z M553.6,549.9
	c-50.2,2.9-255.6,13-462.9-0.1c-5.5-0.3-9.7-4.6-9.8-9.8C80,482.6,74.8,170.7,81,164.5c6.8-6.8,470.7-10.7,477.4-5.3
	c6.1,4.8,6.7,317.7,6.8,379.1C565.2,544.4,560.1,549.5,553.6,549.9z"/>
<g>
	<path class="st8" d="M315.7,556.3c37.3,0,72.2-0.5,103.4-1.2C387.9,555.8,353,556.3,315.7,556.3z"/>
	<path class="st8" d="M563.1,148.5c-6.8-5.7-475.2-1.6-482,5.7c-2.3,2.5-3.1,47.7-3,106.7c0-53.9,0.8-94.3,3-96.5
		c6.8-6.8,470.7-10.7,477.4-5.3c6.1,4.8,6.7,317.7,6.8,379.1c0,5.6-4.1,10.3-9.7,11.4c1-0.1,1.9-0.1,2.8-0.2
		c6.6-0.4,11.7-5.8,11.7-12.4C569.8,471.7,569.2,153.6,563.1,148.5z"/>
</g>
<path class="st9" d="M81,164.5c6.8-6.8,470.7-10.7,477.4-5.3c6.1,4.8,6.7,317.7,6.8,379.1c0,6.2-5.1,11.3-11.6,11.7
	c-50.2,2.9-255.6,13-462.9-0.1c-5.5-0.3-9.7-4.6-9.8-9.8C80,482.6,74.8,170.7,81,164.5z"/>
<linearGradient id="SVGID_8_" gradientUnits="userSpaceOnUse" x1="68.494" y1="-171.8448" x2="581.2296" y2="-171.8448" gradientTransform="matrix(1 0 0 1 0 839.3228)">
	<stop  offset="0" style="stop-color:#211D14"/>
	<stop  offset="2.810000e-02" style="stop-color:#383429"/>
	<stop  offset="3.700000e-02" style="stop-color:#2C2920"/>
	<stop  offset="5.190000e-02" style="stop-color:#211D17"/>
	<stop  offset="7.290000e-02" style="stop-color:#1A1711"/>
	<stop  offset="0.1313" style="stop-color:#181510"/>
	<stop  offset="0.4854" style="stop-color:#1F1E1A"/>
	<stop  offset="0.8981" style="stop-color:#423A2D"/>
	<stop  offset="0.9331" style="stop-color:#443C2E"/>
	<stop  offset="0.9468" style="stop-color:#4B4233"/>
	<stop  offset="0.9567" style="stop-color:#574D3C"/>
	<stop  offset="0.96" style="stop-color:#5D5240"/>
	<stop  offset="0.9855" style="stop-color:#332D22"/>
	<stop  offset="1" style="stop-color:#211D14"/>
</linearGradient>
<path class="st10" d="M289.8,647.6c8-10.1,20.3-16.6,34.2-16.6c12.1,0,23.1,5,31,13c5.2,5.3,11.8,9,19.1,10c7.3,1,15.7-0.2,21.1-8.4
	c11.3-17.2,21.3-20.1,36.7-20.1c13.4,0,27,5.8,33.6,15.5c1.6,2.3,3.6,4.3,6,5.8c5.9,3.5,12,2.6,17,0.5c5.4-2.3,9.9-6.3,13.2-11.2
	c8.2-12.1,22.3-19.8,38.1-19.1c22.4,1,40.5,19.3,41.4,41.7c0.9,24.8-18.9,45.2-43.5,45.2c-11.3,0-21.5-4.3-29.3-11.3
	c-3.3-3-7.1-5.5-11.2-7.1c-4.4-1.7-10.1-2.8-16-1.5c-5.4,1.2-10.1,4.6-13.4,9.1c-9.3,12.5-20.6,19.3-35.8,19.3
	c-11.1,0-21.3-4.2-29-11.1c-5-4.4-10.8-7.8-17.3-9.3c-8.3-2-18.6-2.1-25,6.1C350,709.4,339.3,718,324,718
	c-12.8,0-24.3-5.5-32.3-14.3c-5.2-5.8-12.2-9.9-19.9-11.1c-6.9-1-15-0.6-21.9,4.4c-15.5,11.2-19.9,15.4-33.2,15.4
	c-13.1,0-24.8-5.8-32.8-14.9c-3.8-4.3-8.4-7.8-13.8-9.7c-7.2-2.6-17.2-3.9-26.6,2.6c-17,11.9-19,13.5-30.5,13.6
	c-24,0.2-44.2-18.8-44.5-42.8C68.1,636.9,87.7,617,112,617c14.2,0,25.5,3.6,34.5,16.7c3,4.4,7.1,8,12,10.2c1.9,0.8,3.7,1.4,5.4,1.8
	c7.9,1.7,15.9-1.2,21.5-7c7.9-8.2,19-13.2,31.2-13.2c14,0,23.4,3.2,33.3,15.6c4.6,5.8,10.9,9.9,18.1,11.3
	C281.9,654.9,289.8,647.6,289.8,647.6z"/>
<linearGradient id="SVGID_9_" gradientUnits="userSpaceOnUse" x1="68.5941" y1="-167.0965" x2="581.1296" y2="-167.0965" gradientTransform="matrix(1 0 0 1 0 839.3228)">
	<stop  offset="0" style="stop-color:#211D14"/>
	<stop  offset="2.810000e-02" style="stop-color:#383429"/>
	<stop  offset="3.700000e-02" style="stop-color:#2C2920"/>
	<stop  offset="5.190000e-02" style="stop-color:#211D17"/>
	<stop  offset="7.290000e-02" style="stop-color:#1A1711"/>
	<stop  offset="0.1313" style="stop-color:#181510"/>
	<stop  offset="0.4854" style="stop-color:#1F1E1A"/>
	<stop  offset="0.8981" style="stop-color:#423A2D"/>
	<stop  offset="0.9331" style="stop-color:#443C2E"/>
	<stop  offset="0.9468" style="stop-color:#4B4233"/>
	<stop  offset="0.9567" style="stop-color:#574D3C"/>
	<stop  offset="0.96" style="stop-color:#5D5240"/>
	<stop  offset="0.9855" style="stop-color:#332D22"/>
	<stop  offset="1" style="stop-color:#211D14"/>
</linearGradient>
<path class="st11" d="M289.8,654.3c8-9.1,20.3-15,34.2-15c12.1,0,23.1,4.5,31,11.7c5.2,4.8,11.8,8.1,19.1,9c7.3,0.9,15.7-0.2,21-7.6
	c11.3-15.6,21.3-18.2,36.7-18.2c13.4,0,27,5.3,33.6,14c1.6,2.1,3.6,3.9,6,5.2c5.9,3.2,12,2.4,17,0.5c5.4-2,9.9-5.7,13.2-10.1
	c8.2-10.9,22.3-18,38.1-17.3c22.4,0.9,40.5,17.5,41.4,37.8c0.9,22.4-18.9,40.9-43.5,40.9c-11.3,0-21.5-3.9-29.3-10.2
	c-3.3-2.7-7.1-5-11.2-6.4c-4.4-1.5-10.1-2.6-16-1.4c-5.4,1.1-10.1,4.2-13.4,8.2c-9.3,11.3-20.6,17.5-35.8,17.5
	c-11.1,0-21.3-3.8-29-10c-5-4-10.8-7-17.3-8.4c-8.2-1.8-18.6-1.9-25,5.5c-10.5,10.2-21.2,18-36.5,18c-12.8,0-24.3-5-32.3-13
	c-5.2-5.2-12.2-9-19.9-10c-6.9-0.9-15-0.5-21.9,4c-15.5,10.1-19.9,14-33.2,14c-13.1,0-24.8-5.2-32.8-13.5c-3.8-3.9-8.4-7-13.8-8.8
	c-7.2-2.4-17.2-3.6-26.6,2.3c-17,10.8-19,12.2-30.5,12.3c-24,0.2-44.2-17-44.5-38.7c-0.4-22,19.2-40,43.5-40
	c14.2,0,25.5,3.3,34.5,15.1c3,4,7.1,7.3,12,9.3c1.9,0.8,3.7,1.3,5.4,1.6c7.9,1.5,15.9-1.1,21.5-6.3c7.9-7.4,19-12,31.2-12
	c14,0,23.4,2.9,33.3,14.1c4.6,5.2,10.9,9,18.1,10.2C281.9,660.9,289.8,654.3,289.8,654.3z"/>
<linearGradient id="SVGID_10_" gradientUnits="userSpaceOnUse" x1="76.7733" y1="-171.7424" x2="577.4097" y2="-171.7424" gradientTransform="matrix(1 0 0 1 0 839.3228)">
	<stop  offset="0" style="stop-color:#322B23"/>
	<stop  offset="9.540000e-02" style="stop-color:#322B23"/>
	<stop  offset="0.176" style="stop-color:#50463A"/>
	<stop  offset="0.25" style="stop-color:#322B23"/>
	<stop  offset="0.3411" style="stop-color:#322B23"/>
	<stop  offset="0.3895" style="stop-color:#423A2F"/>
	<stop  offset="0.435" style="stop-color:#322B23"/>
	<stop  offset="0.5485" style="stop-color:#484035"/>
	<stop  offset="0.6005" style="stop-color:#5A5042"/>
	<stop  offset="0.644" style="stop-color:#322B23"/>
	<stop  offset="0.7742" style="stop-color:#322B23"/>
	<stop  offset="0.8105" style="stop-color:#5A513F"/>
	<stop  offset="0.865" style="stop-color:#322B23"/>
	<stop  offset="0.9845" style="stop-color:#383226"/>
</linearGradient>
<path class="st12" d="M290.6,651.4c7.8-8.2,19.8-13.5,33.4-13.5c11.8,0,22.5,4,30.2,10.5c5.1,4.3,11.5,7.3,18.7,8.1
	c7.1,0.8,15.3-0.2,20.6-6.8c11.1-14,20.8-16.3,35.8-16.3c13.1,0,26.3,4.7,32.8,12.6c1.5,1.9,3.5,3.5,5.8,4.7
	c5.8,2.8,11.8,2.1,16.6,0.5c5.3-1.8,9.6-5.1,12.8-9.1c8-9.8,21.8-16.1,37.2-15.5c21.9,0.8,39.6,15.7,40.4,33.9
	c0.9,20.1-18.4,36.7-42.4,36.7c-11,0-21-3.5-28.6-9.2c-3.2-2.4-6.9-4.5-11-5.8c-4.3-1.4-9.8-2.3-15.7-1.2c-5.3,1-9.8,3.8-13.1,7.4
	c-9.1,10.2-20.1,15.7-35,15.7c-10.9,0-20.8-3.4-28.3-9c-4.8-3.6-10.6-6.3-16.9-7.6c-8.1-1.6-18.1-1.7-24.4,4.9
	c-10.3,9.2-20.7,16.2-35.7,16.2c-12.5,0-23.7-4.5-31.5-11.6c-5.1-4.7-11.9-8.1-19.4-9c-6.7-0.8-14.6-0.5-21.4,3.6
	c-15.2,9.1-19.4,12.5-32.5,12.5c-12.8,0-24.2-4.7-32-12.1c-3.7-3.5-8.2-6.3-13.5-7.9c-7.1-2.1-16.8-3.2-25.9,2.1
	c-16.6,9.7-18.6,10.9-29.8,11c-23.4,0.1-43.1-15.2-43.5-34.7c-0.4-19.8,18.8-35.9,42.5-35.9c13.9,0,24.9,3,33.7,13.5
	c3,3.6,7,6.5,11.7,8.3c1.8,0.7,3.6,1.2,5.3,1.5c7.7,1.4,15.5-1,21-5.7c7.7-6.6,18.5-10.8,30.5-10.8c13.7,0,22.9,2.6,32.5,12.7
	c4.5,4.7,10.6,8.1,17.7,9.2C282.9,657.3,290.6,651.4,290.6,651.4z"/>
<g>
	<path class="st13" d="M217.2,698.6c-16.8,0-30.5-13.7-30.5-30.5s13.7-30.5,30.5-30.5s30.5,13.7,30.5,30.5
		C247.7,684.9,234,698.6,217.2,698.6z"/>
	<g>
		<path class="st14" d="M243.2,652.1c10.8,20.8-5.2,42.3-25.9,44.4c-11.2,1.1-27.4-9-30.4-23.2c2.6,14.4,14.1,25.7,29,25.7
			c16.8,0,32.2-12.7,31.7-31.7C247.6,661.7,245.8,656.7,243.2,652.1z"/>
		<path class="st15" d="M188.3,671c0-16.8,12.8-31.6,29.7-31.6c10,0,20.7,4.6,27.5,17.3c-4.5-11.2-15.5-19.2-28.4-19.2
			c-16.9,0-30.5,13.7-30.5,30.5c0,6.8,2.4,13.9,6.2,19C190.3,683,188.3,675,188.3,671z"/>
	</g>
</g>
<g>
	<path class="st13" d="M115.1,689.9c-16.8,0-30.5-13.7-30.5-30.5s13.7-30.5,30.5-30.5s30.5,13.7,30.5,30.5S131.9,689.9,115.1,689.9z
		"/>
	<g>
		<path class="st14" d="M141.1,643.4c10.8,20.8-5.1,42.3-25.9,44.4c-11.2,1.1-27.4-9-30.4-23.2c2.6,14.4,14.1,25.7,29,25.7
			c16.8,0,32.2-12.7,31.7-31.7C145.5,653,143.7,648,141.1,643.4z"/>
		<path class="st15" d="M86.2,662.3c0-16.8,12.8-31.6,29.7-31.6c10,0,20.6,4.6,27.5,17.3c-4.5-11.2-15.5-19.2-28.4-19.2
			c-16.9,0-30.5,13.7-30.5,30.5c0,6.8,2.4,13.9,6.2,19C88.2,674.3,86.2,666.3,86.2,662.3z"/>
	</g>
</g>
<g>
	<path class="st13" d="M322.7,701.9c-16.8,0-30.5-13.7-30.5-30.5s13.7-30.5,30.5-30.5s30.5,13.7,30.5,30.5S339.5,701.9,322.7,701.9z
		"/>
	<g>
		<path class="st14" d="M348.7,655.4c10.8,20.8-5.2,42.3-25.8,44.4c-11.2,1.1-27.4-9-30.3-23.2c2.7,14.4,14.1,25.7,29,25.7
			c16.8,0,32.2-12.7,31.7-31.7C353.1,665,351.3,660,348.7,655.4z"/>
		<path class="st15" d="M293.7,674.3c0-16.8,12.8-31.6,29.7-31.6c10,0,20.7,4.6,27.5,17.3c-4.5-11.2-15.5-19.2-28.3-19.2
			c-16.9,0-30.5,13.7-30.5,30.5c0,6.8,2.4,13.9,6.2,19C295.8,686.3,293.7,678.3,293.7,674.3z"/>
	</g>
</g>
<g>
	<path class="st13" d="M430.9,698.6c-16.8,0-30.5-13.7-30.5-30.5s13.7-30.5,30.5-30.5s30.5,13.7,30.5,30.5
		C461.4,684.9,447.7,698.6,430.9,698.6z"/>
	<g>
		<path class="st14" d="M456.9,652.1c10.8,20.8-5.2,42.3-25.8,44.4c-11.2,1.1-27.4-9-30.3-23.2c2.7,14.4,14.1,25.7,29,25.7
			c16.8,0,32.2-12.7,31.7-31.7C461.2,661.7,459.4,656.6,456.9,652.1z"/>
		<path class="st15" d="M401.9,670.9c0-16.8,12.8-31.6,29.7-31.6c10,0,20.7,4.6,27.5,17.3c-4.5-11.2-15.5-19.2-28.3-19.2
			c-16.9,0-30.5,13.7-30.5,30.5c0,6.8,2.4,13.9,6.2,19C403.9,682.9,401.9,674.9,401.9,670.9z"/>
	</g>
</g>
<g>
	<path class="st13" d="M535.7,688.6c-16.8,0-30.5-13.7-30.5-30.5s13.7-30.5,30.5-30.5s30.5,13.7,30.5,30.5
		C566.2,675,552.5,688.6,535.7,688.6z"/>
	<g>
		<path class="st14" d="M561.7,642.1c10.8,20.8-5.2,42.3-25.8,44.4c-11.2,1.1-27.4-9-30.3-23.2c2.7,14.4,14.1,25.7,29,25.7
			c16.8,0,32.2-12.7,31.7-31.7C566.1,651.8,564.3,646.7,561.7,642.1z"/>
		<path class="st15" d="M506.8,661c0-16.8,12.8-31.6,29.7-31.6c10,0,20.7,4.6,27.5,17.3c-4.5-11.2-15.5-19.2-28.3-19.2
			c-16.9,0-30.5,13.7-30.5,30.5c0,6.8,2.4,13.9,6.2,19C508.8,673,506.8,665,506.8,661z"/>
	</g>
</g>
<g>
	<path class="st16" d="M103.5,647.5h10v3.9H108v5.9h5.2v3.7H108v9.5h-4.5V647.5L103.5,647.5z"/>
	<path class="st16" d="M120.9,652.6L120.9,652.6l-3.8,1.9l-0.8-3.5l5.1-2.6h3.9v22.1h-4.4L120.9,652.6L120.9,652.6z"/>
</g>
<g>
	<path class="st16" d="M205.2,655.6h10v3.9h-5.5v5.9h5.2v3.7h-5.2v9.5h-4.5V655.6L205.2,655.6z"/>
	<path class="st16" d="M217.4,678.5v-3l2.2-2.8c2.9-3.6,5.2-6.7,5.2-9.8c0-1.8-1-3-2.8-3c-1.4,0-2.5,0.6-3.3,1.1l-0.8-3.4
		c1-0.7,2.9-1.4,4.9-1.4c4.8,0,6.4,3.2,6.4,6.4c0,4.2-2.6,7.5-5.1,10.4l-1.3,1.6v0.1h6.8v3.9L217.4,678.5L217.4,678.5z"/>
</g>
<g>
	<path class="st16" d="M310.6,658.6h10v3.9h-5.5v5.9h5.2v3.7h-5.2v9.5h-4.5V658.6L310.6,658.6z"/>
	<path class="st16" d="M323.4,677.3c0.9,0.5,2.1,0.9,3.3,0.9c2.2,0,3.4-1.3,3.4-3.2c0-2.5-1.9-3.5-4.2-3.5h-0.6v-3.2h0.4
		c1.6,0,3.7-0.7,3.7-2.8c0-1.6-1-2.5-2.6-2.5c-1,0-2,0.3-2.8,0.9l-0.6-3.3c0.9-0.6,2.7-1.2,4.5-1.2c3.9,0,5.8,2.5,5.8,5.3
		c0,2.2-1.2,4-3.2,5v0.1c2.1,0.7,3.8,2.6,3.8,5.6c0,3.4-2.6,6.7-7.4,6.7c-1.8,0-3.4-0.4-4.3-1L323.4,677.3z"/>
</g>
<g>
	<path class="st16" d="M417.6,655.9h10v3.9h-5.5v5.9h5.2v3.7h-5.2v9.5h-4.5V655.9L417.6,655.9z"/>
	<path class="st16" d="M436.9,678.8v-5.3h-7.6v-3l7.2-13.8h4.3V670h2.2v3.6h-2.2v5.3L436.9,678.8L436.9,678.8z M436.9,670v-4.5
		c0-1.2,0.1-2.5,0.2-3.6H437c-0.5,1.2-1,2.2-1.6,3.4l-2.3,4.7v0.1h3.8V670z"/>
</g>
<g>
	<path class="st16" d="M523.2,645.2h10v3.9h-5.5v5.9h5.2v3.7h-5.2v9.5h-4.5V645.2L523.2,645.2z"/>
	<path class="st16" d="M546.9,649.9H541l-0.5,4c0.2,0,0.4,0,0.7,0c1,0,2.9,0.5,4.2,1.7c1.2,1.2,1.9,2.9,1.9,5.1
		c0,4.3-2.8,7.8-7.7,7.8c-1.6,0-3.3-0.4-4.2-0.9l0.7-3.5c0.8,0.4,2,0.8,3.2,0.8c2.2,0,3.6-1.4,3.6-3.7c0-3-2.2-4-4.8-4
		c-0.6,0-1.1,0-1.6,0.1l1.2-11.1h9.2L546.9,649.9L546.9,649.9z"/>
</g>
<g id="Layer_4">
	<g>
		<path class="st17" d="M93.4,596h7.4v2.2h-4.7v2.8h4.4v2.2h-4.4v4.9h-2.7C93.4,608.1,93.4,596,93.4,596z"/>
		<path class="st17" d="M109.9,598.4c-0.3,0-0.6,0-1.1,0c-2.4,0.2-3.5,1.4-3.8,2.8l0,0c0.6-0.6,1.4-0.9,2.5-0.9c2,0,3.6,1.4,3.6,3.8
			c0,2.3-1.8,4.2-4.3,4.2c-3.1,0-4.6-2.3-4.6-5.1c0-2.2,0.8-4,2.1-5.2c1.2-1.1,2.7-1.6,4.5-1.7c0.5,0,0.8,0,1.1,0L109.9,598.4z
			 M108.4,604.3c0-1.1-0.6-2-1.7-2c-0.7,0-1.4,0.5-1.6,1c-0.1,0.2-0.1,0.4-0.1,0.7c0,1.2,0.6,2.4,1.9,2.4
			C107.8,606.3,108.4,605.5,108.4,604.3z"/>
		<path class="st18" d="M118.5,608.2v-5l-3.8-7.2h3.1l1.2,2.9c0.4,0.9,0.6,1.5,0.9,2.3l0,0c0.3-0.8,0.6-1.5,0.9-2.3l1.2-2.9h3.1
			l-4,7.1v5.1L118.5,608.2L118.5,608.2z"/>
		<path class="st18" d="M125.8,602.3v-1.7h9.3v1.7H125.8z M125.8,606v-1.7h9.3v1.7H125.8z"/>
	</g>
	<g>
		<path class="st17" d="M173.5,596h7.4v2.2h-4.7v2.8h4.4v2.2h-4.4v4.9h-2.7V596z"/>
		<path class="st17" d="M190.9,596.5v1.7l-4.8,10h-2.9l4.8-9.4l0,0h-5.4v-2.2L190.9,596.5L190.9,596.5z"/>
		<path class="st18" d="M197.8,608.2L195,596h2.9l0.9,5c0.3,1.5,0.5,3,0.7,4.2l0,0c0.2-1.3,0.5-2.8,0.8-4.3l1-5h2.9l1,5.1
			c0.3,1.4,0.5,2.7,0.6,4.1l0,0c0.2-1.3,0.5-2.8,0.7-4.2l1-5h2.8l-3.1,12.1h-3l-1-5.2c-0.2-1.2-0.4-2.4-0.6-3.7l0,0
			c-0.2,1.4-0.4,2.5-0.7,3.7l-1.2,5.2L197.8,608.2L197.8,608.2z"/>
		<path class="st18" d="M214.6,596v12.1h-2.7V596H214.6z"/>
		<path class="st18" d="M217,608.2V596h3.2l2.5,4.5c0.7,1.3,1.4,2.8,2,4.2l0,0c-0.2-1.6-0.2-3.2-0.2-5.1V596h2.5v12.1h-2.9l-2.6-4.7
			c-0.7-1.3-1.5-2.9-2.1-4.3h-0.1c0.1,1.6,0.1,3.3,0.1,5.3v3.7L217,608.2L217,608.2z"/>
		<path class="st18" d="M229.4,596.2c1-0.2,2.3-0.3,3.7-0.3c2.3,0,3.8,0.4,5,1.3c1.3,0.9,2,2.4,2,4.6c0,2.3-0.8,3.9-2,4.9
			c-1.3,1.1-3.2,1.6-5.6,1.6c-1.4,0-2.4-0.1-3.1-0.2L229.4,596.2L229.4,596.2z M232.2,606.1c0.2,0,0.6,0,1,0c2.5,0,4.1-1.3,4.1-4.2
			c0-2.5-1.5-3.8-3.8-3.8c-0.6,0-1,0-1.2,0.1v7.9H232.2z"/>
		<path class="st18" d="M253.1,602c0,4-2.4,6.4-6,6.4s-5.7-2.7-5.7-6.2c0-3.6,2.3-6.3,5.9-6.3C251,595.8,253.1,598.6,253.1,602z
			 M244.3,602.1c0,2.4,1.1,4,3,4c1.8,0,2.9-1.8,2.9-4.1c0-2.2-1-4.1-2.9-4.1C245.4,598,244.3,599.8,244.3,602.1z"/>
		<path class="st18" d="M256.7,608.2l-2.9-12.1h2.9l0.9,5c0.3,1.5,0.5,3,0.7,4.2l0,0c0.2-1.3,0.5-2.8,0.8-4.3l1-5h2.9l1,5.1
			c0.3,1.4,0.5,2.7,0.6,4.1l0,0c0.2-1.3,0.5-2.8,0.7-4.2l1-5h2.8l-3.1,12.1h-3l-1-5.2c-0.2-1.2-0.4-2.4-0.6-3.7l0,0
			c-0.2,1.4-0.4,2.5-0.7,3.7l-1.2,5.2L256.7,608.2L256.7,608.2z"/>
	</g>
	<g>
		<path class="st17" d="M286.9,596h7.4v2.2h-4.7v2.8h4.4v2.2h-4.4v4.9h-2.7L286.9,596L286.9,596z"/>
		<path class="st17" d="M295.8,605.1c0-1.4,0.8-2.4,2.1-2.9l0,0c-1.1-0.6-1.7-1.5-1.7-2.6c0-2,1.8-3.3,4.1-3.3c2.7,0,3.9,1.6,3.9,3
			c0,1-0.5,2-1.7,2.6l0,0c1.1,0.4,2.2,1.4,2.2,2.9c0,2.1-1.8,3.6-4.5,3.6C297.2,608.4,295.8,606.7,295.8,605.1z M301.9,605
			c0-1-0.8-1.6-1.8-1.9c-0.9,0.2-1.4,0.9-1.4,1.7s0.6,1.7,1.7,1.7C301.2,606.5,301.9,605.8,301.9,605z M298.8,599.5
			c0,0.8,0.7,1.3,1.7,1.6c0.6-0.2,1.2-0.8,1.2-1.5s-0.4-1.5-1.4-1.5C299.3,598.1,298.8,598.7,298.8,599.5z"/>
		<path class="st18" d="M320.2,607.6c-0.8,0.3-2.5,0.7-4,0.7c-2.2,0-3.8-0.5-4.9-1.6c-1.1-1-1.7-2.6-1.7-4.4c0-4,3-6.3,6.9-6.3
			c1.6,0,2.8,0.3,3.4,0.6l-0.6,2.2c-0.7-0.3-1.5-0.5-2.8-0.5c-2.3,0-4,1.3-4,3.9c0,2.5,1.6,4,3.8,4c0.6,0,1.1-0.1,1.3-0.2v-2.5h-1.9
			v-2.1h4.5L320.2,607.6L320.2,607.6z"/>
		<path class="st18" d="M322.3,596.2c0.9-0.2,2.2-0.3,3.7-0.3c1.8,0,3.1,0.3,3.9,1c0.7,0.6,1.1,1.4,1.1,2.5c0,1.5-1.1,2.6-2.1,3v0.1
			c0.8,0.3,1.3,1.1,1.6,2.3c0.4,1.4,0.7,3,1,3.4h-2.8c-0.2-0.3-0.5-1.3-0.8-2.8s-0.8-1.9-2-1.9H325v4.8h-2.7V596.2z M325,601.4h1.1
			c1.4,0,2.2-0.7,2.2-1.8s-0.8-1.7-2-1.7c-0.7,0-1,0-1.2,0.1v3.4H325z"/>
		<path class="st18" d="M336,605l-0.9,3.1h-2.8L336,596h3.6l3.8,12.1h-3l-0.9-3.1H336z M339.1,603l-0.8-2.6
			c-0.2-0.7-0.4-1.6-0.6-2.3l0,0c-0.2,0.7-0.4,1.6-0.6,2.3l-0.7,2.6H339.1z"/>
		<path class="st18" d="M345,596.2c0.8-0.1,2-0.3,3.7-0.3s2.9,0.3,3.7,1c0.8,0.6,1.3,1.6,1.3,2.8s-0.4,2.2-1.1,2.9
			c-0.9,0.9-2.3,1.3-3.9,1.3c-0.4,0-0.7,0-0.9-0.1v4.3H345V596.2L345,596.2z M347.7,601.7c0.2,0,0.5,0.1,0.9,0.1
			c1.5,0,2.4-0.7,2.4-2c0-1.1-0.8-1.8-2.2-1.8c-0.5,0-0.9,0-1.1,0.1L347.7,601.7L347.7,601.7z"/>
		<path class="st18" d="M358.2,596v4.7h4.5V596h2.7v12.1h-2.7V603h-4.5v5.1h-2.7V596H358.2z"/>
	</g>
	<g>
		<path class="st18" d="M404.7,598.3h-3.3V596h9.3v2.3h-3.3v9.8h-2.7V598.3z"/>
		<path class="st18" d="M412.3,596.2c0.7-0.1,2.2-0.3,3.5-0.3c1.7,0,2.7,0.2,3.6,0.7c0.8,0.5,1.5,1.3,1.5,2.4c0,1.1-0.6,2.1-2,2.6
			l0,0c1.4,0.4,2.4,1.4,2.4,3c0,1.1-0.5,2-1.3,2.6c-0.9,0.7-2.4,1.1-4.8,1.1c-1.3,0-2.3-0.1-3-0.2L412.3,596.2L412.3,596.2z
			 M415,600.8h0.9c1.5,0,2.2-0.6,2.2-1.5s-0.7-1.4-1.9-1.4c-0.6,0-0.9,0-1.2,0.1V600.8L415,600.8z M415,606.2c0.3,0,0.6,0,1,0
			c1.2,0,2.3-0.5,2.3-1.8c0-1.2-1.1-1.7-2.5-1.7H415V606.2L415,606.2z"/>
		<path class="st18" d="M423.1,596h2.7v9.8h4.8v2.3H423V596H423.1z"/>
		<path class="st18" d="M432.4,605.3c0.7,0.4,1.9,0.8,3,0.8c1.3,0,1.9-0.5,1.9-1.3s-0.6-1.2-2-1.7c-2-0.7-3.3-1.8-3.3-3.6
			c0-2.1,1.7-3.6,4.6-3.6c1.4,0,2.4,0.3,3.1,0.6l-0.6,2.2c-0.5-0.2-1.3-0.6-2.5-0.6s-1.8,0.5-1.8,1.2c0,0.8,0.7,1.1,2.2,1.7
			c2.2,0.8,3.1,1.9,3.1,3.6c0,2-1.5,3.8-4.9,3.8c-1.4,0-2.8-0.4-3.4-0.8L432.4,605.3z"/>
		<path class="st18" d="M449.3,603h-4.5v2.9h5v2.2H442V596h7.5v2.2h-4.7v2.5h4.5V603z"/>
		<path class="st18" d="M454.1,598.3h-3.3V596h9.3v2.3h-3.3v9.8h-2.7V598.3z"/>
	</g>
	<g>
		<path class="st18" d="M516.4,598.3h-3.3V596h9.3v2.3h-3.3v9.8h-2.7V598.3z"/>
		<path class="st18" d="M525.4,605l-0.9,3.1h-2.8l3.7-12.1h3.6l3.8,12.1h-3l-0.9-3.1H525.4z M528.5,603l-0.8-2.6
			c-0.2-0.7-0.4-1.6-0.6-2.3l0,0c-0.2,0.7-0.4,1.6-0.6,2.3l-0.7,2.6H528.5z"/>
		<path class="st18" d="M534.4,596.2c0.7-0.1,2.2-0.3,3.5-0.3c1.7,0,2.7,0.2,3.6,0.7c0.8,0.5,1.5,1.3,1.5,2.4c0,1.1-0.6,2.1-2,2.6
			l0,0c1.4,0.4,2.4,1.4,2.4,3c0,1.1-0.5,2-1.3,2.6c-0.9,0.7-2.4,1.1-4.8,1.1c-1.3,0-2.3-0.1-3-0.2L534.4,596.2L534.4,596.2z
			 M537.1,600.8h0.9c1.5,0,2.2-0.6,2.2-1.5s-0.7-1.4-1.9-1.4c-0.6,0-0.9,0-1.2,0.1V600.8L537.1,600.8z M537.1,606.2c0.3,0,0.6,0,1,0
			c1.2,0,2.3-0.5,2.3-1.8c0-1.2-1.1-1.7-2.5-1.7H537L537.1,606.2L537.1,606.2z"/>
		<path class="st18" d="M545.3,596h2.7v9.8h4.8v2.3h-7.6L545.3,596L545.3,596z"/>
		<path class="st18" d="M561.7,603h-4.5v2.9h5v2.2h-7.7V596h7.5v2.2h-4.7v2.5h4.5L561.7,603L561.7,603z"/>
	</g>
</g>
</svg>
