<?xml version="1.0" encoding="UTF-8" standalone="no"?>
<!DOCTYPE svg PUBLIC "-//W3C//DTD SVG 1.1//EN" "http://www.w3.org/Graphics/SVG/1.1/DTD/svg11.dtd">
<svg width="100%" height="100%" viewBox="0 0 530 480" version="1.1" xmlns="http://www.w3.org/2000/svg" xmlns:xlink="http://www.w3.org/1999/xlink" xml:space="preserve" xmlns:serif="http://www.serif.com/" style="fill-rule:evenodd;clip-rule:evenodd;stroke-linejoin:round;stroke-miterlimit:2;">
    <g transform="matrix(1,0,0,0.795999,-65.6,2.42766)">
        <g transform="matrix(1,0,0,1,6,-137.318)">
            <path d="M568,144.4C561,138.6 83,142.8 76,150.2C69.6,157 75,483.113 75.9,545.413C76,551.013 80.4,559.481 86,559.781C302.668,562.148 415.79,562.292 565.2,558.869C571.906,558.715 575,547.6 575,540.9C574.9,474.2 574.3,149.6 568,144.4ZM552.439,548.082C345.96,553.783 301.628,554.552 90.7,549.8C85.2,549.5 81,545.2 80.9,540C80,482.6 74.8,170.7 81,164.5C87.8,157.7 551.7,153.8 558.4,159.2C564.5,164 565.1,476.9 565.2,538.3C565.2,544.4 558.939,547.682 552.439,548.082Z" style="fill:url(#_Linear1);fill-rule:nonzero;"/>
        </g>
        <g transform="matrix(1,0,0,1,6,-137.318)">
            <path d="M315.7,556.3C353,556.3 387.9,555.8 419.1,555.1C387.9,555.8 353,556.3 315.7,556.3Z" style="fill:rgb(30,28,17);fill-rule:nonzero;"/>
        </g>
        <g transform="matrix(1,0,0,1,6,-137.318)">
            <path d="M563.1,148.5C556.3,142.8 87.9,146.9 81.1,154.2C78.8,156.7 78,201.9 78.1,260.9C78.1,207 78.9,166.6 81.1,164.4C87.9,157.6 551.8,153.7 558.5,159.1C564.6,163.9 565.2,476.8 565.3,538.2C565.3,543.8 561.2,548.5 555.6,549.6C556.6,549.5 557.5,549.5 558.4,549.4C565,549 570.1,543.6 570.1,537C569.8,471.7 569.2,153.6 563.1,148.5Z" style="fill:rgb(30,28,17);fill-rule:nonzero;"/>
        </g>
    </g>
    <g transform="matrix(1,0,0,0.795999,-59.6,-106.877)">
        <path d="M81,164.5C87.8,157.7 551.7,153.8 558.4,159.2C564.5,164 565.1,476.9 565.2,538.3C565.2,544.5 560.1,549.6 553.6,550C409.638,551.866 310.152,555.417 90.7,549.9C85.2,549.6 81,545.3 80.9,540.1C80,482.6 74.8,170.7 81,164.5Z" style="fill:rgb(118,124,88);fill-opacity:0.65;fill-rule:nonzero;"/>
    </g>
    <g transform="matrix(1,0,0,1,-59.6,-247.78)">
        <path d="M289.8,647.6C297.8,637.5 310.1,631 324,631C336.1,631 347.1,636 355,644C360.2,649.3 366.8,653 374.1,654C381.4,655 389.8,653.8 395.2,645.6C406.5,628.4 416.5,625.5 431.9,625.5C445.3,625.5 458.9,631.3 465.5,641C467.1,643.3 469.1,645.3 471.5,646.8C477.4,650.3 483.5,649.4 488.5,647.3C493.9,645 498.4,641 501.7,636.1C509.9,624 524,616.3 539.8,617C562.2,618 580.3,636.3 581.2,658.7C582.1,683.5 562.3,703.9 537.7,703.9C526.4,703.9 516.2,699.6 508.4,692.6C505.1,689.6 501.3,687.1 497.2,685.5C492.8,683.8 487.1,682.7 481.2,684C475.8,685.2 471.1,688.6 467.8,693.1C458.5,705.6 447.2,712.4 432,712.4C420.9,712.4 410.7,708.2 403,701.3C398,696.9 392.2,693.5 385.7,692C377.4,690 367.1,689.9 360.7,698.1C350,709.4 339.3,718 324,718C311.2,718 299.7,712.5 291.7,703.7C286.5,697.9 279.5,693.8 271.8,692.6C264.9,691.6 256.8,692 249.9,697C234.4,708.2 230,712.4 216.7,712.4C203.6,712.4 191.9,706.6 183.9,697.5C180.1,693.2 175.5,689.7 170.1,687.8C162.9,685.2 152.9,683.9 143.5,690.4C126.5,702.3 124.5,703.9 113,704C89,704.2 68.8,685.2 68.5,661.2C68.1,636.9 87.7,617 112,617C126.2,617 137.5,620.6 146.5,633.7C149.5,638.1 153.6,641.7 158.5,643.9C160.4,644.7 162.2,645.3 163.9,645.7C171.8,647.4 179.8,644.5 185.4,638.7C193.3,630.5 204.4,625.5 216.6,625.5C230.6,625.5 240,628.7 249.9,641.1C254.5,646.9 260.8,651 268,652.4C281.9,654.9 289.8,647.6 289.8,647.6Z" style="fill:url(#_Linear2);fill-rule:nonzero;"/>
    </g>
    <g transform="matrix(1,0,0,1,-59.6,-247.78)">
        <path d="M289.8,654.3C297.8,645.2 310.1,639.3 324,639.3C336.1,639.3 347.1,643.8 355,651C360.2,655.8 366.8,659.1 374.1,660C381.4,660.9 389.8,659.8 395.1,652.4C406.4,636.8 416.4,634.2 431.8,634.2C445.2,634.2 458.8,639.5 465.4,648.2C467,650.3 469,652.1 471.4,653.4C477.3,656.6 483.4,655.8 488.4,653.9C493.8,651.9 498.3,648.2 501.6,643.8C509.8,632.9 523.9,625.8 539.7,626.5C562.1,627.4 580.2,644 581.1,664.3C582,686.7 562.2,705.2 537.6,705.2C526.3,705.2 516.1,701.3 508.3,695C505,692.3 501.2,690 497.1,688.6C492.7,687.1 487,686 481.1,687.2C475.7,688.3 471,691.4 467.7,695.4C458.4,706.7 447.1,712.9 431.9,712.9C420.8,712.9 410.6,709.1 402.9,702.9C397.9,698.9 392.1,695.9 385.6,694.5C377.4,692.7 367,692.6 360.6,700C350.1,710.2 339.4,718 324.1,718C311.3,718 299.8,713 291.8,705C286.6,699.8 279.6,696 271.9,695C265,694.1 256.9,694.5 250,699C234.5,709.1 230.1,713 216.8,713C203.7,713 192,707.8 184,699.5C180.2,695.6 175.6,692.5 170.2,690.7C163,688.3 153,687.1 143.6,693C126.6,703.8 124.6,705.2 113.1,705.3C89.1,705.5 68.9,688.3 68.6,666.6C68.2,644.6 87.8,626.6 112.1,626.6C126.3,626.6 137.6,629.9 146.6,641.7C149.6,645.7 153.7,649 158.6,651C160.5,651.8 162.3,652.3 164,652.6C171.9,654.1 179.9,651.5 185.5,646.3C193.4,638.9 204.5,634.3 216.7,634.3C230.7,634.3 240.1,637.2 250,648.4C254.6,653.6 260.9,657.4 268.1,658.6C281.9,660.9 289.8,654.3 289.8,654.3Z" style="fill:url(#_Linear3);fill-rule:nonzero;"/>
    </g>
    <g transform="matrix(1,0,0,1,-59.6,-247.78)">
        <path d="M290.6,651.4C298.4,643.2 310.4,637.9 324,637.9C335.8,637.9 346.5,641.9 354.2,648.4C359.3,652.7 365.7,655.7 372.9,656.5C380,657.3 388.2,656.3 393.5,649.7C404.6,635.7 414.3,633.4 429.3,633.4C442.4,633.4 455.6,638.1 462.1,646C463.6,647.9 465.6,649.5 467.9,650.7C473.7,653.5 479.7,652.8 484.5,651.2C489.8,649.4 494.1,646.1 497.3,642.1C505.3,632.3 519.1,626 534.5,626.6C556.4,627.4 574.1,642.3 574.9,660.5C575.8,680.6 556.5,697.2 532.5,697.2C521.5,697.2 511.5,693.7 503.9,688C500.7,685.6 497,683.5 492.9,682.2C488.6,680.8 483.1,679.9 477.2,681C471.9,682 467.4,684.8 464.1,688.4C455,698.6 444,704.1 429.1,704.1C418.2,704.1 408.3,700.7 400.8,695.1C396,691.5 390.2,688.8 383.9,687.5C375.8,685.9 365.8,685.8 359.5,692.4C349.2,701.6 338.8,708.6 323.8,708.6C311.3,708.6 300.1,704.1 292.3,697C287.2,692.3 280.4,688.9 272.9,688C266.2,687.2 258.3,687.5 251.5,691.6C236.3,700.7 232.1,704.1 219,704.1C206.2,704.1 194.8,699.4 187,692C183.3,688.5 178.8,685.7 173.5,684.1C166.4,682 156.7,680.9 147.6,686.2C131,695.9 129,697.1 117.8,697.2C94.4,697.3 74.7,682 74.3,662.5C73.9,642.7 93.1,626.6 116.8,626.6C130.7,626.6 141.7,629.6 150.5,640.1C153.5,643.7 157.5,646.6 162.2,648.4C164,649.1 165.8,649.6 167.5,649.9C175.2,651.3 183,648.9 188.5,644.2C196.2,637.6 207,633.4 219,633.4C232.7,633.4 241.9,636 251.5,646.1C256,650.8 262.1,654.2 269.2,655.3C282.9,657.3 290.6,651.4 290.6,651.4Z" style="fill:url(#_Linear4);fill-rule:nonzero;"/>
    </g>
    <g transform="matrix(1,0,0,1,-65.6,0)">
        <g transform="matrix(1,0,0,1,6,-247.78)">
            <path d="M217.2,698.6C200.4,698.6 186.7,684.9 186.7,668.1C186.7,651.3 200.4,637.6 217.2,637.6C234,637.6 247.7,651.3 247.7,668.1C247.7,684.9 234,698.6 217.2,698.6Z" style="fill:rgb(80,72,59);fill-rule:nonzero;"/>
        </g>
        <g transform="matrix(1,0,0,1,6,-247.78)">
            <path d="M243.2,652.1C254,672.9 238,694.4 217.3,696.5C206.1,697.6 189.9,687.5 186.9,673.3C189.5,687.7 201,699 215.9,699C232.7,699 248.1,686.3 247.6,667.3C247.6,661.7 245.8,656.7 243.2,652.1Z" style="fill:rgb(36,32,21);fill-rule:nonzero;"/>
            <path d="M188.3,671C188.3,654.2 201.1,639.4 218,639.4C228,639.4 238.7,644 245.5,656.7C241,645.5 230,637.5 217.1,637.5C200.2,637.5 186.6,651.2 186.6,668C186.6,674.8 189,681.9 192.8,687C190.3,683 188.3,675 188.3,671Z" style="fill:rgb(115,108,92);fill-rule:nonzero;"/>
        </g>
    </g>
    <g transform="matrix(1,0,0,1,-65.6,0)">
        <g transform="matrix(1,0,0,1,6,-247.78)">
            <path d="M115.1,689.9C98.3,689.9 84.6,676.2 84.6,659.4C84.6,642.6 98.3,628.9 115.1,628.9C131.9,628.9 145.6,642.6 145.6,659.4C145.6,676.2 131.9,689.9 115.1,689.9Z" style="fill:rgb(80,72,59);fill-rule:nonzero;"/>
        </g>
        <g transform="matrix(1,0,0,1,6,-247.78)">
            <path d="M141.1,643.4C151.9,664.2 136,685.7 115.2,687.8C104,688.9 87.8,678.8 84.8,664.6C87.4,679 98.9,690.3 113.8,690.3C130.6,690.3 146,677.6 145.5,658.6C145.5,653 143.7,648 141.1,643.4Z" style="fill:rgb(36,32,21);fill-rule:nonzero;"/>
            <path d="M86.2,662.3C86.2,645.5 99,630.7 115.9,630.7C125.9,630.7 136.5,635.3 143.4,648C138.9,636.8 127.9,628.8 115,628.8C98.1,628.8 84.5,642.5 84.5,659.3C84.5,666.1 86.9,673.2 90.7,678.3C88.2,674.3 86.2,666.3 86.2,662.3Z" style="fill:rgb(115,108,92);fill-rule:nonzero;"/>
        </g>
    </g>
    <g transform="matrix(1,0,0,1,-65.6,0)">
        <g transform="matrix(1,0,0,1,6,-247.78)">
            <path d="M322.7,701.9C305.9,701.9 292.2,688.2 292.2,671.4C292.2,654.6 305.9,640.9 322.7,640.9C339.5,640.9 353.2,654.6 353.2,671.4C353.2,688.2 339.5,701.9 322.7,701.9Z" style="fill:rgb(80,72,59);fill-rule:nonzero;"/>
        </g>
        <g transform="matrix(1,0,0,1,6,-247.78)">
            <path d="M348.7,655.4C359.5,676.2 343.5,697.7 322.9,699.8C311.7,700.9 295.5,690.8 292.6,676.6C295.3,691 306.7,702.3 321.6,702.3C338.4,702.3 353.8,689.6 353.3,670.6C353.1,665 351.3,660 348.7,655.4Z" style="fill:rgb(36,32,21);fill-rule:nonzero;"/>
            <path d="M293.7,674.3C293.7,657.5 306.5,642.7 323.4,642.7C333.4,642.7 344.1,647.3 350.9,660C346.4,648.8 335.4,640.8 322.6,640.8C305.7,640.8 292.1,654.5 292.1,671.3C292.1,678.1 294.5,685.2 298.3,690.3C295.8,686.3 293.7,678.3 293.7,674.3Z" style="fill:rgb(115,108,92);fill-rule:nonzero;"/>
        </g>
    </g>
    <g transform="matrix(1,0,0,1,-65.6,0)">
        <g transform="matrix(1,0,0,1,6,-247.78)">
            <path d="M430.9,698.6C414.1,698.6 400.4,684.9 400.4,668.1C400.4,651.3 414.1,637.6 430.9,637.6C447.7,637.6 461.4,651.3 461.4,668.1C461.4,684.9 447.7,698.6 430.9,698.6Z" style="fill:rgb(80,72,59);fill-rule:nonzero;"/>
        </g>
        <g transform="matrix(1,0,0,1,6,-247.78)">
            <path d="M456.9,652.1C467.7,672.9 451.7,694.4 431.1,696.5C419.9,697.6 403.7,687.5 400.8,673.3C403.5,687.7 414.9,699 429.8,699C446.6,699 462,686.3 461.5,667.3C461.2,661.7 459.4,656.6 456.9,652.1Z" style="fill:rgb(36,32,21);fill-rule:nonzero;"/>
            <path d="M401.9,670.9C401.9,654.1 414.7,639.3 431.6,639.3C441.6,639.3 452.3,643.9 459.1,656.6C454.6,645.4 443.6,637.4 430.8,637.4C413.9,637.4 400.3,651.1 400.3,667.9C400.3,674.7 402.7,681.8 406.5,686.9C403.9,682.9 401.9,674.9 401.9,670.9Z" style="fill:rgb(115,108,92);fill-rule:nonzero;"/>
        </g>
    </g>
    <g transform="matrix(1,0,0,1,-65.6,0)">
        <g transform="matrix(1,0,0,1,6,-247.78)">
            <path d="M535.7,688.6C518.9,688.6 505.2,674.9 505.2,658.1C505.2,641.3 518.9,627.6 535.7,627.6C552.5,627.6 566.2,641.3 566.2,658.1C566.2,675 552.5,688.6 535.7,688.6Z" style="fill:rgb(80,72,59);fill-rule:nonzero;"/>
        </g>
        <g transform="matrix(1,0,0,1,6,-247.78)">
            <path d="M561.7,642.1C572.5,662.9 556.5,684.4 535.9,686.5C524.7,687.6 508.5,677.5 505.6,663.3C508.3,677.7 519.7,689 534.6,689C551.4,689 566.8,676.3 566.3,657.3C566.1,651.8 564.3,646.7 561.7,642.1Z" style="fill:rgb(36,32,21);fill-rule:nonzero;"/>
            <path d="M506.8,661C506.8,644.2 519.6,629.4 536.5,629.4C546.5,629.4 557.2,634 564,646.7C559.5,635.5 548.5,627.5 535.7,627.5C518.8,627.5 505.2,641.2 505.2,658C505.2,664.8 507.6,671.9 511.4,677C508.8,673 506.8,665 506.8,661Z" style="fill:rgb(115,108,92);fill-rule:nonzero;"/>
        </g>
    </g>
    <g transform="matrix(1,0,0,1,-65.6,0)">
        <g transform="matrix(1,0,0,1,6,-247.78)">
            <path d="M103.5,647.5L113.5,647.5L113.5,651.4L108,651.4L108,657.3L113.2,657.3L113.2,661L108,661L108,670.5L103.5,670.5L103.5,647.5Z" style="fill:rgb(255,245,225);fill-rule:nonzero;"/>
        </g>
        <g transform="matrix(1,0,0,1,6,-247.78)">
            <path d="M120.9,652.6L117.1,654.5L116.3,651L121.4,648.4L125.3,648.4L125.3,670.5L120.9,670.5L120.9,652.6Z" style="fill:rgb(255,245,225);fill-rule:nonzero;"/>
        </g>
    </g>
    <g transform="matrix(1,0,0,1,-65.6,0)">
        <g transform="matrix(1,0,0,1,6,-247.78)">
            <path d="M205.2,655.6L215.2,655.6L215.2,659.5L209.7,659.5L209.7,665.4L214.9,665.4L214.9,669.1L209.7,669.1L209.7,678.6L205.2,678.6L205.2,655.6Z" style="fill:rgb(255,245,225);fill-rule:nonzero;"/>
        </g>
        <g transform="matrix(1,0,0,1,6,-247.78)">
            <path d="M217.4,678.5L217.4,675.5L219.6,672.7C222.5,669.1 224.8,666 224.8,662.9C224.8,661.1 223.8,659.9 222,659.9C220.6,659.9 219.5,660.5 218.7,661L217.9,657.6C218.9,656.9 220.8,656.2 222.8,656.2C227.6,656.2 229.2,659.4 229.2,662.6C229.2,666.8 226.6,670.1 224.1,673L222.8,674.6L222.8,674.7L229.6,674.7L229.6,678.6L217.4,678.5Z" style="fill:rgb(255,245,225);fill-rule:nonzero;"/>
        </g>
    </g>
    <g transform="matrix(1,0,0,1,-65.6,0)">
        <g transform="matrix(1,0,0,1,6,-247.78)">
            <path d="M310.6,658.6L320.6,658.6L320.6,662.5L315.1,662.5L315.1,668.4L320.3,668.4L320.3,672.1L315.1,672.1L315.1,681.6L310.6,681.6L310.6,658.6Z" style="fill:rgb(255,245,225);fill-rule:nonzero;"/>
        </g>
        <g transform="matrix(1,0,0,1,6,-247.78)">
            <path d="M323.4,677.3C324.3,677.8 325.5,678.2 326.7,678.2C328.9,678.2 330.1,676.9 330.1,675C330.1,672.5 328.2,671.5 325.9,671.5L325.3,671.5L325.3,668.3L325.7,668.3C327.3,668.3 329.4,667.6 329.4,665.5C329.4,663.9 328.4,663 326.8,663C325.8,663 324.8,663.3 324,663.9L323.4,660.6C324.3,660 326.1,659.4 327.9,659.4C331.8,659.4 333.7,661.9 333.7,664.7C333.7,666.9 332.5,668.7 330.5,669.7L330.5,669.8C332.6,670.5 334.3,672.4 334.3,675.4C334.3,678.8 331.7,682.1 326.9,682.1C325.1,682.1 323.5,681.7 322.6,681.1L323.4,677.3Z" style="fill:rgb(255,245,225);fill-rule:nonzero;"/>
        </g>
    </g>
    <g transform="matrix(1,0,0,1,-65.6,0)">
        <g transform="matrix(1,0,0,1,6,-247.78)">
            <path d="M417.6,655.9L427.6,655.9L427.6,659.8L422.1,659.8L422.1,665.7L427.3,665.7L427.3,669.4L422.1,669.4L422.1,678.9L417.6,678.9L417.6,655.9Z" style="fill:rgb(255,245,225);fill-rule:nonzero;"/>
        </g>
        <g transform="matrix(1,0,0,1,6,-247.78)">
            <path d="M436.9,678.8L436.9,673.5L429.3,673.5L429.3,670.5L436.5,656.7L440.8,656.7L440.8,670L443,670L443,673.6L440.8,673.6L440.8,678.9L436.9,678.8ZM436.9,670.1L436.9,665.5C436.9,664.3 437,663 437.1,661.9L437,661.9C436.5,663.1 436,664.1 435.4,665.3L433.1,670L433.1,670.1L436.9,670.1Z" style="fill:rgb(255,245,225);fill-rule:nonzero;"/>
        </g>
    </g>
    <g transform="matrix(1,0,0,1,-65.6,0)">
        <g transform="matrix(1,0,0,1,6,-247.78)">
            <path d="M523.2,645.2L533.2,645.2L533.2,649.1L527.7,649.1L527.7,655L532.9,655L532.9,658.7L527.7,658.7L527.7,668.2L523.2,668.2L523.2,645.2Z" style="fill:rgb(255,245,225);fill-rule:nonzero;"/>
        </g>
        <g transform="matrix(1,0,0,1,6,-247.78)">
            <path d="M546.9,649.9L541,649.9L540.5,653.9L541.2,653.9C542.2,653.9 544.1,654.4 545.4,655.6C546.6,656.8 547.3,658.5 547.3,660.7C547.3,665 544.5,668.5 539.6,668.5C538,668.5 536.3,668.1 535.4,667.6L536.1,664.1C536.9,664.5 538.1,664.9 539.3,664.9C541.5,664.9 542.9,663.5 542.9,661.2C542.9,658.2 540.7,657.2 538.1,657.2C537.5,657.2 537,657.2 536.5,657.3L537.7,646.2L546.9,646.2L546.9,649.9Z" style="fill:rgb(255,245,225);fill-rule:nonzero;"/>
        </g>
    </g>
    <g id="Layer_4" transform="matrix(1,0,0,1,-65.6,0)">
        <g transform="matrix(1,0,0,1,6,-245.78)">
            <path d="M93.4,596L100.8,596L100.8,598.2L96.1,598.2L96.1,601L100.5,601L100.5,603.2L96.1,603.2L96.1,608.1L93.4,608.1L93.4,596Z" style="fill:rgb(150,180,180);fill-rule:nonzero;"/>
            <path d="M109.9,598.4L108.8,598.4C106.4,598.6 105.3,599.8 105,601.2C105.6,600.6 106.4,600.3 107.5,600.3C109.5,600.3 111.1,601.7 111.1,604.1C111.1,606.4 109.3,608.3 106.8,608.3C103.7,608.3 102.2,606 102.2,603.2C102.2,601 103,599.2 104.3,598C105.5,596.9 107,596.4 108.8,596.3L109.9,596.3L109.9,598.4ZM108.4,604.3C108.4,603.2 107.8,602.3 106.7,602.3C106,602.3 105.3,602.8 105.1,603.3C105,603.5 105,603.7 105,604C105,605.2 105.6,606.4 106.9,606.4C107.8,606.3 108.4,605.5 108.4,604.3Z" style="fill:rgb(150,180,180);fill-rule:nonzero;"/>
            <path d="M118.5,608.2L118.5,603.2L114.7,596L117.8,596L119,598.9C119.4,599.8 119.6,600.4 119.9,601.2C120.2,600.4 120.5,599.7 120.8,598.9L122,596L125.1,596L121.1,603.1L121.1,608.2L118.5,608.2Z" style="fill:rgb(194,200,130);fill-rule:nonzero;"/>
            <path d="M125.8,602.3L125.8,600.6L135.1,600.6L135.1,602.3L125.8,602.3ZM125.8,606L125.8,604.3L135.1,604.3L135.1,606L125.8,606Z" style="fill:rgb(194,200,130);fill-rule:nonzero;"/>
        </g>
        <g transform="matrix(1,0,0,1,6,-240.78)">
            <path d="M173.5,596L180.9,596L180.9,598.2L176.2,598.2L176.2,601L180.6,601L180.6,603.2L176.2,603.2L176.2,608.1L173.5,608.1L173.5,596Z" style="fill:rgb(150,180,180);fill-rule:nonzero;"/>
            <path d="M190.9,596.5L190.9,598.2L186.1,608.2L183.2,608.2L188,598.8L182.6,598.8L182.6,596.6L190.9,596.5Z" style="fill:rgb(150,180,180);fill-rule:nonzero;"/>
            <path d="M197.8,608.2L195,596L197.9,596L198.8,601C199.1,602.5 199.3,604 199.5,605.2C199.7,603.9 200,602.4 200.3,600.9L201.3,595.9L204.2,595.9L205.2,601C205.5,602.4 205.7,603.7 205.8,605.1C206,603.8 206.3,602.3 206.5,600.9L207.5,595.9L210.3,595.9L207.2,608L204.2,608L203.2,602.8C203,601.6 202.8,600.4 202.6,599.1C202.4,600.5 202.2,601.6 201.9,602.8L200.7,608L197.8,608.2Z" style="fill:rgb(194,200,130);fill-rule:nonzero;"/>
            <rect x="211.9" y="596" width="2.7" height="12.1" style="fill:rgb(194,200,130);fill-rule:nonzero;"/>
            <path d="M217,608.2L217,596L220.2,596L222.7,600.5C223.4,601.8 224.1,603.3 224.7,604.7C224.5,603.1 224.5,601.5 224.5,599.6L224.5,596L227,596L227,608.1L224.1,608.1L221.5,603.4C220.8,602.1 220,600.5 219.4,599.1L219.3,599.1C219.4,600.7 219.4,602.4 219.4,604.4L219.4,608.1L217,608.2Z" style="fill:rgb(194,200,130);fill-rule:nonzero;"/>
            <path d="M229.4,596.2C230.4,596 231.7,595.9 233.1,595.9C235.4,595.9 236.9,596.3 238.1,597.2C239.4,598.1 240.1,599.6 240.1,601.8C240.1,604.1 239.3,605.7 238.1,606.7C236.8,607.8 234.9,608.3 232.5,608.3C231.1,608.3 230.1,608.2 229.4,608.1L229.4,596.2ZM232.2,606.1L233.2,606.1C235.7,606.1 237.3,604.8 237.3,601.9C237.3,599.4 235.8,598.1 233.5,598.1C232.9,598.1 232.5,598.1 232.3,598.2L232.3,606.1L232.2,606.1Z" style="fill:rgb(194,200,130);fill-rule:nonzero;"/>
            <path d="M253.1,602C253.1,606 250.7,608.4 247.1,608.4C243.5,608.4 241.4,605.7 241.4,602.2C241.4,598.6 243.7,595.9 247.3,595.9C251,595.8 253.1,598.6 253.1,602ZM244.3,602.1C244.3,604.5 245.4,606.1 247.3,606.1C249.1,606.1 250.2,604.3 250.2,602C250.2,599.8 249.2,597.9 247.3,597.9C245.4,598 244.3,599.8 244.3,602.1Z" style="fill:rgb(194,200,130);fill-rule:nonzero;"/>
            <path d="M256.7,608.2L253.8,596.1L256.7,596.1L257.6,601.1C257.9,602.6 258.1,604.1 258.3,605.3C258.5,604 258.8,602.5 259.1,601L260.1,596L263,596L264,601.1C264.3,602.5 264.5,603.8 264.6,605.2C264.8,603.9 265.1,602.4 265.3,601L266.3,596L269.1,596L266,608.1L263,608.1L262,602.9C261.8,601.7 261.6,600.5 261.4,599.2C261.2,600.6 261,601.7 260.7,602.9L259.5,608.1L256.7,608.2Z" style="fill:rgb(194,200,130);fill-rule:nonzero;"/>
        </g>
        <g transform="matrix(1,0,0,1,6,-238.78)">
            <path d="M286.9,596L294.3,596L294.3,598.2L289.6,598.2L289.6,601L294,601L294,603.2L289.6,603.2L289.6,608.1L286.9,608.1L286.9,596Z" style="fill:rgb(150,180,180);fill-rule:nonzero;"/>
            <path d="M295.8,605.1C295.8,603.7 296.6,602.7 297.9,602.2C296.8,601.6 296.2,600.7 296.2,599.6C296.2,597.6 298,596.3 300.3,596.3C303,596.3 304.2,597.9 304.2,599.3C304.2,600.3 303.7,601.3 302.5,601.9C303.6,602.3 304.7,603.3 304.7,604.8C304.7,606.9 302.9,608.4 300.2,608.4C297.2,608.4 295.8,606.7 295.8,605.1ZM301.9,605C301.9,604 301.1,603.4 300.1,603.1C299.2,603.3 298.7,604 298.7,604.8C298.7,605.6 299.3,606.5 300.4,606.5C301.2,606.5 301.9,605.8 301.9,605ZM298.8,599.5C298.8,600.3 299.5,600.8 300.5,601.1C301.1,600.9 301.7,600.3 301.7,599.6C301.7,598.9 301.3,598.1 300.3,598.1C299.3,598.1 298.8,598.7 298.8,599.5Z" style="fill:rgb(150,180,180);fill-rule:nonzero;"/>
            <path d="M320.2,607.6C319.4,607.9 317.7,608.3 316.2,608.3C314,608.3 312.4,607.8 311.3,606.7C310.2,605.7 309.6,604.1 309.6,602.3C309.6,598.3 312.6,596 316.5,596C318.1,596 319.3,596.3 319.9,596.6L319.3,598.8C318.6,598.5 317.8,598.3 316.5,598.3C314.2,598.3 312.5,599.6 312.5,602.2C312.5,604.7 314.1,606.2 316.3,606.2C316.9,606.2 317.4,606.1 317.6,606L317.6,603.5L315.7,603.5L315.7,601.4L320.2,601.4L320.2,607.6Z" style="fill:rgb(194,200,130);fill-rule:nonzero;"/>
            <path d="M322.3,596.2C323.2,596 324.5,595.9 326,595.9C327.8,595.9 329.1,596.2 329.9,596.9C330.6,597.5 331,598.3 331,599.4C331,600.9 329.9,602 328.9,602.4L328.9,602.5C329.7,602.8 330.2,603.6 330.5,604.8C330.9,606.2 331.2,607.8 331.5,608.2L328.7,608.2C328.5,607.9 328.2,606.9 327.9,605.4C327.6,603.9 327.1,603.5 325.9,603.5L325,603.5L325,608.3L322.3,608.3L322.3,596.2ZM325,601.4L326.1,601.4C327.5,601.4 328.3,600.7 328.3,599.6C328.3,598.5 327.5,597.9 326.3,597.9C325.6,597.9 325.3,597.9 325.1,598L325.1,601.4L325,601.4Z" style="fill:rgb(194,200,130);fill-rule:nonzero;"/>
            <path d="M336,605L335.1,608.1L332.3,608.1L336,596L339.6,596L343.4,608.1L340.4,608.1L339.5,605L336,605ZM339.1,603L338.3,600.4C338.1,599.7 337.9,598.8 337.7,598.1C337.5,598.8 337.3,599.7 337.1,600.4L336.4,603L339.1,603Z" style="fill:rgb(194,200,130);fill-rule:nonzero;"/>
            <path d="M345,596.2C345.8,596.1 347,595.9 348.7,595.9C350.4,595.9 351.6,596.2 352.4,596.9C353.2,597.5 353.7,598.5 353.7,599.7C353.7,600.9 353.3,601.9 352.6,602.6C351.7,603.5 350.3,603.9 348.7,603.9C348.3,603.9 348,603.9 347.8,603.8L347.8,608.1L345,608.1L345,596.2ZM347.7,601.7C347.9,601.7 348.2,601.8 348.6,601.8C350.1,601.8 351,601.1 351,599.8C351,598.7 350.2,598 348.8,598C348.3,598 347.9,598 347.7,598.1L347.7,601.7Z" style="fill:rgb(194,200,130);fill-rule:nonzero;"/>
            <path d="M358.2,596L358.2,600.7L362.7,600.7L362.7,596L365.4,596L365.4,608.1L362.7,608.1L362.7,603L358.2,603L358.2,608.1L355.5,608.1L355.5,596L358.2,596Z" style="fill:rgb(194,200,130);fill-rule:nonzero;"/>
        </g>
        <g transform="matrix(1,0,0,1,6,-241.78)">
            <path d="M404.7,598.3L401.4,598.3L401.4,596L410.7,596L410.7,598.3L407.4,598.3L407.4,608.1L404.7,608.1L404.7,598.3Z" style="fill:rgb(194,200,130);fill-rule:nonzero;"/>
            <path d="M412.3,596.2C413,596.1 414.5,595.9 415.8,595.9C417.5,595.9 418.5,596.1 419.4,596.6C420.2,597.1 420.9,597.9 420.9,599C420.9,600.1 420.3,601.1 418.9,601.6C420.3,602 421.3,603 421.3,604.6C421.3,605.7 420.8,606.6 420,607.2C419.1,607.9 417.6,608.3 415.2,608.3C413.9,608.3 412.9,608.2 412.2,608.1L412.3,596.2ZM415,600.8L415.9,600.8C417.4,600.8 418.1,600.2 418.1,599.3C418.1,598.4 417.4,597.9 416.2,597.9C415.6,597.9 415.3,597.9 415,598L415,600.8ZM415,606.2L416,606.2C417.2,606.2 418.3,605.7 418.3,604.4C418.3,603.2 417.2,602.7 415.8,602.7L415,602.7L415,606.2Z" style="fill:rgb(194,200,130);fill-rule:nonzero;"/>
            <path d="M423,596L425.8,596L425.8,605.8L430.6,605.8L430.6,608.1L423,608.1L423,596Z" style="fill:rgb(194,200,130);fill-rule:nonzero;"/>
            <path d="M432.4,605.3C433.1,605.7 434.3,606.1 435.4,606.1C436.7,606.1 437.3,605.6 437.3,604.8C437.3,604 436.7,603.6 435.3,603.1C433.3,602.4 432,601.3 432,599.5C432,597.4 433.7,595.9 436.6,595.9C438,595.9 439,596.2 439.7,596.5L439.1,598.7C438.6,598.5 437.8,598.1 436.6,598.1C435.4,598.1 434.8,598.6 434.8,599.3C434.8,600.1 435.5,600.4 437,601C439.2,601.8 440.1,602.9 440.1,604.6C440.1,606.6 438.6,608.4 435.2,608.4C433.8,608.4 432.4,608 431.8,607.6L432.4,605.3Z" style="fill:rgb(194,200,130);fill-rule:nonzero;"/>
            <path d="M449.3,603L444.8,603L444.8,605.9L449.8,605.9L449.8,608.1L442,608.1L442,596L449.5,596L449.5,598.2L444.8,598.2L444.8,600.7L449.3,600.7L449.3,603Z" style="fill:rgb(194,200,130);fill-rule:nonzero;"/>
            <path d="M454.1,598.3L450.8,598.3L450.8,596L460.1,596L460.1,598.3L456.8,598.3L456.8,608.1L454.1,608.1L454.1,598.3Z" style="fill:rgb(194,200,130);fill-rule:nonzero;"/>
        </g>
        <g transform="matrix(1,0,0,1,6,-245.78)">
            <path d="M516.4,598.3L513.1,598.3L513.1,596L522.4,596L522.4,598.3L519.1,598.3L519.1,608.1L516.4,608.1L516.4,598.3Z" style="fill:rgb(194,200,130);fill-rule:nonzero;"/>
            <path d="M525.4,605L524.5,608.1L521.7,608.1L525.4,596L529,596L532.8,608.1L529.8,608.1L528.9,605L525.4,605ZM528.5,603L527.7,600.4C527.5,599.7 527.3,598.8 527.1,598.1C526.9,598.8 526.7,599.7 526.5,600.4L525.8,603L528.5,603Z" style="fill:rgb(194,200,130);fill-rule:nonzero;"/>
            <path d="M534.4,596.2C535.1,596.1 536.6,595.9 537.9,595.9C539.6,595.9 540.6,596.1 541.5,596.6C542.3,597.1 543,597.9 543,599C543,600.1 542.4,601.1 541,601.6C542.4,602 543.4,603 543.4,604.6C543.4,605.7 542.9,606.6 542.1,607.2C541.2,607.9 539.7,608.3 537.3,608.3C536,608.3 535,608.2 534.3,608.1L534.4,596.2ZM537.1,600.8L538,600.8C539.5,600.8 540.2,600.2 540.2,599.3C540.2,598.4 539.5,597.9 538.3,597.9C537.7,597.9 537.4,597.9 537.1,598L537.1,600.8ZM537.1,606.2L538.1,606.2C539.3,606.2 540.4,605.7 540.4,604.4C540.4,603.2 539.3,602.7 537.9,602.7L537,602.7L537.1,606.2Z" style="fill:rgb(194,200,130);fill-rule:nonzero;"/>
            <path d="M545.3,596L548,596L548,605.8L552.8,605.8L552.8,608.1L545.2,608.1L545.3,596Z" style="fill:rgb(194,200,130);fill-rule:nonzero;"/>
            <path d="M561.7,603L557.2,603L557.2,605.9L562.2,605.9L562.2,608.1L554.5,608.1L554.5,596L562,596L562,598.2L557.3,598.2L557.3,600.7L561.8,600.7L561.7,603Z" style="fill:rgb(194,200,130);fill-rule:nonzero;"/>
        </g>
    </g>
    <defs>
        <linearGradient id="_Linear1" x1="0" y1="0" x2="1" y2="0" gradientUnits="userSpaceOnUse" gradientTransform="matrix(502.085,0,0,502.085,72.9153,351.113)"><stop offset="0" style="stop-color:rgb(33,29,20);stop-opacity:1"/><stop offset="0.03" style="stop-color:rgb(56,52,41);stop-opacity:1"/><stop offset="0.04" style="stop-color:rgb(44,41,32);stop-opacity:1"/><stop offset="0.05" style="stop-color:rgb(33,29,23);stop-opacity:1"/><stop offset="0.07" style="stop-color:rgb(26,23,17);stop-opacity:1"/><stop offset="0.13" style="stop-color:rgb(24,21,16);stop-opacity:1"/><stop offset="0.49" style="stop-color:rgb(31,30,26);stop-opacity:1"/><stop offset="0.9" style="stop-color:rgb(66,58,45);stop-opacity:1"/><stop offset="0.93" style="stop-color:rgb(68,60,46);stop-opacity:1"/><stop offset="0.95" style="stop-color:rgb(75,66,51);stop-opacity:1"/><stop offset="0.96" style="stop-color:rgb(87,77,60);stop-opacity:1"/><stop offset="0.96" style="stop-color:rgb(93,82,64);stop-opacity:1"/><stop offset="0.99" style="stop-color:rgb(51,45,34);stop-opacity:1"/><stop offset="1" style="stop-color:rgb(33,29,20);stop-opacity:1"/></linearGradient>
        <linearGradient id="_Linear2" x1="0" y1="0" x2="1" y2="0" gradientUnits="userSpaceOnUse" gradientTransform="matrix(512.736,0,0,512.736,68.494,667.478)"><stop offset="0" style="stop-color:rgb(33,29,20);stop-opacity:1"/><stop offset="0.03" style="stop-color:rgb(56,52,41);stop-opacity:1"/><stop offset="0.04" style="stop-color:rgb(44,41,32);stop-opacity:1"/><stop offset="0.05" style="stop-color:rgb(33,29,23);stop-opacity:1"/><stop offset="0.07" style="stop-color:rgb(26,23,17);stop-opacity:1"/><stop offset="0.13" style="stop-color:rgb(24,21,16);stop-opacity:1"/><stop offset="0.49" style="stop-color:rgb(31,30,26);stop-opacity:1"/><stop offset="0.9" style="stop-color:rgb(66,58,45);stop-opacity:1"/><stop offset="0.93" style="stop-color:rgb(68,60,46);stop-opacity:1"/><stop offset="0.95" style="stop-color:rgb(75,66,51);stop-opacity:1"/><stop offset="0.96" style="stop-color:rgb(87,77,60);stop-opacity:1"/><stop offset="0.96" style="stop-color:rgb(93,82,64);stop-opacity:1"/><stop offset="0.99" style="stop-color:rgb(51,45,34);stop-opacity:1"/><stop offset="1" style="stop-color:rgb(33,29,20);stop-opacity:1"/></linearGradient>
        <linearGradient id="_Linear3" x1="0" y1="0" x2="1" y2="0" gradientUnits="userSpaceOnUse" gradientTransform="matrix(512.535,0,0,512.535,68.5941,672.226)"><stop offset="0" style="stop-color:rgb(33,29,20);stop-opacity:1"/><stop offset="0.03" style="stop-color:rgb(56,52,41);stop-opacity:1"/><stop offset="0.04" style="stop-color:rgb(44,41,32);stop-opacity:1"/><stop offset="0.05" style="stop-color:rgb(33,29,23);stop-opacity:1"/><stop offset="0.07" style="stop-color:rgb(26,23,17);stop-opacity:1"/><stop offset="0.13" style="stop-color:rgb(24,21,16);stop-opacity:1"/><stop offset="0.49" style="stop-color:rgb(31,30,26);stop-opacity:1"/><stop offset="0.9" style="stop-color:rgb(66,58,45);stop-opacity:1"/><stop offset="0.93" style="stop-color:rgb(68,60,46);stop-opacity:1"/><stop offset="0.95" style="stop-color:rgb(75,66,51);stop-opacity:1"/><stop offset="0.96" style="stop-color:rgb(87,77,60);stop-opacity:1"/><stop offset="0.96" style="stop-color:rgb(93,82,64);stop-opacity:1"/><stop offset="0.99" style="stop-color:rgb(51,45,34);stop-opacity:1"/><stop offset="1" style="stop-color:rgb(33,29,20);stop-opacity:1"/></linearGradient>
        <linearGradient id="_Linear4" x1="0" y1="0" x2="1" y2="0" gradientUnits="userSpaceOnUse" gradientTransform="matrix(500.636,0,0,500.636,76.7733,667.58)"><stop offset="0" style="stop-color:rgb(50,43,35);stop-opacity:1"/><stop offset="0.1" style="stop-color:rgb(50,43,35);stop-opacity:1"/><stop offset="0.18" style="stop-color:rgb(80,70,58);stop-opacity:1"/><stop offset="0.25" style="stop-color:rgb(50,43,35);stop-opacity:1"/><stop offset="0.34" style="stop-color:rgb(50,43,35);stop-opacity:1"/><stop offset="0.39" style="stop-color:rgb(66,58,47);stop-opacity:1"/><stop offset="0.44" style="stop-color:rgb(50,43,35);stop-opacity:1"/><stop offset="0.55" style="stop-color:rgb(72,64,53);stop-opacity:1"/><stop offset="0.6" style="stop-color:rgb(90,80,66);stop-opacity:1"/><stop offset="0.64" style="stop-color:rgb(50,43,35);stop-opacity:1"/><stop offset="0.77" style="stop-color:rgb(50,43,35);stop-opacity:1"/><stop offset="0.81" style="stop-color:rgb(90,81,63);stop-opacity:1"/><stop offset="0.87" style="stop-color:rgb(50,43,35);stop-opacity:1"/><stop offset="0.98" style="stop-color:rgb(56,50,38);stop-opacity:1"/><stop offset="1" style="stop-color:rgb(56,50,38);stop-opacity:1"/></linearGradient>
    </defs>
</svg>
