<?xml version="1.0" encoding="utf-8"?>
<!-- Generator: Adobe Illustrator 23.0.4, SVG Export Plug-In . SVG Version: 6.00 Build 0)  -->
<svg version="1.1" id="Layer_1" xmlns="http://www.w3.org/2000/svg" xmlns:xlink="http://www.w3.org/1999/xlink" x="0px" y="0px"
	 viewBox="0 0 147.4 85" style="enable-background:new 0 0 147.4 85;" xml:space="preserve">
<style type="text/css">
	.st0{fill:#0A0A0A;}
</style>
<g>
	<g>
		<path class="st0" d="M7.4,11.4c2.2,0,4.1-1.8,4.1-4.1S9.6,3.3,7.4,3.3c-2.3,0-4.1,1.8-4.1,4.1S5.1,11.4,7.4,11.4z"/>
		<path class="st0" d="M7.4,18.8c-1.8,0-3.3,1.5-3.3,3.4s1.5,3.4,3.3,3.4s3.3-1.5,3.3-3.4C10.7,20.3,9.2,18.8,7.4,18.8z"/>
		<path class="st0" d="M7.4,34.2c-1.5,0-2.6,1.2-2.6,2.6c0,1.5,1.2,2.6,2.6,2.6c1.5,0,2.6-1.2,2.6-2.6S8.8,34.2,7.4,34.2z"/>
		<path class="st0" d="M9.3,51.6c0-1.1-0.9-1.9-1.9-1.9s-1.9,0.9-1.9,1.9c0,1.1,0.9,1.9,1.9,1.9C8.4,53.5,9.3,52.7,9.3,51.6z"/>
		<path class="st0" d="M6.2,66.3c0,0.7,0.5,1.2,1.2,1.2s1.2-0.5,1.2-1.2S8,65.1,7.4,65.1S6.2,65.7,6.2,66.3z"/>
		<path class="st0" d="M22.1,11.4c2.2,0,4.1-1.8,4.1-4.1s-1.8-4.1-4.1-4.1S18,5.1,18,7.4S19.9,11.4,22.1,11.4z"/>
		<circle class="st0" cx="22.1" cy="22.1" r="3.4"/>
		<path class="st0" d="M22.1,34.2c-1.5,0-2.6,1.2-2.6,2.6c0,1.5,1.2,2.6,2.6,2.6c1.5,0,2.6-1.2,2.6-2.6S23.6,34.2,22.1,34.2z"/>
		<path class="st0" d="M24,51.6c0-1.1-0.9-1.9-1.9-1.9s-1.9,0.9-1.9,1.9c0,1.1,0.9,1.9,1.9,1.9S24,52.7,24,51.6z"/>
		<circle class="st0" cx="22.1" cy="66.3" r="1.2"/>
		<path class="st0" d="M36.8,11.4c2.2,0,4.1-1.8,4.1-4.1s-1.8-4.1-4.1-4.1s-4.1,1.8-4.1,4.1S34.6,11.4,36.8,11.4z"/>
		<circle class="st0" cx="36.8" cy="22.1" r="3.3"/>
		<path class="st0" d="M36.8,34.2c-1.5,0-2.6,1.2-2.6,2.6c0,1.5,1.2,2.6,2.6,2.6c1.5,0,2.6-1.2,2.6-2.6
			C39.5,35.4,38.3,34.2,36.8,34.2z"/>
		<path class="st0" d="M38.8,51.6c0-1.1-0.9-1.9-1.9-1.9s-1.9,0.9-1.9,1.9c0,1.1,0.9,1.9,1.9,1.9S38.8,52.7,38.8,51.6z"/>
		<circle class="st0" cx="36.8" cy="66.3" r="1.2"/>
		<path class="st0" d="M51.6,11.4c2.2,0,4.1-1.8,4.1-4.1s-1.8-4.1-4.1-4.1s-4.1,1.8-4.1,4.1S49.3,11.4,51.6,11.4z"/>
		<circle class="st0" cx="51.6" cy="22.1" r="3.3"/>
		<path class="st0" d="M51.6,34.2c-1.5,0-2.6,1.2-2.6,2.6c0,1.5,1.2,2.6,2.6,2.6c1.5,0,2.6-1.2,2.6-2.6S53,34.2,51.6,34.2z"/>
		<path class="st0" d="M53.5,51.6c0-1.1-0.9-1.9-1.9-1.9s-1.9,0.9-1.9,1.9c0,1.1,0.9,1.9,1.9,1.9S53.5,52.7,53.5,51.6z"/>
		<circle class="st0" cx="51.6" cy="66.3" r="1.2"/>
		<circle class="st0" cx="66.3" cy="7.4" r="4.1"/>
		<circle class="st0" cx="66.3" cy="22.1" r="3.3"/>
		<path class="st0" d="M66.3,34.2c-1.5,0-2.6,1.2-2.6,2.6c0,1.5,1.2,2.6,2.6,2.6s2.6-1.2,2.6-2.6C69,35.4,67.8,34.2,66.3,34.2z"/>
		<path class="st0" d="M68.2,51.6c0-1.1-0.9-1.9-1.9-1.9s-1.9,0.9-1.9,1.9c0,1.1,0.9,1.9,1.9,1.9S68.2,52.7,68.2,51.6z"/>
		<circle class="st0" cx="66.3" cy="66.3" r="1.2"/>
		<path class="st0" d="M81.1,11.4c2.2,0,4.1-1.8,4.1-4.1s-1.8-4.1-4.1-4.1S77,5.1,77,7.4S78.8,11.4,81.1,11.4z"/>
		<circle class="st0" cx="81.1" cy="22.1" r="3.3"/>
		<path class="st0" d="M81.1,34.2c-1.5,0-2.6,1.2-2.6,2.6c0,1.5,1.2,2.6,2.6,2.6s2.6-1.2,2.6-2.6S82.5,34.2,81.1,34.2z"/>
		<path class="st0" d="M83,51.6c0-1.1-0.9-1.9-1.9-1.9s-1.9,0.9-1.9,1.9c0,1.1,0.9,1.9,1.9,1.9S83,52.7,83,51.6z"/>
		<circle class="st0" cx="81.1" cy="66.3" r="1.2"/>
		<path class="st0" d="M95.8,11.4c2.2,0,4.1-1.8,4.1-4.1s-1.8-4.1-4.1-4.1s-4.1,1.8-4.1,4.1S93.6,11.4,95.8,11.4z"/>
		<circle class="st0" cx="95.8" cy="22.1" r="3.3"/>
		<path class="st0" d="M95.8,34.2c-1.5,0-2.6,1.2-2.6,2.6c0,1.5,1.2,2.6,2.6,2.6s2.6-1.2,2.6-2.6S97.3,34.2,95.8,34.2z"/>
		<path class="st0" d="M97.7,51.6c0-1.1-0.9-1.9-1.9-1.9s-1.9,0.9-1.9,1.9c0,1.1,0.9,1.9,1.9,1.9S97.7,52.7,97.7,51.6z"/>
		<circle class="st0" cx="95.8" cy="66.3" r="1.2"/>
		<path class="st0" d="M110.6,11.4c2.2,0,4.1-1.8,4.1-4.1s-1.8-4.1-4.1-4.1s-4.1,1.8-4.1,4.1S108.3,11.4,110.6,11.4z"/>
		<circle class="st0" cx="110.6" cy="22.1" r="3.3"/>
		<path class="st0" d="M110.6,34.2c-1.5,0-2.6,1.2-2.6,2.6c0,1.5,1.2,2.6,2.6,2.6s2.6-1.2,2.6-2.6C113.2,35.4,112,34.2,110.6,34.2z"
			/>
		<path class="st0" d="M112.5,51.6c0-1.1-0.9-1.9-1.9-1.9s-1.9,0.9-1.9,1.9c0,1.1,0.9,1.9,1.9,1.9S112.5,52.7,112.5,51.6z"/>
		<circle class="st0" cx="110.6" cy="66.3" r="1.2"/>
		<path class="st0" d="M125.3,11.4c2.2,0,4.1-1.8,4.1-4.1s-1.8-4.1-4.1-4.1s-4.1,1.8-4.1,4.1C121.2,9.6,123.1,11.4,125.3,11.4z"/>
		<path class="st0" d="M125.3,18.8c-1.8,0-3.3,1.5-3.3,3.4s1.5,3.4,3.3,3.4s3.4-1.5,3.4-3.4C128.7,20.3,127.2,18.8,125.3,18.8z"/>
		<path class="st0" d="M125.3,34.2c-1.5,0-2.6,1.2-2.6,2.6c0,1.5,1.2,2.6,2.6,2.6s2.6-1.2,2.6-2.6C127.9,35.4,126.8,34.2,125.3,34.2
			z"/>
		<path class="st0" d="M127.2,51.6c0-1.1-0.9-1.9-1.9-1.9s-1.9,0.9-1.9,1.9c0,1.1,0.9,1.9,1.9,1.9C126.4,53.5,127.2,52.7,127.2,51.6
			z"/>
		<path class="st0" d="M124.1,66.3c0,0.7,0.5,1.2,1.2,1.2c0.7,0,1.2-0.5,1.2-1.2s-0.5-1.2-1.2-1.2S124.1,65.7,124.1,66.3z"/>
		<path class="st0" d="M140,11.4c2.2,0,4.1-1.8,4.1-4.1s-1.8-4.1-4.1-4.1S136,5.1,136,7.4C136,9.6,137.8,11.4,140,11.4z"/>
		<circle class="st0" cx="140" cy="22.1" r="3.4"/>
		<path class="st0" d="M140,34.2c-1.5,0-2.6,1.2-2.6,2.6c0,1.5,1.2,2.6,2.6,2.6s2.6-1.2,2.6-2.6C142.7,35.4,141.5,34.2,140,34.2z"/>
		<path class="st0" d="M142,51.6c0-1.1-0.9-1.9-1.9-1.9s-1.9,0.9-1.9,1.9c0,1.1,0.9,1.9,1.9,1.9S142,52.7,142,51.6z"/>
		<circle class="st0" cx="140" cy="66.3" r="1.2"/>
		<path class="st0" d="M0,4.4c2.5,0,4.4-2,4.4-4.4H0V4.4z"/>
		<path class="st0" d="M0,11v7.4c2,0,3.7-1.7,3.7-3.7C3.7,12.7,2,11,0,11z"/>
		<path class="st0" d="M3,29.5c0-1.6-1.3-3-3-3v6C1.6,32.5,3,31.1,3,29.5z"/>
		<path class="st0" d="M2.3,44.2c0-1.3-1-2.3-2.3-2.3v4.5C1.3,46.5,2.3,45.5,2.3,44.2z"/>
		<path class="st0" d="M1.6,59c0-0.9-0.7-1.6-1.6-1.6v3.1C0.9,60.5,1.6,59.8,1.6,59z"/>
		<path class="st0" d="M1.2,73.7c0-0.7-0.5-1.2-1.2-1.2v2.4C0.7,74.9,1.2,74.4,1.2,73.7z"/>
		<path class="st0" d="M14.7,4.4c2.5,0,4.4-2,4.4-4.4h-8.9C10.3,2.5,12.3,4.4,14.7,4.4z"/>
		<path class="st0" d="M14.7,11c-2.1,0-3.7,1.7-3.7,3.7s1.7,3.7,3.7,3.7s3.7-1.7,3.7-3.7S16.8,11,14.7,11z"/>
		<path class="st0" d="M14.7,26.5c-1.6,0-3,1.3-3,3s1.3,3,3,3s3-1.3,3-3C17.7,27.8,16.4,26.5,14.7,26.5z"/>
		<path class="st0" d="M17,44.2c0-1.3-1-2.3-2.3-2.3s-2.3,1-2.3,2.3s1,2.3,2.3,2.3S17,45.5,17,44.2z"/>
		<circle class="st0" cx="14.7" cy="59" r="1.6"/>
		<circle class="st0" cx="14.7" cy="73.7" r="1.2"/>
		<path class="st0" d="M29.5,4.4c2.5,0,4.4-2,4.4-4.4H25C25,2.5,27,4.4,29.5,4.4z"/>
		<path class="st0" d="M29.5,11c-2,0-3.7,1.7-3.7,3.7s1.7,3.7,3.7,3.7s3.7-1.7,3.7-3.7C33.2,12.7,31.5,11,29.5,11z"/>
		<path class="st0" d="M29.5,26.5c-1.6,0-3,1.3-3,3s1.3,3,3,3s3-1.3,3-3C32.5,27.8,31.1,26.5,29.5,26.5z"/>
		<path class="st0" d="M31.8,44.2c0-1.3-1-2.3-2.3-2.3s-2.3,1-2.3,2.3s1,2.3,2.3,2.3S31.8,45.5,31.8,44.2z"/>
		<circle class="st0" cx="29.5" cy="59" r="1.6"/>
		<circle class="st0" cx="29.5" cy="73.7" r="1.2"/>
		<path class="st0" d="M44.2,4.4c2.5,0,4.4-2,4.4-4.4h-8.9C39.8,2.5,41.8,4.4,44.2,4.4z"/>
		<path class="st0" d="M44.2,11c-2,0-3.7,1.7-3.7,3.7s1.7,3.7,3.7,3.7s3.7-1.7,3.7-3.7C47.9,12.7,46.3,11,44.2,11z"/>
		<path class="st0" d="M44.2,26.5c-1.7,0-3,1.3-3,3s1.3,3,3,3s3-1.3,3-3C47.2,27.8,45.9,26.5,44.2,26.5z"/>
		<path class="st0" d="M46.5,44.2c0-1.3-1-2.3-2.3-2.3s-2.3,1-2.3,2.3s1,2.3,2.3,2.3S46.5,45.5,46.5,44.2z"/>
		<path class="st0" d="M44.2,57.4c-0.9,0-1.6,0.7-1.6,1.6s0.7,1.6,1.6,1.6s1.6-0.7,1.6-1.6S45.1,57.4,44.2,57.4z"/>
		<path class="st0" d="M44.2,72.5c-0.7,0-1.2,0.5-1.2,1.2s0.5,1.2,1.2,1.2s1.2-0.5,1.2-1.2S44.9,72.5,44.2,72.5z"/>
		<path class="st0" d="M59,4.4c2.5,0,4.4-2,4.4-4.4h-8.9C54.5,2.5,56.5,4.4,59,4.4z"/>
		<path class="st0" d="M59,11c-2,0-3.7,1.7-3.7,3.7s1.7,3.7,3.7,3.7s3.7-1.7,3.7-3.7S61,11,59,11z"/>
		<path class="st0" d="M59,26.5c-1.7,0-3,1.3-3,3s1.3,3,3,3s3-1.3,3-3C62,27.8,60.6,26.5,59,26.5z"/>
		<path class="st0" d="M61.2,44.2c0-1.3-1-2.3-2.3-2.3s-2.3,1-2.3,2.3s1,2.3,2.3,2.3S61.2,45.5,61.2,44.2z"/>
		<circle class="st0" cx="59" cy="59" r="1.6"/>
		<circle class="st0" cx="59" cy="73.7" r="1.2"/>
		<path class="st0" d="M73.7,4.4c2.4,0,4.4-2,4.4-4.4h-8.9C69.3,2.5,71.3,4.4,73.7,4.4z"/>
		<path class="st0" d="M73.7,11c-2.1,0-3.7,1.7-3.7,3.7s1.7,3.7,3.7,3.7s3.7-1.7,3.7-3.7S75.8,11,73.7,11z"/>
		<path class="st0" d="M73.7,26.5c-1.7,0-3,1.3-3,3s1.3,3,3,3s3-1.3,3-3C76.7,27.8,75.4,26.5,73.7,26.5z"/>
		<path class="st0" d="M76,44.2c0-1.3-1-2.3-2.3-2.3s-2.3,1-2.3,2.3s1,2.3,2.3,2.3S76,45.5,76,44.2z"/>
		<circle class="st0" cx="73.7" cy="59" r="1.6"/>
		<circle class="st0" cx="73.7" cy="73.7" r="1.2"/>
		<path class="st0" d="M88.4,4.4c2.4,0,4.4-2,4.4-4.4H84C84,2.5,86,4.4,88.4,4.4z"/>
		<path class="st0" d="M88.4,11c-2.1,0-3.7,1.7-3.7,3.7s1.7,3.7,3.7,3.7c2.1,0,3.7-1.7,3.7-3.7C92.2,12.7,90.5,11,88.4,11z"/>
		<path class="st0" d="M88.4,26.5c-1.7,0-3,1.3-3,3s1.3,3,3,3s3-1.3,3-3C91.4,27.8,90.1,26.5,88.4,26.5z"/>
		<path class="st0" d="M90.7,44.2c0-1.3-1-2.3-2.3-2.3s-2.3,1-2.3,2.3s1,2.3,2.3,2.3C89.7,46.5,90.7,45.5,90.7,44.2z"/>
		<path class="st0" d="M88.4,57.4c-0.9,0-1.6,0.7-1.6,1.6s0.7,1.6,1.6,1.6S90,59.8,90,59S89.3,57.4,88.4,57.4z"/>
		<path class="st0" d="M88.4,72.5c-0.7,0-1.2,0.5-1.2,1.2s0.5,1.2,1.2,1.2c0.7,0,1.2-0.5,1.2-1.2S89.1,72.5,88.4,72.5z"/>
		<path class="st0" d="M103.2,4.4c2.4,0,4.4-2,4.4-4.4h-8.9C98.8,2.5,100.7,4.4,103.2,4.4z"/>
		<path class="st0" d="M103.2,11c-2.1,0-3.7,1.7-3.7,3.7s1.7,3.7,3.7,3.7c2.1,0,3.7-1.7,3.7-3.7S105.2,11,103.2,11z"/>
		<path class="st0" d="M103.2,26.5c-1.7,0-3,1.3-3,3s1.3,3,3,3s3-1.3,3-3C106.2,27.8,104.8,26.5,103.2,26.5z"/>
		<path class="st0" d="M105.5,44.2c0-1.3-1-2.3-2.3-2.3s-2.3,1-2.3,2.3s1,2.3,2.3,2.3C104.4,46.5,105.5,45.5,105.5,44.2z"/>
		<circle class="st0" cx="103.2" cy="59" r="1.6"/>
		<circle class="st0" cx="103.2" cy="73.7" r="1.2"/>
		<path class="st0" d="M117.9,4.4c2.4,0,4.4-2,4.4-4.4h-8.9C113.5,2.5,115.5,4.4,117.9,4.4z"/>
		<path class="st0" d="M117.9,11c-2.1,0-3.7,1.7-3.7,3.7s1.7,3.7,3.7,3.7c2.1,0,3.7-1.7,3.7-3.7S120,11,117.9,11z"/>
		<path class="st0" d="M117.9,26.5c-1.7,0-3,1.3-3,3s1.3,3,3,3s3-1.3,3-3C120.9,27.8,119.6,26.5,117.9,26.5z"/>
		<path class="st0" d="M120.2,44.2c0-1.3-1-2.3-2.3-2.3s-2.3,1-2.3,2.3s1,2.3,2.3,2.3S120.2,45.5,120.2,44.2z"/>
		<circle class="st0" cx="117.9" cy="59" r="1.6"/>
		<circle class="st0" cx="117.9" cy="73.7" r="1.2"/>
		<path class="st0" d="M132.7,4.4c2.4,0,4.4-2,4.4-4.4h-8.9C128.2,2.5,130.2,4.4,132.7,4.4z"/>
		<path class="st0" d="M132.7,11c-2.1,0-3.7,1.7-3.7,3.7s1.7,3.7,3.7,3.7s3.7-1.7,3.7-3.7C136.4,12.7,134.7,11,132.7,11z"/>
		<path class="st0" d="M132.7,26.5c-1.6,0-3,1.3-3,3s1.3,3,3,3s3-1.3,3-3C135.7,27.8,134.3,26.5,132.7,26.5z"/>
		<path class="st0" d="M134.9,44.2c0-1.3-1-2.3-2.3-2.3s-2.3,1-2.3,2.3s1,2.3,2.3,2.3S134.9,45.5,134.9,44.2z"/>
		<circle class="st0" cx="132.7" cy="59" r="1.6"/>
		<circle class="st0" cx="132.7" cy="73.7" r="1.2"/>
		<path class="st0" d="M147.4,4.4V0H143C143,2.5,145,4.4,147.4,4.4z"/>
		<path class="st0" d="M143.7,14.7c0,2,1.7,3.7,3.7,3.7V11C145.4,11,143.7,12.7,143.7,14.7z"/>
		<path class="st0" d="M144.4,29.5c0,1.6,1.3,3,3,3v-6C145.8,26.5,144.4,27.8,144.4,29.5z"/>
		<path class="st0" d="M145.1,44.2c0,1.3,1,2.3,2.3,2.3V42C146.2,42,145.1,43,145.1,44.2z"/>
		<path class="st0" d="M145.9,59c0,0.9,0.7,1.6,1.6,1.6v-3.1C146.6,57.4,145.9,58.1,145.9,59z"/>
		<path class="st0" d="M146.2,73.7c0,0.7,0.5,1.2,1.2,1.2v-2.4C146.8,72.5,146.2,73.1,146.2,73.7z"/>
	</g>
</g>
</svg>
